<?xml version="1.0" encoding="utf-8"?>
<!-- Generator: Adobe Illustrator 27.5.0, SVG Export Plug-In . SVG Version: 6.00 Build 0)  -->
<svg version="1.1" id="Layer_1" xmlns="http://www.w3.org/2000/svg" xmlns:xlink="http://www.w3.org/1999/xlink" x="0px" y="0px"
	 viewBox="0 0 324.472 173.697" style="enable-background:new 0 0 324.472 173.697;" xml:space="preserve">
<g>
	<g>
		<g>
			<path style="fill:#71B032;" d="M98.041,3.943c-2.188,1.343-2.478,3.678-5.608,3.021c-2.019-0.421-3.459-0.211-5.112,1.03
				c-2.006,1.508-3.451,3.982-5.099,5.86c-1.521,1.733-3.339,3.361-4.505,5.363c-0.923,1.59,0.113,3.889,0.811,5.353
				c0.891,1.877,2.058,3.619,2.979,5.487c0.701,1.416,0.9,3-0.038,4.351c-0.555,0.799-1.052,1.526-1.31,2.485
				c-0.609,2.264,1.101,4.6,2.474,6.198c2.034,2.36,4.446,4.614,6.84,6.602c4.383,3.636,9.512,5.939,14.809,7.844
				c0.041,0.069,0.086,0.145,0.146,0.232c0.96,1.353,1.991,2.465,3.635,2.907c1.25,0.338,2.597,0.466,3.876,0.696
				c1.488,0.266,2.944,0.963,4.306,1.603c2.171,1.024,4.232,2.27,6.398,3.303c2.568,1.235,5.265,2.2,7.95,3.15
				c5.188,1.84,10.301,3.88,15.52,5.638c0.995,0.336,9.689,3.835,9.614,1.069c-0.103-3.896-4.621-5.553-7.372-7.232
				c-4.51-2.749-8.421-6.124-10.928-10.834c-2.53-4.747-3.268-9.647-3.122-14.951c0.06-2.286-0.058-4.566-0.102-6.852
				c-0.03-1.555-0.657-3.018-2.006-3.884c-1.559-0.998-3.265-1.692-4.797-2.752c-1.324-0.916-2.979-2.496-1.85-4.171
				c0.567-0.843,1.286-1.483,1.695-2.434c0.553-1.281-0.603-3.288-1.147-4.385c-0.908-1.823-0.839-3.911-2.113-5.549
				c-1.089-1.394-3.243-0.988-4.753-0.922c-2.492,0.111-5.183,0.04-7.671-0.234c-2.456-0.272-3.38-1.982-4.75-3.672
				c-1.297-1.595-2.842-3.079-4.634-4.114C100.819,3.365,99.419,3.099,98.041,3.943z"/>
			<path style="fill:#1F7734;" d="M156.504,75.551c0.023,0.184,0.038,0.373,0.044,0.563c0.014,0.602-0.232,1.119-0.697,1.452
				c-1.265,0.908-4.116,0.443-9.528-1.555l-0.472-0.171c-3.068-1.032-6.146-2.181-9.126-3.289c-2.129-0.796-4.263-1.591-6.406-2.352
				c-2.52-0.892-5.375-1.908-8.032-3.182c-1.06-0.507-2.097-1.065-3.134-1.624c-1.076-0.579-2.151-1.158-3.257-1.678
				c-1.41-0.664-2.757-1.297-4.1-1.536c-0.42-0.078-0.847-0.141-1.274-0.204c-0.882-0.135-1.793-0.271-2.669-0.507
				c-1.956-0.527-3.122-1.862-4.092-3.227c-0.007-0.01-0.015-0.021-0.021-0.033c-4.423-1.599-10.034-3.941-14.787-7.886
				c-2.724-2.26-5.057-4.513-6.939-6.696c-1.063-1.238-2.507-3.118-2.76-5.137c-0.079-0.626-0.041-1.236,0.116-1.81
				c0.299-1.117,0.874-1.942,1.429-2.741c0.659-0.949,0.639-2.178-0.024-3.52c-0.428-0.866-0.91-1.705-1.39-2.542
				c-0.544-0.951-1.11-1.934-1.595-2.955c-0.503-1.059-1.052-2.29-1.211-3.555c-0.125-0.992,0.02-1.855,0.432-2.562
				c0.884-1.521,2.102-2.812,3.279-4.061c0.447-0.477,0.894-0.95,1.318-1.431c0.541-0.617,1.058-1.3,1.584-1.992
				c1.09-1.43,2.215-2.912,3.639-3.981c1.761-1.325,3.435-1.667,5.772-1.18c1.631,0.343,2.186-0.255,3.106-1.245
				c0.506-0.547,1.08-1.164,1.908-1.672c1.492-0.913,3.164-0.847,4.974,0.198c1.702,0.982,3.337,2.431,4.861,4.308
				c0.209,0.257,0.409,0.513,0.603,0.767c1.037,1.348,1.857,2.414,3.601,2.605c2.397,0.261,5.004,0.342,7.544,0.233
				c0.211-0.012,0.438-0.026,0.669-0.043c1.504-0.109,3.567-0.258,4.765,1.279c0.846,1.084,1.161,2.302,1.465,3.475
				c0.202,0.785,0.395,1.528,0.733,2.211l0.17,0.332c0.438,0.855,1.04,2.031,1.182,3.16l0,0c0.075,0.597,0.015,1.13-0.185,1.584
				c-0.307,0.71-0.739,1.247-1.158,1.765c-0.205,0.257-0.416,0.514-0.607,0.8c-0.631,0.936,0.033,1.931,1.636,3.039
				c0.798,0.553,1.639,0.999,2.537,1.471c0.756,0.401,1.511,0.802,2.237,1.265c1.476,0.948,2.35,2.617,2.382,4.558
				c0.014,0.671,0.034,1.336,0.05,2.006c0.044,1.596,0.093,3.247,0.052,4.886c-0.159,5.865,0.783,10.335,3.025,14.542
				c2.174,4.082,5.552,7.425,10.633,10.523c0.473,0.289,0.998,0.576,1.544,0.876C152.894,70.488,156.087,72.233,156.504,75.551z
				 M80.879,38.287c0.198,1.579,1.451,3.194,2.377,4.271c1.821,2.114,4.09,4.3,6.742,6.506c4.655,3.862,10.227,6.144,14.564,7.701
				c0.184,0.067,0.339,0.196,0.434,0.367c0.03,0.053,0.066,0.111,0.111,0.178c0.905,1.274,1.798,2.207,3.172,2.579
				c0.787,0.21,1.651,0.34,2.487,0.467c0.444,0.065,0.885,0.133,1.319,0.211c1.556,0.279,3.067,0.99,4.402,1.617
				c1.24,0.584,2.34,1.176,3.443,1.77c1.014,0.545,2.03,1.091,3.068,1.59c2.577,1.237,5.39,2.236,7.868,3.116
				c2.152,0.762,4.29,1.559,6.429,2.355c2.967,1.107,6.036,2.251,9.08,3.275l0.514,0.187c6.996,2.581,7.936,1.842,8.019,1.749
				c-0.003-0.207-0.012-0.34-0.028-0.471c-0.312-2.486-2.984-3.947-5.339-5.236c-0.568-0.313-1.118-0.612-1.61-0.914
				c-5.341-3.256-8.91-6.8-11.226-11.152c-2.378-4.459-3.383-9.197-3.217-15.354c0.043-1.593-0.007-3.221-0.05-4.797
				c-0.018-0.671-0.039-1.343-0.05-2.019c-0.006-0.178-0.019-0.355-0.041-0.529c-0.103-0.822-0.462-1.955-1.59-2.681
				c-0.686-0.438-1.402-0.816-2.119-1.194c-0.896-0.474-1.822-0.964-2.702-1.573c-2.464-1.707-3.174-3.651-2.063-5.302
				c0.218-0.326,0.456-0.621,0.69-0.914c0.367-0.454,0.714-0.882,0.934-1.388c0.296-0.693-0.435-2.332-0.955-3.348l-0.176-0.346
				c-0.418-0.838-0.64-1.699-0.856-2.53c-0.275-1.059-0.533-2.062-1.17-2.882c-0.663-0.845-2.092-0.743-3.355-0.651
				c-0.247,0.018-0.488,0.035-0.713,0.045c-2.623,0.116-5.319,0.033-7.798-0.24c-2.437-0.271-3.597-1.776-4.718-3.231
				c-0.186-0.241-0.379-0.492-0.576-0.738c-1.399-1.719-2.883-3.039-4.41-3.921c-1.284-0.741-2.332-0.81-3.298-0.219
				c-0.636,0.391-1.108,0.901-1.564,1.391c-0.985,1.061-2.105,2.267-4.642,1.735c-1.894-0.394-3.059-0.165-4.451,0.88
				c-1.242,0.935-2.298,2.325-3.32,3.67c-0.547,0.721-1.092,1.434-1.657,2.078c-0.437,0.496-0.895,0.984-1.356,1.472
				c-1.113,1.185-2.267,2.406-3.056,3.766c-0.598,1.025,0.117,3.058,0.842,4.586c0.459,0.965,1.007,1.921,1.536,2.844
				c0.497,0.869,0.996,1.738,1.439,2.632c0.935,1.902,0.904,3.735-0.099,5.181c-0.497,0.715-0.967,1.39-1.192,2.23
				C80.851,37.475,80.827,37.874,80.879,38.287z"/>
		</g>
		<path style="fill:#83B52D;" d="M111.563,11.937c-2.105-0.232-3.087-1.525-4.185-2.953c-2.316-0.142-4.579,0.07-6.579,1.309
			c-3.43,2.125-4.583,6.247-7.698,8.681c-0.132,0.101-0.3,0.039-0.397-0.073c-0.333-0.389-0.762-0.692-1.082-1.089
			c-2.333,2.779-1.349,7.396-0.931,10.672c0.033,0.256-0.281,0.393-0.469,0.241c-2.19-1.745-3.089-4.49-4.888-6.548
			c0.446,3.127,1.801,6.543,3.478,9.13c1.551,2.388,3.699,4.596,4.447,7.409c0.06,0.226-0.15,0.48-0.392,0.355
			c-1.627-0.85-2.832-2.262-4.016-3.629c-1.183-1.368-2.487-3.115-4.257-3.767c0.347,0.901,0.754,1.908,0.554,2.833
			c-0.214,0.986-1.462,1.588-2.174,2.131c-1.105,0.841-2.097,1.779-2.562,3.048c0.503,1.281,1.42,2.467,2.222,3.403
			c2.034,2.36,4.446,4.614,6.84,6.602c4.383,3.636,9.512,5.939,14.809,7.844c0.041,0.069,0.086,0.145,0.146,0.232
			c0.96,1.353,1.991,2.465,3.635,2.907c1.25,0.338,2.597,0.466,3.876,0.696c1.488,0.266,2.944,0.963,4.306,1.603
			c2.171,1.024,4.232,2.27,6.398,3.303c2.568,1.235,5.265,2.2,7.95,3.15c5.188,1.84,10.301,3.88,15.52,5.638
			c0.995,0.336,9.689,3.835,9.614,1.069c-0.103-3.896-4.621-5.553-7.372-7.232c-4.51-2.749-8.421-6.124-10.928-10.834
			c-2.53-4.747-3.268-9.647-3.122-14.951c0.06-2.286-0.058-4.566-0.102-6.852c-0.03-1.555-0.657-3.018-2.006-3.884
			c-1.559-0.998-3.265-1.692-4.797-2.752c-1.324-0.916-2.979-2.496-1.85-4.171c0.567-0.843,1.286-1.483,1.695-2.434
			c0.553-1.281-0.603-3.288-1.147-4.385c-0.908-1.823-0.839-3.911-2.113-5.549c-1.089-1.394-3.243-0.988-4.753-0.922
			C116.742,12.282,114.051,12.211,111.563,11.937z"/>
		<g>
			<path style="fill:#71B032;" d="M69.728,130.914c2.039-0.344,4.007-1.198,5.78-2.241c1.871-1.107,3.331-2.386,5.73-1.787
				c2.43,0.609,4.972,1.478,7.272,2.453c1.391,0.591,3.271,1.717,4.773,0.79c1.766-1.089,2.431-3.073,3.916-4.462
				c0.895-0.838,2.678-2.316,2.605-3.714c-0.054-1.034-0.505-1.88-0.743-2.868c-0.472-1.964,1.63-2.868,3.187-3.264
				c1.806-0.463,3.651-0.516,5.457-0.911c1.565-0.34,2.663-1.492,3.232-2.938c0.837-2.13,1.743-4.224,2.481-6.391
				c1.715-5.02,4.113-9.355,8.136-12.923c3.995-3.543,8.836-5.342,14.021-6.35c3.166-0.614,7.975-0.589,9.428-4.206
				c1.037-2.566-8.333-2.317-9.383-2.348c-5.501-0.174-11.008-0.043-16.51-0.125c-2.848-0.044-5.712-0.079-8.551,0.179
				c-2.389,0.221-4.756,0.671-7.148,0.869c-1.499,0.127-3.103,0.27-4.596,0.002c-1.274-0.23-2.585-0.575-3.874-0.698
				c-1.694-0.156-3.048,0.529-4.421,1.462c-0.087,0.057-0.156,0.112-0.215,0.166c-5.63-0.063-11.241,0.309-16.616,2.191
				c-2.938,1.026-5.982,2.297-8.712,3.803c-1.845,1.019-4.262,2.614-4.48,4.948c-0.092,0.988,0.121,1.842,0.363,2.786
				c0.409,1.589-0.332,3.004-1.479,4.09c-1.516,1.428-3.215,2.655-4.705,4.103c-1.164,1.132-2.938,2.923-2.623,4.737
				c0.391,2.28,1.528,4.443,2.349,6.596c0.891,2.335,1.384,5.158,2.738,7.269c1.116,1.742,2.393,2.442,4.433,2.747
				c3.164,0.479,2.621,2.768,4.206,4.786C66.775,130.936,68.182,131.174,69.728,130.914z"/>
			<path style="fill:#1F7734;" d="M145.894,81.521c0.036,0.288-0.008,0.587-0.127,0.886c-1.378,3.42-5.205,3.976-8.286,4.423
				c-0.614,0.092-1.204,0.178-1.747,0.281c-5.848,1.136-10.182,3.095-13.635,6.16c-3.532,3.131-6.043,7.127-7.905,12.573
				c-0.526,1.542-1.141,3.062-1.734,4.533c-0.257,0.63-0.512,1.26-0.76,1.891c-0.714,1.815-2.108,3.069-3.822,3.443
				c-0.843,0.182-1.695,0.297-2.545,0.406c-1.001,0.132-1.944,0.257-2.883,0.497c-1.344,0.343-2.914,1.004-2.593,2.28
				c0.079,0.332,0.186,0.648,0.291,0.958c0.179,0.532,0.362,1.08,0.44,1.704l0,0c0.015,0.118,0.026,0.235,0.032,0.355
				c0.088,1.648-1.52,3.122-2.583,4.098l-0.279,0.256c-0.558,0.52-0.996,1.151-1.461,1.814c-0.694,0.995-1.412,2.026-2.584,2.749
				c-1.658,1.024-3.539,0.166-4.912-0.462c-0.212-0.096-0.416-0.187-0.61-0.272c-2.342-0.994-4.814-1.828-7.153-2.412
				c-1.704-0.428-2.842,0.284-4.285,1.187c-0.27,0.169-0.544,0.342-0.828,0.508c-2.09,1.23-4.129,2.018-6.061,2.347
				c-2.063,0.343-3.654-0.179-4.73-1.554c-0.599-0.76-0.922-1.541-1.207-2.231c-0.516-1.247-0.83-1.998-2.476-2.249
				c-2.361-0.354-3.809-1.255-5.001-3.113c-0.961-1.501-1.5-3.281-2.022-5.002c-0.252-0.83-0.5-1.651-0.793-2.417
				c-0.227-0.598-0.48-1.197-0.733-1.798c-0.67-1.584-1.361-3.219-1.658-4.954c0,0,0-0.001,0-0.004
				c-0.299-2.383,1.756-4.381,2.861-5.458c0.808-0.785,1.675-1.507,2.516-2.206c0.746-0.623,1.492-1.242,2.197-1.906
				c0.75-0.707,1.607-1.905,1.249-3.287c-0.276-1.075-0.478-2.095-0.386-3.068c0.254-2.724,2.92-4.494,4.901-5.59
				c2.521-1.39,5.496-2.69,8.836-3.859c5.826-2.042,11.905-2.281,16.61-2.239c0.01-0.008,0.018-0.016,0.028-0.021
				c1.387-0.945,2.946-1.787,4.961-1.602c0.915,0.088,1.824,0.278,2.705,0.46c0.417,0.089,0.831,0.174,1.24,0.248
				c1.344,0.244,2.829,0.119,4.263-0.002c1.348-0.112,2.569-0.283,3.79-0.454c1.155-0.157,2.31-0.317,3.469-0.424
				c2.967-0.269,5.979-0.221,8.638-0.183c2.266,0.035,4.534,0.032,6.801,0.03c3.184-0.005,6.479-0.007,9.724,0.095l0.501,0.004
				C142.841,78.958,145.666,79.703,145.894,81.521z M98.197,118.914c-0.132-1.051,0.192-2.956,3.848-3.888
				c1.032-0.264,2.07-0.399,3.075-0.533c0.806-0.101,1.613-0.207,2.411-0.383c1.602-0.347,2.345-1.678,2.645-2.439
				c0.251-0.638,0.508-1.274,0.765-1.91c0.586-1.45,1.192-2.946,1.704-4.445c1.954-5.727,4.615-9.94,8.366-13.269
				c3.682-3.268,8.263-5.348,14.41-6.544c0.565-0.109,1.184-0.2,1.826-0.292c2.798-0.408,5.975-0.87,6.999-3.415l0.019-0.068
				c-0.061-0.138-0.769-1.13-8.122-1.15l-0.547-0.004c-3.217-0.1-6.498-0.096-9.669-0.097c-2.278,0.004-4.553,0.008-6.828-0.026
				c-2.618-0.042-5.584-0.086-8.465,0.177c-1.133,0.103-2.262,0.261-3.391,0.415c-1.251,0.175-2.503,0.348-3.761,0.453
				c-1.587,0.136-3.253,0.272-4.81-0.007c-0.425-0.077-0.854-0.169-1.285-0.257c-0.835-0.175-1.699-0.354-2.522-0.433
				c-1.416-0.131-2.576,0.433-3.885,1.323c-0.05,0.036-0.094,0.07-0.131,0.103c-0.154,0.133-0.349,0.205-0.552,0.206
				c-4.611-0.052-10.633,0.147-16.337,2.147c-3.256,1.137-6.143,2.398-8.586,3.745c-1.656,0.916-3.879,2.356-4.061,4.307
				c-0.073,0.772,0.114,1.629,0.341,2.506c0.446,1.754-0.165,3.432-1.713,4.888c-0.729,0.69-1.501,1.333-2.274,1.973
				c-0.815,0.681-1.66,1.383-2.42,2.125c-0.901,0.875-2.579,2.507-2.399,3.934c0.277,1.62,0.93,3.168,1.563,4.665
				c0.262,0.62,0.522,1.239,0.756,1.855c0.306,0.8,0.566,1.658,0.829,2.524c0.49,1.615,0.995,3.283,1.833,4.594
				c0.942,1.467,1.953,2.089,3.865,2.375c2.563,0.389,3.191,1.906,3.745,3.246c0.256,0.619,0.522,1.258,0.982,1.843
				c0.699,0.892,1.706,1.193,3.17,0.947c1.734-0.29,3.584-1.012,5.5-2.137c0.27-0.16,0.534-0.325,0.791-0.488
				c1.561-0.975,3.174-1.985,5.552-1.388c2.42,0.606,4.977,1.47,7.394,2.494c0.207,0.089,0.424,0.185,0.651,0.288
				c1.153,0.526,2.459,1.123,3.372,0.559c0.883-0.546,1.474-1.394,2.102-2.291c0.491-0.704,1-1.436,1.684-2.076l0.292-0.265
				c0.734-0.675,2.1-1.927,2.055-2.804c-0.006-0.079-0.012-0.159-0.022-0.237l0,0c-0.058-0.463-0.209-0.91-0.367-1.383
				c-0.121-0.358-0.241-0.72-0.333-1.102C98.233,119.154,98.212,119.031,98.197,118.914z"/>
		</g>
		<path style="fill:#83B52D;" d="M135.622,79.754c-5.501-0.174-11.008-0.043-16.51-0.125c-2.848-0.044-5.712-0.079-8.551,0.179
			c-2.389,0.221-4.756,0.671-7.148,0.869c-1.499,0.127-3.103,0.27-4.596,0.002c-1.274-0.23-2.585-0.575-3.874-0.698
			c-1.694-0.156-3.048,0.529-4.421,1.462c-0.087,0.057-0.156,0.112-0.215,0.166c-5.63-0.063-11.241,0.309-16.616,2.191
			c-2.938,1.026-5.982,2.297-8.712,3.803c-1.845,1.019-4.262,2.614-4.48,4.948c-0.038,0.404-0.016,0.785,0.031,1.159
			c1.559,0.704,3.189,1.269,4.556,2.354c0.118,0.094,0.136,0.293,0.031,0.403c-2.023,2.14-4.354,4.036-5.64,6.718
			c2.284-0.986,4.057-2.937,6.63-3.3c0.239-0.033,0.418,0.294,0.243,0.47c-2.305,2.291-4.593,4.83-5.947,7.82
			c-0.583,1.284-1.352,2.924-1.298,4.371c0.034,0.856,0.447,1.417,0.866,2.126c0.405,0.683,0.777,1.446,0.937,2.229
			c0.233,1.158-0.328,3.56,1.158,4.105c1.28,0.466,3.933,0.163,4.228,1.999c0.319,1.955-1.117,5.259,1.256,6.43
			c0.92,0.454,1.98,0.781,2.979,1.009c0.201,0.046,0.419,0.089,0.644,0.138c1.52-0.432,2.983-1.114,4.334-1.909
			c1.871-1.107,3.331-2.386,5.73-1.787c2.43,0.609,4.972,1.478,7.272,2.453c1.391,0.591,3.271,1.717,4.773,0.79
			c1.766-1.089,2.431-3.073,3.916-4.462c0.895-0.838,2.678-2.316,2.605-3.714c-0.054-1.034-0.505-1.88-0.743-2.868
			c-0.472-1.964,1.63-2.868,3.187-3.264c1.806-0.463,3.651-0.516,5.457-0.911c1.565-0.34,2.663-1.492,3.232-2.938
			c0.837-2.13,1.743-4.224,2.481-6.391c1.715-5.02,4.113-9.355,8.136-12.923c3.995-3.543,8.836-5.342,14.021-6.35
			c3.166-0.614,7.975-0.589,9.428-4.206C146.042,79.536,136.671,79.785,135.622,79.754z"/>
		<g>
			<path style="fill:#83B52D;" d="M103.912,39.946c-2.376,0.53-4.682,1.824-7.159,1.75c-1.318-0.037-2.726-1.076-3.827-1.683
				c-1.139-0.629-2.302-1.213-3.457-1.813c-1.737-0.9-4.044-2.049-6.048-1.49c-0.733,0.207-1.257,0.939-1.723,1.485
				c-0.805,0.941-1.908,0.894-3.014,0.668c-2.394-0.487-4.732-1.168-7.143-1.604c-4.06-0.727-8.039,1.674-10.537,4.708
				c-2.904,3.525-2.976,8.13-2.095,12.411c0.398,1.942,1.763,5.454-0.045,6.857c-1.439,1.116-2.247,1.387-2.272,3.378
				c-0.023,1.926,1.508,3.531,1.674,5.434c0.084,0.948-0.675,1.705-1.025,2.518c-0.27,0.629-0.101,1.506,0.179,2.099
				c0.318,0.677,1.226,1.688,1.069,2.469c-0.147,0.719-1.509,1.243-2.012,1.682c-1.421,1.232-1.034,3.432-0.681,5.018
				c0.888,4,3.718,7.279,7.959,7.522c1.966,0.112,3.58-0.808,4.924-2.136c1.821-1.804,4.232-3.128,6.671-3.842
				c5.508-1.612,10.986,1.147,15.401,4.332c4.505,3.248,8.611,7.176,12.766,10.856c4.091,3.627,8.188,7.239,12.505,10.599
				c8.166,6.351,17.014,11.796,26.405,16.153c8.728,4.052,18.339,5.898,27.937,5.359c4.271-0.238,8.477-1.074,12.364-2.896
				c2.217-1.038,4.819-2.606,6.553-4.674c0.091,0.039,0.183,0.062,0.27,0.058c1.292-0.075,3.291-0.702,3.833-2.044
				c0.586-1.446-0.413-3.11-1.369-4.162c-1.188-1.298-2.812-1.647-4.459-2.092c-2.616-0.703-5.238-0.446-7.82-1.442
				c-4.887-1.887-9.012-6.623-10.818-11.47c-1.847-4.943-3.571-9.954-5.57-14.836c-1.831-4.463-4.022-8.737-6.889-12.627
				c-1.378-1.87-3.033-3.527-4.491-5.336c-1.612-1.997-3.092-4.109-4.682-6.125c-3.048-3.854-6.28-7.705-9.854-11.083
				c-3.631-3.433-8.032-6.127-12.499-8.325c-4.707-2.317-9.793-4.334-14.861-5.697C108.053,39.379,105.932,39.493,103.912,39.946z"
				/>
			<path style="fill:#1B792B;" d="M194.349,121.738L194.349,121.738c0.075,0.599,0.005,1.166-0.205,1.687
				c-0.753,1.855-3.295,2.481-4.54,2.555c-1.917,2.116-4.58,3.629-6.53,4.542c-3.687,1.729-7.832,2.7-12.664,2.972
				c-9.703,0.542-19.5-1.339-28.327-5.437c-9.327-4.327-18.263-9.793-26.564-16.25c-4.181-3.258-8.155-6.738-12.544-10.631
				c-0.907-0.802-1.81-1.617-2.716-2.433c-3.194-2.879-6.499-5.856-9.987-8.372c-5.648-4.072-10.454-5.449-14.69-4.209
				c-2.431,0.712-4.677,2.005-6.325,3.638c-1.703,1.686-3.57,2.485-5.548,2.373c-4.243-0.241-7.662-3.446-8.711-8.163
				c-0.104-0.467-0.21-0.985-0.277-1.518c-0.247-1.964,0.153-3.367,1.22-4.295c0.189-0.166,0.474-0.341,0.788-0.529
				c0.287-0.172,0.882-0.528,0.965-0.717c-0.044-0.343-0.34-0.808-0.576-1.182c-0.172-0.273-0.332-0.53-0.437-0.756
				c-0.419-0.887-0.515-2.015-0.193-2.77c0.127-0.292,0.295-0.581,0.47-0.866c0.282-0.471,0.529-0.878,0.495-1.259
				c0-0.002-0.001-0.009-0.001-0.009c-0.104-0.826-0.423-1.525-0.762-2.261c-0.454-0.998-0.931-2.058-0.914-3.244
				c0.025-2.116,0.909-2.77,2.028-3.594c0.174-0.13,0.359-0.268,0.557-0.418c0.523-0.408,0.698-1.212,0.541-2.466
				c-0.099-0.789-0.316-1.64-0.508-2.388c-0.111-0.434-0.215-0.839-0.288-1.193c-0.137-0.675-0.253-1.356-0.338-2.039
				c-0.571-4.546,0.305-8.264,2.604-11.057c2.437-2.955,6.688-5.82,11.313-4.992c1.375,0.247,2.736,0.579,4.053,0.898
				c1.033,0.248,2.066,0.497,3.11,0.711c1.171,0.237,1.775,0.131,2.229-0.401l0.181-0.214c0.473-0.571,1.062-1.276,1.942-1.526
				c2.378-0.662,4.947,0.668,6.646,1.55l0.888,0.459c0.868,0.447,1.734,0.894,2.588,1.364c0.235,0.13,0.488,0.281,0.747,0.436
				c0.88,0.525,1.878,1.123,2.71,1.146c1.448,0.042,2.862-0.437,4.355-0.95c0.843-0.286,1.713-0.588,2.599-0.785
				c2.394-0.534,4.598-0.538,6.551-0.011c4.851,1.306,9.9,3.237,15.009,5.753c5.25,2.583,9.405,5.352,12.703,8.465
				c3.86,3.649,7.335,7.886,9.932,11.171c0.739,0.935,1.455,1.895,2.172,2.853c0.822,1.099,1.644,2.198,2.507,3.267
				c0.595,0.735,1.224,1.447,1.85,2.16c0.905,1.022,1.833,2.075,2.663,3.202c2.635,3.577,4.922,7.767,6.987,12.803
				c1.379,3.375,2.65,6.86,3.876,10.226c0.563,1.549,1.125,3.092,1.703,4.633c1.852,4.966,5.912,9.282,10.345,10.993
				c1.364,0.524,2.746,0.676,4.211,0.839c1.147,0.128,2.332,0.256,3.529,0.579l0.365,0.097c1.583,0.421,3.224,0.855,4.482,2.23
				C193.185,119.025,194.167,120.286,194.349,121.738z M56.345,82.287c0.06,0.48,0.156,0.945,0.252,1.368
				c0.703,3.17,2.966,6.641,7.203,6.881c1.517,0.085,2.924-0.537,4.303-1.901c1.838-1.822,4.329-3.258,7.017-4.045
				c4.755-1.392,10.024,0.064,16.109,4.452c3.562,2.567,6.898,5.577,10.126,8.484c0.902,0.813,1.803,1.627,2.706,2.426
				c4.367,3.873,8.32,7.338,12.464,10.562c8.203,6.381,17.035,11.783,26.245,16.058c8.587,3.984,18.112,5.812,27.548,5.285
				c4.617-0.26,8.564-1.18,12.061-2.819c1.903-0.892,4.535-2.39,6.272-4.463c0.231-0.277,0.615-0.369,0.949-0.227
				c1.16-0.076,2.673-0.672,3.025-1.541c0.347-0.853-0.147-2.123-1.218-3.299c-0.935-1.021-2.214-1.361-3.692-1.75l-0.374-0.101
				c-1.073-0.289-2.146-0.408-3.28-0.532c-1.505-0.166-3.06-0.337-4.621-0.939c-4.849-1.87-9.281-6.561-11.292-11.944
				c-0.576-1.546-1.142-3.097-1.707-4.647c-1.22-3.354-2.485-6.822-3.853-10.166c-2.014-4.912-4.236-8.986-6.789-12.455
				c-0.787-1.066-1.693-2.094-2.572-3.09c-0.644-0.73-1.286-1.459-1.897-2.216c-0.876-1.083-1.711-2.199-2.543-3.313
				c-0.711-0.948-1.416-1.892-2.145-2.816c-2.722-3.443-6.012-7.442-9.772-10.996c-3.174-2.998-7.198-5.677-12.301-8.187
				c-5.014-2.467-9.964-4.364-14.712-5.64c-1.695-0.458-3.635-0.448-5.767,0.03c-0.8,0.178-1.591,0.448-2.43,0.735
				c-1.565,0.535-3.186,1.089-4.931,1.037c-1.259-0.036-2.451-0.748-3.504-1.377c-0.242-0.146-0.475-0.285-0.696-0.407
				c-0.841-0.466-1.695-0.903-2.549-1.345l-0.891-0.46c-1.472-0.764-3.695-1.918-5.45-1.429c-0.389,0.111-0.778,0.582-1.123,0.998
				l-0.197,0.233c-1.106,1.291-2.612,1.181-3.802,0.937c-1.064-0.215-2.116-0.471-3.168-0.725c-1.293-0.312-2.629-0.636-3.958-0.875
				c-3.928-0.704-7.616,1.822-9.758,4.42c-2.001,2.43-2.757,5.731-2.244,9.811c0.081,0.642,0.19,1.281,0.32,1.914
				c0.069,0.332,0.165,0.708,0.268,1.113c0.204,0.797,0.436,1.699,0.549,2.593c0.236,1.877-0.145,3.173-1.163,3.965
				c-0.208,0.16-0.405,0.305-0.587,0.439c-1.038,0.767-1.35,0.998-1.367,2.299c-0.005,0.85,0.367,1.663,0.769,2.544
				c0.376,0.82,0.764,1.671,0.884,2.629c0.001,0.008,0.019,0.17,0.018,0.178c0.082,0.914-0.366,1.654-0.724,2.248
				c-0.133,0.224-0.269,0.443-0.366,0.667c-0.13,0.309-0.053,0.955,0.171,1.429c0.079,0.171,0.207,0.365,0.339,0.575
				c0.447,0.708,0.951,1.613,0.79,2.402c-0.171,0.847-1.032,1.363-1.722,1.776c-0.219,0.132-0.424,0.247-0.556,0.361
				C56.382,79.982,56.17,80.89,56.345,82.287z"/>
		</g>
		<path style="opacity:0.4;fill:#83B52D;" d="M103.912,39.946c-2.376,0.53-4.682,1.824-7.159,1.75
			c-1.318-0.037-2.726-1.076-3.827-1.683c-1.139-0.629-2.302-1.213-3.457-1.813c-1.737-0.9-4.044-2.049-6.048-1.49
			c-0.733,0.207-1.257,0.939-1.723,1.485c-0.805,0.941-1.908,0.894-3.014,0.668c-2.394-0.487-4.732-1.168-7.143-1.604
			c-4.06-0.727-8.039,1.674-10.537,4.708c-2.904,3.525-2.976,8.13-2.095,12.411c0.398,1.942,1.763,5.454-0.045,6.857
			c-1.439,1.116-2.247,1.387-2.272,3.378c-0.023,1.926,1.508,3.531,1.674,5.434c0.084,0.948-0.675,1.705-1.025,2.518
			c-0.27,0.629-0.101,1.506,0.179,2.099c0.318,0.677,1.226,1.688,1.069,2.469c-0.147,0.719-1.509,1.243-2.012,1.682
			c-1.421,1.232-1.034,3.432-0.681,5.018c0.888,4,3.718,7.279,7.959,7.522c1.966,0.112,3.58-0.808,4.924-2.136
			c1.821-1.804,4.232-3.128,6.671-3.842c5.508-1.612,10.986,1.147,15.401,4.332c4.505,3.248,8.611,7.176,12.766,10.856
			c4.091,3.627,8.188,7.239,12.505,10.599c8.166,6.351,17.014,11.796,26.405,16.153c8.728,4.052,18.339,5.898,27.937,5.359
			c4.271-0.238,8.477-1.074,12.364-2.896c2.217-1.038,4.819-2.606,6.553-4.674c0.091,0.039,0.183,0.062,0.27,0.058
			c1.292-0.075,3.291-0.702,3.833-2.044c0.586-1.446-0.413-3.11-1.369-4.162c-1.188-1.298-2.812-1.647-4.459-2.092
			c-2.616-0.703-5.238-0.446-7.82-1.442c-4.887-1.887-9.012-6.623-10.818-11.47c-1.847-4.943-3.571-9.954-5.57-14.836
			c-1.831-4.463-4.022-8.737-6.889-12.627c-1.378-1.87-3.033-3.527-4.491-5.336c-1.612-1.997-3.092-4.109-4.682-6.125
			c-3.048-3.854-6.28-7.705-9.854-11.083c-3.631-3.433-8.032-6.127-12.499-8.325c-4.707-2.317-9.793-4.334-14.861-5.697
			C108.053,39.379,105.932,39.493,103.912,39.946z M101.823,76.67c0.136,0.159-0.005,0.443-0.207,0.447
			c-0.729,0.013-1.455,0.038-2.179,0.076c-0.056,0.059-0.134,0.096-0.242,0.075c-0.097-0.019-0.196-0.026-0.295-0.047
			c-1.058,0.069-2.11,0.182-3.161,0.38c-0.362,0.07-0.409-0.497-0.052-0.565c0.125-0.025,0.252-0.038,0.379-0.061
			c-4.592-0.009-9.297,1.675-13.424,3.358c-5.817,2.373-11.436,5.213-17.252,7.603c-0.23,0.098-0.466-0.172-0.357-0.392
			c0.701-1.376,1.836-2.443,2.88-3.568c-1.111,0.293-2.218,0.605-3.364,0.751c-0.172,0.022-0.358-0.158-0.307-0.334
			c0.503-1.746-1.712-0.947-2.597-1.522c-0.661-0.427-0.968-1.239-0.752-2.016c0.678-2.44,3.394-4.393,5.393-5.747
			c4.878-3.304,10.84-4.913,16.699-5.597c-3.934-0.273-7.906,0.089-11.816-0.562c-0.245-0.04-0.315-0.375-0.111-0.515
			C81.156,61.438,94.813,68.424,101.823,76.67z M101.116,53.129c0.109,1.72,0.339,3.365,1.589,4.644
			c0.944,0.97,1.954,1.855,2.858,2.867c1.625,1.82,4.412,4.53,4.103,7.229c-0.019,0.159-0.183,0.241-0.33,0.229
			c-6.247-0.658-11.508-4.371-17.281-6.498c-3.799-1.401-7.819-2.21-11.864-2.394c-2.226,0.06-4.455,0.147-6.652,0.472
			c-3.587,0.526-6.86,1.742-9.861,3.785c-0.251,0.171-0.517-0.099-0.421-0.355c0.837-2.21,2.769-3.558,4.19-5.356
			c0.837-1.055,0.761-1.134-0.391-1.819c-0.374-0.222-0.754-0.438-1.121-0.677c-0.827-0.539-1.499-1.11-1.996-1.972
			c-0.076-0.132-0.067-0.305,0.073-0.397c2.729-1.806,0.718-4.412,0.733-6.952c0.01-1.645,1.292-3.818,2.923-4.347
			c1.671-0.541,3.376,0.092,4.913,0.773c1.887,0.839,4.126,2.314,6.048,0.795c1.073-0.851,2.333-1.696,3.687-0.783
			c1.675,1.126,2.64,3.268,3.551,4.994c1.217,2.302,2.685,4.407,4.265,6.478c1.841,2.416,3.828,4.741,6.259,6.568
			c-1.949-6.656-8.209-11.203-9.505-18.18c-0.036-0.199,0.166-0.319,0.334-0.307C93.679,42.398,100.649,45.924,101.116,53.129z"/>
		<path style="opacity:0.4;fill:#83B52D;" d="M161.928,113.388c-9.314-4.016-17.623-9.785-25.148-16.544
			c-7.264-6.529-13.929-13.703-21.377-20.034C107.533,70.127,98.687,64.471,88.549,62c-3.851-0.941-7.787-1.362-11.751-1.115
			c-3.134,0.194-7.12,0.784-8.976,3.632c6.482-1.865,13.904-1.561,20.182,0.916c5.577,2.199,10.307,5.748,14.269,10.223
			c2.878,3.254,5.398,6.796,7.963,10.297c2.844,3.875,5.915,7.604,9.168,11.141c6.346,6.908,13.525,13.159,21.734,17.766
			c8.971,5.033,18.898,7.871,29.154,8.594c5.445,0.381,11.078,0.355,16.488-0.475c2.108-0.32,4.551-0.404,6.775-0.959
			c-0.076-1.132-0.82-2.273-1.54-3.064c-0.425-0.46-0.904-0.802-1.42-1.072c-1.988,0.15-3.979,0.192-5.911,0.175
			c-3.687-0.033-7.354-0.252-10.979-0.974C169.661,116.281,165.716,115.02,161.928,113.388z"/>
		<g>
			<path style="fill:#83B52D;" d="M111.105,12.556c0.185,1.193,1.016,2.192,2.001,2.849c0.576,0.384,1.142,0.456,1.817,0.451
				c1.529-0.016,2.872-0.147,4.411,0.167c2.707,0.549,5.291,2.119,7.162,4.125c1.495,1.602,2.28,3.641,3.249,5.559
				c0.308,0.61,1.249,2.744,2.234,2.49c0.524-0.134,0.946-0.479,1.338-0.83c1.047-0.934,1.965-1.211,3.368-0.889
				c3.043,0.701,4.359,3.237,4.74,6.066c0.31,2.314,0.313,4.414,1.086,6.665c1.477,4.292,3.99,7.964,7.34,11
				c3.642,3.304,7.397,6.502,11.6,9.075c4.041,2.47,8.065,4.791,12.318,6.903c4.644,2.309,9.563,4.102,13.464,7.618
				c3.623,3.27,6.324,7.524,8.345,11.931c2.215,4.832,3.027,9.89,3.166,15.178c0.144,5.388-0.245,10.864-1.153,16.172
				c-0.408,2.4-1.103,4.603-1.89,6.899c-0.116,0.338-0.258,0.665-0.415,0.981c-0.671-0.004-1.365-0.781-1.903-1.064
				c-0.326-0.173-1.367-0.206-1.6,0.041c-1.75,1.85-4.597,1.546-6.841,1.138c-1.259-0.228-2.494-0.503-3.68-0.989
				c-0.912-0.373-1.772-0.865-2.725-1.142c-2.161-0.625-4.716-1.058-6.564-2.352c-3.381-2.364-4.913-7.35-5.83-11.165
				c-0.847-3.549-1.582-7.132-3.627-10.223c-2.159-3.259-5.566-4.926-9.458-4.336c-4.374,0.663-7.923,3.905-11.54,6.164
				c-4.118,2.577-8.521,4.057-13.232,2.23c-4.517-1.751-7.845-5.61-10.148-9.744c-5.014-9.001-6.782-19.034-6.011-29.223
				c0.109-1.453,0.483-2.967-0.747-4.083c-1.401-1.271-3.312-0.19-4.761-1.397c-1.78-1.482-2.294-4.885-2.417-7.007
				c-0.061-1.076-0.176-2.019,0.215-3.056c0.274-0.729,0.202-1.274-0.164-1.944c-0.791-1.448-2.264-1.424-3.593-2.033
				c-2.562-1.178-4.301-2.604-5.548-5.183c-2.219-4.594-1.879-9.736-0.592-14.535c1.126-4.193,3.114-8.407,6.172-11.535
				c1.406-1.441,3.072-2.256,4.968-2.85C107.531,10.087,110.741,10.225,111.105,12.556z"/>
			<path style="fill:#1B792B;" d="M199.19,95.802c0.202,1.604,0.322,3.27,0.374,5.088c0.144,5.465-0.251,10.963-1.168,16.336
				c-0.398,2.34-1.057,4.498-1.923,7.022c-0.129,0.377-0.283,0.734-0.456,1.079c-0.136,0.282-0.426,0.457-0.738,0.457
				c-0.722-0.004-1.325-0.465-1.811-0.831c-0.169-0.127-0.324-0.251-0.468-0.327c-0.125-0.044-0.526-0.06-0.718-0.025
				c-1.961,1.969-4.88,1.756-7.488,1.287c-1.165-0.211-2.529-0.498-3.846-1.038c-0.335-0.139-0.663-0.29-0.991-0.443
				c-0.564-0.262-1.096-0.508-1.651-0.67c-0.469-0.137-0.956-0.261-1.451-0.389c-1.865-0.485-3.795-0.985-5.357-2.078
				c-3.578-2.503-5.168-7.54-6.153-11.647l-0.203-0.85c-0.777-3.284-1.508-6.386-3.313-9.108c-2.023-3.057-5.175-4.508-8.651-3.98
				c-3.108,0.471-5.864,2.387-8.529,4.237c-0.904,0.63-1.802,1.252-2.701,1.813c-5.191,3.25-9.629,3.98-13.961,2.299
				c-4.118-1.596-7.772-5.092-10.569-10.112c-4.84-8.691-6.928-18.858-6.11-29.682l0.06-0.64c0.117-1.179,0.133-2.163-0.54-2.776
				c-0.469-0.424-1.021-0.469-1.886-0.511c-0.901-0.044-1.924-0.092-2.849-0.863c-1.668-1.387-2.323-4.098-2.578-6.128
				c-0.066-0.523-0.107-1.019-0.132-1.459l-0.021-0.328c-0.061-0.97-0.125-1.969,0.285-3.065c0.187-0.498,0.16-0.766-0.114-1.265
				c-0.387-0.704-0.965-0.913-1.956-1.222c-0.418-0.132-0.847-0.268-1.26-0.459c-2.93-1.348-4.709-3.015-5.943-5.573
				c-2.004-4.149-2.229-9.213-0.647-15.102c0.906-3.376,2.748-8.182,6.378-11.899c1.356-1.388,2.993-2.33,5.309-3.058
				c1.478-0.462,3.613-0.529,5.052,0.365c0.804,0.501,1.306,1.252,1.45,2.171c0.13,0.851,0.729,1.685,1.643,2.295
				c0.357,0.236,0.712,0.319,1.355,0.313l0.938-0.019c1.202-0.032,2.339-0.06,3.647,0.204c2.762,0.559,5.53,2.153,7.599,4.367
				c1.265,1.358,2.042,2.979,2.794,4.544c0.192,0.403,0.385,0.808,0.584,1.203l0.1,0.195c0.767,1.574,1.143,1.834,1.267,1.869
				c0.287-0.089,0.62-0.367,0.929-0.644c1.278-1.14,2.465-1.453,4.098-1.078c3.01,0.696,4.865,3.033,5.368,6.757l0.035,0.276
				c0.069,0.549,0.123,1.088,0.177,1.619c0.05,0.508,0.1,1.007,0.163,1.506c0.106,0.841,0.276,1.953,0.673,3.106
				c1.396,4.06,3.788,7.648,7.116,10.659c3.458,3.137,7.242,6.394,11.476,8.983c4.645,2.838,8.541,5.021,12.258,6.868
				c1.044,0.52,2.103,1.015,3.162,1.506c3.627,1.689,7.376,3.435,10.48,6.239c3.339,3.01,6.212,7.114,8.543,12.195
				C197.769,88.554,198.707,91.958,199.19,95.802z M194.846,123.929c0.027-0.069,0.055-0.141,0.077-0.213
				c0.84-2.447,1.477-4.537,1.858-6.769c0.9-5.266,1.286-10.655,1.142-16.015c-0.16-5.94-1.135-10.579-3.093-14.857
				c-2.237-4.877-4.979-8.801-8.149-11.663c-2.926-2.638-6.398-4.256-10.076-5.968c-1.072-0.499-2.144-0.998-3.201-1.524
				c-3.76-1.871-7.696-4.074-12.382-6.939c-4.354-2.66-8.206-5.977-11.722-9.166c-3.535-3.204-6.078-7.019-7.566-11.34
				c-0.445-1.297-0.634-2.517-0.749-3.436c-0.064-0.512-0.118-1.026-0.168-1.547c-0.052-0.519-0.108-1.044-0.175-1.578l-0.035-0.26
				c-0.405-3.035-1.79-4.844-4.11-5.379c-1.102-0.254-1.765-0.076-2.636,0.701c-0.441,0.393-0.967,0.828-1.681,1.012
				c-1.547,0.402-2.583-1.72-3.084-2.738l-0.084-0.175c-0.205-0.406-0.406-0.82-0.603-1.231c-0.729-1.525-1.419-2.964-2.513-4.136
				c-1.84-1.975-4.293-3.386-6.728-3.882c-1.122-0.229-2.169-0.201-3.277-0.173l-0.963,0.022c-0.716,0.006-1.487-0.063-2.281-0.591
				c-1.294-0.863-2.153-2.103-2.354-3.401c-0.068-0.451-0.297-0.788-0.695-1.034c-0.938-0.583-2.604-0.534-3.696-0.193
				c-2.044,0.642-3.47,1.455-4.626,2.64c-3.382,3.462-5.112,7.989-5.969,11.179c-1.478,5.502-1.291,10.174,0.54,13.963
				c1.071,2.217,2.563,3.606,5.153,4.797c0.349,0.161,0.711,0.273,1.064,0.382c1.023,0.32,2.183,0.683,2.904,2
				c0.51,0.931,0.563,1.692,0.212,2.625c-0.288,0.769-0.242,1.482-0.186,2.386l0.022,0.337c0.023,0.41,0.062,0.867,0.122,1.352
				c0.308,2.455,1.019,4.258,2,5.072c0.504,0.422,1.141,0.45,1.879,0.485c0.927,0.044,1.979,0.096,2.907,0.934
				c0.64,0.582,1.004,1.299,1.116,2.192c0.084,0.665,0.018,1.322-0.046,1.962l-0.056,0.601c-0.795,10.504,1.223,20.349,5.91,28.762
				c1.818,3.265,4.982,7.54,9.729,9.377c3.81,1.481,7.783,0.796,12.501-2.157c0.879-0.549,1.751-1.155,2.634-1.769
				c2.818-1.96,5.732-3.982,9.216-4.51c4.134-0.627,7.875,1.087,10.264,4.692c1.965,2.968,2.767,6.358,3.54,9.638l0.203,0.849
				c0.844,3.527,2.335,8.47,5.498,10.682c1.321,0.926,3.104,1.389,4.828,1.836c0.51,0.133,1.014,0.263,1.498,0.403
				c0.677,0.195,1.291,0.48,1.885,0.758c0.305,0.143,0.611,0.286,0.922,0.412c1.177,0.483,2.437,0.748,3.515,0.941
				c2.216,0.4,4.678,0.608,6.099-0.894c0.604-0.638,2.105-0.454,2.577-0.205c0.213,0.112,0.451,0.285,0.695,0.471
				C194.566,123.729,194.709,123.837,194.846,123.929z"/>
		</g>
		<path style="fill:#83B52D;" d="M105.658,10.675c-1.896,0.593-3.562,1.409-4.968,2.85c-3.058,3.128-5.046,7.343-6.172,11.535
			c-1.288,4.799-1.628,9.942,0.592,14.535c1.247,2.579,2.986,4.006,5.548,5.183c1.33,0.609,2.802,0.585,3.593,2.033
			c0.366,0.67,0.437,1.215,0.164,1.944c-0.391,1.037-0.276,1.98-0.215,3.056c0.123,2.121,0.637,5.525,2.417,7.007
			c1.449,1.207,3.36,0.126,4.761,1.397c1.23,1.116,0.857,2.629,0.747,4.083c-0.771,10.19,0.998,20.223,6.011,29.223
			c2.303,4.133,5.631,7.992,10.148,9.744c4.711,1.827,9.113,0.348,13.232-2.23c3.617-2.259,7.166-5.501,11.54-6.164
			c3.892-0.59,7.299,1.077,9.458,4.336c2.044,3.091,2.779,6.674,3.627,10.223c0.917,3.815,2.449,8.801,5.83,11.165
			c1.847,1.294,4.403,1.727,6.564,2.352c0.953,0.277,1.813,0.769,2.725,1.142c1.186,0.486,2.42,0.761,3.68,0.989
			c2.244,0.408,5.091,0.712,6.841-1.138c0.234-0.247,1.274-0.215,1.6-0.041c0.538,0.283,1.231,1.06,1.903,1.064
			c0.157-0.316,0.299-0.643,0.415-0.981c0.788-2.296,1.482-4.499,1.89-6.899c0.908-5.308,1.297-10.784,1.153-16.172
			c-0.139-5.288-0.951-10.346-3.166-15.178c-1.663-3.629-3.796-7.14-6.517-10.096c-2.618-1.735-5.659-2.957-8.504-3.985
			c-7.943-2.869-16.248-4.362-24.342-6.704c-6.865-1.987-13.389-4.964-19.384-8.845c-5.888-3.813-11.256-8.556-15.603-14.067
			c-2.25-2.845-4.233-5.874-5.916-9.09c-0.829-1.579-1.625-3.215-2.208-4.904c-0.581-1.684-1.115-3.389-1.886-5.001
			c-1.111,0.731-1.754,1.99-2.728,2.886c-0.184,0.17-0.456,0.099-0.499-0.157c-0.092-0.529-0.307-1.001-0.499-1.486
			c-0.776,1.5-2.287,2.497-3.981,2.767c-1.365,0.213-3.198,0.135-4.029-1.164c-0.357-0.551-0.286-1.325-0.011-1.895
			c0.192-0.398,0.417-0.82,0.777-1.091c0.635-0.479,2.255-1.057,2.036-2.137c-0.27-1.347-0.93-1.974-0.013-3.26
			c0.74-1.035,1.816-1.885,3.054-2.248c2.595-0.752,4.701,0.108,6.087,2.368c0.697,1.143,1.447,2.943,2.797,3.437
			c1.47,0.539,2.496-0.99,3.732-1.51c1.933-0.805,2.766,0.883,3.418,2.449c0.946,2.272,1.551,4.656,2.237,7.013
			c0.792,2.732,1.763,5.443,2.629,8.156c0.906,2.849,1.9,5.885,3.773,8.263c-1.616-6.012-3.751-11.922-4.137-18.185
			c-0.014-0.288,0.348-0.419,0.518-0.19c0.323,0.432,0.572,0.913,0.796,1.402c0.637,1.38,1.134,2.913,2.005,4.175
			c1.149,1.669,2.282,0.682,3.679-0.14c1.833-1.075,3.728-1.361,5.256,0.41c3.181,3.683,1.432,9.234,3.052,13.469
			c0.291,0.766,0.657,1.86,1.612,1.91c0.355,0.02,0.733,0.034,1.064,0.184c1.213,0.56,2.1,1.645,2.769,2.767
			c1.062,1.777,1.913,3.673,3.55,5.011c1.502,1.226,3.199,2.135,4.96,2.926c4.007,1.8,7.974,3.734,12.183,5.03
			c1.727,0.533,3.471,0.98,5.229,1.351c-3.795-1.945-7.436-4.042-11.082-6.269c-4.203-2.573-7.958-5.771-11.6-9.075
			c-3.35-3.035-5.863-6.708-7.34-11c-0.772-2.25-0.775-4.35-1.086-6.665c-0.381-2.829-1.696-5.366-4.74-6.066
			c-1.402-0.322-2.32-0.045-3.368,0.889c-0.392,0.351-0.814,0.696-1.338,0.83c-0.986,0.254-1.926-1.88-2.234-2.49
			c-0.969-1.919-1.754-3.957-3.249-5.559c-1.871-2.006-4.455-3.576-7.162-4.125c-1.539-0.314-2.882-0.182-4.411-0.167
			c-0.675,0.005-1.241-0.067-1.817-0.451c-0.985-0.657-1.816-1.656-2.001-2.849C110.741,10.225,107.531,10.087,105.658,10.675z
			 M105.997,29.047c1.852,7.492,3.777,14.698,8.041,21.232c4.308,6.607,10.289,12.019,17.042,16.061
			c1.887,1.133,3.813,2.236,5.762,3.29c0.946,0.264,1.89,0.542,2.823,0.844c0.271,0.089,0.17,0.531-0.099,0.541
			c-0.02,0-0.042,0.001-0.063-0.002c4.638,2.338,9.462,4.304,14.495,5.529c4.386,1.062,8.981,1.907,13.199,3.585
			c0.07-0.047,0.16-0.065,0.257-0.026c5.611,2.258,10.579,5.928,14.634,10.395c2.936,3.228,5.503,6.958,6.354,11.307
			c0.621,3.176,0.652,6.983-1.234,9.774c-2.065,3.055-5.626,3.46-8.994,2.674c-0.219-0.051-0.292-0.287-0.164-0.464
			c1.493-2.094,3.242-4.003,4.25-6.379c-3.593,1.743-8.666,7.781-11.549,2.258c-0.837-1.602-1.403-3.303-1.898-5.037
			c-0.468-1.648-0.809-3.482-1.565-5.03c-1.095-2.236-1.913-4.606-3.262-6.717c-0.673-1.055-1.714-2.74-3.235-2.172
			c-0.818,0.304-0.867,1.073-1.487,1.524c-1.367,0.994-3.175-2.27-3.801-3.056c-0.843-1.054-3.365,0.436-4.281,0.849
			c-1.171,0.526-2.559,1.311-3.902,1.16c-3.392-0.383-4.866-4.425-7.174-6.4c-0.133-0.115-0.131-0.349,0.025-0.451
			c3.517-2.323,8.159-2.11,12.39-1.481c-2.444-0.908-4.856-1.906-7.367-2.613c-1.726-0.486-3.76-1.086-5.576-0.922
			c-1.348,0.122-2.594,0.771-3.791,1.36c-1.329,0.656-4.052,2.443-5.33,0.804c-0.401-0.522-0.716-1.277-1.256-1.675
			c-0.739-0.543-1.676-0.526-2.531-0.339c-1.292,0.285-2.538,0.727-3.849,0.32c-0.148-0.047-0.26-0.163-0.23-0.332
			c0.17-0.929,0.375-1.816,0.779-2.658c-1.716-0.306-3.461,0.115-5.183,0.218c-0.198,0.01-0.402-0.214-0.285-0.41
			c1.989-3.249,6.066-4.49,9.599-5.157c3.187-0.601,6.411-0.801,9.638-0.924c-0.288-0.154-0.577-0.309-0.865-0.465
			c-6.798-1.85-13.955-2.549-20.764-0.312c-0.115,0.038-0.267,0.009-0.332-0.103c-1.488-2.62-0.249-5.189,0.19-7.898
			c-3.411,0.137,0.77-5.181-3.331-4.891c-1.474,0.106-3.379,0.547-4.406-0.881c-0.948-1.319-0.873-3.008-0.766-4.558
			c0.136-1.941,0.61-4.045,0.236-5.974c-0.449-2.313-2.218-3.467-4.3-4.245c-0.798-0.299-1.933-0.531-2.271-1.421
			c-0.378-0.994,0.592-2.404,1.138-3.271c-1.85-1.043-4.154-3.003-2.803-5.246c1.249-2.077,4.766-1.556,6.726-2.386
			C105.763,28.82,105.96,28.898,105.997,29.047z"/>
		<path style="fill:#DEE8AD;" d="M195.576,85.734c-0.101-0.221-0.205-0.442-0.31-0.662c-3.602-4.4-8.642-7.294-13.838-9.432
			c-5.969-2.455-12.235-4.066-18.422-5.878c-2.972-0.869-5.945-1.777-8.851-2.861c-3.517-1.312-6.892-2.961-10.213-4.712
			c-7.559-3.981-14.822-8.698-20.991-14.645c-5.897-5.688-10.655-12.409-13.829-19.962c0.488,7.847,4.408,15.356,9.069,21.521
			c5.202,6.877,11.87,12.27,19.408,16.425c9.015,4.973,18.803,8.247,28.18,12.45c7.742,3.469,15.29,7.725,20.045,15.02
			c2.147,3.29,3.633,7.003,4.196,10.903c0.481,3.323,0.639,6.725,0.538,10.079c-0.107,3.585-0.481,7.234-1.592,10.663
			c-0.075,0.23-0.153,0.462-0.235,0.691c1.14-0.126,2.219-0.512,3.05-1.394c0.234-0.247,1.274-0.215,1.6-0.041
			c0.538,0.283,1.231,1.06,1.903,1.064c0.157-0.316,0.299-0.643,0.415-0.981c0.788-2.296,1.482-4.499,1.89-6.899
			c0.908-5.308,1.297-10.784,1.153-16.172C198.603,95.624,197.79,90.566,195.576,85.734z"/>
		<path style="fill:#DEE8AD;" d="M126.641,53.274c5.967,5.37,12.887,9.443,20.174,12.754c3.835,1.739,7.765,3.31,11.77,4.618
			c3.434,1.122,6.935,2.021,10.394,3.073c6.472,1.966,13.091,4.437,17.773,9.542c2.311,2.52,4.016,5.766,5.266,8.933
			c1.318,3.338,2.277,6.881,2.258,10.496c-0.002,0.327-0.41,0.418-0.553,0.125c-2.062-4.312-4.437-8.7-7.97-11.995
			c-1.384-1.291-2.89-2.361-4.493-3.243c1.698,1.608,3.241,3.394,4.564,5.423c2.147,3.29,3.633,7.003,4.196,10.903
			c0.481,3.323,0.639,6.725,0.538,10.079c-0.107,3.585-0.481,7.234-1.592,10.663c-0.075,0.23-0.153,0.462-0.235,0.691
			c1.14-0.126,2.219-0.512,3.05-1.394c0.234-0.247,1.274-0.215,1.6-0.041c0.538,0.283,1.231,1.06,1.903,1.064
			c0.157-0.316,0.299-0.643,0.415-0.981c0.788-2.296,1.482-4.499,1.89-6.899c0.908-5.308,1.297-10.784,1.153-16.172
			c-0.139-5.288-0.951-10.346-3.166-15.178c-0.101-0.221-0.205-0.442-0.31-0.662c-3.602-4.4-8.642-7.294-13.838-9.432
			c-5.969-2.455-12.235-4.066-18.422-5.878c-2.972-0.869-5.945-1.777-8.851-2.861c-3.517-1.312-6.892-2.961-10.213-4.712
			c-7.559-3.981-14.822-8.698-20.991-14.645c-5.897-5.688-10.655-12.409-13.829-19.962c0.004,0.07,0.014,0.14,0.02,0.207
			C113.259,37.338,118.859,46.267,126.641,53.274z"/>
		<g>
			<path style="fill:#83B52D;" d="M126.559,82.849c-1.059-0.897-2.456-1.672-3.774-2.116c-1.12-0.378-3.141-1.035-4.027,0.132
				c-0.421,0.554-0.565,1.19-0.845,1.81c-0.6,1.329-1.551,1.588-2.962,1.329c-1.156-0.216-2.191-1.043-3.312-1.414
				c-1.062-0.356-2.049-0.827-3.087-1.251c-2.4-0.972-4.883-1.71-7.454-2.057c-5.339-0.722-10.482,0.346-15.413,2.476
				c-4.119,1.78-8.682,3.425-11.974,6.604c-1.841,1.778-3.176,4.137-3.612,6.683c-0.419,2.453,0.097,4.868-0.694,7.259
				c-0.72,2.177-2.677,3.543-4.163,5.163c-1.716,1.866-2.833,3.914-2.631,6.525c0.192,2.491,1.466,4.46,3.512,5.859
				c1.088,0.748,1.986,1.651,1.851,3.051c-0.115,1.21-0.208,2.413,0.219,3.588c0.368,1.015,0.97,1.92,2.048,2.297
				c0.856,0.294,1.154,0.112,2.046,0.181c1.154,0.088,2.262-0.291,3.223,0.563c1.099,0.977,0.7,2.429,0.365,3.652
				c-0.5,1.821-0.079,3.399,1.649,4.406c1.113,0.65,2.319,1.148,3.581,1.427c2.113,0.465,5.092,0.979,7.176,0.253
				c1.071-0.375,1.913-0.878,2.719-1.654c0.456-0.441,1.031-1.063,1.696-1.186c1.749-0.33,2.899,1.235,4.248,2.051
				c2.154,1.309,4.633,1.52,7.051,0.796c1.281-0.387,2.507-0.926,3.619-1.675c0.735-0.493,1.243-1.309,2.03-1.735
				c0.866-0.467,2.126-0.58,2.718,0.421c0.807,1.362,2.42,3.7,4.327,2.492c1.167-0.738,2.11-2.212,2.799-3.387
				c2.034-3.474,7.135-4.811,10.883-4.764c4.342,0.055,8.465,1.381,12.48,2.928c4.943,1.905,9.837,3.891,15.044,4.955
				c9.797,2.007,20.618,1.459,28.992-4.58c2.601-1.875,5.96-4.106,7.532-6.975c3.758-6.851-11.165-5.122-14.389-6.208
				c-13.146-4.432-18.496-24.517-32.933-25.382c-1.627-0.096-3.033-0.158-4.275-1.304c-1.493-1.376-1.964-3.867-3.025-5.567
				c-1.187-1.9-3.353-4.41-5.539-5.164c-1.658-0.57-2.745-0.129-4.249,0.583c-0.469,0.224-1.096,0.435-1.617,0.241
				C127.627,83.871,127.169,83.368,126.559,82.849z"/>
			<path style="fill:#1B792B;" d="M195.813,124.584L195.813,124.584c0.104,0.827-0.122,1.758-0.676,2.767
				c-1.525,2.779-4.6,4.973-7.074,6.743l-0.698,0.5c-7.516,5.42-18.04,7.095-29.636,4.721c-4.832-0.991-9.449-2.778-13.912-4.508
				l-1.264-0.488c-3.789-1.458-7.889-2.818-12.194-2.874c-3.643-0.044-8.377,1.306-10.168,4.364
				c-0.792,1.354-1.777,2.848-3.068,3.665c-0.673,0.427-1.412,0.561-2.134,0.386c-1.532-0.367-2.635-1.975-3.334-3.153
				c-0.44-0.744-1.614-0.124-1.625-0.118c-0.325,0.175-0.62,0.476-0.933,0.79c-0.309,0.315-0.63,0.638-1.028,0.906
				c-1.118,0.751-2.409,1.348-3.841,1.778c-2.702,0.809-5.441,0.498-7.711-0.878c-0.401-0.243-0.788-0.546-1.175-0.852
				c-0.858-0.677-1.599-1.266-2.498-1.096c-0.356,0.064-0.787,0.49-1.135,0.831l-0.145,0.14c-0.881,0.849-1.813,1.415-3.014,1.836
				c-2.288,0.799-5.447,0.254-7.624-0.226c-1.297-0.287-2.583-0.797-3.818-1.517c-1.922-1.122-2.657-3.037-2.027-5.331
				c0.302-1.106,0.553-2.229-0.118-2.822c-0.431-0.383-0.905-0.384-1.707-0.359c-0.341,0.014-0.685,0.027-1.035-0.002
				c-0.28-0.022-0.493-0.015-0.685-0.008c-0.427,0.011-0.869,0.025-1.565-0.217c-1.168-0.404-2.026-1.342-2.552-2.789
				c-0.432-1.19-0.395-2.585-0.264-3.945c0.086-0.867-0.335-1.502-1.499-2.3c-2.316-1.584-3.664-3.806-3.865-6.471
				c-0.196-2.545,0.709-4.816,2.846-7.143c0.396-0.434,0.829-0.851,1.262-1.27c1.161-1.118,2.258-2.178,2.726-3.596
				c0.421-1.275,0.438-2.58,0.455-3.964c0.012-1.027,0.025-2.088,0.209-3.174c0.452-2.64,1.821-5.172,3.852-7.137
				c2.962-2.86,6.82-4.485,10.553-6.06l1.666-0.706c5.548-2.397,10.732-3.228,15.845-2.538c2.471,0.336,4.975,1.025,7.654,2.111
				c0.343,0.137,0.68,0.285,1.018,0.427c0.663,0.287,1.324,0.571,2.02,0.804c0.537,0.179,1.036,0.438,1.519,0.691
				c0.586,0.304,1.139,0.593,1.683,0.693c1.31,0.243,1.723-0.1,2.066-0.858c0.081-0.18,0.149-0.361,0.217-0.539
				c0.17-0.449,0.362-0.957,0.723-1.43c1.256-1.656,3.744-0.817,4.94-0.413c1.445,0.487,2.92,1.309,4.046,2.267l0.357,0.314
				c0.424,0.375,0.759,0.673,1.229,0.847c0.091,0.033,0.366,0.082,0.977-0.213c1.643-0.777,2.95-1.276,4.869-0.614
				c2.376,0.82,4.641,3.379,5.967,5.502c0.439,0.706,0.777,1.52,1.105,2.305c0.485,1.163,0.99,2.366,1.779,3.093
				c1.002,0.924,2.181,0.995,3.67,1.084c8.343,0.5,13.741,6.977,18.962,13.246c4.197,5.036,8.54,10.247,14.285,12.183
				c0.746,0.253,2.438,0.344,4.236,0.441C189.357,120.676,195.363,120.999,195.813,124.584z M76.518,134.914
				c0.105,0.832,0.569,1.474,1.417,1.971c1.089,0.635,2.215,1.082,3.347,1.335c1.98,0.437,4.833,0.939,6.727,0.276
				c0.969-0.339,1.716-0.792,2.42-1.469l0.134-0.129c0.479-0.471,1.138-1.113,1.98-1.27c1.63-0.311,2.842,0.651,3.817,1.42
				c0.332,0.263,0.663,0.528,1.007,0.738c1.894,1.149,4.106,1.394,6.391,0.708c1.274-0.383,2.417-0.911,3.398-1.57
				c0.263-0.177,0.513-0.428,0.777-0.696c0.366-0.37,0.78-0.789,1.32-1.081c1.278-0.686,2.996-0.657,3.814,0.727
				c1.05,1.771,1.833,2.28,2.305,2.393c0.293,0.071,0.572,0.014,0.876-0.176c1.001-0.634,1.879-1.995,2.533-3.111
				c2.132-3.643,7.362-5.222,11.599-5.17c4.564,0.055,8.834,1.466,12.767,2.982l1.262,0.491c4.401,1.703,8.954,3.464,13.651,4.425
				c11.144,2.286,21.209,0.708,28.347-4.439l0.708-0.509c2.458-1.755,5.243-3.746,6.588-6.196c0.386-0.701,0.549-1.299,0.489-1.775
				c-0.28-2.228-5.979-2.535-9.75-2.738c-2.074-0.113-3.713-0.202-4.671-0.526c-6.183-2.084-10.676-7.475-15.019-12.689
				c-5.228-6.274-10.167-12.2-17.705-12.652c-1.767-0.105-3.347-0.202-4.78-1.52c-1.052-0.97-1.625-2.338-2.176-3.666
				c-0.321-0.758-0.618-1.475-0.988-2.068c-1.214-1.941-3.261-4.188-5.11-4.822c-1.37-0.475-2.228-0.119-3.628,0.546
				c-0.866,0.413-1.624,0.502-2.256,0.266c-0.756-0.28-1.256-0.728-1.742-1.156l-0.332-0.293c-0.96-0.81-2.269-1.544-3.508-1.961
				c-0.767-0.26-2.569-0.867-3.113-0.15c-0.216,0.286-0.346,0.624-0.494,1.018c-0.078,0.211-0.162,0.421-0.256,0.634
				c-0.936,2.076-2.65,2.02-3.857,1.797c-0.787-0.146-1.475-0.505-2.143-0.854c-0.444-0.231-0.864-0.452-1.278-0.587
				c-0.742-0.249-1.443-0.549-2.151-0.852c-0.326-0.14-0.655-0.282-0.988-0.416c-2.549-1.034-4.924-1.691-7.256-2.005
				c-4.809-0.651-9.709,0.139-14.977,2.418l-1.679,0.711c-3.595,1.516-7.31,3.081-10.051,5.728c-1.782,1.723-2.98,3.937-3.374,6.237
				c-0.163,0.956-0.175,1.908-0.188,2.917c-0.015,1.445-0.034,2.941-0.535,4.454c-0.595,1.804-1.891,3.052-3.144,4.265
				c-0.41,0.393-0.817,0.789-1.193,1.197c-1.834,1.998-2.58,3.818-2.419,5.911c0.169,2.158,1.231,3.925,3.156,5.244
				c0.925,0.634,2.01,1.551,2.195,3.025c0.032,0.253,0.036,0.516,0.009,0.781c-0.116,1.224-0.158,2.317,0.175,3.232
				c0.358,0.985,0.85,1.558,1.547,1.8c0.412,0.142,0.615,0.137,0.982,0.126c0.241-0.006,0.507-0.015,0.858,0.011
				c0.288,0.026,0.573,0.012,0.853,0.001c0.851-0.029,1.91-0.068,2.85,0.769c0.549,0.487,0.875,1.111,0.968,1.851
				c0.114,0.907-0.134,1.819-0.354,2.621C76.511,133.958,76.462,134.467,76.518,134.914z"/>
		</g>
		<path style="fill:#DEE8AD;" d="M175.351,127.372c-7.1,0.214-14.133-1.67-20.745-4.107c-7.364-2.71-14.329-6.265-21.43-9.572
			c-9.113-4.244-18.988-8.068-29.229-6.743c-3.275,0.419-6.586,1.114-9.641,2.393c-2.847,1.192-5.957,3.082-6.648,6.307
			c3.291-1.372,6.731-2.398,10.261-2.928c9.542-1.428,19.051,0.654,27.908,4.199c4.658,1.866,9.17,4.071,13.625,6.382
			c4.43,2.294,8.771,4.792,13.3,6.887c8.738,4.042,18.755,7.016,28.429,5.082c2.803-0.56,5.426-1.582,7.905-2.928
			c2.067-1.528,4.179-3.287,5.331-5.388c1.763-3.211-0.581-4.538-3.898-5.151C186.288,125.35,180.989,127.206,175.351,127.372z"/>
		<path style="fill:#83B52D;" d="M126.559,82.849c-1.059-0.897-2.456-1.672-3.774-2.116c-1.12-0.378-3.141-1.035-4.027,0.132
			c-0.421,0.554-0.565,1.19-0.845,1.81c-0.6,1.329-1.551,1.588-2.962,1.329c-1.156-0.216-2.191-1.043-3.312-1.414
			c-1.062-0.356-2.049-0.827-3.087-1.251c-2.4-0.972-4.883-1.71-7.454-2.057c-5.339-0.722-10.482,0.346-15.413,2.476
			c-4.119,1.78-8.682,3.425-11.974,6.604c-1.841,1.778-3.176,4.137-3.612,6.683c-0.419,2.453,0.097,4.868-0.694,7.259
			c-0.72,2.177-2.677,3.543-4.163,5.163c-1.716,1.866-2.833,3.914-2.631,6.525c0.192,2.491,1.466,4.46,3.512,5.859
			c1.088,0.748,1.986,1.651,1.851,3.051c-0.115,1.21-0.208,2.413,0.219,3.588c0.368,1.015,0.97,1.92,2.048,2.297
			c0.856,0.294,1.154,0.112,2.046,0.181c1.154,0.088,2.262-0.291,3.223,0.563c1.099,0.977,0.7,2.429,0.365,3.652
			c-0.5,1.821-0.079,3.399,1.649,4.406c1.113,0.65,2.319,1.148,3.581,1.427c2.113,0.465,5.092,0.979,7.176,0.253
			c1.071-0.375,1.913-0.878,2.719-1.654c0.456-0.441,1.031-1.063,1.696-1.186c1.749-0.33,2.899,1.235,4.248,2.051
			c2.154,1.309,4.633,1.52,7.051,0.796c1.281-0.387,2.507-0.926,3.619-1.675c0.735-0.493,1.243-1.309,2.03-1.735
			c0.866-0.467,2.126-0.58,2.718,0.421c0.807,1.362,2.42,3.7,4.327,2.492c1.167-0.738,2.11-2.212,2.799-3.387
			c2.034-3.474,7.135-4.811,10.883-4.764c2.512,0.033,4.953,0.497,7.341,1.176c-2.685-1.375-5.452-2.541-8.418-3.168
			c-2.663-0.564-6.546-1.378-8.893,0.506c-1.691,1.355-2.951,3.788-4.968,4.665c-1.142,0.497-1.73-0.338-2.192-1.279
			c-0.336-0.692-0.724-1.621-1.512-1.903c-1.037-0.373-2.251,0.144-3.07,0.791c-1.42,1.118-2.352,2.957-3.966,3.825
			c-1.731,0.928-3.402,0.222-4.928-0.793c-0.1-0.067-0.129-0.24-0.071-0.34c0.825-1.48,1.988-2.72,3.304-3.796
			c-2.515,1.273-5.122,2.307-7.968,2.735c-0.143,0.021-0.308-0.108-0.309-0.259c-0.005-0.603-0.299-1.13-0.387-1.712
			c-2.803,0.354-4.027,3.989-6.84,4.484c-1.583,0.279-2.931-0.417-3.995-1.557c-0.745-0.798-1.334-1.716-2.118-2.478
			c-0.609-0.589-1.319-1.102-1.893-1.73c-2.116-2.309,1.519-5.524,3.284-6.83c0.918-0.677,1.877-1.277,2.861-1.835
			c-1.371,0.632-2.724,1.295-4.039,2.052c-1.779,1.022-4.17,2.876-6.324,2.206c-2.574-0.799,0.272-4.24-2.313-5.391
			c-1.285-0.573-2.664-0.921-3.466-2.177c-0.788-1.231-1.21-2.57-1.224-4.037c-0.021-2.247,1.438-4.507,3.612-5.177
			c1.152-0.357,2.341-0.462,3.538-0.542c0.503-0.034,3.388-0.115,3.302-0.587c-0.43-2.298-2.819-3.724-3.746-5.803
			c-0.769-1.724-0.018-3.852,1.964-4.348c2.407-0.598,4.652,0.653,6.973,1.123c-0.935-1.361-2.083-2.635-2.48-4.261
			c-0.053-0.213,0.088-0.406,0.317-0.377c2.01,0.244,3.843,1.116,5.796,1.595c-1.811-6.847,9.449-7.748,13.914-7.63
			c4.063,0.107,7.648,1.456,10.588,4.321c3.021,2.949,5.336,6.574,8.726,9.123c-1.86-4.484-5.588-8.397-5.804-13.418
			c-0.013-0.269,0.261-0.38,0.468-0.243c1.358,0.895,2.269,2.249,3.242,3.523c0.476-1.994-0.209-4.685,2.239-5.425
			c2.051-0.621,4.676,1.385,6.109,2.641c3.63,3.192,5.287,7.779,7.675,11.875c-2.151-4.146-4.323-8.331-4.957-12.995
			c-0.025-0.16,0.11-0.284,0.257-0.307c1.741-0.292,3.482,0.121,4.822,1.306c1.955,1.732,3.128,4.255,3.665,6.777
			c0.297,1.392,0.355,2.735,0.293,4.15c-0.045,0.977,0.209,0.819,0.978,1.291c0.944,0.576,2.124,1.001,2.793,1.93
			c0.62,0.86,0.48,1.965,0.918,2.89c0.5,1.064,1.886,1.171,2.335,0.041c0.214-0.538,0.32-1.104,0.416-1.674
			c0.167-0.982,0.3-1.997,0.813-2.871c1.195-2.038,4.189-0.793,5.653,0.157c2.537,1.656,4.477,3.926,6.061,6.494
			c2.084,3.377,3.706,7.228,6.527,10.086c2.715,2.752,6.125,4.582,9.138,6.964c0.137,0.109,0.13,0.355-0.023,0.451
			c-4.139,2.577-9.784,1.353-14.205,0.263c-6.368-1.569-12.456-3.749-18.344-6.653c-5.272-2.6-10.334-5.635-15.73-7.994
			c-4.245-1.856-9.159-3.815-13.933-3.59c12.721,1.971,23.949,9.832,35.165,15.644c6.512,3.377,13.113,6.9,20.322,8.536
			c3.479,0.789,7.12,1.154,10.671,0.732c3.128-0.368,6.046-1.599,9.158-1.979c0.204-0.024,0.393,0.219,0.285,0.407
			c-2.016,3.454-5.013,5.852-8.496,7.557c2.675-0.896,5.24-2.149,7.602-3.855c2.601-1.875,5.96-4.106,7.532-6.975
			c3.758-6.851-11.165-5.122-14.389-6.208c-13.146-4.432-18.496-24.517-32.933-25.382c-1.627-0.096-3.033-0.158-4.275-1.304
			c-1.493-1.376-1.964-3.867-3.025-5.567c-1.187-1.9-3.353-4.41-5.539-5.164c-1.658-0.57-2.745-0.129-4.249,0.583
			c-0.469,0.224-1.096,0.435-1.617,0.241C127.627,83.871,127.169,83.368,126.559,82.849z"/>
	</g>
	<g>
		<g>
			<path style="fill:#D09670;" d="M5.05,108.365c0.49-1.632,1.744-2.887,3.028-3.845c3.158-2.357,7.428-3.89,11.286-3.185
				c0.884,0.161,1.713,0.486,2.51,0.902c0.683-0.013,1.364,0.011,2.033,0.056c6.936,0.471,13.893,1.902,20.67,3.481
				c7.155,1.667,14.216,3.749,21.213,6.048c3.412,1.121,6.806,2.298,10.19,3.508c3.41,1.219,6.851,2.4,10.423,2.947
				c1.294,0.198,2.594,0.305,3.887,0.5c-0.494-0.451-0.944-0.942-1.33-1.483c-1.26-1.765-1.844-4.184-0.741-6.169
				c1.495-2.692,5.243-3.092,7.959-3.496c3.933-0.585,7.825-1.16,11.706-2.045c8.216-1.875,16.423-3.793,24.569-5.954
				c4.032-1.069,8.053-2.178,12.07-3.3c3.845-1.074,7.58-2.619,11.521-3.325c4.059-0.726,8.23-1.056,12.342-1.322
				c4.191-0.271,8.396-0.384,12.595-0.33c3.788,0.048,7.586,0.274,11.322,0.931c3.779,0.665,7.327,1.887,10.86,3.355
				c6.673,2.774,13.279,5.988,19.134,10.261c0.237,0.173,0.468,0.35,0.701,0.527c1.477,0.088,2.962,0.1,4.438,0.127
				c3.174,0.057,6.336,0.354,9.505,0.525c6.765,0.365,13.521,0.815,20.281,1.251c13.652,0.881,27.308,1.806,40.941,2.95
				c6.172,0.518,12.314,1.397,18.492,1.809c0.007-0.007,0.016-0.012,0.024-0.018c0.141,0.014,0.281,0.03,0.422,0.047
				c0.001,0,0.001,0.001,0.002,0.001c0.006,0,0.012,0.001,0.017,0.001c0.138,0.016,0.275,0.035,0.413,0.055
				c0.229,0.402,0.43,0.814,0.59,1.255c0.018,0.05,0.034,0.102,0.051,0.152c0.006,0.028,0.012,0.057,0.017,0.085
				c0.015,0.032,0.029,0.064,0.043,0.096c0.091,0.276,0.177,0.554,0.264,0.831c0.125,0.4,0.244,0.803,0.354,1.207
				c0.055,0.201,0.108,0.404,0.159,0.607c0.198,1.152,0.272,2.324,0.339,3.356c0.151,2.312,0.177,4.625,0.142,6.938
				c0.146,3.235,0.157,6.474-0.031,9.719c-0.286,4.93-0.864,9.87-1.796,14.739c-0.361,2.185-0.803,4.359-1.353,6.519
				c-0.577,2.266-1.186,4.547-2.105,6.702c-0.13,0.305-0.272,0.604-0.42,0.9c-0.477,1.293-0.989,2.574-1.54,3.837
				c-0.298,0.284-0.543,0.627-0.772,0.97c-0.172-0.047-0.344-0.094-0.515-0.145c-0.105-0.031-0.209-0.065-0.313-0.097
				c0.006-0.014,0.011-0.028,0.016-0.043c-0.287-0.11-0.574-0.221-0.862-0.329c-3.533-1.322-7.126-2.43-10.758-3.443
				c-7.157-1.997-14.333-3.927-21.53-5.775c-14.483-3.719-29.077-7.19-43.792-9.867c-3.345-0.609-6.699-1.167-10.062-1.668
				c-4.452,0.275-8.813,1.461-13.195,2.292c-9.51,1.803-19.036,3.405-28.479,5.596c-8.825,2.048-17.51,4.742-26.361,6.662
				c-8.39,1.821-17.127,2.966-25.637,1.399c-1.241-0.229-2.455-0.572-3.689-0.835c-1.373-0.292-2.767-0.427-4.162-0.527
				c-2.409-0.172-4.877-0.221-7.217-0.911c-1.927-0.569-3.74-1.499-5.568-2.368c-0.558-0.305-1.115-0.614-1.668-0.928
				c-1-0.567-1.988-1.164-3.021-1.669c-0.792-0.387-1.65-0.741-2.537-0.831c-0.743-0.192-1.491-0.351-2.215-0.511
				c-2.046-0.452-4.047-0.966-6.047-1.614c-4.781-1.549-9.557-3.224-14.254-5.04c-4.68-1.81-9.272-3.864-13.834-5.984
				c-4.534-2.106-9.064-4.204-13.44-6.665c-4.239-2.384-8.386-4.949-12.668-7.245c-4.491-2.409-9.159-4.427-13.709-6.706
				c-1.828-0.916-3.628-1.881-5.506-2.677c-1.752-0.743-3.527-1.422-5.276-2.173c-3.217-1.381-6.734-3.027-9-5.94
				C5.155,111.729,4.54,110.06,5.05,108.365z"/>
			<path style="fill:#FFE3CB;" d="M7.327,113.103c2.416,2.69,5.898,4.144,9.091,5.47c1.665,0.691,3.347,1.337,4.998,2.065
				c1.931,0.851,3.791,1.88,5.685,2.82c4.287,2.128,8.673,4.038,12.896,6.311c4.154,2.236,8.183,4.722,12.295,7.044
				c4.114,2.324,8.36,4.325,12.62,6.324c4.423,2.075,8.868,4.102,13.392,5.916c5.055,2.027,10.218,3.834,15.373,5.551
				c2.199,0.733,4.412,1.29,6.653,1.85c1.884,0.471,3.835,0.975,5.443,2.174c0.01,0.007,0.018,0.015,0.026,0.023
				c2.464,0.773,4.772,2.121,7.178,3.133c4.268,1.794,8.846,1.186,13.27,2.136c2.101,0.451,4.157,0.978,6.293,1.233
				c2.158,0.258,4.333,0.345,6.503,0.311c4.49-0.071,8.961-0.669,13.375-1.523c8.713-1.686,17.225-4.346,25.854-6.434
				c9.43-2.282,18.941-4.007,28.475-5.706c2.659-0.474,5.312-0.983,7.964-1.501c1.871-0.366,3.737-0.791,5.624-1.049
				c-0.075-0.01-0.15-0.018-0.224-0.028c0.049-0.008,0.097-0.018,0.146-0.025c1.24-0.196,2.491-0.311,3.746-0.351
				c0.258,0.039,0.517,0.075,0.775,0.115c0.951-0.015,1.905-0.016,2.859-0.026c0.424,0.032,0.847,0.069,1.269,0.114
				c0.78,0.084,1.557,0.191,2.332,0.313c-0.899,0.101-1.806,0.159-2.714,0.197c0.671,0.111,1.342,0.223,2.013,0.339
				c7.306,1.263,14.567,2.772,21.799,4.401c14.524,3.272,28.949,6.934,43.282,10.959c3.885,1.091,7.763,2.182,11.563,3.544
				c1.251,0.449,2.496,0.917,3.729,1.413c0.303-0.71,0.638-1.407,0.978-2.103c1.969-4.857,3.411-9.937,4.468-15.06
				c0.063-0.305,0.12-0.611,0.181-0.917c0.244-1.426,0.457-2.857,0.632-4.298c0.507-4.182,0.753-8.389,0.942-12.596
				c0.183-4.077,0.349-8.148,0.236-12.229c0-0.005-0.001-0.01-0.001-0.015c-0.137-2.091-0.27-4.199-0.501-6.285
				c-0.145-1.008-0.372-2.071-0.887-2.893c-5.322-0.129-10.664-1.019-15.935-1.491c-6.911-0.619-13.841-1.008-20.757-1.567
				c-6.829-0.552-13.666-0.99-20.503-1.428c-6.818-0.438-13.632-0.936-20.455-1.287c-3.628-0.186-7.258-0.539-10.889-0.62
				c-1.406-0.031-2.834-0.024-4.256-0.081c0.411,0.336,0.815,0.681,1.214,1.034c-0.154-0.041-0.308-0.086-0.459-0.137
				c-0.75-0.252-1.395-0.701-2.045-1.14c-0.408-0.275-0.826-0.536-1.252-0.781c0.065,0.006,0.13,0.014,0.195,0.02
				c-4.419-3.086-9.189-5.632-14.114-7.857c-3.221-1.455-6.503-2.948-9.881-4.001c-3.624-1.13-7.393-1.727-11.174-1.999
				c-7.939-0.572-16.028-0.206-23.936,0.616c-2.04,0.212-4.099,0.42-6.119,0.781c-1.889,0.337-3.733,0.881-5.559,1.463
				c-3.75,1.195-7.51,2.295-11.305,3.337c-7.847,2.153-15.723,4.188-23.661,5.977c-3.88,0.874-7.733,1.876-11.637,2.64
				c-3.679,0.72-7.472,0.924-11.11,1.832c-2.503,0.624-4.942,2.059-4.685,4.987c0.186,2.11,1.562,3.67,3.2,4.852
				c0.753,0.73,1.699,1.263,2.65,1.685c0.558,0.248,1.133,0.465,1.719,0.645c4.806,1.927,10.207,2.385,15.32,2.313
				c6.855-0.095,13.608-1.384,20.415-2.063c3.874-0.386,7.768-0.651,11.663-0.632c1.835,0.009,3.684,0.036,5.502,0.309
				c1.83,0.274,3.59,0.805,5.37,1.291c1.811,0.494,3.626,0.996,5.479,1.309c0.219,0.037,0.419,0.482,0.094,0.459
				c-3.807-0.278-7.402-1.645-11.172-2.156c-4.02-0.546-8.261-0.253-12.293,0.022c-7.292,0.498-14.497,1.898-21.793,2.292
				c-6.349,0.343-13.014-0.007-18.967-2.433c-1.483-0.605-3.031-1.345-4.385-2.312c-2.77-0.446-5.566-0.602-8.304-1.286
				c-3.377-0.843-6.645-2.106-9.937-3.255c-13.581-4.742-27.4-8.979-41.575-11.145c-2.996-0.458-6.059-0.984-9.094-0.96
				c-2.308,0.018-4.799,0.439-6.563,2.158c-1.786,1.741-2.768,4.763-1.249,7.012c1.337,1.979,3.722,3.044,5.783,3.909
				c13.519,5.679,27.182,10.961,40.689,16.673c6.641,2.809,13.194,5.867,19.885,8.54c6.552,2.617,13.245,4.782,20.123,6.188
				c1.122,0.229,2.248,0.431,3.378,0.61c0.151,0.061,0.303,0.12,0.453,0.185c0.551,0.237,1.095,0.5,1.613,0.805
				c-0.063,0.079-0.173,0.126-0.343,0.107c-14.409-1.637-27.606-7.911-40.875-13.679c-13.88-6.033-27.942-11.57-41.925-17.323
				c-2.531-1.041-5.211-1.962-7.455-3.632c-1.721-1.281-3.18-3.157-2.998-5.516c0.195-2.524,1.878-4.757,3.99-5.809
				c1.031-0.514,2.139-0.796,3.269-0.935c-1.548-0.341-3.128-0.418-4.712-0.091c-1.973,0.408-3.919,1.219-5.649,2.306
				c-1.408,0.884-2.853,2.03-3.628,3.603C5.423,109.966,6.082,111.717,7.327,113.103z"/>
			<path style="fill:#FFE3CB;" d="M114.788,124.443c7.296-0.395,14.5-1.794,21.793-2.292c4.032-0.276,8.274-0.568,12.293-0.022
				c2.606,0.354,5.129,1.115,7.696,1.644c-5.636,1.028-11.24,2.226-16.831,3.473c-6.5,1.45-12.986,3-19.644,3.525
				c-3.268,0.257-6.566,0.282-9.827-0.089c-2.775-0.316-5.543-0.87-8.111-1.999c-4.2-1.848-7.443-5.056-10.352-8.522
				c-0.13-0.155-0.258-0.31-0.387-0.465c0.006,0.001,0.011,0.002,0.017,0.002c1.354,0.967,2.902,1.707,4.385,2.312
				C101.773,124.436,108.438,124.786,114.788,124.443z"/>
			<path style="fill:#FFE3CB;" d="M94.732,121.544c-4.403,0.349-8.933-0.513-13.157-1.619c-6.407-1.678-12.677-3.885-18.954-5.987
				c-6.747-2.259-13.513-4.484-20.415-6.229c-2.992-0.757-6.013-1.343-9.03-1.984c-2.197-0.466-4.388-0.959-6.603-1.333
				c-2.366-0.4-4.779-0.711-7.183-0.624c-0.458,0.016-0.927,0.047-1.397,0.102c1.418-0.615,3.014-0.804,4.531-0.816
				c3.035-0.024,6.098,0.502,9.094,0.96c14.175,2.166,27.994,6.404,41.575,11.145c3.292,1.149,6.56,2.412,9.937,3.255
				c2.737,0.684,5.534,0.84,8.304,1.286C92.461,120.43,93.597,121.032,94.732,121.544z"/>
			<path style="fill:#FFE3CB;" d="M285.105,114.104c-6.484-0.329-12.958-0.992-19.421-1.601c-6.492-0.611-12.98-1.255-19.474-1.842
				c-3.221-0.291-6.444-0.598-9.671-0.815c-3.187-0.215-6.394-0.463-9.481-1.332c-0.128-0.036-0.199,0.143-0.089,0.21
				c2.256,1.37,4.076,3.265,5.712,5.315c-6.972-4.396-14.161-8.466-21.601-12.012c-4.031-1.921-8.11-3.72-12.415-4.937
				c-4.23-1.196-8.582-1.926-12.957-2.32c-8.947-0.806-17.956-0.225-26.872,0.68c-4.551,0.462-9.105,0.872-13.613,1.67
				c1.941-0.57,3.876-1.16,5.808-1.776c1.826-0.582,3.67-1.126,5.559-1.463c2.02-0.361,4.079-0.568,6.119-0.781
				c7.908-0.822,15.997-1.188,23.936-0.616c3.781,0.272,7.549,0.869,11.174,1.999c3.378,1.053,6.66,2.546,9.881,4.001
				c4.925,2.225,9.695,4.77,14.114,7.857c-0.065-0.006-0.13-0.014-0.195-0.02c0.426,0.245,0.844,0.505,1.252,0.781
				c0.65,0.439,1.295,0.888,2.045,1.14c0.151,0.051,0.305,0.096,0.459,0.137c-0.398-0.353-0.803-0.698-1.214-1.034
				c1.422,0.057,2.849,0.05,4.256,0.081c3.631,0.081,7.261,0.434,10.889,0.62c6.823,0.351,13.637,0.849,20.455,1.287
				c6.837,0.439,13.674,0.876,20.503,1.428c6.916,0.559,13.845,0.948,20.757,1.567c5.272,0.472,10.613,1.362,15.935,1.491
				c0.514,0.822,0.742,1.885,0.887,2.893c0.022,0.198,0.039,0.397,0.06,0.595c-4.568-0.215-9.095-1.247-13.608-1.912
				C297.943,114.459,291.504,114.429,285.105,114.104z"/>
			<path style="fill:#FFE3CB;" d="M6.311,108.163c0.776-1.573,2.221-2.719,3.628-3.603c1.73-1.087,3.676-1.898,5.649-2.306
				c1.584-0.328,3.165-0.251,4.712,0.091c-1.13,0.138-2.239,0.421-3.269,0.935c-2.112,1.052-3.795,3.286-3.99,5.809
				c-0.182,2.36,1.277,4.236,2.998,5.516c2.245,1.67,4.925,2.591,7.455,3.632c13.983,5.753,28.045,11.29,41.925,17.323
				c13.269,5.767,26.466,12.041,40.875,13.679c0.17,0.019,0.281-0.028,0.343-0.107c-0.519-0.304-1.063-0.568-1.613-0.805
				c-0.15-0.064-0.301-0.124-0.453-0.185c-1.13-0.179-2.256-0.38-3.378-0.61c-6.878-1.406-13.571-3.571-20.123-6.188
				c-6.691-2.673-13.243-5.731-19.885-8.54c-13.507-5.712-27.171-10.994-40.689-16.673c-2.06-0.866-4.445-1.93-5.783-3.909
				c-0.786-1.163-0.901-2.533-0.584-3.826c0.494-0.359,1.025-0.663,1.59-0.903c2.864-1.213,6.184-0.875,9.144-0.24
				c1.455,0.313,2.888,0.724,4.305,1.178c1.774,0.569,3.561,1.094,5.334,1.665c3.982,1.283,7.928,2.676,11.881,4.043
				c3.926,1.357,7.878,2.633,11.805,3.988c3.935,1.358,7.853,2.764,11.761,4.2c1.949,0.716,3.901,1.425,5.84,2.169
				c1.843,0.707,3.643,1.525,5.477,2.256c1.782,0.711,3.593,1.364,5.458,1.82c1.782,0.435,3.557,0.592,5.385,0.645
				c3.652,0.105,7.311-0.07,10.939-0.493c6.658-0.778,13.265-2.372,19.445-4.991c4.691-0.56,9.371-1.258,14.087-1.581
				c4.032-0.276,8.274-0.568,12.293-0.022c3.77,0.512,7.365,1.878,11.172,2.156c0.325,0.024,0.124-0.422-0.094-0.459
				c-1.853-0.313-3.668-0.815-5.479-1.309c-1.781-0.486-3.541-1.017-5.37-1.291c-1.818-0.272-3.667-0.3-5.502-0.309
				c-3.895-0.019-7.789,0.246-11.663,0.632c-6.806,0.678-13.56,1.967-20.415,2.063c-5.114,0.071-10.514-0.386-15.32-2.313
				c-0.586-0.18-1.161-0.397-1.719-0.645c-0.951-0.423-1.897-0.955-2.65-1.685c-1.638-1.182-3.015-2.742-3.2-4.852
				c-0.236-2.687,1.797-4.115,4.067-4.815c-0.371,9.22,14.516,8.824,20.609,8.475c5.225-0.299,10.432-1.144,15.612-1.855
				c9.781-1.343,19.671-2.844,29.572-2.21c4.839,0.31,9.611,1.189,14.17,2.859c4.574,1.676,8.904,3.936,13.146,6.313
				c4.107,2.301,8.15,4.722,12.346,6.861c3.763,1.918,7.623,3.696,11.813,4.413c4.286,0.733,8.663,0.736,12.998,0.775
				c4.667,0.042,9.191,0.324,13.816,0.959c10.662,1.464,21.376,2.519,32.04,3.964c10.685,1.448,21.297,3.336,31.858,5.506
				c4.853,0.997,9.658,2.047,14.439,3.343c0.617,0.167,1.241,0.334,1.869,0.495c-0.135,0.981-0.287,1.96-0.454,2.934
				c-0.06,0.306-0.118,0.612-0.181,0.917c-1.057,5.124-2.499,10.204-4.468,15.06c-0.339,0.696-0.674,1.393-0.978,2.103
				c-1.233-0.496-2.478-0.964-3.729-1.413c-3.8-1.362-7.678-2.453-11.563-3.544c-14.333-4.024-28.758-7.687-43.282-10.959
				c-7.232-1.629-14.493-3.138-21.799-4.401c-0.67-0.116-1.342-0.227-2.013-0.339c0.908-0.038,1.815-0.097,2.714-0.197
				c-0.775-0.122-1.552-0.229-2.332-0.313c-0.422-0.046-0.845-0.082-1.269-0.114c-0.954,0.01-1.908,0.011-2.859,0.026
				c-0.258-0.039-0.517-0.076-0.775-0.115c-1.254,0.04-2.506,0.155-3.746,0.351c-0.049,0.008-0.097,0.017-0.146,0.025
				c0.075,0.01,0.15,0.018,0.224,0.028c-1.887,0.258-3.753,0.683-5.624,1.049c-2.652,0.518-5.305,1.027-7.964,1.501
				c-9.533,1.699-19.045,3.424-28.475,5.706c-8.629,2.088-17.141,4.748-25.854,6.434c-4.414,0.854-8.885,1.452-13.375,1.523
				c-2.17,0.034-4.346-0.052-6.503-0.311c-2.136-0.256-4.192-0.783-6.293-1.233c-4.424-0.949-9.002-0.341-13.27-2.136
				c-2.406-1.012-4.714-2.36-7.178-3.133c-0.008-0.008-0.016-0.015-0.026-0.023c-1.608-1.198-3.559-1.703-5.443-2.174
				c-2.241-0.56-4.454-1.118-6.653-1.85c-5.155-1.717-10.318-3.524-15.373-5.551c-4.524-1.814-8.969-3.841-13.392-5.916
				c-4.26-1.999-8.505-4-12.62-6.324c-4.111-2.322-8.141-4.808-12.295-7.044c-4.222-2.273-8.608-4.184-12.896-6.311
				c-1.894-0.94-3.754-1.969-5.685-2.82c-1.651-0.728-3.333-1.374-4.998-2.065c-3.193-1.326-6.675-2.779-9.091-5.47
				C6.082,111.717,5.423,109.966,6.311,108.163z"/>
			<path style="fill:#FFE3CB;" d="M6.311,108.163c0.41-0.831,1.007-1.541,1.686-2.158c-0.159,1.041-0.088,2.108,0.442,3.031
				c0.979,1.704,3.108,2.181,4.936,2.288c0.511,1.331,1.529,2.436,2.665,3.281c2.245,1.67,4.925,2.591,7.455,3.632
				c13.983,5.753,28.045,11.29,41.925,17.323c13.269,5.767,26.466,12.041,40.875,13.679c0.17,0.019,0.281-0.028,0.343-0.107
				c-0.519-0.304-1.063-0.568-1.613-0.805c-0.15-0.064-0.301-0.124-0.453-0.185c-1.13-0.179-2.256-0.38-3.378-0.61
				c-6.878-1.406-13.571-3.571-20.123-6.188c-6.691-2.673-13.243-5.731-19.885-8.54c-13.507-5.712-27.171-10.994-40.689-16.673
				c-2.06-0.866-4.445-1.93-5.783-3.909c-0.618-0.915-0.82-1.957-0.724-2.989c0.096-0.329,0.208-0.653,0.335-0.97
				c0.145-0.098,0.292-0.193,0.442-0.283c0.267,2.518,2.616,4.208,4.675,5.32c2.604,1.406,5.454,2.293,8.267,3.175
				c3.968,1.244,7.945,2.444,11.85,3.882c4.771,1.757,9.456,3.735,14.108,5.782c9.14,4.022,18.176,8.312,27.575,11.71
				c4.763,1.722,9.591,3.077,14.497,4.318c4.791,1.212,9.274,3.255,13.779,5.242c2.17,0.958,4.355,1.895,6.591,2.69
				c2.267,0.806,4.647,1.118,7.047,1.009c2.903-0.133,5.742-0.805,8.606-1.244c-2.346,1.279-4.616,2.726-7.184,3.52
				c-2.756,0.852-5.731,0.416-8.468,1.377c-0.079,0.028-0.116,0.128-0.051,0.192c0.784,0.765,1.674,1.399,2.632,1.93
				c4.544,2.517,10.056,3.17,15.141,3.698c6.181,0.642,12.257,0.902,18.441,0.062c13.976-1.9,27.046-7.595,40.402-11.821
				c6.748-2.135,13.803-4.185,20.905-4.568c7.538-0.407,15.056,0.908,22.426,2.341c15.366,2.988,30.79,5.676,46.135,8.778
				c3.51,0.71,6.998,1.427,10.436,2.44c3.357,0.989,6.674,2.11,10.011,3.162c3.546,1.118,7.17,2.216,10.85,2.94
				c-0.478,1.413-0.991,2.814-1.551,4.196c-0.339,0.696-0.674,1.393-0.978,2.103c-1.233-0.496-2.478-0.964-3.729-1.413
				c-3.8-1.362-7.678-2.453-11.563-3.544c-14.333-4.024-28.758-7.687-43.282-10.959c-7.232-1.629-14.493-3.138-21.799-4.401
				c-0.67-0.116-1.342-0.227-2.013-0.339c0.908-0.038,1.815-0.097,2.714-0.197c-0.775-0.122-1.552-0.229-2.332-0.313
				c-0.422-0.046-0.845-0.082-1.269-0.114c-0.954,0.01-1.908,0.011-2.859,0.026c-0.258-0.039-0.517-0.076-0.775-0.115
				c-1.254,0.04-2.506,0.155-3.746,0.351c-0.049,0.008-0.097,0.017-0.146,0.025c0.075,0.01,0.15,0.018,0.224,0.028
				c-1.887,0.258-3.753,0.683-5.624,1.049c-2.652,0.518-5.305,1.027-7.964,1.501c-9.533,1.699-19.045,3.424-28.475,5.706
				c-8.629,2.088-17.141,4.748-25.854,6.434c-4.414,0.854-8.885,1.452-13.375,1.523c-2.17,0.034-4.346-0.052-6.503-0.311
				c-2.136-0.256-4.192-0.783-6.293-1.233c-4.424-0.949-9.002-0.341-13.27-2.136c-2.406-1.012-4.714-2.36-7.178-3.133
				c-0.008-0.008-0.016-0.015-0.026-0.023c-1.608-1.198-3.559-1.703-5.443-2.174c-2.241-0.56-4.454-1.118-6.653-1.85
				c-5.155-1.717-10.318-3.524-15.373-5.551c-4.524-1.814-8.969-3.841-13.392-5.916c-4.26-1.999-8.505-4-12.62-6.324
				c-4.111-2.322-8.141-4.808-12.295-7.044c-4.222-2.273-8.608-4.184-12.896-6.311c-1.894-0.94-3.754-1.969-5.685-2.82
				c-1.651-0.728-3.333-1.374-4.998-2.065c-3.193-1.326-6.675-2.779-9.091-5.47C6.082,111.717,5.423,109.966,6.311,108.163z"/>
			<path style="fill:#D09670;" d="M108.66,152.414c-0.286-0.219-0.57-0.441-0.849-0.669c-0.522-0.425-1.033-0.864-1.541-1.306
				c1.834,0.837,3.64,1.75,5.613,2.202c2.652,0.608,5.464,0.31,8.148,0.111c1.335-0.099,2.673-0.222,4.012-0.237
				c1.077-0.012,2.261-0.054,3.293,0.295c0.18,0.061,0.257,0.342,0.023,0.372c-1.163,0.15-2.392,0.045-3.568,0.124
				c-1.34,0.09-2.676,0.222-4.014,0.344c-2.631,0.241-5.372,0.458-7.969-0.159C110.722,153.234,109.682,152.848,108.66,152.414z"/>
		</g>
	</g>
</g>
</svg>
