<?xml version="1.0" encoding="utf-8"?>
<!-- Generator: Adobe Illustrator 27.5.0, SVG Export Plug-In . SVG Version: 6.00 Build 0)  -->
<svg version="1.1" id="Layer_1" xmlns="http://www.w3.org/2000/svg" xmlns:xlink="http://www.w3.org/1999/xlink" x="0px" y="0px"
	 viewBox="0 0 321.426 233.077" style="enable-background:new 0 0 321.426 233.077;" xml:space="preserve">
<g>
	<g>
		<g>
			<path style="fill:#D09670;" d="M316.146,201.7c-0.472-6.229-1.142-12.461-2.015-18.647c-0.799-5.662-1.883-11.314-3.776-16.723
				c-0.347-0.992-0.724-1.969-1.132-2.93c-0.025-0.044-0.049-0.089-0.074-0.134c-0.847-1.517-1.719-3.02-2.577-4.531
				c-0.572-0.132-1.14-0.292-1.712-0.421c-0.398-0.034-0.797-0.064-1.194-0.087c-3.779-0.218-7.571-0.023-11.345,0.197
				c-8.635,0.503-17.249,0.403-25.888-0.044c-9.879-0.511-19.679-1.605-29.453-3.114c-9.457-1.459-18.904-3.118-28.139-5.655
				c-5.054-1.389-10.104-2.902-14.771-5.322c-1.95-1.012-3.839-2.131-5.711-3.281c-3.028-4.739-6.729-9.036-10.903-12.804
				c-8.873-8.009-19.95-13.632-31.342-17.082c-5.992-1.814-12.175-3.059-18.389-3.809c-6.919-0.835-13.897-0.95-20.855-1.158
				c-7.047-0.21-13.984-0.934-20.941-2.068c-3.429-0.559-6.849-1.172-10.274-1.76c-2.434-0.418-4.887-0.741-7.285-1.339
				c-4.355-1.085-8.627-2.492-13.056-3.271c-0.986-0.173-2.016-0.333-3.064-0.443c-2.475-0.675-5.116-0.624-7.726-0.249
				c-3.828,0.551-7.79,1.8-10.978,4.043c-3.239,2.279-5.859,5.637-7.598,9.171c-1.826,3.71-2.615,7.716-1.023,11.648
				c0.689,1.702,1.607,3.292,2.54,4.871c-2.785,0.797-5.236,2.722-7.189,4.792c-2.289,2.426-4.547,5.573-5.357,8.861
				c-0.926,3.76,0.553,7.545,2.568,10.685c0.743,1.158,1.549,2.21,2.448,3.144c-3.378,4.267-6.571,10.109-4.597,15.637
				c0.892,2.496,2.624,4.761,4.501,6.6c1.959,1.919,4.328,3.511,7.07,3.989c2.233,0.389,4.458,0.346,6.678,0.109
				c-1.95,1.448-3.358,3.883-4.048,5.993c-0.976,2.986-0.788,6.224,0.94,8.894c1.713,2.647,4.518,4.447,7.309,5.784
				c3.246,1.555,6.723,2.749,10.261,3.406c2.55,0.474,5.127,0.701,7.697,1.024c1.421,0.178,2.832,0.431,4.264,0.519
				c0.737,0.045,1.5-0.093,2.254-0.17c4.346,0.438,8.727,0.394,13.126,0.39c7.804-0.007,15.596,0.358,23.397-0.031
				c7.973-0.397,15.958-0.482,23.94-0.492c7.842-0.009,15.704,0.669,23.54,0.139c6.875-0.465,13.985-1.501,20.557-3.613
				c2.108-0.678,4.13-1.513,6.057-2.503c1.086,0.176,2.17,0.37,3.253,0.586c5.369,1.073,10.656,2.469,15.912,3.996
				c10.377,3.014,20.636,6.332,31.104,9.031c10.954,2.824,21.933,5.56,32.986,7.973c10.742,2.345,21.534,4.217,32.402,5.867
				c4.866,0.739,9.723,1.582,14.634,1.97c3.474,0.275,7.142,0.415,10.633-0.198c-0.003,0.017-0.007,0.034-0.01,0.052
				c0.485-0.16,0.973-0.31,1.464-0.453c0.093-0.378,0.182-0.756,0.267-1.136c-0.021,0.005-0.042,0.01-0.063,0.015
				c0.285-1.754,0.505-3.503,0.679-5.217C316.843,215.529,316.667,208.586,316.146,201.7z M68.668,129.317
				c-1.271,0.137-2.525,0.366-3.785,0.57c-3.722,0.603-7.346-0.282-11.063-0.323c-0.078-0.001-0.165,0.032-0.25,0.084
				c-0.222-1.105-0.534-2.195-0.904-3.27c0.999-0.152,2.144,0.045,3.069,0.203c1.297,0.222,2.571,0.555,3.86,0.814
				c1.722,0.346,3.459,0.613,5.182,0.961c1.011,0.204,2.02,0.416,3.029,0.627c0.5,0.104,1.009,0.177,1.519,0.251
				C69.076,129.257,68.839,129.298,68.668,129.317z"/>
			<path style="fill:#FFE3CB;" d="M15.945,143.935c-0.576-3.888,1.567-7.586,3.921-10.518c2.113-2.631,4.766-4.883,7.932-6.089
				c0.185,0.313,0.371,0.627,0.554,0.941c1.212,2.081,2.169,4.243,3.06,6.478c1.616,4.051,3.289,8.829,7.242,11.181
				c3.47,2.065,7.901,1.887,10.878-0.954c1.119-1.068,1.975-2.381,2.626-3.807c5.175,2.654,11.214,6.227,11.473,12.759
				c0.106,2.679-0.951,5.377-3.236,6.895c-3.008,1.998-6.775,1.07-10.02,0.252c-3.616-0.911-7.263-1.507-10.966-1.939
				c-3.437-0.401-6.928-0.582-10.306-1.374c-3.077-0.721-6.133-1.995-8.292-4.384C18.487,150.803,16.458,147.401,15.945,143.935z"/>
			<path style="fill:#FFE3CB;" d="M58.145,160.509c-2.035,0.171-4.11,0.112-6.142-0.06c-5.087-0.43-10.07-1.631-15.054-2.68
				c-2.295-0.483-4.623-0.833-6.867-1.53c-2.183-0.677-4.313-1.613-6.193-2.925c-1.434-1.001-2.622-2.217-3.663-3.615
				c-1.09-1.464-2.029-3.048-2.799-4.702c-0.604-1.298-1.114-2.659-1.42-4.062c-0.176,0.98-0.213,1.983-0.062,3
				c0.513,3.466,2.542,6.868,4.867,9.441c2.159,2.389,5.215,3.663,8.292,4.384c3.378,0.792,6.869,0.973,10.306,1.374
				c3.703,0.432,7.35,1.028,10.966,1.939c3.244,0.818,7.012,1.746,10.02-0.253c0.487-0.324,0.915-0.704,1.292-1.123
				C60.588,160.206,59.33,160.41,58.145,160.509z"/>
			<path style="fill:#FFE3CB;" d="M63.631,153.926c-0.258-6.533-6.297-10.105-11.473-12.759c-0.651,1.425-1.507,2.738-2.626,3.807
				c-2.977,2.841-7.408,3.019-10.878,0.954c-3.953-2.353-5.626-7.131-7.242-11.181c-0.891-2.234-1.848-4.397-3.06-6.478
				c-0.183-0.314-0.368-0.627-0.554-0.941c-3.167,1.205-5.819,3.457-7.932,6.089c-2.354,2.931-4.497,6.63-3.921,10.518
				c0.292,1.97,1.074,3.919,2.121,5.707c-0.094-0.453-0.161-0.912-0.208-1.369c-0.144-1.387-0.105-2.794,0.053-4.178
				c0.168-1.477,0.471-2.94,0.921-4.357c0.424-1.336,0.978-2.645,1.723-3.835c0.647-1.033,1.452-1.999,2.473-2.681
				c0.932-0.624,2.037-0.957,3.162-0.877c0.53,0.038,1.083,0.128,1.544,0.407c0.438,0.266,0.8,0.646,1.115,1.046
				c0.878,1.115,1.5,2.428,2.094,3.709c0.721,1.555,1.382,3.136,2.109,4.688c0.692,1.476,1.432,2.954,2.395,4.275
				c0.408,0.56,0.865,1.092,1.395,1.541c0.597,0.505,1.308,0.877,2.045,1.132c1.919,0.664,4.021,0.59,6.015,0.41
				c2.227-0.201,4.434-0.583,6.665-0.746c1.06-0.078,2.127-0.107,3.187-0.021c0.504,0.041,1.007,0.108,1.502,0.209
				c0.516,0.105,1.02,0.29,1.503,0.497c1.34,0.577,2.632,1.601,2.814,3.14c0.161,1.366-0.603,2.666-1.531,3.605
				c-1.227,1.241-2.815,1.978-4.476,2.442c-1.981,0.554-4.044,0.822-6.092,0.971c-1.516,0.11-3.038,0.141-4.558,0.108
				c2.168,0.35,4.32,0.777,6.461,1.316c3.244,0.818,7.012,1.746,10.02-0.253C62.681,159.303,63.737,156.605,63.631,153.926z"/>
			<path style="fill:#FFE3CB;" d="M29.798,179.625c-2.697-0.105-5.042-0.865-7.206-2.493c-2.036-1.533-3.757-3.525-5.054-5.715
				c-3.418-5.773-0.457-11.757,2.645-16.92c1.411,1.403,3.05,2.525,5.038,3.315c3.297,1.311,6.863,1.673,10.364,2.031
				c4.391,0.45,8.806,0.93,13.095,2.005c3.438,0.862,7.279,2.008,10.73,0.58c0.896-0.371,1.708-0.889,2.417-1.516
				c0.005,0.067,0.021,0.133,0.059,0.197c2.416,4.148,2.183,9.787-1.49,13.143c-3.814,3.485-9.344,3.103-14.142,3.421
				C40.743,178.037,35.352,179.841,29.798,179.625z"/>
			<path style="fill:#FFE3CB;" d="M62.802,170.597c-0.001,0.004,0,0.007-0.002,0.01c-0.197,0.471-0.443,0.918-0.736,1.336
				c-1.276,1.822-3.25,3.152-5.309,3.936c-2.444,0.931-5.127,0.813-7.691,0.606c-2.9-0.234-5.85-0.686-8.752-0.252
				c-2.764,0.413-5.443,1.323-8.24,1.529c-2.127,0.157-4.358-0.188-6.333-1.001c-1.567-0.645-2.98-1.62-4.117-2.88
				c-1.11-1.229-1.938-2.684-2.538-4.222c-0.635-1.626-1.015-3.341-1.239-5.069c-0.226-1.748-0.286-3.516-0.236-5.277
				c-1.727,3.901-2.469,8.054-0.071,12.103c1.297,2.19,3.017,4.182,5.054,5.715c2.164,1.629,4.509,2.388,7.206,2.493
				c5.553,0.216,10.945-1.588,16.456-1.952c0.367-0.024,0.738-0.044,1.113-0.062c0.082-0.038,0.164-0.075,0.245-0.114
				c0.092-0.045,0.176,0.018,0.199,0.093c4.401-0.197,9.177-0.224,12.585-3.338c1.142-1.043,1.95-2.307,2.451-3.678
				C62.832,170.582,62.818,170.59,62.802,170.597z"/>
			<path style="fill:#FFE3CB;" d="M61.886,161.109c-0.037-0.064-0.054-0.13-0.059-0.197c-0.709,0.628-1.521,1.146-2.417,1.516
				c-3.451,1.427-7.292,0.282-10.73-0.58c-4.289-1.075-8.704-1.555-13.095-2.005c-3.5-0.359-7.066-0.72-10.364-2.031
				c-1.988-0.79-3.627-1.912-5.038-3.316c-0.279,0.464-0.556,0.935-0.828,1.412c0.122,0.182,0.246,0.362,0.369,0.54
				c0.598,0.863,1.235,1.702,1.926,2.493c0.309,0.353,0.629,0.697,0.972,1.017c0.364,0.339,0.758,0.605,1.188,0.856
				c1.194,0.696,2.476,1.226,3.797,1.63c2.687,0.821,5.498,1.135,8.29,1.342c1.389,0.103,2.779,0.178,4.168,0.268
				c0.676,0.044,1.359,0.074,2.032,0.153c0.411,0.048,0.822,0.109,1.232,0.167c1.773,0.252,3.589,0.564,5.224,1.326
				c0.73,0.341,1.433,0.79,1.965,1.403c0.531,0.61,0.852,1.353,0.94,2.156c0.109,0.992-0.107,2.06-0.517,2.964
				c-0.415,0.915-1.094,1.683-1.881,2.297c-1.695,1.323-3.804,2.031-5.841,2.633c-2.471,0.73-4.954,1.435-7.45,2.075
				c3.495-0.506,6.965-1.324,10.484-1.556c4.798-0.317,10.327,0.064,14.142-3.421C64.07,170.896,64.303,165.257,61.886,161.109z"/>
			<path style="fill:#FFE3CB;" d="M314.999,219.743c-0.182,2.732-0.49,5.461-0.962,8.159c-3.138,0.517-6.36,0.494-9.532,0.283
				c-4.497-0.3-8.952-1.007-13.402-1.701c-4.952-0.772-9.914-1.455-14.853-2.312c-5.631-0.978-11.241-2.079-16.831-3.269
				c-10.958-2.332-21.841-4.999-32.694-7.772c-5.313-1.358-10.625-2.714-15.884-4.272c-5.124-1.518-10.217-3.139-15.339-4.667
				c-5.825-1.737-11.705-3.362-17.676-4.52c-1.115-0.216-2.237-0.421-3.365-0.609c3.312-1.906,6.314-4.306,8.937-7.227
				c0.194-0.216,0.383-0.436,0.573-0.656c-0.187,0.136-0.374,0.271-0.562,0.404c-1.163,0.828-2.354,1.619-3.581,2.35
				c-2.934,2.635-6.272,4.779-10.008,6.295c-6.217,2.524-12.947,3.486-19.567,4.288c-7.622,0.924-15.296,0.358-22.944,0.208
				c-7.653-0.15-15.332-0.03-22.98,0.229c-3.764,0.128-7.523,0.371-11.289,0.409c-3.812,0.038-7.624-0.054-11.435-0.119
				c-4.934-0.084-9.953,0.16-14.918-0.077c-1.597-0.024-3.195-0.043-4.792-0.03c-2.185,0.017-4.371,0.107-6.552-0.09
				c-1.102-0.1-2.213-0.261-3.268-0.605c-0.143-0.047-0.286-0.099-0.428-0.153c-3.725-0.539-7.287-1.466-10.772-2.898
				c-5.175-2.125-11.199-5.765-10.73-12.18c0.139-1.898,0.787-3.756,1.801-5.363c1.143-1.81,2.642-2.969,4.657-3.649
				c0.041-0.014,0.079-0.033,0.114-0.055c2.81-0.464,5.613-1.058,8.416-1.297c5.231-0.446,11.036,0.093,15.401-3.407
				c0.254-0.204,0.495-0.418,0.726-0.638c1.418-0.242,3.331,0.51,4.163,1.296c1.92,1.812,2.431,4.999,2.011,7.498
				c-0.957,5.696-6.468,9.368-11.547,11.122c-2.339,0.808-5.91,1.711-6.866,4.335c-0.195,0.535,0.531,0.46,0.772,0.226
				c1.193-1.155,2.294-1.968,3.854-2.584c1.43-0.565,2.918-0.972,4.328-1.59c2.854-1.252,5.595-3.012,7.65-5.381
				c1.953-2.252,3.29-5.181,3.186-8.208c-0.085-2.49-1.048-5.821-3.569-6.884c-0.759-0.32-2.169-0.601-3.374-0.459
				c3.374-3.771,3.737-9.408,1.138-13.851c-0.09-0.153-0.238-0.206-0.4-0.194c0.994-1.131,1.703-2.511,2.028-4.015
				c0.706-3.268-0.288-6.555-2.328-9.143c-2.497-3.167-6.079-4.907-9.605-6.672c-0.05-0.025-0.105-0.036-0.161-0.039
				c0.64-1.654,1.036-3.415,1.264-5.1c0.215-1.593,0.157-3.158-0.086-4.694c1.892,0.276,3.837,0.416,5.742,0.535
				c1.521,0.094,3.056,0.146,4.566-0.091c1.175-0.185,2.349-0.398,3.515-0.626c0.53-0.104,1.06-0.201,1.592-0.296
				c0.221-0.039,0.831-0.278,1.038-0.213c0.007,0.002,0.016,0.001,0.023,0.003c-0.01,0.041-0.02,0.083-0.03,0.124
				c-0.815,3.379-1.694,6.736-2.272,10.167c-0.571,3.396-0.855,6.835-0.926,10.277c-0.068,3.289,0.073,6.66,0.843,9.871
				c0.043,0.178,0.356,0.036,0.343-0.111c-0.586-6.963-0.146-13.771,1.107-20.641c1.217-6.676,3.838-13.45,3.459-20.313
				c-0.092-0.177-0.192-0.349-0.301-0.514c-0.508,3.508-1.232,6.963-2.049,10.408c-0.736-0.321-1.453-0.667-2.236-0.911
				c-1.018-0.318-2.057-0.595-3.096-0.834c-1.823-0.419-3.674-0.692-5.499-1.1c-1.423-0.318-2.842-0.664-4.292-0.838
				c-0.949-0.114-1.992-0.197-2.877,0.181c-0.463-1.24-0.994-2.459-1.542-3.656c-1.081-2.358-2.2-4.689-3.072-7.099
				c0.007-0.014,0.014-0.028,0.018-0.043c0.483-1.657,0.338-3.469,0.734-5.155c0.058-0.246-0.299-0.187-0.354-0.006
				c-0.357,1.191-0.661,2.438-0.909,3.68c-0.478-1.552-0.835-3.145-0.989-4.808c-0.019-0.209-0.196-0.234-0.38-0.17
				c-0.061,0.329-0.118,0.66-0.164,0.992c-0.1,0.724-0.162,1.453-0.187,2.184c0.787,6.504,5.448,12.204,6.758,18.607
				c1.288,6.298-1.564,18.082-10.222,15.931c-4.455-1.107-6.704-5.204-8.363-9.129c-0.842-1.992-1.581-4.028-2.476-5.998
				c-0.66-1.452-1.453-2.826-2.258-4.197c0.011-0.083-0.019-0.154-0.106-0.181c-0.241-0.41-0.483-0.82-0.723-1.232
				c-1.107-1.906-2.217-3.888-2.683-6.063c-0.385-1.796-0.173-3.67,0.327-5.421c1.087-3.806,3.41-7.331,6.238-10.073
				c2.874-2.787,6.645-4.354,10.51-5.218c0.481-0.107,0.965-0.202,1.452-0.285c-0.26,0.118-0.516,0.246-0.767,0.387
				c-0.045,0.025-0.088,0.053-0.133,0.079c1.278-0.303,2.597-0.441,3.906-0.494c1.495-0.061,3-0.002,4.488,0.146
				c0.332,0.033,0.663,0.074,0.994,0.12c0.247,0.029,0.493,0.061,0.735,0.094c0.373,0.051,0.744,0.11,1.115,0.171
				c0.108,0.04,0.213,0.083,0.319,0.126c0.291,0.064,0.581,0.131,0.87,0.203c0.041-0.028,0.076-0.062,0.099-0.098
				c3.576,0.691,7.076,1.761,10.59,2.704c5.219,1.402,10.648,2.067,15.969,2.975c6.577,1.122,13.19,2.136,19.861,2.47
				c6.775,0.34,13.563,0.31,20.33,0.833c6.341,0.49,12.647,1.504,18.813,3.068c11.526,2.923,22.733,7.993,32.107,15.37
				c4.473,3.52,8.469,7.62,11.871,12.183c2.816,3.778,5.472,7.926,7.234,12.362c0.205,0.736,0.389,1.478,0.556,2.224
				c0.098,0.231,0.195,0.463,0.29,0.695c0.316,0.772,0.618,1.549,0.919,2.327c0.361,0.932,0.653,1.89,0.906,2.857
				c0.055,0.211,0.107,0.422,0.158,0.633c0.075-0.055,0.126-0.137,0.104-0.221c-0.841-3.147-0.89-6.448-2.188-9.468
				c-1.046-2.433-2.265-4.791-3.615-7.07c0.776,0.494,1.56,0.977,2.356,1.441c3.885,2.263,8.017,3.85,12.304,5.174
				c9.144,2.824,18.551,4.69,27.987,6.224c9.633,1.567,19.287,2.858,29.027,3.525c8.998,0.617,18.125,1.044,27.139,0.551
				c4.212-0.23,8.424-0.556,12.646-0.487c1.689,0.027,3.406,0.105,5.105,0.308c0.983,1.849,1.82,3.772,2.531,5.689
				c1.952,5.263,3.078,10.812,3.911,16.351c0.882,5.865,1.506,11.787,2.028,17.693C315.14,206.124,315.451,212.949,314.999,219.743z
				"/>
			<path style="fill:#FFE3CB;" d="M194.658,147.429c2.374,2.502,5.29,4.39,8.429,5.79c4.253,1.897,8.874,3.03,13.351,4.261
				c5.233,1.438,10.507,2.732,15.816,3.855c10.633,2.249,21.424,3.821,32.282,4.411c5.336,0.29,10.688,0.342,16.027,0.108
				c4.697-0.205,9.398-0.241,14.096-0.425c4.474-0.175,9.051-0.458,13.541-1.163c-0.62-1.571-1.323-3.136-2.129-4.651
				c-1.699-0.203-3.417-0.281-5.105-0.308c-4.221-0.069-8.434,0.257-12.646,0.487c-9.014,0.493-18.141,0.066-27.139-0.551
				c-9.74-0.668-19.394-1.959-29.027-3.525c-9.436-1.535-18.844-3.4-27.987-6.225c-4.098-1.266-8.055-2.773-11.789-4.881
				C193.066,145.604,193.822,146.549,194.658,147.429z"/>
			<path style="fill:#FFE3CB;" d="M31.219,130.875c0.896,1.97,1.634,4.005,2.476,5.998c1.656,3.919,3.902,8.009,8.343,9.124
				c-0.126-0.08-0.25-0.164-0.369-0.25c-1.263-0.912-2.306-2.122-3.195-3.393c-0.402-0.574-0.774-1.171-1.102-1.79
				c-0.364-0.687-0.63-1.411-0.919-2.132c-0.872-2.171-1.81-4.316-2.859-6.408c-1.038-2.068-2.211-4.057-3.382-6.051
				c-1.087-1.851-2.145-3.751-2.75-5.822c-1.186-4.068-0.125-8.487,1.7-12.199c0.552-1.122,1.183-2.201,1.875-3.242
				c-2.381,2.576-4.302,5.713-5.261,9.071c-0.5,1.751-0.712,3.625-0.327,5.421c0.466,2.175,1.576,4.158,2.683,6.063
				c0.239,0.412,0.481,0.822,0.723,1.232c0.088,0.027,0.118,0.098,0.106,0.181C29.766,128.049,30.559,129.424,31.219,130.875z"/>
			<path style="fill:#FFE3CB;" d="M38.84,199.441c-1.4-1.164-2.708-2.451-3.802-3.911c-0.999-1.333-1.811-2.826-2.24-4.443
				c-0.411-1.549-0.506-3.246-0.012-4.787c0.431-1.345,1.302-2.483,2.386-3.374c1.16-0.952,2.51-1.645,3.885-2.229
				c1.462-0.62,2.97-1.122,4.472-1.633c0.064-0.022,0.129-0.044,0.193-0.066c-2.333,0.287-4.667,0.76-7.005,1.146
				c-0.035,0.021-0.072,0.041-0.114,0.055c-2.016,0.68-3.515,1.839-4.657,3.649c-1.014,1.607-1.662,3.465-1.801,5.363
				c-0.469,6.416,5.555,10.055,10.73,12.18c0.421,0.173,0.843,0.338,1.267,0.496C41.002,201.127,39.893,200.318,38.84,199.441z"/>
			<path style="fill:#FFE3CB;" d="M145.43,182.98c-1.651-1.608-3.506-2.999-5.417-4.282c-1.95-1.308-3.954-2.541-6.106-3.49
				c-1.217-0.537-2.468-0.994-3.732-1.408c-0.655-0.214-1.315-0.417-1.976-0.612c-0.61-0.18-1.224-0.342-1.818-0.57
				c-0.297-0.114-0.59-0.235-0.882-0.361c0.296,0.355,0.597,0.707,0.906,1.051c1.558,1.734,3.274,3.323,5.087,4.786
				c1.831,1.478,3.763,2.827,5.752,4.081c1.975,1.246,4.009,2.397,6.074,3.486c1.92,1.012,3.868,1.97,5.828,2.901
				c-0.035-0.133-0.073-0.265-0.116-0.396C148.368,186.149,146.929,184.44,145.43,182.98z"/>
			<path style="fill:#FFE3CB;" d="M315.047,206.555c-2.416,0.295-4.87,0.392-7.227,0.541c-6.929,0.436-13.819,0.585-20.757,0.21
				c-7.309-0.395-14.608-1.203-21.861-2.18c-7.074-0.953-14.117-2.171-21.063-3.823c-6.312-1.502-12.539-3.456-18.709-5.457
				c-5.871-1.904-11.743-4.086-17.019-7.338c-4.197-2.587-7.505-6.092-9.42-10.673c-1.801-4.31-2.335-9.025-2.604-13.651
				c-0.346-5.959-0.195-12.288-1.413-18.215c-1.053-0.509-2.091-1.055-3.112-1.65c-0.796-0.464-1.58-0.947-2.356-1.441
				c1.35,2.279,2.569,4.637,3.615,7.07c1.299,3.021,1.347,6.321,2.188,9.468c0.022,0.084-0.029,0.167-0.104,0.221
				c-0.051-0.212-0.103-0.423-0.158-0.633c-0.253-0.967-0.545-1.925-0.906-2.857c-0.301-0.778-0.603-1.555-0.919-2.327
				c-0.095-0.232-0.192-0.464-0.29-0.695c-0.167-0.747-0.351-1.489-0.556-2.224c-1.763-4.436-4.418-8.584-7.234-12.362
				c-3.402-4.563-7.398-8.664-11.871-12.183c-9.374-7.376-20.582-12.447-32.107-15.37c-6.166-1.564-12.472-2.578-18.813-3.068
				c-6.767-0.523-13.555-0.494-20.33-0.833c-6.671-0.334-13.284-1.348-19.861-2.47c-5.322-0.908-10.75-1.574-15.969-2.975
				c-3.514-0.944-7.014-2.013-10.59-2.704c-0.023,0.036-0.059,0.07-0.099,0.098c-0.289-0.072-0.579-0.139-0.87-0.203
				c-0.106-0.043-0.211-0.086-0.319-0.126c-0.371-0.061-0.742-0.119-1.115-0.171c-0.242-0.033-0.487-0.065-0.735-0.094
				c-0.331-0.046-0.662-0.087-0.994-0.12c-1.489-0.148-2.993-0.207-4.488-0.146c-1.308,0.053-2.628,0.191-3.906,0.494
				c0.044-0.026,0.088-0.053,0.133-0.079c0.251-0.141,0.507-0.269,0.767-0.387c-0.486,0.083-0.971,0.178-1.452,0.285
				c-2.867,0.641-5.68,1.67-8.116,3.295c1.5,0.157,2.965,0.66,4.222,1.494c0.05,0.033,0.08,0.093,0.063,0.154
				c-0.148,0.497-0.272,1-0.368,1.509c-0.374,1.985-0.294,4.027,0.143,5.995c0.436,1.961,1.196,3.834,2.091,5.627
				c0.932,1.868,2.01,3.659,3.096,5.44c1.078,1.768,2.172,3.528,3.152,5.352c0.473,0.88,0.918,1.775,1.316,2.692
				c0.364,0.84,0.741,1.715,0.946,2.61c0.32,1.399,0.113,2.875-0.344,4.219c-0.5,1.472-1.298,2.838-2.274,4.044
				c-0.928,1.146-2.047,2.183-3.342,2.902c-1.053,0.584-2.29,0.978-3.5,0.742c-0.635-0.124-1.182-0.425-1.642-0.833
				c1.121,1.056,2.458,1.866,4.093,2.273c8.657,2.151,11.51-9.633,10.222-15.931c-1.31-6.403-5.971-12.103-6.758-18.607
				c0.024-0.731,0.086-1.461,0.187-2.184c0.046-0.332,0.102-0.662,0.164-0.992c0.184-0.064,0.36-0.039,0.38,0.17
				c0.154,1.663,0.511,3.256,0.989,4.808c0.248-1.242,0.552-2.489,0.909-3.68c0.054-0.181,0.411-0.239,0.354,0.006
				c-0.396,1.686-0.251,3.498-0.734,5.155c-0.004,0.015-0.011,0.029-0.018,0.043c0.872,2.41,1.992,4.741,3.072,7.099
				c0.548,1.197,1.079,2.416,1.542,3.656c0.886-0.378,1.928-0.296,2.877-0.181c1.449,0.174,2.869,0.52,4.292,0.838
				c1.824,0.408,3.675,0.681,5.499,1.1c1.039,0.239,2.078,0.517,3.096,0.834c0.783,0.244,1.5,0.591,2.236,0.911
				c0.817-3.445,1.541-6.9,2.049-10.408c0.11,0.165,0.21,0.337,0.301,0.514c0.378,6.864-2.242,13.638-3.459,20.313
				c-1.253,6.87-1.693,13.678-1.107,20.641c0.012,0.148-0.3,0.289-0.343,0.111c-0.77-3.211-0.911-6.581-0.843-9.871
				c0.071-3.442,0.355-6.881,0.926-10.277c0.577-3.431,1.456-6.788,2.272-10.167c0.01-0.042,0.02-0.083,0.03-0.124
				c-0.008-0.001-0.016,0-0.023-0.003c-0.207-0.065-0.817,0.173-1.038,0.213c-0.531,0.095-1.062,0.192-1.592,0.296
				c-1.167,0.228-2.341,0.441-3.515,0.626c-1.51,0.237-3.045,0.186-4.566,0.091c-1.905-0.118-3.849-0.258-5.742-0.535
				c0.243,1.536,0.3,3.101,0.086,4.694c-0.227,1.684-0.623,3.446-1.264,5.1c0.056,0.002,0.111,0.014,0.161,0.039
				c3.526,1.765,7.108,3.505,9.605,6.672c2.041,2.588,3.035,5.876,2.328,9.143c-0.325,1.504-1.034,2.884-2.028,4.015
				c0.161-0.013,0.31,0.04,0.4,0.193c2.599,4.444,2.236,10.08-1.138,13.851c1.206-0.142,2.616,0.139,3.374,0.459
				c2.521,1.063,3.484,4.394,3.569,6.884c0.103,3.027-1.233,5.956-3.186,8.208c-2.055,2.369-4.795,4.129-7.65,5.381
				c-1.41,0.618-2.897,1.025-4.328,1.59c-1.56,0.616-2.661,1.429-3.854,2.584c-0.241,0.233-0.967,0.309-0.772-0.227
				c0.956-2.624,4.528-3.527,6.866-4.335c5.078-1.754,10.59-5.426,11.547-11.122c0.42-2.499-0.091-5.686-2.011-7.498
				c-0.833-0.786-2.746-1.538-4.164-1.296c-0.231,0.22-0.472,0.434-0.726,0.638c-4.366,3.5-10.17,2.96-15.401,3.407
				c-2.803,0.239-5.606,0.833-8.416,1.297c-0.035,0.021-0.072,0.041-0.114,0.055c-0.848,0.286-1.6,0.663-2.277,1.132
				c0.817-0.125,1.633-0.256,2.45-0.38c2.449-0.373,4.901-0.731,7.363-1.003c2.465-0.273,4.948-0.477,7.43-0.44
				c1.06,0.016,2.121,0.078,3.17,0.232c0.859,0.127,1.719,0.317,2.522,0.655c0.638,0.269,1.258,0.642,1.695,1.19
				c0.473,0.593,0.668,1.337,0.623,2.09c-0.072,1.236-0.778,2.323-1.589,3.214c-0.962,1.057-2.125,1.923-3.301,2.727
				c-1.094,0.748-2.232,1.428-3.332,2.166c-0.48,0.322-0.945,0.665-1.418,0.997c-0.603,0.423-1.198,0.859-1.789,1.298
				c-2.631,1.954-5.217,3.985-8.03,5.677c-0.418,0.252-0.845,0.497-1.279,0.734c0.682,0.328,1.365,0.629,2.034,0.904
				c3.486,1.431,7.047,2.359,10.772,2.898c0.142,0.055,0.285,0.107,0.428,0.153c1.055,0.344,2.166,0.505,3.268,0.605
				c2.181,0.197,4.367,0.107,6.552,0.09c1.597-0.013,3.194,0.006,4.792,0.03c4.964,0.237,9.984-0.007,14.918,0.077
				c3.811,0.065,7.623,0.157,11.435,0.119c3.767-0.038,7.525-0.281,11.289-0.409c7.649-0.259,15.328-0.379,22.98-0.229
				c7.648,0.149,15.321,0.716,22.944-0.208c6.62-0.803,13.35-1.765,19.567-4.288c3.737-1.517,7.075-3.66,10.008-6.295
				c1.227-0.731,2.417-1.522,3.581-2.35c0.188-0.134,0.375-0.269,0.562-0.404c-0.19,0.22-0.379,0.44-0.573,0.656
				c-2.623,2.921-5.625,5.321-8.937,7.227c1.128,0.188,2.25,0.393,3.365,0.609c5.971,1.159,11.851,2.783,17.676,4.52
				c5.122,1.527,10.215,3.149,15.339,4.667c5.259,1.557,10.571,2.914,15.884,4.272c10.853,2.773,21.736,5.441,32.694,7.772
				c5.59,1.19,11.2,2.291,16.831,3.269c4.939,0.857,9.901,1.54,14.853,2.312c4.449,0.694,8.904,1.401,13.402,1.701
				c3.171,0.212,6.394,0.234,9.532-0.283c0.472-2.699,0.78-5.427,0.962-8.159C315.291,215.353,315.263,210.95,315.047,206.555z
				 M154.104,198.492c-0.792,0.729-1.745,1.233-2.722,1.665c-1.137,0.503-2.316,0.904-3.516,1.229
				c-5.483,1.483-11.307,1.545-16.946,1.354c-5.313-0.18-10.608-0.685-15.915-0.966c-4.876-0.258-9.759-0.506-14.6-1.176
				c-4.813-0.666-9.643-1.738-14.06-3.815c-4.233-1.99-7.955-4.986-10.408-9.007c-3.242-5.313-4.38-11.786-4.714-17.914
				c-0.362-6.628,0.244-13.255,0.714-19.861c0.352-4.949,0.765-9.899,1.628-14.789c0.9-5.096,2.25-10.23,4.742-14.798
				c1.146-2.101,2.554-4.077,4.28-5.742c1.934-1.865,4.253-3.251,6.815-4.065c5.618-1.786,11.735-0.934,17.384,0.246
				c2.834,0.592,5.692,1.216,8.488,1.97c2.455,0.662,4.924,1.33,7.263,2.34c2.176,0.94,4.243,2.217,5.795,4.034
				c1.733,2.029,2.668,4.547,2.983,7.175c0.382,3.191,0.119,6.436-0.333,9.606c-0.454,3.185-1.14,6.329-1.81,9.474
				c-0.745,3.494-1.019,6.989-0.936,10.559c0.08,3.501,0.387,6.994,0.392,10.498c0,0.08-0.089,0.165-0.172,0.131
				c-1.749-0.712-3.64-0.895-5.509-0.989c-1.887-0.095-3.752-0.192-5.631-0.394c-3.686-0.397-7.308-1.178-10.963-1.772
				c-3.55-0.577-7.132-0.841-10.728-0.668c-6.589,0.317-12.97,2.137-18.862,5.059c0.311-0.046,0.621-0.095,0.932-0.139
				c4.953-0.685,9.96-0.976,14.959-0.924c5.286,0.055,10.571,0.495,15.79,1.341c2.963,0.48,5.905,1.098,8.81,1.859
				c0.827,0.095,1.652,0.206,2.477,0.342c1.808,0.298,3.578,0.751,5.364,1.15c1.696,0.38,3.38,0.814,5.044,1.315
				c3.321,0.999,6.57,2.26,9.648,3.863c3.783,1.971,7.15,4.521,10.133,7.569c1.494,1.527,2.896,3.173,4.025,4.99
				c0.938,1.51,1.75,3.219,1.862,5.019C155.906,195.882,155.298,197.393,154.104,198.492z"/>
			<path style="fill:#FFE3CB;" d="M52.539,140.263c0.056,0.002,0.111,0.014,0.161,0.039c3.526,1.765,7.108,3.505,9.605,6.672
				c2.041,2.588,3.035,5.876,2.328,9.143c-0.325,1.504-1.034,2.884-2.028,4.015c0.161-0.013,0.31,0.04,0.4,0.193
				c2.426,4.147,2.271,9.333-0.504,13.072c0.595-0.348,1.162-0.744,1.684-1.188c1.085-0.922,2.046-2.08,2.508-3.443
				c0.571-1.684,0.468-3.539-0.169-5.188c-0.644-1.665-1.798-3.1-3.168-4.228c-0.043-0.035-0.053-0.12-0.021-0.165
				c1.167-1.643,1.986-3.527,2.192-5.544c0.34-3.325-0.931-6.547-2.666-9.321c-1.819-2.907-4.167-5.452-6.607-7.844
				c-0.058-0.056-0.045-0.135,0-0.192c0.249-0.317,0.584-0.567,0.915-0.793c0.466-0.32,0.964-0.594,1.47-0.845
				c1.105-0.549,2.266-0.996,3.448-1.35c1.196-0.359,2.432-0.631,3.68-0.71c0.979-0.062,2.055-0.02,2.941,0.449
				c0.227,0.12,0.421,0.271,0.586,0.442c0.288-1.191,0.583-2.381,0.87-3.573c0.01-0.042,0.02-0.083,0.03-0.124
				c-0.008-0.001-0.016,0-0.023-0.003c-0.207-0.065-0.817,0.173-1.038,0.213c-0.531,0.095-1.062,0.192-1.592,0.296
				c-1.167,0.228-2.341,0.441-3.515,0.626c-1.51,0.237-3.045,0.186-4.566,0.091c-1.905-0.118-3.849-0.258-5.742-0.535
				c0.243,1.536,0.3,3.101,0.086,4.694C53.575,136.848,53.179,138.61,52.539,140.263z"/>
			<path style="fill:#FFE3CB;" d="M43.976,98.204c-0.338,0.058-0.674,0.123-1.009,0.192c0.039,0.09,0.076,0.181,0.112,0.272
				c0.043-0.026,0.086-0.052,0.13-0.077C43.46,98.45,43.716,98.322,43.976,98.204z"/>
			<path style="fill:#FFE3CB;" d="M65.471,121.392c-2.746-0.059-5.492-0.702-8.06-1.654c-1.125-0.417-2.231-0.9-3.279-1.485
				c-0.656-0.366-1.284-0.769-1.831-1.288c-0.492-0.466-0.909-1.01-1.24-1.601c-0.674-1.202-1.001-2.558-1.33-3.885
				c-0.186-0.747-0.339-1.528-0.616-2.248c-0.307-0.8-0.665-1.58-1.076-2.332c-0.76-1.39-1.708-2.664-2.783-3.826
				c-0.518-0.56-1.064-1.093-1.624-1.612c0.1,1.644-0.078,3.291-0.22,4.928c-0.33,3.792-0.102,7.674,1.3,11.245
				c0.732,1.864,1.755,3.558,2.809,5.251c0.763,1.226,1.455,2.496,2.082,3.796c1.348,2.796,2.473,5.808,2.831,8.911
				c0.232-1.982,0.171-3.928-0.155-5.523c-1.31-6.403-5.971-12.103-6.758-18.607c0.024-0.731,0.086-1.461,0.187-2.184
				c0.046-0.332,0.102-0.662,0.164-0.992c0.184-0.064,0.36-0.039,0.38,0.17c0.154,1.663,0.511,3.256,0.989,4.808
				c0.248-1.242,0.552-2.489,0.909-3.68c0.054-0.181,0.411-0.239,0.354,0.006c-0.396,1.686-0.251,3.498-0.734,5.155
				c-0.004,0.015-0.011,0.029-0.018,0.043c0.872,2.41,1.992,4.741,3.072,7.099c0.548,1.197,1.079,2.416,1.542,3.656
				c0.886-0.378,1.928-0.296,2.877-0.181c1.449,0.174,2.869,0.52,4.292,0.838c1.824,0.408,3.675,0.681,5.499,1.1
				c1.039,0.239,2.078,0.517,3.096,0.834c0.708,0.221,1.362,0.524,2.024,0.818c0.038-0.073,0.078-0.146,0.116-0.22
				c0.108-0.21,0.214-0.422,0.317-0.635c0.677-2.92,1.278-5.85,1.73-8.816C70.521,121.012,67.872,121.443,65.471,121.392z"/>
			<path style="fill:#FFE3CB;" d="M57.975,195.109c-1.41,0.618-2.897,1.025-4.328,1.59c-1.222,0.483-2.162,1.089-3.086,1.883
				c0.368-0.05,0.737-0.102,1.104-0.16c3.369-0.533,6.691-1.36,10.104-1.582c2.367-0.154,4.911-0.115,7.022-1.365
				c0.981-0.58,1.763-1.421,2.341-2.398c0.367-0.619,0.661-1.288,0.925-1.956c0.279-0.704,0.499-1.431,0.647-2.174
				c0.27-1.353,0.284-2.756,0.024-4.112c-0.249-1.302-0.736-2.547-1.394-3.695c-1.011-1.768-2.391-3.299-3.947-4.613
				c0.951,1.467,1.367,3.401,1.421,4.994c0.103,3.027-1.233,5.956-3.186,8.208C63.569,192.096,60.829,193.857,57.975,195.109z"/>
			<path style="fill:#FFE3CB;" d="M61.259,174.805c-0.231,0.22-0.472,0.434-0.726,0.638c-0.458,0.367-0.933,0.688-1.42,0.972
				c0.296,0.02,0.59,0.056,0.883,0.124c0.697,0.162,1.347,0.483,1.917,0.913c0.566,0.426,1.093,0.894,1.519,1.463
				c0.749,1.002,1.113,2.237,1.09,3.482c-0.024,1.279-0.424,2.534-1.035,3.651c-0.521,0.953-1.176,1.827-1.976,2.563
				c-0.768,0.707-1.633,1.302-2.519,1.851c-1.813,1.124-3.762,2.051-5.458,3.357c-0.776,0.597-1.497,1.286-2.036,2.108
				c-0.162,0.247-0.302,0.506-0.425,0.771c1.475-0.946,3.376-1.48,4.814-1.976c5.078-1.754,10.59-5.426,11.547-11.122
				c0.42-2.499-0.091-5.686-2.011-7.498C64.59,175.315,62.677,174.563,61.259,174.805z"/>
			<path style="fill:#FFE3CB;" d="M192.513,144.689c-0.218-0.122-0.435-0.244-0.651-0.37c-0.796-0.464-1.58-0.947-2.356-1.441
				c1.339,2.261,2.55,4.601,3.59,7.014C192.961,148.152,192.76,146.418,192.513,144.689z"/>
			<path style="fill:#FFE3CB;" d="M133.071,110.358c1.084,1.947,1.637,4.136,1.857,6.342c0.529,5.293-0.753,10.474-1.494,15.676
				c-0.836,5.863-1.112,11.855-0.367,17.743c0.732,5.784,2.518,11.473,5.731,16.37c2.898,4.417,6.839,7.944,11.41,10.556
				c4.458,2.547,9.404,4.331,14.48,5.127c4.901,0.769,10.109,0.598,14.733-1.342c2.256-0.946,4.324-2.32,6.043-4.063
				c2.073-2.102,3.738-4.635,4.962-7.316c2.209-4.839,2.919-10.189,2.859-15.476c-0.021-0.051-0.04-0.102-0.061-0.153
				c-0.095-0.232-0.192-0.464-0.29-0.695c-0.167-0.747-0.351-1.489-0.556-2.224c-1.763-4.436-4.418-8.584-7.234-12.362
				c-3.402-4.563-7.398-8.664-11.871-12.183c-9.374-7.376-20.582-12.447-32.107-15.37c-2.934-0.744-5.899-1.36-8.885-1.857
				C132.564,109.524,132.832,109.931,133.071,110.358z"/>
		</g>
		<path style="fill:#D09670;" d="M134.396,172.363c-6.88-2.056-13.616-4.663-20.619-6.288c-7.499-1.74-15.362-1.82-23.025-1.476
			c-4.501,0.202-9.007,0.706-13.38,1.817c-0.17,0.043-0.273,0.383-0.034,0.336c7.914-1.546,15.938-1.517,23.961-1.137
			c3.674,0.174,7.287,0.534,10.882,1.336c3.44,0.767,6.805,1.815,10.153,2.905c3.8,1.237,7.575,2.549,11.444,3.557
			C134.322,173.556,135.015,172.548,134.396,172.363z"/>
	</g>
	<g>
		<path style="fill:#6F9C42;" d="M116.204,106.713c-3.512,1.084-5.146,4.973-7.127,7.735c-1.11,1.547-2.409,2.95-4.069,3.914
			c-1.952,1.134-4.228,1.546-6.318,2.365c-4.205,1.65-7.857,4.197-10.607,7.807c-1.088,1.428-2.396,2.974-2.357,4.872
			c0.004,0.168,0.029,0.33,0.049,0.494c-0.075-0.094-0.154-0.184-0.225-0.281c-0.206-0.281-0.507,0.26-0.365,0.479
			c0.291,0.447,0.625,0.861,0.98,1.259c0.527,1.254,1.462,2.346,2.446,3.279c0.273,0.258,0.538,0.219,0.75,0.048
			c1.268,1.458,2.487,2.967,3.645,4.512c2.503,3.339,4.791,6.863,6.931,10.444c2.138,3.578,4.131,7.249,5.99,10.98
			c1.769,3.548,3.204,7.258,5.103,10.741c1.378,2.53,3.641,6.709,6.898,7.056c0.604,0.064,0.829-0.65,0.839-1.114
			c0.044-1.978-1.387-3.432-2.403-4.984c-1.48-2.259-2.986-4.506-4.367-6.828c-1.261-2.122-2.447-4.294-3.492-6.531
			c-0.312-0.668-0.593-1.35-0.877-2.029c0.549,1.044,1.125,2.075,1.694,3.109c1.38,2.503,2.806,4.982,4.451,7.323
			c2.192,3.119,4.245,7.452,7.984,8.963c0.377,0.152,0.664-0.119,0.799-0.461c0.76-1.92-0.73-4.134-1.742-5.662
			c-1.661-2.504-3.268-5.005-4.753-7.624c-1.055-1.86-2.071-3.741-3.069-5.632c1.893,3.06,3.894,6.055,6.025,8.954
			c1.176,1.6,2.448,3.124,3.633,4.716c0.94,1.262,1.953,2.523,3.591,2.798c0.484,0.081,0.751-0.579,0.718-0.954
			c-0.151-1.716-1.098-3.117-1.88-4.605c-1.05-2-2.036-4.033-3.008-6.072c-0.779-1.634-1.591-3.258-2.369-4.896
			c1.111,1.919,2.306,3.788,3.588,5.598c1.95,2.753,4.179,6.574,7.532,7.75c0.252,0.089,0.533,0.004,0.658-0.255
			c1.444-3.008-1.444-6.861-2.946-9.298c-1.027-1.666-1.869-3.408-2.726-5.166c0.953,1.297,1.921,2.589,2.796,3.942
			c1.61,2.491,3.479,6.43,6.666,7.128c0.637,0.139,0.854-0.838,0.749-1.264c-0.942-3.843-3.589-6.923-5.582-10.249
			c-2.316-3.865-4.173-8.12-5.613-12.383c-2.757-8.158-3.465-16.688-2.257-25.196c0.474-3.335,1.003-6.898,0.078-10.206
			C121.826,108.353,119.52,105.689,116.204,106.713z"/>
		<path style="opacity:0.43;fill:#6F9C42;" d="M116.204,106.713c-3.512,1.084-5.146,4.973-7.127,7.735
			c-1.11,1.547-2.409,2.95-4.069,3.914c-1.952,1.134-4.228,1.546-6.318,2.365c-4.205,1.65-7.857,4.197-10.607,7.807
			c-1.088,1.428-2.396,2.974-2.357,4.872c0.004,0.168,0.029,0.33,0.049,0.494c-0.075-0.094-0.154-0.184-0.225-0.281
			c-0.206-0.281-0.507,0.26-0.365,0.479c0.291,0.447,0.625,0.861,0.98,1.259c0.527,1.254,1.462,2.346,2.446,3.279
			c0.273,0.258,0.538,0.219,0.75,0.048c1.268,1.458,2.487,2.967,3.645,4.512c1.441,1.922,2.803,3.909,4.114,5.929
			c1.456,1.444,2.616,3.252,3.714,4.907c1.79,2.697,3.693,5.313,5.409,8.06c1.819,2.912,3.535,5.888,5.347,8.806
			c1.719,2.77,3.254,5.603,4.769,8.488c0.533,1.015,1.078,2.031,1.656,3.026c0.535-0.014,0.741-0.67,0.751-1.109
			c0.044-1.978-1.386-3.432-2.403-4.983c-1.48-2.26-2.987-4.506-4.367-6.828c-1.262-2.122-2.448-4.294-3.492-6.531
			c-0.312-0.668-0.593-1.35-0.878-2.03c0.549,1.044,1.125,2.076,1.694,3.109c0.536,0.972,1.084,1.938,1.645,2.897
			c-0.293-0.573-0.575-1.152-0.832-1.744c-0.18-0.414,0.424-0.726,0.719-0.447c2.6,2.459,4.202,5.712,6.286,8.575
			c1.669,2.291,3.472,4.511,5.372,6.629c0.014-0.029,0.034-0.053,0.046-0.084c0.76-1.92-0.73-4.135-1.743-5.663
			c-1.66-2.504-3.268-5.005-4.752-7.623c-1.055-1.86-2.071-3.742-3.069-5.631c1.893,3.06,3.894,6.056,6.025,8.954
			c1.176,1.6,2.447,3.124,3.633,4.716c0.424,0.57,0.867,1.134,1.371,1.613c-0.573-1.002-1.063-2.051-1.448-3.139
			c-0.141-0.399,0.425-0.768,0.719-0.447c1.275,1.393,2.282,3.026,3.502,4.466c0.123-0.202,0.181-0.46,0.165-0.648
			c-0.151-1.716-1.099-3.118-1.88-4.605c-1.05-2-2.036-4.033-3.008-6.072c-0.779-1.634-1.59-3.258-2.369-4.896
			c1.111,1.919,2.306,3.788,3.587,5.597c1.95,2.753,4.179,6.575,7.532,7.75c0.252,0.088,0.533,0.004,0.658-0.256
			c1.444-3.008-1.444-6.861-2.945-9.298c-1.028-1.666-1.869-3.408-2.726-5.166c0.953,1.297,1.921,2.588,2.796,3.942
			c1.61,2.491,3.479,6.431,6.667,7.128c0.024,0.005,0.044-0.001,0.067,0.001c-0.994-1.312-2.002-2.612-2.984-3.933
			c-1.371-1.844-2.69-3.734-3.809-5.743c-1.125-2.019-1.981-4.152-2.634-6.368c-0.614-2.083-1.007-4.202-1.375-6.339
			c-0.211-1.226-0.472-2.557-0.42-3.843c-2.146-7.447-2.641-15.165-1.547-22.868c0.474-3.335,1.003-6.898,0.078-10.205
			C121.826,108.353,119.52,105.689,116.204,106.713z M103.266,145.745c0.396,0.698,0.753,1.424,1.039,2.175
			c0.214,0.562,0.407,1.168,0.413,1.774c0.003,0.387-0.448,0.584-0.737,0.336c-0.896-0.768-1.617-1.752-2.226-2.757
			c-0.532-0.878-0.996-1.823-1.307-2.808c-0.233-0.514-0.422-1.046-0.522-1.598c-0.058-0.32,0.274-0.756,0.623-0.515
			C101.729,143.171,102.571,144.517,103.266,145.745z"/>
		<g>
			<g>
				<g>
					<path style="fill:#648A3C;" d="M156.842,25.789c-2.669-7.976-7.516-15.874-15.141-19.943
						c-7.737-4.128-17.713-2.456-24.822,2.214c-6.893,4.529-11.127,11.981-13.732,19.627c-3.043,8.932-4.638,18.61-4.033,28.039
						c0.706,11.006,4.364,21.532,9.08,31.421c2.054,4.308,4.447,8.431,6.572,12.702c1.752,3.519,3.379,7.173,4.089,11.063
						c0.697,3.818-0.546,7.699-1.55,11.345c-2.192,7.956-2.815,16.296-2.419,24.52c0.2,4.142,0.663,8.27,1.352,12.359
						c0.651,3.862,1.241,8.054,3.093,11.556c0.758,1.434,2.122,2.421,3.313,0.702c1.515-2.187,0.925-5.304,0.37-7.694
						c-0.323-1.392-0.727-2.765-1.043-4.159c-0.355-1.569-0.517-3.181-0.739-4.773c-0.505-3.627-0.997-7.258-1.33-10.906
						c-0.645-7.068-0.249-14.055,0.578-21.089c0.161-1.369,0.323-2.736,0.474-4.105c3.056-2.994,5.247-6.82,8.429-9.721
						c3.88-3.537,8.267-6.454,12.288-9.821c3.555-2.977,6.655-6.361,9.125-10.292c2.321-3.694,4.119-7.707,5.509-11.837
						c2.812-8.355,4.07-17.223,4.141-26.023C160.515,42.506,159.535,33.841,156.842,25.789z"/>
					<path style="fill:#8DBA54;" d="M158.889,45.763c0.481,8.446-0.218,16.993-2.199,25.222
						c-1.982,8.233-5.372,16.502-11.129,22.836c-3.472,3.82-7.699,6.812-11.763,9.953c-1.988,1.536-3.952,3.112-5.785,4.832
						c-1.691,1.588-3.12,3.377-4.528,5.213c-0.832,1.084-1.674,2.162-2.583,3.178c-0.188-0.14-0.492-0.104-0.769,0.036
						c0.283-1.014,0.575-2.027,0.887-3.037c1.996-6.462,4.328-12.818,6.128-19.34c1.751-6.344,3.173-12.786,4.248-19.278
						c2.151-12.99,2.742-26.187,0.688-39.227c-0.259-1.641-0.565-3.275-0.91-4.9c-0.056-0.264-0.451-0.048-0.41,0.164
						c2.661,13.748,1.911,27.978-0.417,41.717c-1.145,6.756-2.683,13.452-4.449,20.072c-1.774,6.644-4.132,13.109-6.192,19.666
						c-0.301-6.085-3.402-12.198-6.127-17.394c-4.835-9.217-9.402-18.634-11.798-28.821c-1.201-5.104-1.852-10.336-1.824-15.583
						c0.026-5.055,0.745-10.062,1.811-14.995c1.707-7.901,4.437-16.021,9.771-22.254c5.611-6.556,14.602-10.513,23.263-9.119
						c8.655,1.393,15.077,9.062,18.617,16.601C156.992,28.915,158.415,37.423,158.889,45.763z"/>
					<path style="opacity:0.39;fill:#8DBA54;" d="M153.418,21.304c-3.002-6.391-8.08-12.859-14.827-15.535
						c1.523,1.417,2.864,3.042,4.002,4.775c2.551,3.886,4.296,8.262,5.52,12.733c1.655,6.045,2.214,12.361,1.828,18.61
						c-0.391,6.324-1.739,12.575-3.766,18.572c-0.997,2.949-2.107,5.873-3.402,8.705c-0.776,1.697-1.618,3.381-2.641,4.944
						c-0.756,1.155-1.675,2.438-2.941,3.078c-0.891,0.452-2.081,0.412-2.675-0.483c-0.743-1.118-0.789-2.73-0.856-4.022
						c-0.191-3.687,0.136-7.391,0.416-11.066c0.15-1.969,0.117-3.92,0.033-5.895c-0.15-3.548-0.467-7.086-0.867-10.614
						c-0.342-3.018-0.715-6.026-1.014-9.048c-0.2-2.028-0.415-4.269-1.21-6.215c0.015,0.421,0.032,0.843,0.045,1.264
						c0,0.01,0.001,0.02,0.001,0.029c0.051,0.01,0.095,0.04,0.11,0.114c0.346,1.625,0.652,3.259,0.911,4.9
						c2.054,13.04,1.463,26.236-0.688,39.227c-1.075,6.492-2.498,12.934-4.248,19.278c-1.8,6.522-4.132,12.878-6.128,19.34
						c-0.312,1.01-0.604,2.023-0.887,3.037c0.278-0.14,0.581-0.176,0.769-0.036c0.909-1.015,1.751-2.093,2.583-3.178
						c1.408-1.836,2.838-3.625,4.528-5.213c1.833-1.721,3.797-3.296,5.785-4.832c4.064-3.14,8.291-6.133,11.763-9.953
						c5.758-6.334,9.147-14.603,11.129-22.836c1.981-8.229,2.68-16.777,2.199-25.222C158.415,37.423,156.992,28.915,153.418,21.304z
						"/>
					<path style="opacity:0.39;fill:#8DBA54;" d="M119.705,112.87c2.06-6.557,4.418-13.022,6.192-19.666
						c1.767-6.619,3.305-13.316,4.449-20.072c2.214-13.069,2.995-26.582,0.776-39.701c0.186,7.941,0.05,15.898-0.791,23.801
						c-0.46,4.325-1.13,8.628-2.05,12.88c-0.823,3.801-1.899,7.514-3.054,11.224c-0.703,2.26-1.383,4.53-2.318,6.708
						c-0.828,1.931-1.933,4.372-3.91,5.379c-2.417,1.23-4.505-1.232-5.806-2.953c-2.431-3.216-4.073-7.02-5.84-10.622
						c-1.825-3.72-3.529-7.497-5.107-11.324c2.493,9.474,6.794,18.301,11.332,26.952
						C116.303,100.671,119.404,106.784,119.705,112.87z"/>
					<path style="fill:#A7D052;" d="M122.197,17.289c-0.922-1.927-2.512-4.359-4.821-4.702c-4.835-0.718-8.581,8.373-9.914,11.906
						c-3.028,8.028-5.161,18.135-1.978,26.427c0.386,1.006,0.878,2.008,1.692,2.716c0.959,0.835,2.287,1.012,3.478,0.61
						c0.913-0.307,1.707-0.893,2.423-1.537c4.467-4.019,7.428-10.797,9.269-16.422C124.345,30.179,125.052,23.255,122.197,17.289z"
						/>
					<path style="fill:#A7D052;" d="M113.415,62.727c-0.235-1.081-0.707-2.102-1.421-2.799c-0.828-0.808-2.833-1.329-3.825-0.528
						c-0.35,0.283-0.53,0.722-0.677,1.148c-0.71,2.057-1,4.429,0.387,6.281c0.814,1.087,2.246,1.838,3.54,1.427
						c1.046-0.333,1.761-1.351,2.012-2.419C113.65,64.909,113.647,63.789,113.415,62.727z"/>
				</g>
				<path style="fill:#4B6D2D;" d="M118.01,122.567c-0.577,4.244-1.559,8.438-2.27,12.663c-0.654,3.887-0.547,7.885-0.401,11.81
					c0.144,3.855,0.601,7.652,1.338,11.437c0.717,3.682,1.589,7.668,3.401,10.983c0.101,0.185,0.355-0.048,0.311-0.206
					c-1.092-3.872-2.086-7.631-2.536-11.645c-0.42-3.749-0.523-7.547-0.645-11.316c-0.127-3.907-0.168-7.806,0.205-11.702
					c0.387-4.033,0.793-8.027,0.937-12.077C118.358,122.269,118.035,122.386,118.01,122.567z"/>
			</g>
			<g>
				<g>
					<path style="fill:#648A3C;" d="M97.317,67.785c-4.14-8.201-9.046-16.213-15.419-22.836
						c-5.877-6.108-13.328-10.94-21.799-11.714c-9.831-0.898-19.983,3.531-25.489,11.87c-6.652,10.075-5.376,23.266-0.595,34.034
						c5.484,12.352,15.559,21.97,26.431,29.469c10.308,7.111,22.105,11.605,32.236,18.995c2.518,1.836,4.917,3.857,7.079,6.12
						c2.396,2.507,4.508,5.326,6.541,8.139c0.302,0.418,0.592,0.842,0.884,1.266c1.171,2.737,2.284,5.499,3.386,8.259
						c1.632,4.086,3.33,8.149,4.836,12.284c0.152,0.769,0.301,1.54,0.468,2.307c0.516,2.373,1.09,4.779,2.064,7.014
						c0.663,1.523,1.609,3.325,3.311,3.803c0.58,0.163,1.074-0.461,1.198-0.953c0.646-2.56,0.012-5.293-0.845-7.745
						c-0.908-2.599-2.157-5.054-3.337-7.534c-3.173-6.67-6.641-13.401-8.421-20.611c-1.76-7.129-0.503-14.347,0.21-21.492
						c0.709-7.102,0.114-14.178-1.51-21.151C106.173,87.104,102.033,77.127,97.317,67.785z"/>
					<path style="fill:#8DBA54;" d="M104.774,88.538c2.217,6.793,3.834,13.809,4.113,20.956c0.277,7.116-1.293,14.024-1.592,21.097
						c-0.138,3.252,0.068,6.48,0.781,9.665c-0.124-0.247-0.248-0.494-0.372-0.741c-1.365-3.072-2.816-6.103-4.44-9.051
						c-3.892-7.063-8.919-13.461-13.963-19.705c-5.008-6.2-10.206-12.238-15.404-18.272c-5.824-6.761-11.76-13.514-16.919-20.822
						c-0.142-0.201-0.445,0.132-0.327,0.312c4.42,6.76,9.131,13.256,14.164,19.561c4.936,6.184,10.122,12.155,15.129,18.28
						c3.326,4.068,6.677,8.198,9.758,12.504c2.247,3.605,4.387,7.277,6.475,10.981c0.589,1.045,1.155,2.102,1.713,3.163
						c-0.76-0.96-1.536-1.907-2.35-2.813c-8.187-9.106-19.465-14.148-29.909-19.922c-11.228-6.208-21.995-14.14-29.875-24.527
						c-7.442-9.809-12.739-23.295-9.632-35.637c1.274-5.059,4.046-9.622,7.975-12.952c3.92-3.323,8.873-5.238,13.936-5.867
						c8.43-1.047,16.453,1.931,23.081,7.292c6.94,5.612,12.298,13.152,16.632,20.948C98.249,71.084,101.898,79.729,104.774,88.538z"
						/>
					<path style="opacity:0.39;fill:#7EA94B;" d="M103.888,136.465c-0.558-1.062-1.124-2.119-1.713-3.164
						c-2.089-3.704-4.229-7.376-6.475-10.981c-3.081-4.306-6.433-8.436-9.759-12.504c-5.007-6.124-10.193-12.095-15.129-18.279
						c-4.391-5.501-8.524-11.16-12.445-17c-1.427-1.101-2.889-2.155-4.401-3.138c-4.001-2.602-8.375-4.771-13.078-5.731
						c-3.119-0.636-6.286-0.639-9.36-0.031c1.115,8.544,5.171,16.903,10.226,23.565c7.881,10.387,18.648,18.319,29.875,24.526
						c10.444,5.775,21.722,10.817,29.909,19.923C102.353,134.558,103.128,135.505,103.888,136.465z"/>
					<path style="opacity:0.39;fill:#7EA94B;" d="M77.8,48.816c-1.294,4.549-1.455,9.268-1.176,13.964
						c0.279,4.711,0.778,9.433,1.784,14.047c2.019,9.258,5.801,18,10.071,26.42c0.215,0.424-0.298,0.91-0.673,0.551
						c-0.355-0.342-0.708-0.686-1.058-1.034c-3.275-3.251-6.36-6.69-9.492-10.078c-3.578-3.87-7.194-7.708-11.018-11.337
						c-1.973-1.872-4.003-3.695-6.113-5.419c4.358,5.705,9.096,11.13,13.769,16.554c5.198,6.034,10.397,12.073,15.404,18.272
						c5.044,6.245,10.071,12.643,13.963,19.706c1.624,2.948,3.075,5.979,4.44,9.051c0.123,0.247,0.248,0.493,0.372,0.741
						c-0.712-3.185-0.918-6.412-0.78-9.665c0.299-7.073,1.87-13.981,1.592-21.097c-0.278-7.147-1.895-14.163-4.113-20.956
						c-2.875-8.809-6.525-17.454-11.026-25.551c-3.784-6.807-8.35-13.419-14.068-18.723C78.92,45.717,78.255,47.216,77.8,48.816z"/>
					<path style="opacity:0.39;fill:#8DBA54;" d="M93.747,62.987c-4.334-7.796-9.692-15.336-16.632-20.948
						c-6.629-5.361-14.651-8.339-23.081-7.292c-3.404,0.423-6.75,1.442-9.774,3.064c4.787-0.486,9.721,0.913,14.082,2.911
						c5.01,2.296,9.356,5.65,13.271,9.565c4.824,4.824,8.925,10.375,12.374,16.281c3.473,5.948,6.317,12.28,8.495,18.82
						c0.746,2.238,1.393,4.508,2.052,6.773c0.632,2.173,1.211,4.366,1.614,6.594c0.397,2.194,0.681,4.514,0.308,6.721
						c-0.254,1.506-1.014,3.504-2.656,3.878c-1.68,0.383-3.451-0.896-4.715-1.884c-1.777-1.39-3.348-3.05-4.857-4.732
						c-1.441-1.607-2.848-3.228-4.322-4.805c-2.728-2.919-5.413-5.88-8.075-8.861c-4.095-4.584-8.144-9.21-12.218-13.813
						c4.497,5.953,9.425,11.589,14.281,17.227c5.198,6.035,10.397,12.073,15.404,18.272c5.044,6.245,10.071,12.643,13.963,19.706
						c1.624,2.948,3.075,5.979,4.44,9.051c0.124,0.247,0.248,0.493,0.372,0.741c-0.712-3.184-0.918-6.413-0.781-9.665
						c0.3-7.072,1.87-13.98,1.592-21.097c-0.278-7.147-1.895-14.163-4.113-20.955C101.899,79.729,98.249,71.084,93.747,62.987z"/>
					<path style="opacity:0.39;fill:#8DBA54;" d="M95.7,122.321c-3.081-4.305-6.433-8.436-9.758-12.504
						c-5.006-6.124-10.193-12.095-15.129-18.279c-3.877-4.857-7.559-9.83-11.067-14.947c1.504,2.762,3.034,5.509,4.628,8.219
						c2.228,3.785,4.613,7.474,7.006,11.155c2.187,3.364,4.488,6.682,6.488,10.166c0.414,0.72,1.017,1.879,0.08,2.444
						c-0.506,0.305-1.21,0.294-1.779,0.245c-0.754-0.064-1.497-0.233-2.224-0.45c-3.141-0.936-6.041-2.64-8.862-4.307
						c-3.346-1.977-6.615-4.022-9.718-6.39c-6.305-4.811-12.164-10.46-16.944-16.854c-2.068-2.765-3.931-5.697-5.517-8.77
						c1.854,6.245,5.072,12.175,8.851,17.155c7.88,10.387,18.648,18.319,29.875,24.526c10.444,5.775,21.722,10.817,29.909,19.922
						c0.814,0.906,1.59,1.853,2.35,2.814c-0.558-1.062-1.124-2.119-1.713-3.164C100.087,129.598,97.947,125.926,95.7,122.321z"/>
				</g>
				<path style="fill:#A7D052;" d="M46.58,56.609c-1.488-2.445-3.63-4.66-6.411-5.565c-1.722-0.56-3.459-0.284-4.708,1.089
					c-1.099,1.208-1.695,2.808-1.856,4.416c-0.011,0.108-0.007,0.216-0.014,0.325c-0.555,1.387-0.582,2.985-0.375,4.512
					c0.361,2.662,1.302,5.216,2.367,7.669c0.934,2.151,2.075,4.126,3.627,5.899c1.426,1.629,3.394,3.552,5.696,3.664
					c2.631,0.128,3.972-2.697,4.548-4.841c0.743-2.765,0.666-5.737,0.211-8.543C49.175,62.216,48.174,59.227,46.58,56.609z"/>
				<path style="fill:#A7D052;" d="M52.444,81.746c-0.656-0.95-1.609-1.814-2.734-2.147c-0.993-0.294-2.258-0.077-2.932,0.766
					c-0.481,0.601-0.469,1.326-0.253,2.004c0.03,0.829,0.594,1.798,1.04,2.408c0.51,0.697,1.102,1.359,1.762,1.918
					c0.689,0.583,1.702,1.056,2.612,0.779c1.04-0.317,1.439-1.464,1.482-2.449C53.471,83.867,53.099,82.694,52.444,81.746z"/>
				<path style="fill:#4B6D2D;" d="M111.784,150.368c-1.053-2.431-1.87-4.932-3.392-7.128c-0.142-0.205-0.467,0.113-0.387,0.297
					c1.083,2.495,1.817,5.13,2.796,7.667c1.034,2.681,2.334,5.252,3.36,7.938c2.048,5.36,4.065,10.762,6.266,16.062
					c0.102,0.246,0.428-0.026,0.367-0.225c-1.722-5.597-3.753-11.132-5.646-16.674C114.219,155.582,112.926,153.005,111.784,150.368
					z"/>
			</g>
			<g>
				<g>
					<path style="fill:#648A3C;" d="M135.053,25.69c-3.884-7.236-9.852-14.037-17.861-16.694
						c-8.127-2.697-17.451,0.559-23.522,6.226c-5.887,5.496-8.732,13.366-9.977,21.154c-1.454,9.097-1.393,18.674,0.745,27.649
						c2.495,10.475,7.752,20.001,13.922,28.74c2.688,3.807,5.67,7.381,8.42,11.139c2.266,3.097,4.435,6.345,5.76,9.971
						c1.301,3.56,0.745,7.499,0.38,11.173c-0.797,8.019-0.021,16.147,1.718,23.996c0.876,3.953,2.002,7.85,3.34,11.671
						c1.263,3.609,2.523,7.546,4.883,10.611c0.966,1.255,2.441,1.98,3.304,0.129c1.097-2.354,0.015-5.257-0.913-7.466
						c-0.541-1.287-1.156-2.541-1.689-3.83c-0.601-1.452-1.023-2.976-1.499-4.472c-1.084-3.408-2.157-6.821-3.079-10.277
						c-1.787-6.695-2.559-13.484-2.923-20.39c-0.071-1.344-0.141-2.686-0.221-4.028c2.447-3.386,3.924-7.429,6.508-10.746
						c3.15-4.044,6.891-7.575,10.205-11.478c2.93-3.451,5.355-7.22,7.084-11.411c1.624-3.938,2.693-8.096,3.349-12.3
						c1.328-8.504,1.075-17.246-0.308-25.726C141.346,41.171,138.974,32.994,135.053,25.69z"/>
					<path style="fill:#8DBA54;" d="M140.319,44.573c1.856,8.049,2.594,16.389,2.045,24.636c-0.549,8.25-2.447,16.767-6.943,23.812
						c-2.711,4.248-6.285,7.826-9.678,11.518c-1.66,1.806-3.29,3.646-4.77,5.605c-1.365,1.807-2.446,3.764-3.498,5.764
						c-0.622,1.181-1.254,2.357-1.961,3.484c-0.204-0.103-0.49-0.018-0.734,0.162c0.105-1.022,0.219-2.046,0.352-3.069
						c0.855-6.548,2.051-13.049,2.707-19.622c0.638-6.394,0.945-12.828,0.908-19.253c-0.073-12.856-1.682-25.653-5.81-37.863
						c-0.52-1.537-1.084-3.058-1.685-4.566c-0.097-0.245-0.442,0.028-0.367,0.225c4.829,12.791,6.454,26.609,6.481,40.215
						c0.013,6.691-0.363,13.389-0.971,20.051c-0.611,6.687-1.813,13.297-2.714,19.947c-1.294-5.806-5.286-11.178-8.766-15.728
						c-6.174-8.073-12.122-16.381-16.109-25.79c-1.998-4.714-3.487-9.642-4.327-14.696c-0.809-4.869-0.943-9.806-0.731-14.73
						c0.34-7.885,1.627-16.149,5.732-23.028c4.318-7.235,12.318-12.526,20.883-12.613c8.559-0.087,16.004,6.233,20.655,12.904
						C135.714,28.673,138.486,36.626,140.319,44.573z"/>
					<path style="opacity:0.39;fill:#8DBA54;" d="M131.018,21.939c-3.943-5.655-9.897-11.042-16.832-12.504
						c1.699,1.112,3.258,2.455,4.639,3.935c3.096,3.319,5.497,7.243,7.412,11.343c2.59,5.544,4.17,11.53,4.829,17.608
						c0.667,6.151,0.401,12.389-0.561,18.494c-0.473,3.003-1.059,6-1.838,8.938c-0.467,1.761-0.999,3.521-1.726,5.194
						c-0.537,1.237-1.21,2.622-2.322,3.447c-0.784,0.582-1.935,0.74-2.654-0.023c-0.899-0.953-1.209-2.497-1.487-3.729
						c-0.792-3.517-1.089-7.135-1.426-10.718c-0.18-1.92-0.535-3.792-0.94-5.679c-0.729-3.389-1.618-6.742-2.585-10.071
						c-0.827-2.848-1.682-5.681-2.469-8.54c-0.528-1.919-1.104-4.04-2.189-5.781c0.084,0.403,0.17,0.805,0.252,1.209
						c0.002,0.009,0.003,0.019,0.005,0.028c0.051,0.001,0.098,0.023,0.125,0.091c0.601,1.507,1.165,3.028,1.685,4.566
						c4.128,12.21,5.737,25.007,5.81,37.863c0.037,6.425-0.27,12.859-0.908,19.253c-0.656,6.573-1.852,13.075-2.707,19.622
						c-0.133,1.024-0.248,2.047-0.352,3.069c0.244-0.18,0.53-0.265,0.734-0.162c0.708-1.127,1.339-2.303,1.961-3.484
						c1.053-1.999,2.133-3.957,3.498-5.763c1.48-1.958,3.11-3.799,4.77-5.605c3.393-3.693,6.967-7.27,9.678-11.518
						c4.496-7.045,6.394-15.562,6.943-23.812c0.549-8.246-0.189-16.587-2.045-24.636C138.486,36.626,135.714,28.673,131.018,21.939z
						"/>
					<path style="opacity:0.39;fill:#8DBA54;" d="M113.681,115.618c0.9-6.65,2.103-13.261,2.714-19.947
						c0.608-6.662,0.984-13.36,0.971-20.051c-0.025-12.942-1.503-26.075-5.803-38.334c1.489,7.611,2.671,15.291,3.166,23.035
						c0.271,4.238,0.336,8.49,0.152,12.734c-0.165,3.794-0.588,7.544-1.087,11.306c-0.304,2.291-0.584,4.587-1.124,6.838
						c-0.479,1.995-1.139,4.526-2.876,5.822c-2.123,1.583-4.539-0.442-6.074-1.884c-2.87-2.694-5.078-6.084-7.373-9.259
						c-2.37-3.279-4.632-6.632-6.783-10.055c3.962,8.706,9.557,16.491,15.351,24.067
						C108.395,104.44,112.387,109.812,113.681,115.618z"/>
					<path style="fill:#A7D052;" d="M100.311,23.226c-1.205-1.702-3.137-3.781-5.415-3.73c-4.772,0.107-6.877,9.473-7.576,13.093
						c-1.59,8.225-1.975,18.304,2.456,25.759c0.537,0.904,1.177,1.787,2.076,2.335c1.061,0.645,2.368,0.596,3.448,0.013
						c0.828-0.446,1.495-1.141,2.078-1.879c3.636-4.605,5.367-11.615,6.211-17.332C104.504,35.276,104.043,28.496,100.311,23.226z"
						/>
					<path style="fill:#A7D052;" d="M99.355,68.401c-0.405-1.001-1.027-1.906-1.83-2.459c-0.93-0.641-2.945-0.812-3.768,0.123
						c-0.29,0.33-0.391,0.783-0.462,1.217c-0.344,2.097-0.232,4.427,1.408,5.981c0.962,0.911,2.465,1.398,3.642,0.789
						c0.951-0.492,1.472-1.591,1.538-2.66C99.941,70.463,99.753,69.385,99.355,68.401z"/>
				</g>
				<path style="fill:#4B6D2D;" d="M113.65,125.231c0.145,4.18-0.109,8.378-0.095,12.561c0.012,3.849,0.774,7.679,1.563,11.432
					c0.774,3.686,1.84,7.265,3.174,10.786c1.298,3.425,2.794,7.117,5.084,10.008c0.128,0.161,0.334-0.105,0.265-0.249
					c-1.69-3.546-3.267-7-4.362-10.788c-1.023-3.539-1.748-7.177-2.488-10.784c-0.767-3.74-1.45-7.485-1.733-11.295
					c-0.293-3.945-0.561-7.856-1.09-11.777C113.935,124.887,113.644,125.053,113.65,125.231z"/>
			</g>
			<g>
				<g>
					<path style="fill:#648A3C;" d="M172.204,27.55c-3.361-2.049-7.391-2.779-11.284-2.799c-9.133-0.046-17.799,3.654-24.061,10.322
						c-7.084,7.545-10.209,17.827-11.928,27.809c-1.011,5.87-1.571,11.82-2.051,17.754c-0.591,7.299-0.989,14.613-1.268,21.93
						c-0.281,7.378-0.384,14.758-0.561,22.139c-0.084,3.486-0.214,6.962-0.567,10.432c-0.333,3.279-0.775,6.551-0.892,9.848
						c-0.153,4.295,0.409,8.658,0.911,12.924c0.48,4.073,1.019,8.462,2.784,12.212c0.578,1.229,1.401,2.504,2.719,3.018
						c0.715,0.279,1.425-0.561,1.498-1.193c0.311-2.71-1.117-5.193-2.023-7.651c-0.081-0.219-0.153-0.443-0.229-0.665
						c-0.711-5.048-1.705-10.063-2.041-15.157c-0.45-6.844-0.32-13.657,1.826-20.228c1.789-5.481,4.69-10.425,8.17-14.995
						c3.978-5.223,8.416-10.062,12.32-15.35c4.144-5.612,7.938-11.476,11.643-17.385c1.637-2.611,3.211-5.261,4.947-7.808
						c1.559-2.287,3.198-4.519,4.811-6.768c3.189-4.449,6.325-9.008,8.543-14.033c2.049-4.642,3.467-9.976,2.749-15.081
						C177.676,32.959,175.549,29.588,172.204,27.55z"/>
					<path style="fill:#8DBA54;" d="M175.43,48.721c-1.712,5.048-4.57,9.624-7.568,13.995c-3.031,4.419-6.26,8.704-9.031,13.296
						c-3.579,5.93-7.234,11.816-11.237,17.473c-1.959,2.768-3.973,5.509-6.126,8.129c-2.081,2.532-4.297,4.94-6.446,7.414
						c-3.605,4.15-6.973,8.591-9.352,13.573c-0.636,1.332-1.193,2.687-1.687,4.059c1.523-6.684,4.342-13.163,6.574-19.545
						c3.396-9.711,7.609-19.078,11.635-28.537c2.26-5.31,4.35-10.672,6.323-16.095c0.145-0.4-0.412-0.321-0.525-0.017
						c-3.652,9.907-8.512,19.352-12.757,29.01c-2.062,4.692-4.027,9.423-5.741,14.254c-1.596,4.499-3.373,8.939-4.85,13.478
						c-0.799,2.454-1.507,4.959-2.022,7.497c0.006-1.253,0.008-2.507,0.033-3.761c0.07-3.561,0.151-7.122,0.252-10.683
						c0.396-14.021,1.05-28.072,2.632-42.015c1.128-9.943,3.004-20.244,8.303-28.901c4.879-7.971,12.841-13.453,22.112-14.784
						c7.153-1.028,16.779,0.161,20.008,7.688C177.893,38.753,176.949,44.245,175.43,48.721z"/>
					<path style="opacity:0.39;fill:#8DBA54;" d="M175.96,34.249c-1.901-4.431-6.023-6.655-10.549-7.533
						c0.557,0.511,1.048,1.103,1.452,1.767c2.98,4.898,1.611,11.076-0.133,16.143c-1.946,5.657-4.736,10.991-7.72,16.16
						c-3.125,5.414-6.47,10.7-9.813,15.98c-0.877,1.384-1.821,2.73-2.683,4.122c-0.474,0.767-0.87,1.583-1.323,2.362
						c-0.889,1.529-2.126,3.756-4.015,4.165c-0.272,0.059-0.499-0.133-0.512-0.405c-0.102-2.158,0.361-4.319,0.97-6.377
						c0.422-1.428,0.923-2.833,1.463-4.225c-0.301,0.723-0.597,1.448-0.904,2.169c-4.026,9.459-8.239,18.826-11.635,28.537
						c-2.232,6.382-5.052,12.861-6.574,19.545c0.495-1.372,1.051-2.727,1.687-4.06c2.38-4.981,5.747-9.422,9.352-13.573
						c2.148-2.473,4.364-4.882,6.446-7.414c2.153-2.62,4.168-5.361,6.126-8.129c4.003-5.656,7.658-11.542,11.237-17.473
						c2.771-4.592,6-8.877,9.031-13.296c2.998-4.371,5.856-8.947,7.568-13.995C176.949,44.244,177.893,38.753,175.96,34.249z"/>
					<path style="fill:#8DBA54;" d="M144.735,72.389c0.424-1.014,0.848-2.027,1.257-3.043c1.359-3.381,2.904-6.681,4.401-10.003
						c-0.748,0.956-1.474,1.931-2.191,2.91c0.19-0.089,0.412-0.041,0.314,0.229C147.305,65.808,146.045,69.108,144.735,72.389z"/>
					<path style="opacity:0.39;fill:#8DBA54;" d="M129.493,105.73c1.714-4.831,3.679-9.562,5.741-14.254
						c4.225-9.613,9.058-19.016,12.703-28.872c-0.849,1.169-1.678,2.354-2.483,3.554c-3.84,5.725-7.171,11.765-10.124,17.991
						c-1.52,3.205-2.948,6.465-4.169,9.797c-1.003,2.738-1.243,5.727-2.82,8.245c-0.148,0.237-0.443,0.254-0.645,0.079
						c-1.516-1.319-1.674-3.74-1.961-5.589c-0.417-2.698-0.703-5.396-0.79-8.127c-0.159-4.975,0.132-9.97,0.619-14.92
						c0.445-4.527,1.093-9.038,2.006-13.495c1.108-5.407,2.63-10.742,4.649-15.877c-4.076,8.005-5.678,17.135-6.682,25.985
						c-1.582,13.943-2.236,27.995-2.632,42.015c-0.1,3.56-0.181,7.122-0.251,10.683c-0.025,1.254-0.027,2.507-0.033,3.761
						c0.515-2.539,1.223-5.043,2.022-7.497C126.12,114.669,127.897,110.229,129.493,105.73z"/>
					<path style="fill:#A7D052;" d="M154.168,29.827c-0.856-0.431-1.914-0.576-3.028-0.432
						c-8.466,1.097-14.766,10.231-18.141,17.243c-1.813,3.767-3.261,8.171-2.633,12.403c0.141,0.947,0.441,2.036,1.231,2.654
						c0.658,0.515,1.507,0.56,2.296,0.383c1.025-0.229,1.967-0.772,2.836-1.343c1.061-0.697,2.043-1.511,2.984-2.361
						c1.836-1.658,3.535-3.468,5.143-5.346c2.187-2.555,4.274-5.231,6.203-7.984c1.365-1.949,2.621-3.986,3.602-6.158
						c0.806-1.785,1.581-3.789,1.506-5.781C156.107,31.505,155.321,30.407,154.168,29.827z"/>
					<path style="fill:#A7D052;" d="M131.173,65.079c-0.295,0.02-0.598,0.147-0.871,0.36c-2.074,1.62-2.313,5.032-2.108,7.422
						c0.11,1.284,0.417,2.68,1.248,3.704c0.186,0.229,0.436,0.471,0.743,0.511c0.255,0.033,0.488-0.088,0.669-0.258
						c0.236-0.222,0.401-0.513,0.542-0.801c0.172-0.351,0.305-0.722,0.421-1.095c0.227-0.728,0.394-1.475,0.526-2.226
						c0.179-1.021,0.313-2.059,0.393-3.092c0.056-0.731,0.07-1.469-0.01-2.199c-0.066-0.6-0.175-1.253-0.508-1.77
						C131.95,65.22,131.569,65.052,131.173,65.079z"/>
				</g>
				<path style="fill:#4B6D2D;" d="M122.272,130.829c-1.051,3.51-1.372,7.099-1.864,10.712c-0.485,3.561-0.625,7.132-0.316,10.715
					c0.32,3.719,1.098,7.531,2.258,11.079c1.008,3.082,1.903,6.258,3.637,9.032c0.113,0.182,0.415-0.086,0.316-0.247
					c-1.705-2.789-2.417-6.072-3.011-9.251c-0.693-3.708-1.485-7.336-1.805-11.106c-0.304-3.573-0.128-7.125,0.156-10.692
					c0.271-3.415,0.247-6.887,0.85-10.265C122.521,130.652,122.302,130.729,122.272,130.829z"/>
			</g>
			<g>
				<g>
					<path style="fill:#557C33;" d="M109.476,23.878c-3.924-0.307-7.849,0.864-11.329,2.607c-8.166,4.09-14.222,11.309-16.79,20.089
						c-2.906,9.934-1.042,20.517,1.94,30.197c1.754,5.693,3.945,11.252,6.201,16.762c2.774,6.778,5.727,13.48,8.789,20.133
						c3.086,6.707,6.333,13.335,9.513,19.998c1.502,3.147,2.958,6.306,4.213,9.561c1.186,3.075,2.272,6.193,3.659,9.187
						c1.807,3.9,4.281,7.537,6.658,11.114c2.27,3.416,4.736,7.086,8.006,9.632c1.071,0.834,2.382,1.599,3.79,1.462
						c0.764-0.075,1.017-1.145,0.796-1.741c-0.949-2.557-3.345-4.126-5.265-5.909c-0.171-0.159-0.337-0.326-0.505-0.489
						c-2.917-4.18-6.072-8.203-8.676-12.595c-3.497-5.9-6.463-12.035-7.521-18.866c-0.883-5.698-0.533-11.419,0.504-17.069
						c1.185-6.457,2.955-12.78,4.045-19.262c1.157-6.88,1.888-13.825,2.52-20.771c0.279-3.069,0.485-6.144,0.88-9.201
						c0.355-2.745,0.808-5.476,1.229-8.212c0.832-5.41,1.566-10.894,1.272-16.38c-0.272-5.067-1.42-10.466-4.369-14.694
						C116.803,26.228,113.381,24.183,109.476,23.878z"/>
					<path style="fill:#82B44E;" d="M121.929,41.301c0.757,5.276,0.278,10.65-0.42,15.904c-0.704,5.311-1.646,10.594-2.041,15.943
						c-0.509,6.908-1.107,13.811-2.118,20.666c-0.495,3.354-1.051,6.71-1.787,10.021c-0.711,3.2-1.598,6.35-2.395,9.528
						c-1.338,5.332-2.332,10.816-2.201,16.335c0.035,1.476,0.152,2.936,0.331,4.384c-1.665-6.65-2.081-13.704-2.977-20.405
						c-1.364-10.196-1.843-20.457-2.531-30.713c-0.386-5.758-0.947-11.485-1.64-17.215c-0.051-0.423-0.513-0.1-0.475,0.222
						c1.224,10.487,1.161,21.11,1.744,31.643c0.283,5.117,0.671,10.225,1.327,15.309c0.611,4.734,1.035,9.497,1.771,14.215
						c0.398,2.55,0.899,5.104,1.588,7.601c-0.561-1.121-1.127-2.24-1.672-3.369c-1.548-3.208-3.087-6.421-4.608-9.641
						c-5.988-12.683-11.761-25.511-16.657-38.662c-3.491-9.378-6.478-19.414-5.667-29.531c0.747-9.316,5.367-17.806,13.034-23.187
						c5.915-4.152,15.037-7.445,21.321-2.193C119.617,31.297,121.259,36.622,121.929,41.301z"/>
					<path style="opacity:0.39;fill:#8DBA54;" d="M115.856,28.154c-3.7-3.092-8.382-3.211-12.815-1.947
						c0.728,0.204,1.434,0.51,2.094,0.919c4.873,3.021,6.447,9.149,7.183,14.458c0.823,5.925,0.747,11.944,0.424,17.904
						c-0.338,6.242-0.93,12.469-1.524,18.69c-0.156,1.631-0.39,3.258-0.528,4.89c-0.076,0.898-0.06,1.805-0.112,2.705
						c-0.101,1.766-0.197,4.311-1.697,5.531c-0.216,0.176-0.505,0.108-0.64-0.129c-1.067-1.879-1.632-4.015-2.02-6.126
						c-0.27-1.465-0.458-2.945-0.607-4.43c0.059,0.781,0.122,1.562,0.175,2.344c0.688,10.256,1.167,20.517,2.531,30.713
						c0.896,6.701,1.312,13.755,2.977,20.405c-0.179-1.447-0.296-2.908-0.331-4.384c-0.131-5.519,0.863-11.003,2.201-16.335
						c0.798-3.178,1.685-6.328,2.395-9.528c0.736-3.311,1.292-6.666,1.787-10.021c1.011-6.855,1.609-13.758,2.118-20.666
						c0.394-5.348,1.336-10.631,2.041-15.943c0.697-5.254,1.176-10.629,0.42-15.904C121.258,36.622,119.617,31.297,115.856,28.154z"
						/>
					<path style="fill:#8DBA54;" d="M105.259,76.293c-0.08-1.096-0.16-2.192-0.256-3.282c-0.317-3.63-0.432-7.273-0.6-10.912
						c-0.235,1.191-0.441,2.388-0.637,3.587c0.129-0.165,0.349-0.223,0.383,0.063C104.575,69.261,104.943,72.774,105.259,76.293z"/>
					<path style="opacity:0.39;fill:#8DBA54;" d="M106.746,112.923c-0.656-5.084-1.044-10.192-1.327-15.309
						c-0.58-10.484-0.523-21.056-1.729-31.495c-0.228,1.427-0.432,2.858-0.607,4.293c-0.835,6.843-1.074,13.736-0.891,20.624
						c0.094,3.546,0.295,7.1,0.713,10.623c0.344,2.896,1.482,5.67,1.214,8.629c-0.025,0.278-0.281,0.428-0.539,0.363
						c-1.949-0.49-3.185-2.579-4.277-4.098c-1.593-2.218-3.068-4.495-4.381-6.891c-2.392-4.364-4.392-8.951-6.197-13.586
						c-1.65-4.239-3.113-8.554-4.315-12.943c-1.458-5.323-2.514-10.769-3.036-16.263c-0.014,8.983,2.686,17.85,5.794,26.197
						c4.896,13.151,10.668,25.979,16.657,38.662c1.521,3.221,3.06,6.434,4.608,9.641c0.545,1.129,1.11,2.248,1.672,3.369
						c-0.689-2.497-1.19-5.051-1.588-7.601C107.781,122.421,107.357,117.657,106.746,112.923z"/>
					<path style="fill:#A7D052;" d="M94.42,34.068c-0.958,0.003-1.968,0.352-2.896,0.984c-7.054,4.808-8.541,15.803-8.38,23.584
						c0.087,4.18,0.787,8.763,3.262,12.253c0.554,0.781,1.314,1.616,2.299,1.81c0.82,0.161,1.597-0.182,2.221-0.696
						c0.811-0.668,1.406-1.578,1.922-2.48c0.631-1.101,1.138-2.272,1.593-3.455c0.888-2.309,1.584-4.692,2.168-7.094
						c0.795-3.268,1.446-6.599,1.921-9.926c0.336-2.356,0.535-4.74,0.427-7.121c-0.088-1.957-0.304-4.094-1.272-5.837
						C96.909,34.687,95.711,34.063,94.42,34.068z"/>
					<path style="fill:#A7D052;" d="M89.856,75.909c-0.254,0.151-0.467,0.402-0.614,0.715c-1.118,2.383,0.213,5.534,1.477,7.573
						c0.679,1.096,1.584,2.202,2.788,2.74c0.27,0.12,0.602,0.223,0.894,0.12c0.243-0.086,0.395-0.299,0.48-0.533
						c0.11-0.304,0.125-0.639,0.121-0.96c-0.005-0.391-0.054-0.782-0.119-1.167c-0.127-0.752-0.316-1.493-0.538-2.223
						c-0.302-0.992-0.652-1.978-1.048-2.936c-0.28-0.678-0.602-1.342-1.004-1.957c-0.331-0.506-0.723-1.039-1.254-1.349
						C90.614,75.682,90.198,75.705,89.856,75.909z"/>
				</g>
				<path style="fill:#4B6D2D;" d="M111.658,138.574c0.65,3.606,1.987,6.952,3.183,10.396c1.178,3.395,2.668,6.643,4.565,9.7
					c1.968,3.172,4.386,6.22,7.025,8.859c2.293,2.293,4.528,4.72,7.329,6.41c0.183,0.11,0.331-0.264,0.17-0.364
					c-2.782-1.716-4.902-4.322-6.87-6.889c-2.296-2.994-4.642-5.871-6.633-9.089c-1.887-3.049-3.337-6.297-4.697-9.606
					c-1.302-3.168-2.894-6.254-3.885-9.54C111.801,138.303,111.64,138.471,111.658,138.574z"/>
			</g>
			<g>
				<g>
					<path style="fill:#648A3C;" d="M71.846,94.601c-5.415-5.244-11.374-10.136-18.096-13.557
						c-6.199-3.154-13.275-4.897-20.05-3.219c-7.863,1.948-14.543,8.112-16.569,16.057c-2.447,9.6,2.09,19.483,8.692,26.546
						c7.573,8.102,17.97,12.848,28.416,15.739c9.904,2.74,20.259,3.052,30.101,6.057c2.446,0.747,4.849,1.668,7.134,2.84
						c2.532,1.299,4.927,2.917,7.26,4.551c0.347,0.243,0.686,0.493,1.026,0.743c1.644,1.807,3.25,3.649,4.847,5.492
						c2.364,2.729,4.773,5.423,7.053,8.223c0.325,0.556,0.647,1.113,0.983,1.663c1.039,1.701,2.131,3.412,3.486,4.882
						c0.924,1.002,2.142,2.145,3.589,2.058c0.494-0.029,0.709-0.647,0.673-1.062c-0.188-2.158-1.414-4.106-2.738-5.777
						c-1.403-1.77-3.032-3.338-4.613-4.943c-4.254-4.318-8.752-8.603-12.071-13.715c-3.282-5.054-4.248-10.988-5.617-16.719
						c-1.361-5.697-3.725-11.022-6.859-15.992C83.907,107.197,78.015,100.575,71.846,94.601z"/>
					<path style="fill:#8DBA54;" d="M83.208,108.685c3.546,4.67,6.686,9.675,8.824,15.141c2.129,5.443,2.769,11.221,4.439,16.784
						c0.768,2.558,1.796,5.006,3.204,7.283c-0.162-0.158-0.325-0.316-0.488-0.474c-1.884-2.014-3.824-3.974-5.876-5.823
						c-4.917-4.429-10.535-8.037-16.125-11.522c-5.549-3.46-11.204-6.743-16.857-10.023c-6.333-3.675-12.751-7.315-18.717-11.592
						c-0.164-0.117-0.309,0.222-0.169,0.33c5.244,4.052,10.644,7.821,16.241,11.356c5.49,3.467,11.117,6.701,16.645,10.103
						c3.672,2.26,7.381,4.56,10.928,7.07c2.711,2.191,5.358,4.462,7.973,6.772c0.737,0.651,1.461,1.319,2.179,1.992
						c-0.848-0.54-1.703-1.066-2.578-1.549c-8.796-4.858-18.896-5.734-28.546-7.402c-10.374-1.793-20.855-5.047-29.758-10.98
						c-8.407-5.603-16.141-14.634-17.051-25.038c-0.373-4.265,0.549-8.548,2.699-12.187c2.146-3.63,5.47-6.447,9.226-8.296
						c6.254-3.079,13.275-2.928,19.855-0.555c6.889,2.485,13.072,6.889,18.528,11.768C73.455,96.908,78.609,102.629,83.208,108.685z
						"/>
					<path style="fill:#8DBA54;" d="M67.788,91.841c-5.457-4.879-11.639-9.283-18.528-11.768
						c-6.581-2.374-13.602-2.524-19.856,0.554c-3.756,1.85-7.081,4.666-9.226,8.296c-2.15,3.638-3.073,7.922-2.7,12.186
						c0.644,7.363,4.711,14.03,10.01,19.289c3.099,1.394,6.289,2.542,9.697,2.951c3.283,0.393,6.607-0.084,9.881-0.371
						c3.336-0.292,6.676-0.574,10.025-0.645c1.413-0.03,2.826-0.002,4.237,0.065c-1.219-0.745-2.436-1.493-3.643-2.256
						c-5.597-3.535-10.997-7.304-16.241-11.356c-0.14-0.108,0.005-0.447,0.169-0.33c5.965,4.278,12.384,7.917,18.717,11.592
						c1.49,0.865,2.98,1.73,4.468,2.598c3.699,0.353,7.377,0.966,11.008,1.724c6.2,1.295,12.319,3.118,18.122,5.672
						c-0.511-2.101-1.099-4.183-1.896-6.219c-2.138-5.466-5.278-10.47-8.824-15.141C78.609,102.629,73.455,96.908,67.788,91.841z"/>
					<path style="opacity:0.39;fill:#8DBA54;" d="M67.788,91.841c-5.457-4.878-11.639-9.283-18.528-11.768
						c-6.581-2.374-13.602-2.524-19.856,0.554c-2.525,1.243-4.845,2.933-6.753,5.004c3.581-1.664,7.782-1.907,11.7-1.53
						c4.502,0.432,8.773,1.864,12.861,3.847c5.037,2.443,9.709,5.643,13.972,9.295c4.293,3.678,8.2,7.822,11.648,12.306
						c1.18,1.535,2.292,3.12,3.412,4.699c1.075,1.515,2.113,3.059,3.025,4.678c0.898,1.594,1.742,3.317,2.047,5.128
						c0.208,1.236,0.156,2.989-1.016,3.721c-1.2,0.749-2.916,0.234-4.162-0.193c-1.752-0.6-3.416-1.464-5.038-2.363
						c-1.549-0.858-3.076-1.736-4.643-2.563c-2.9-1.529-5.778-3.103-8.644-4.698c-4.407-2.452-8.791-4.95-13.187-7.423
						c5.087,3.405,10.424,6.45,15.704,9.515c5.653,3.281,11.307,6.564,16.857,10.023c5.59,3.485,11.208,7.093,16.125,11.522
						c2.052,1.848,3.992,3.809,5.876,5.823c0.163,0.158,0.325,0.316,0.488,0.474c-1.409-2.277-2.437-4.725-3.204-7.283
						c-1.67-5.563-2.31-11.342-4.439-16.785c-2.138-5.466-5.278-10.47-8.824-15.14C78.61,102.629,73.455,96.908,67.788,91.841z"/>
					<path style="opacity:0.39;fill:#8DBA54;" d="M85.259,137.316c-3.547-2.509-7.256-4.81-10.928-7.07
						c-5.528-3.401-11.155-6.636-16.645-10.103c-4.312-2.723-8.504-5.589-12.6-8.612c1.909,1.737,3.834,3.455,5.799,5.127
						c2.745,2.335,5.587,4.554,8.431,6.764c2.6,2.02,5.277,3.974,7.764,6.136c0.515,0.447,1.294,1.183,0.719,1.873
						c-0.311,0.373-0.859,0.553-1.313,0.669c-0.602,0.153-1.223,0.222-1.845,0.25c-2.686,0.119-5.393-0.423-8.028-0.956
						c-3.126-0.633-6.211-1.339-9.253-2.34c-6.182-2.035-12.244-4.839-17.669-8.509c-2.347-1.588-4.58-3.36-6.636-5.316
						c3.117,4.343,7.207,8.075,11.475,10.92c8.903,5.933,19.384,9.187,29.758,10.98c9.65,1.668,19.75,2.544,28.546,7.402
						c0.875,0.483,1.731,1.009,2.578,1.549c-0.718-0.673-1.441-1.341-2.179-1.992C90.617,141.778,87.97,139.507,85.259,137.316z"/>
				</g>
				<path style="fill:#A7D052;" d="M29.505,99.581c-1.811-1.495-4.068-2.636-6.467-2.59c-1.485,0.029-2.758,0.71-3.358,2.11
					c-0.527,1.232-0.558,2.633-0.251,3.923c0.021,0.087,0.053,0.169,0.076,0.255c-0.057,1.224,0.351,2.471,0.923,3.599
					c0.995,1.967,2.412,3.694,3.897,5.309c1.302,1.417,2.718,2.641,4.398,3.598c1.544,0.879,3.586,1.841,5.401,1.309
					c2.074-0.608,2.354-3.159,2.223-4.976c-0.167-2.343-1.027-4.627-2.134-6.68C33.024,103.231,31.445,101.183,29.505,99.581z"/>
				<path style="fill:#A7D052;" d="M40.811,117.492c-0.764-0.56-1.735-0.974-2.698-0.929c-0.848,0.039-1.771,0.548-2.067,1.382
					c-0.211,0.595-0.007,1.154,0.343,1.622c0.246,0.634,0.944,1.234,1.454,1.587c0.583,0.403,1.219,0.757,1.882,1.013
					c0.691,0.267,1.604,0.361,2.234-0.098c0.721-0.526,0.722-1.522,0.49-2.297C42.178,118.861,41.574,118.052,40.811,117.492z"/>
				<path style="fill:#4B6D2D;" d="M105.271,154.735c-1.47-1.602-2.776-3.321-4.547-4.614c-0.165-0.12-0.332,0.213-0.22,0.334
					c1.511,1.643,2.788,3.489,4.229,5.192c1.523,1.8,3.223,3.444,4.74,5.25c3.029,3.605,6.046,7.251,9.177,10.767
					c0.145,0.163,0.325-0.136,0.224-0.273c-2.84-3.876-5.904-7.621-8.861-11.409C108.561,158.122,106.866,156.473,105.271,154.735z"
					/>
			</g>
			<g>
				<g>
					<path style="fill:#648A3C;" d="M110.598,149.144c-1.636-2.382-16.76-24.467-20.78-28.868c-2.094-2.293-3.862-4.731-5.375-7.441
						c-1.541-2.758-2.984-5.57-4.467-8.359c-2.91-5.472-5.999-10.873-10.039-15.603c-3.275-3.834-7.042-7.268-11.174-10.158
						c-4.236-2.962-8.898-5.365-13.843-6.897c-4.354-1.348-8.841-1.896-13.388-1.895c-4.126,0.001-8.294,0.404-12.29,1.459
						c-3.785,0.999-7.532,2.595-10.331,5.41c-6.13,6.165-4.406,16.786-1.069,23.909c3.809,8.132,10.773,15.257,19.264,18.423
						c5.175,1.929,10.738,2.149,16.199,1.904c2.92-0.131,5.72-0.622,8.58-1.192c3.015-0.6,5.973-0.981,9.038-0.535
						c2.786,0.406,5.484,1.234,8.199,1.953c2.789,0.738,5.603,1.374,8.371,2.19c5.614,1.655,10.795,4.249,15.36,7.93
						c2.776,2.238,12.669,16.162,15.532,22.896c1.002,2.357,2.938,7.902,4.108,10.183c0.867,1.69,5.014-0.022,4.918-0.748
						C116.695,158.329,113.608,153.526,110.598,149.144z"/>
					<path style="fill:#8DBA54;" d="M88.504,126.179c-4.914-2.926-10.324-4.504-15.83-5.9c-5.307-1.346-10.681-3.382-16.24-2.867
						c-2.791,0.259-5.505,1.003-8.264,1.459c-2.764,0.457-5.607,0.541-8.405,0.531c-5.211-0.019-10.382-0.81-15.066-3.191
						c-4.073-2.071-7.677-5.023-10.637-8.494c-5.62-6.59-9.712-16.299-7.399-25.043c2.147-8.119,12.132-10.382,19.358-10.991
						c9.077-0.764,17.954,0.857,26.028,5.15c9.557,5.081,17.222,12.95,22.76,22.185c3.117,5.198,5.71,10.687,8.686,15.964
						c1.821,3.229,4.216,5.964,6.738,8.605c-2.465-2.049-5.078-3.907-7.707-5.767c-3.862-2.732-7.527-5.735-11.644-8.09
						c-4.232-2.421-8.86-4.14-13.423-5.821c-5.361-1.975-10.799-3.716-16.129-5.78c-0.145-0.056-0.304,0.218-0.164,0.274
						c9.077,3.592,18.442,6.727,26.94,11.61c4.137,2.378,7.756,5.487,11.51,8.405c3.842,2.986,7.802,5.737,11.454,8.967
						c0.99,0.876,1.952,1.77,2.89,2.684C92.243,128.637,90.428,127.325,88.504,126.179z"/>
					<path style="opacity:0.39;fill:#8DBA54;" d="M91.07,127.386c-3.652-3.231-7.612-5.982-11.454-8.967
						c-3.754-2.917-7.373-6.027-11.51-8.405c-8.497-4.883-17.862-8.018-26.94-11.61c-0.047-0.019-0.053-0.063-0.044-0.11
						c-0.882-0.152-1.768-0.26-2.656-0.286c1.857,1.002,3.73,1.975,5.616,2.922c3.773,1.895,7.559,3.732,11.396,5.493
						c3.528,1.619,7.138,3.335,10.066,5.932c0.174,0.155,0.267,0.493,0.022,0.65c-1.119,0.721-2.471,0.765-3.763,0.794
						c-1.466,0.034-2.888,0.251-4.337,0.474c-3.082,0.477-6.17,0.943-9.239,1.498c-4.648,0.839-9.394,1.667-14.127,1.092
						c-4.868-0.591-9.526-2.743-13.495-5.569c-3.789-2.699-6.953-6.168-9.378-10.132C9.4,98.173,7.777,94.646,7.58,91.065
						c-0.293-1.237-0.415-2.513-0.347-3.782c0.075-1.399,0.327-2.927,0.991-4.174c2.209-4.151,8.118-4.251,12.187-4.035
						c5.524,0.293,10.969,1.813,16.061,3.922c5.247,2.172,10.174,5.024,14.643,8.528c2.022,1.585,3.953,3.286,5.917,4.941
						c1.561,1.316,3.548,2.955,3.882,5.098c0.03,0.192-0.08,0.343-0.238,0.436c-1.234,0.726-2.816,0.605-4.17,0.372
						c-2.857-0.492-5.533-1.682-8.345-2.354c-1.851-0.442-3.737-1.021-5.642-1.446c4.949,1.869,9.976,3.508,14.94,5.337
						c4.562,1.681,9.191,3.4,13.423,5.821c4.117,2.355,7.782,5.358,11.644,8.09c2.629,1.859,5.242,3.718,7.707,5.767
						c-2.522-2.641-4.917-5.376-6.738-8.605c-2.976-5.277-5.569-10.766-8.686-15.964c-5.538-9.235-13.203-17.104-22.76-22.185
						c-8.074-4.293-16.951-5.914-26.028-5.15c-7.226,0.608-17.211,2.871-19.358,10.991c-2.313,8.744,1.78,18.453,7.399,25.043
						c2.96,3.471,6.564,6.423,10.637,8.494c4.684,2.381,9.855,3.172,15.066,3.191c2.798,0.01,5.642-0.074,8.405-0.531
						c2.76-0.456,5.474-1.2,8.264-1.459c5.56-0.515,10.933,1.521,16.24,2.867c5.506,1.396,10.916,2.974,15.83,5.9
						c1.924,1.146,3.74,2.458,5.456,3.89C93.022,129.156,92.06,128.261,91.07,127.386z"/>
				</g>
				<path style="fill:#A7D052;" d="M28.623,99.284c-2.908-3.735-6.704-7.325-11.251-8.909c-1.95-0.679-4.648-1.195-6.348,0.314
					c-1.649,1.464-1.372,3.907-0.413,5.673c0.124,0.228,0.265,0.442,0.411,0.653c0.406,1.091,0.936,2.14,1.536,3.117
					c1.457,2.375,3.318,4.49,5.407,6.327c1.937,1.704,4.117,3.24,6.564,4.109c1.287,0.456,2.66,0.7,4.026,0.571
					c1.051-0.098,2.205-0.375,3.052-1.041c1.682-1.323,1.282-3.51,0.499-5.226C31.194,102.876,29.969,101.012,28.623,99.284z"/>
				<path style="fill:#A7D052;" d="M40.179,110.409c-1.023-0.289-2.145-0.417-3.205-0.303c-1.141,0.122-2.368,0.82-2.555,2.05
					c-0.078,0.516,0.075,1.054,0.431,1.44c0.433,0.469,1.039,0.677,1.657,0.762c0.361,0.253,0.755,0.466,1.176,0.567
					c0.739,0.178,1.539,0.194,2.293,0.125c0.756-0.069,1.589-0.249,2.176-0.762c0.672-0.588,0.785-1.47,0.4-2.257
					C42.098,111.103,41.128,110.677,40.179,110.409z"/>
				<path style="fill:#4B6D2D;" d="M105.504,145.184c-1.45-2.477-3.051-4.848-4.848-7.087c-1.772-2.208-3.599-4.436-5.7-6.338
					c-0.04-0.036-0.097,0.037-0.067,0.074c1.754,2.212,3.54,4.371,5.092,6.735c1.556,2.368,3.042,4.788,4.48,7.229
					c2.878,4.885,5.332,10.001,8.011,14.988c0.088,0.165,0.289-0.041,0.242-0.176C110.851,155.246,108.371,150.082,105.504,145.184z
					"/>
			</g>
		</g>
		<g>
			<path style="fill:#648A3C;" d="M123.748,143.314c-0.171-0.685-0.26-1.39-0.309-2.096c-0.881-0.077-1.741-0.277-2.622-0.359
				c-1.005-0.093-2.054,0.004-3.043,0.19c-2.235,0.421-4.34,1.451-6.299,2.573c-2.151,1.232-4.168,2.677-6.13,4.187
				c-1.542,1.187-3.416,2.308-4.712,3.832c0.011-0.129,0.022-0.256,0.023-0.377c0.001-0.234-0.248-0.318-0.377-0.124
				c-0.373,0.565-0.413,1.174-0.492,1.835c-0.043,0.361,0.211,0.986,0.675,0.704c1.868-1.138,3.669-2.58,5.414-3.906
				c1.858-1.412,3.765-2.761,5.786-3.933c1.143-0.664,2.321-1.294,3.544-1.805c-1.433,0.782-2.819,1.654-4.158,2.518
				c-2.143,1.382-4.386,2.78-6.252,4.533c-0.898,0.843-1.658,1.789-2.385,2.779c-0.464,0.631-0.999,1.344-0.828,2.164
				c0.039,0.187,0.163,0.182,0.266,0.11c0.002,0.011,0.004,0.022,0.005,0.033c0.602-0.392,1.106-1.061,1.623-1.568
				c0.798-0.781,1.565-1.566,2.432-2.272c1.927-1.569,4.09-2.887,6.181-4.223c1.826-1.166,3.638-2.35,5.645-3.187
				c1.945-0.811,3.936-1.112,5.97-1.585C123.72,143.333,123.732,143.32,123.748,143.314z"/>
			<path style="fill:#648A3C;" d="M123.043,146.383c-0.784,0.267-1.542,0.588-2.277,0.97c-1.684,0.877-3.111,1.986-4.332,3.44
				c-0.164,0.194-0.153,0.795,0.105,0.841c-0.992,0.369-1.952,0.826-2.869,1.374c-0.708,0.423-1.383,0.9-2.041,1.4
				c0.034-0.251-0.025-0.506-0.254-0.664c-0.441-0.305-1.034-0.123-1.497,0.042c-0.467,0.167-0.932,0.356-1.378,0.573
				c-0.842,0.41-1.687,0.896-2.45,1.441c-0.58,0.414-1.13,0.893-1.677,1.35c-0.476,0.398-0.981,0.749-1.463,1.135
				c-0.094,0.076-0.083,0.248-0.015,0.333c0.417,0.523,1.119,0.229,1.626,0.011c0.645-0.279,1.226-0.697,1.807-1.088
				c0.709-0.478,1.479-0.883,2.249-1.254c0.463-0.223,0.93-0.445,1.413-0.621c0.061-0.022,0.124-0.044,0.186-0.065
				c-0.549,0.486-1.085,0.986-1.592,1.512c-1.476,1.53-3.107,3.306-3.825,5.343c-0.065,0.184,0.047,0.608,0.314,0.441
				c1.58-0.991,2.765-2.684,4.093-3.977c1.53-1.489,3.186-2.875,5.032-3.957c1.814-1.064,3.773-1.747,5.856-2.045
				c1.13-0.162,2.279-0.227,3.419-0.274c1.066-0.044,2.216,0.049,3.265-0.134c0.089-0.016,0.166-0.051,0.234-0.1
				c-0.151-0.27-0.292-0.546-0.416-0.83c-0.124-0.243-0.221-0.499-0.311-0.755c-0.984-0.178-2.062-0.193-3.032-0.218
				c-1.101-0.028-2.195,0.02-3.286,0.168c-1.061,0.144-2.093,0.404-3.093,0.754c0.734-0.48,1.528-0.884,2.303-1.291
				c0.87-0.457,1.761-0.889,2.67-1.263c0.737-0.303,1.493-0.543,2.235-0.831c0.322-0.125,0.656-0.266,0.954-0.445
				c-0.281-0.602-0.512-1.232-0.644-1.878C123.934,146.038,123.507,146.224,123.043,146.383z"/>
		</g>
		<g>
			<g>
				<path style="fill:#FFFBD3;" d="M124.437,143.841c-0.157,0.017-0.324,0.044-0.5,0.061c-0.755,0.075-1.517,0.023-2.269,0.135
					c-1.131,0.168-2.238,0.477-3.312,0.865c-2.149,0.777-4.167,1.872-6.146,3.003c-2.324,1.328-4.473,2.942-6.516,4.666
					c-1.142,0.964-2.287,1.972-3.253,3.117c-0.343,0.406-0.886,0.948-1.059,1.53c-0.003,0.008-0.004,0.018-0.007,0.026
					c-0.13,0.418-0.286,0.384-0.149,0.88c0.119,0.428,0.326,0.879,0.725,1.111c0.714,0.415,1.218-0.137,1.649-0.658
					c0.816-0.988,1.881-1.321,2.978-1.873c0.759-0.382,1.53-0.74,2.307-1.086c-0.192,0.198-0.387,0.394-0.578,0.595
					c-1.623,1.698-3.385,3.29-4.316,5.494c-0.191,0.453,0.284,1.063,0.636,0.673c1.425-1.731,3.054-3.211,4.637-4.789
					c1.28-1.275,2.553-2.518,3.928-3.668c0.069-0.023,0.136-0.05,0.205-0.073c2.335-0.782,4.738-1.384,7.158-1.833
					c1.228-0.228,2.462-0.395,3.71-0.286c0.898,0.079,1.773,0.262,2.504-0.354c0.487-0.41,0.413-1.507-0.259-1.671
					c-0.784-0.191-1.84-0.155-2.655-0.17c-1.147-0.021-2.301,0.146-3.426,0.355c-0.769,0.143-1.534,0.307-2.297,0.483
					c0.656-0.422,1.315-0.838,1.982-1.239c0.903-0.544,1.831-1.079,2.801-1.495c0.858-0.368,1.773-0.587,2.591-1.046
					c0.785-0.44,0.447-1.638,0.07-2.253C125.258,143.818,124.885,143.792,124.437,143.841z M119.427,147.314
					c-2.073,1.265-4.123,2.602-6.024,4.116c-0.18,0.143-0.35,0.294-0.525,0.44c-2.064,0.714-4.078,1.566-6.02,2.567
					c-0.774,0.399-1.536,0.823-2.306,1.23c0.607-0.47,1.219-0.935,1.817-1.415c2.017-1.616,4.113-3.134,6.36-4.416
					c2.624-1.497,5.666-3.137,8.778-3.681C120.799,146.515,120.103,146.901,119.427,147.314z"/>
				<path style="fill:#FFFBD3;" d="M120.736,139.957c-1.677,0.036-3.324,0.342-4.927,0.831c-3.566,1.087-7.007,2.802-10.1,4.87
					c-1.593,1.065-3.17,2.236-4.529,3.591c-0.999,0.996-2.305,2.288-2.413,3.769c-0.034,0.469,0.331,1.073,0.813,0.626
					c0.145-0.135,0.24-0.283,0.32-0.437c0.311-0.3,0.633-0.793,0.822-0.965c0.83-0.754,1.76-1.379,2.658-2.046
					c2.041-1.516,3.968-3.104,6.185-4.374c1.07-0.613,2.194-1.214,3.352-1.761c-0.676,0.405-1.346,0.819-2.01,1.245
					c-2.055,1.317-4.062,2.719-5.84,4.399c-0.921,0.87-1.755,1.815-2.532,2.815c-0.802,1.032-1.734,2.082-2.326,3.247
					c-0.149,0.249-0.049,0.924,0.368,0.689c0.895-0.504,1.574-1.409,2.241-2.174c0.821-0.943,1.642-1.894,2.548-2.757
					c1.766-1.681,3.784-3.085,5.83-4.403c1.764-1.136,3.546-2.258,5.467-3.114c1.003-0.447,2.045-0.813,3.111-1.077
					c0.544-0.134,1.103-0.208,1.659-0.29c0.647,0.189,1.376,0.288,1.998,0.139c0.901-0.216,1.441-1.381,0.802-2.145
					C123.546,139.816,121.651,139.937,120.736,139.957z"/>
			</g>
			<g>
				<path style="fill:#BAB89D;" d="M108.729,157.956c-0.792,0.72-1.513,1.511-2.195,2.334c0.895-0.911,1.818-1.793,2.73-2.701
					c0.184-0.183,0.368-0.365,0.553-0.546C109.444,157.337,109.077,157.639,108.729,157.956z"/>
				<path style="fill:#BAB89D;" d="M110.821,148.754c-1.447,0.921-2.826,1.944-4.159,3.025c1.012-0.768,2.033-1.524,3.064-2.259
					C110.088,149.262,110.454,149.008,110.821,148.754z"/>
				<path style="fill:#BAB89D;" d="M123.855,149.534c-1.147-0.021-2.301,0.146-3.426,0.355c-0.769,0.143-1.534,0.307-2.297,0.483
					c0.146-0.094,0.295-0.182,0.441-0.276c-0.201,0.049-0.401,0.099-0.603,0.139c-0.473,0.093-0.794-0.512-0.356-0.794
					c2.566-1.649,5.357-3.238,8.356-3.95c-0.029-0.284-0.115-0.574-0.227-0.826c-1.808-0.079-3.6,0.055-5.382,0.483
					c-4.087,0.982-7.596,3.222-10.95,5.678c-1.585,1.161-3.193,2.329-4.709,3.58c-1.357,1.121-2.679,2.413-3.348,4.071
					c0.071,0.164,0.154,0.322,0.265,0.458c2.019-2.115,4.563-3.965,7.458-4.592c0.379-0.082,0.806,0.407,0.447,0.719
					c-0.275,0.238-0.566,0.45-0.86,0.657c0.074-0.033,0.145-0.07,0.219-0.103c-0.192,0.198-0.387,0.394-0.578,0.595
					c-1.623,1.698-3.385,3.29-4.316,5.494c-0.064,0.15-0.049,0.315,0.005,0.457c1.311-1.81,2.693-3.597,4.386-5.065
					c1.394-1.208,2.985-2.517,4.764-3.135c0.016-0.013,0.031-0.028,0.047-0.041c0.069-0.023,0.136-0.05,0.205-0.073
					c0.384-0.129,0.773-0.245,1.16-0.364c-0.083-0.018-0.167-0.025-0.25-0.046c-0.398-0.1-0.427-0.572-0.133-0.802
					c0.952-0.744,2.379-0.815,3.52-1.081c1.337-0.311,2.696-0.54,4.055-0.732c1.741-0.245,3.55-0.479,5.326-0.377
					c-0.041-0.346-0.228-0.661-0.564-0.743C125.727,149.513,124.67,149.549,123.855,149.534z M113.403,151.429
					c-0.18,0.143-0.35,0.294-0.525,0.44c-2.064,0.714-4.078,1.566-6.02,2.567c-0.774,0.399-1.536,0.823-2.306,1.23
					c0.607-0.47,1.219-0.935,1.817-1.415c2.017-1.616,4.113-3.134,6.36-4.416c2.624-1.497,5.666-3.137,8.778-3.681
					c-0.708,0.36-1.404,0.746-2.081,1.159C117.354,148.579,115.304,149.916,113.403,151.429z"/>
				<path style="fill:#BAB89D;" d="M105.067,149.707c-0.475,0.449-0.926,0.92-1.359,1.406c0.594-0.598,1.201-1.183,1.834-1.741
					c0.891-0.788,1.808-1.556,2.75-2.289C107.166,147.893,106.077,148.751,105.067,149.707z"/>
				<path style="fill:#BAB89D;" d="M121.758,140.641c-4.363,0.042-8.576,1.845-12.345,3.9c-2.185,1.192-4.378,2.493-6.333,4.04
					c-0.907,0.718-1.673,1.488-2.34,2.429c-0.52,0.734-1.054,1.565-1.867,2.003c-0.036,0.019-0.07,0.023-0.105,0.032
					c-0.019,0.464,0.34,1.037,0.812,0.598c0.145-0.135,0.24-0.283,0.32-0.437c0.311-0.3,0.633-0.793,0.822-0.965
					c0.83-0.754,1.76-1.379,2.658-2.046c2.041-1.516,3.968-3.104,6.185-4.374c1.07-0.613,2.194-1.214,3.352-1.761
					c-0.104,0.063-0.207,0.129-0.311,0.193c0.535-0.294,1.071-0.585,1.607-0.882c0.175-0.129,0.364-0.237,0.574-0.319l0.007-0.004
					c0,0,0,0,0,0.001c0.036-0.014,0.066-0.034,0.103-0.047c0.473-0.161,0.784,0.548,0.356,0.794
					c-0.208,0.119-0.418,0.232-0.627,0.347c-0.006,0.006-0.012,0.008-0.018,0.014c-0.062,0.058-0.13,0.088-0.198,0.106
					c-1.288,0.704-2.593,1.371-3.81,2.202c-1.494,1.02-2.901,2.175-4.262,3.366c-1.237,1.082-2.368,2.265-3.504,3.45
					c-0.9,0.939-1.862,1.96-2.328,3.199c0.023-0.008,0.044-0.009,0.069-0.024c0.895-0.504,1.574-1.409,2.241-2.174
					c0.821-0.943,1.642-1.894,2.548-2.757c1.766-1.681,3.784-3.085,5.83-4.403c1.764-1.136,3.546-2.258,5.467-3.114
					c1.003-0.447,2.045-0.813,3.111-1.077c0.544-0.134,1.103-0.208,1.659-0.29c0.647,0.189,1.376,0.288,1.998,0.139
					c0.807-0.193,1.317-1.147,0.957-1.893C123.525,140.712,122.64,140.633,121.758,140.641z"/>
			</g>
		</g>
	</g>
	<g>
		<path style="fill:#D09670;" d="M164.816,177.475c-3.156-0.291-6.294-1.259-8.842-3.188c-0.083-0.063-0.012-0.217,0.089-0.168
			c0.33,0.162,0.668,0.309,1.012,0.438c2.836,1.057,5.951,0.813,8.806-0.037c3.168-0.942,6.114-2.591,8.794-4.502
			c2.577-1.837,4.972-3.96,7.073-6.328c2.329-2.625,4.293-5.596,5.752-8.789c1.656-3.624,2.759-7.653,2.486-11.666
			c-0.005-0.075,0.079-0.153,0.15-0.094c0.708,0.584,1.216,1.368,1.58,2.204c0.306,0.702,0.524,1.442,0.672,2.198
			c0.024-2.165-0.198-4.318-0.713-6.385c-0.021-0.084-0.056-0.146-0.099-0.192c-0.191-1.155-0.446-2.301-0.754-3.431
			c-1.337-4.907-3.651-9.509-6.027-13.982c-4.836-9.105-9.678-18.243-14.977-27.09c-1.85-3.09-3.65-6.693-6.411-9.093
			c-2.973-2.585-6.881-2.93-10.658-3.169c-5.027-0.318-10.075-0.113-15.098-0.516c-2.52-0.202-5.019-0.591-7.529-0.882
			c-1.957-0.227-4.128-0.626-6.081-0.179c-3.302,0.756-6.057,3.234-8.436,5.51c-2.6,2.486-4.967,5.196-7.743,7.495
			c-3.883,3.215-7.899,6.319-12.276,8.84c-2.75,1.584-5.963,2.901-7.822,5.613c-1.52,2.219-1.596,5.321-0.014,7.53
			c1.427,1.993,3.887,2.941,6.197,3.447c5.941,1.303,12.026,0.194,17.589-2.029c4.522-1.807,8.754-4.244,12.978-6.645
			c3.205-1.822,6.823-3.643,10.636-3.021c0.732,0.119,1.37,0.353,1.954,0.666c3.831,3.978,2.467,9.949,1.436,14.812
			c-1.137,5.361-2.821,10.597-3.782,15.997c-1.539,8.644-0.529,17.727,3.98,25.38c4.09,6.939,10.883,11.833,18.977,12.716
			c4.582,0.5,9.197-0.129,13.486-1.681C169.088,177.578,166.939,177.671,164.816,177.475z"/>
		<path style="fill:#FFE3CB;" d="M191.066,145.568c0.036,0.989,0.004,1.978-0.015,2.964c-0.377,7.474-3.233,14.714-8.542,20.189
			c-6.063,6.254-14.776,9.754-23.498,9.076c-8.07-0.628-14.966-5.337-19.064-12.232c-4.463-7.508-5.505-16.401-4.003-24.908
			c1.019-5.774,2.874-11.36,3.951-17.122c0.663-3.546,1.528-8.285-0.319-11.606c0.083,0.078,0.167,0.156,0.251,0.235
			c1.403,1.32,2.821,2.628,4.287,3.878c0.282,0.24,0.567,0.478,0.854,0.713c-0.549-0.963-1.09-1.931-1.654-2.885
			c-0.119-0.202-0.242-0.403-0.363-0.604c-0.868-0.808-1.724-1.627-2.576-2.44c-1.211-1.155-2.371-2.093-4.03-2.508
			c-1.575-0.394-3.249-0.311-4.83,0.008c-3.794,0.764-7.019,2.93-10.338,4.801c-6.425,3.62-13.304,7.186-20.835,7.329
			c-4.269,0.081-11.669-0.571-12.508-5.952c-0.55-3.528,2.094-5.693,4.851-7.291c1.5-0.869,3.045-1.649,4.527-2.551
			c2.032-1.238,3.988-2.597,5.893-4.022c3.197-2.392,6.34-4.886,9.144-7.733c2.527-2.567,4.983-5.314,7.97-7.363
			c1.276-0.875,2.698-1.657,4.252-1.868c2.124-0.288,4.495,0.209,6.605,0.477c2.389,0.303,4.774,0.635,7.179,0.787
			c2.483,0.157,4.972,0.188,7.459,0.229c2.428,0.04,4.857,0.087,7.279,0.266c2.157,0.16,4.408,0.313,6.444,1.101
			c3.071,1.188,4.979,3.762,6.676,6.457c5.191,8.245,9.679,16.881,14.362,25.415C185.084,126.814,190.704,135.705,191.066,145.568z"
			/>
		<path style="fill:#FFE3CB;" d="M87.861,114.647c0.94-1.754,2.66-3.081,4.262-4.174c4.4-3.001,9.478-4.832,13.58-8.292
			c5.098-4.301,8.959-10.119,14.791-13.531c1.4-0.819,2.901-1.47,4.471-1.886c2.083-0.552,4.284-0.749,6.428-0.899
			c4.777-0.335,9.558-0.144,14.34-0.15c2.686-0.003,5.37-0.074,8.048-0.221c-0.265-0.02-0.529-0.04-0.791-0.059
			c-2.422-0.179-4.851-0.226-7.279-0.266c-2.487-0.041-4.976-0.072-7.459-0.229c-2.405-0.152-4.79-0.483-7.179-0.787
			c-2.11-0.268-4.481-0.765-6.605-0.477c-1.554,0.21-2.976,0.993-4.252,1.868c-2.987,2.049-5.443,4.796-7.97,7.363
			c-2.804,2.848-5.947,5.342-9.144,7.733c-1.905,1.425-3.861,2.784-5.893,4.022c-1.481,0.902-3.027,1.682-4.527,2.551
			c-2.757,1.598-5.401,3.763-4.851,7.291C87.84,114.553,87.852,114.599,87.861,114.647z"/>
		<path style="fill:#FFE3CB;" d="M141.539,142.173c0.077-1.062,0.154-2.126,0.272-3.184c0.178-1.599,0.425-3.188,0.622-4.784
			c0.192-1.557,0.335-3.123,0.32-4.694c-0.007-0.791-0.075-1.552-0.239-2.327c-0.138-0.651-0.316-1.292-0.518-1.926
			c-0.387,4.595-1.344,9.123-2.056,13.676c-0.298,1.905-0.571,3.817-0.645,5.745c-0.058,1.496-0.023,2.995,0.088,4.487
			c0.243,3.246,0.844,6.485,1.897,9.568c0.46,1.346,1.013,2.678,1.682,3.945c-0.466-1.626-0.794-3.295-1.039-4.949
			c-0.535-3.612-0.678-7.279-0.602-10.926C141.353,145.26,141.426,143.715,141.539,142.173z"/>
		<path style="fill:#FFE3CB;" d="M191.066,145.568c-0.363-9.863-5.982-18.754-10.594-27.16c-4.683-8.535-9.171-17.171-14.362-25.415
			c-1.697-2.695-3.605-5.268-6.676-6.457c-0.181-0.07-0.366-0.13-0.55-0.19c0.753,0.738,1.403,1.572,1.909,2.531
			c0.861,1.63,1.305,3.438,1.65,5.238c0.401,2.092,0.732,4.197,1.175,6.282c0.499,2.347,1.145,4.661,1.901,6.938
			c1.529,4.603,3.506,9.042,5.624,13.4c2.064,4.249,4.379,8.389,6.337,12.688c1.582,3.473,2.771,7.127,3.468,10.88
			c1.324,7.14,0.809,14.613-1.878,21.387c-1.358,3.422-3.239,6.567-5.517,9.399c3.329-1.554,6.383-3.711,8.958-6.367
			c5.309-5.476,8.165-12.716,8.542-20.189C191.07,147.546,191.103,146.557,191.066,145.568z"/>
		<path style="fill:#FFE3CB;" d="M136.344,108.319c1.659,0.414,2.819,1.353,4.03,2.508c0.852,0.813,1.708,1.631,2.576,2.44
			c0.122,0.201,0.244,0.401,0.363,0.604c0.564,0.955,1.105,1.922,1.654,2.885c-0.287-0.235-0.572-0.473-0.854-0.713
			c-1.467-1.25-2.884-2.558-4.287-3.878c-0.084-0.079-0.168-0.157-0.251-0.235c1.847,3.321,0.982,8.06,0.319,11.606
			c-0.25,1.338-0.543,2.667-0.857,3.99c0.233-0.374,0.47-0.747,0.713-1.117c1.399-2.124,2.891-4.192,4.152-6.404
			c0.632-1.108,1.221-2.257,1.658-3.457c0.457-1.256,0.709-2.573,0.982-3.878c0.288-1.375,0.611-2.746,1.151-4.047
			c0.458-1.103,1.09-2.112,1.772-3.089c1.369-1.962,2.97-3.848,3.776-6.133c-0.544-0.245-1.076-0.516-1.599-0.803
			c-2.779-1.522-5.387-3.338-8.193-4.812c-1.356-0.713-2.762-1.363-4.241-1.778c-1.268-0.355-2.633-0.543-3.931-0.234
			c-1.338,0.319-2.432,1.173-3.211,2.291c-0.503,0.721-0.884,1.522-1.188,2.346c-0.281,0.761-0.872,1.447-1.381,2.072
			c-2.452,3.007-5.709,5.341-8.976,7.381c-3.251,2.03-6.667,3.792-10.146,5.396c-1.828,0.842-3.68,1.56-5.611,2.135
			c-2.323,0.692-4.701,1.231-7.108,1.533c-2.091,0.262-4.308,0.395-6.374-0.116c-1.444-0.357-2.847-1.153-3.336-2.62
			c-0.193,0.7-0.246,1.467-0.114,2.312c0.84,5.381,8.239,6.033,12.508,5.952c7.531-0.143,14.41-3.709,20.835-7.329
			c3.319-1.87,6.544-4.037,10.338-4.801C133.095,108.009,134.768,107.926,136.344,108.319z"/>
	</g>
</g>
</svg>
