<?xml version="1.0" encoding="utf-8"?>
<!-- Generator: Adobe Illustrator 27.5.0, SVG Export Plug-In . SVG Version: 6.00 Build 0)  -->
<svg version="1.1" id="Capa_1" xmlns="http://www.w3.org/2000/svg" xmlns:xlink="http://www.w3.org/1999/xlink" x="0px" y="0px"
	 viewBox="0 0 2122 2122" style="enable-background:new 0 0 2122 2122;" xml:space="preserve">
<g>
	<path style="fill:#327731;" d="M571.177,477.26c0.213,0.119,0.426,0.237,0.639,0.357c2.686,1.5,5.306,2.978,7.864,4.438
		c0.37,0.211,0.743,0.423,1.111,0.634c2.343,1.341,4.625,2.664,6.854,3.97c0.521,0.305,1.049,0.613,1.563,0.916
		c2.041,1.203,4.018,2.388,5.957,3.561c0.608,0.367,1.228,0.739,1.826,1.104c0.499,0.305,1.032,0.619,1.525,0.922
		c-1.326-2.173-2.648-4.344-3.925-6.495c-20.46-34.443-37.187-68.82-52.864-104.357c-2.638-2.257-5.279-4.579-7.92-6.947
		c-0.647-0.581-1.294-1.178-1.94-1.765c-1.96-1.777-3.919-3.575-5.876-5.406c-0.763-0.715-1.525-1.436-2.287-2.158
		c-1.904-1.804-3.806-3.63-5.702-5.48c-0.697-0.679-1.392-1.355-2.087-2.04c-2.157-2.125-4.308-4.277-6.451-6.454
		c-0.392-0.399-0.785-0.789-1.177-1.188c-5.285-5.398-10.519-10.941-15.672-16.588c-0.229-0.251-0.454-0.504-0.682-0.755
		c-2.309-2.538-4.601-5.096-6.874-7.671c-0.394-0.445-0.784-0.891-1.176-1.337c-2.183-2.486-4.348-4.984-6.493-7.495
		c-0.317-0.371-0.635-0.74-0.95-1.112c-7.509-8.828-14.761-17.781-21.643-26.708c0.001,0.002,0.002,0.004,0.003,0.006
		c26.895,50.575,75.423,92.287,77.602,152.989c-35.309-20.729-62.358-50.334-89.603-79.727c0-0.001-0.001-0.001-0.001-0.002
		c0.012,0.02,0.025,0.04,0.038,0.06c2.956,4.76,5.919,9.487,8.897,14.189c0.399,0.63,0.802,1.254,1.201,1.882
		c7.637,12.022,15.406,23.854,23.395,35.556c1.815,2.658,3.626,5.32,5.468,7.964c1.712,2.458,3.457,4.902,5.195,7.348
		c1.238,1.743,2.449,3.497,3.7,5.235C521.016,450.335,548.339,464.529,571.177,477.26z"/>
	<path style="fill:#418834;" d="M669.83,612.591c3.735-3.728,7.485-7.396,11.253-11.079
		c-30.812-31.715-60.039-71.424-82.546-108.313c-0.524-0.322-1.015-0.636-1.548-0.96c-0.598-0.365-1.218-0.737-1.826-1.104
		c-1.942-1.174-3.915-2.357-5.957-3.561c-0.514-0.303-1.042-0.611-1.563-0.916c-2.232-1.307-4.508-2.628-6.854-3.97
		c-0.368-0.211-0.741-0.423-1.111-0.634c-2.56-1.46-5.177-2.938-7.864-4.438c-0.213-0.119-0.426-0.238-0.639-0.357
		c-2.919-1.626-5.901-3.274-8.961-4.947c13.502,25.254,29.261,48.084,42.939,73.15c-102.904-48.905-202.393-101.465-310.038-132.308
		c-0.018-0.006-0.037-0.012-0.056-0.017c23.953,11.483,54.3,26.704,89.627,45.927c0.521,0.284,1.046,0.571,1.57,0.856
		c2.929,1.597,5.893,3.222,8.888,4.874c0.514,0.283,1.022,0.562,1.539,0.847c3.442,1.902,6.924,3.837,10.452,5.81
		c0.312,0.175,0.631,0.356,0.944,0.531c3.074,1.722,6.184,3.477,9.32,5.254c0.968,0.548,1.94,1.101,2.914,1.655
		c2.699,1.535,5.423,3.093,8.168,4.668c0.92,0.529,1.832,1.05,2.757,1.583c3.492,2.012,7.015,4.053,10.575,6.13
		c0.839,0.49,1.692,0.993,2.536,1.487c2.779,1.626,5.578,3.272,8.398,4.939c1.29,0.762,2.585,1.53,3.883,2.3
		c2.599,1.543,5.218,3.107,7.85,4.683c1.172,0.702,2.334,1.395,3.512,2.103c3.602,2.167,7.235,4.365,10.896,6.595
		c1.18,0.719,2.375,1.453,3.561,2.179c2.665,1.629,5.341,3.273,8.034,4.935c1.468,0.906,2.94,1.816,4.416,2.732
		c2.717,1.685,5.45,3.39,8.195,5.108c1.223,0.766,2.437,1.521,3.665,2.293c3.791,2.383,7.61,4.799,11.454,7.247
		c1.279,0.814,2.569,1.643,3.854,2.465c2.791,1.784,5.594,3.584,8.412,5.402c1.503,0.97,3.007,1.942,4.517,2.922
		c0.296,0.192,0.596,0.39,0.893,0.582C577.203,563.599,623.431,583.708,669.83,612.591z"/>
	<path style="fill:#327731;" d="M645.888,638.427c-79.489-40.541-163.228-84.015-253.241-80.896
		c7.435,2.824,26.304,9.723,51.062,19.946c0.113,0.046,0.23,0.095,0.342,0.142c2.453,1.013,4.959,2.059,7.521,3.137
		c0.42,0.177,0.852,0.361,1.275,0.539c2.284,0.963,4.598,1.948,6.959,2.961c0.599,0.256,1.206,0.52,1.809,0.78
		c2.213,0.953,4.448,1.925,6.719,2.92c0.736,0.322,1.476,0.649,2.218,0.976c2.194,0.966,4.408,1.951,6.648,2.955
		c0.793,0.355,1.586,0.711,2.383,1.071c2.264,1.02,4.548,2.061,6.853,3.119c0.78,0.358,1.557,0.713,2.341,1.076
		c2.359,1.09,4.738,2.202,7.132,3.329c0.754,0.355,1.504,0.705,2.261,1.063c2.52,1.193,5.058,2.412,7.608,3.646
		c0.634,0.307,1.263,0.606,1.898,0.914c2.944,1.432,5.903,2.891,8.875,4.373c0.24,0.12,0.479,0.235,0.719,0.356
		c6.533,3.267,13.115,6.653,19.702,10.157c0.491,0.261,0.982,0.531,1.474,0.794c2.711,1.449,5.42,2.912,8.127,4.399
		c0.934,0.513,1.866,1.04,2.8,1.558c2.253,1.251,4.503,2.506,6.747,3.782c1.141,0.649,2.275,1.309,3.412,1.964
		c2.031,1.171,4.059,2.346,6.077,3.537c1.232,0.727,2.457,1.463,3.683,2.197c1.916,1.148,3.825,2.302,5.725,3.468
		c1.268,0.778,2.53,1.562,3.789,2.348c1.838,1.147,3.664,2.301,5.482,3.465c1.275,0.816,2.547,1.635,3.812,2.46
		c1.784,1.163,3.551,2.336,5.312,3.515c1.255,0.841,2.511,1.68,3.753,2.529c1.746,1.192,3.467,2.397,5.185,3.605
		c1.212,0.853,2.431,1.701,3.628,2.56c1.737,1.247,3.44,2.509,5.143,3.771c1.13,0.837,2.272,1.668,3.386,2.511
		c1.827,1.384,3.608,2.785,5.388,4.186c0.161,0.127,0.323,0.251,0.483,0.378C628.867,660.13,637.357,648.615,645.888,638.427z"/>
	<path style="fill:#418834;" d="M688.808,593.936c3.427-3.383,6.871-6.833,10.335-10.405c-0.244-0.298-0.494-0.562-0.734-0.879
		c0.278,0.278,0.556,0.513,0.834,0.776c2.39-2.466,4.789-4.991,7.199-7.597c10.449-11.3,21.976-22.58,34.572-33.374
		c-3.037-6.371-5.917-12.836-8.513-19.451c-3.302-8.413-6.25-17.005-8.85-25.731c-14.304-47.996-18.107-100.064-12.538-148.811
		c0.693-6.06,2.989-12.054,2.755-17.63c-0.039-0.93-0.149-1.847-0.347-2.752c-0.199-0.905-0.487-1.796-0.885-2.673
		c-0.056-0.123-0.134-0.218-0.193-0.338c-6.379,8.6-14.025,16.233-24.09,22.278c-9.214,5.534-18.539,10.467-28.211,13.273
		c-0.315,0.669-0.657,1.242-1.063,1.589c8.562,5.241,37.785-5.39,37.785-5.39s-18.754,99.108,10.617,167.286
		c6.264,14.542,3.457,41.706-9.074,58.544l-0.001,0c-19.806-26.115-44.818-73.447-55.29-109.711
		c-6.326-21.909-14.191-49.941-15.344-76.33c-0.426-0.494-0.853-0.965-1.278-1.463c-0.618-0.723-1.232-1.463-1.848-2.195
		c-1.693-2.01-3.383-4.046-5.066-6.115c-0.684-0.84-1.365-1.681-2.047-2.531c-1.734-2.16-3.46-4.351-5.182-6.567
		c-0.531-0.685-1.064-1.358-1.594-2.048c-2.273-2.957-4.536-5.951-6.78-8.993c0,0.001,0,0.001,0,0.002
		C613.971,448.967,643.191,525.557,688.808,593.936z"/>
	<path style="fill:#639B32;" d="M425.693,334.585c5.711,9.436,11.399,18.7,17.103,27.888c27.245,29.393,54.294,58.998,89.603,79.727
		c-2.179-60.702-50.708-102.413-77.602-152.989c-24.835-32.208-44.923-64.044-55.318-88.207c-2.064-4.798-29.985-9.634-28.093,0.833
		C378.184,239.443,404.922,300.266,425.693,334.585z"/>
	<path style="fill:#639B32;" d="M562.217,472.315c-20.902-11.432-45.069-23.974-71.528-37.609c-1.345-0.693-2.665-1.374-4.021-2.073
		c-88.514-45.592-169.889-74.166-221.653-85.517c-14.036-3.078-23.755-0.331-28.801,8.04c-3.967,6.581-9.007,23.284-1.347,30.413
		c0.768,0.715,22.656,9.56,60.249,27.587c107.645,30.842,207.135,83.403,310.038,132.308
		C591.476,520.398,575.719,497.568,562.217,472.315z"/>
	<path style="fill:#639B32;" d="M562.215,472.313c0,0.001,0.001,0.002,0.001,0.002c0.051,0.029,0.106,0.057,0.157,0.085
		C562.32,472.371,562.27,472.342,562.215,472.313z"/>
	<path style="fill:#639B32;" d="M419.26,517.641c-14.037-3.078-37.809,31.324-30.149,38.453c0.27,0.251,2.209,0.938,3.537,1.438
		c90.013-3.119,173.751,40.354,253.241,80.896c7.931-9.471,15.901-17.81,23.942-25.836c-46.399-28.883-92.627-48.992-133.939-63.348
		C487.865,532.555,446.487,523.611,419.26,517.641z"/>
	<path style="fill:#639B32;" d="M514.566,195.591c-1.311-5.056-28.171-14.083-27.893-3.451
		c0.997,38.202,18.172,102.384,33.481,139.465c7.126,17.259,14.245,34.096,21.572,50.703
		c15.677,35.537,32.403,69.914,52.864,104.357c1.277,2.151,2.599,4.322,3.925,6.495c-0.492-0.303-1.025-0.617-1.525-0.922
		c0.532,0.325,1.023,0.638,1.548,0.96c22.508,36.889,51.734,76.598,82.546,108.313c2.566-2.508,5.14-5.024,7.725-7.576
		c-45.618-68.379-74.838-144.969-84.83-227.235C562.057,309.86,525.906,239.354,514.566,195.591z"/>
	<path style="fill:#639B32;" d="M699.143,583.531c0.033-0.034,0.066-0.068,0.1-0.102c-0.277-0.263-0.555-0.498-0.834-0.776
		C698.649,582.969,698.9,583.233,699.143,583.531z"/>
	<path style="fill:#639B32;" d="M631.409,361.494c0.017,0.004,0.034,0.007,0.052,0.011c0.08-0.268,0.146-0.544,0.229-0.811
		C631.605,360.965,631.491,361.221,631.409,361.494z"/>
	<path style="fill:#639B32;" d="M696.865,356.821c0,0-29.223,10.631-37.785,5.39c0.407-0.346,0.748-0.919,1.063-1.589
		c-9.179,2.663-18.669,3.409-28.681,0.883c-3.255,10.817-4.228,22.768-3.689,35.104c1.153,26.388,9.018,54.421,15.344,76.33
		c10.472,36.264,35.485,83.595,55.29,109.711l0.001,0c12.531-16.837,15.338-44.002,9.074-58.544
		C678.111,455.929,696.865,356.821,696.865,356.821z"/>
	<path style="fill:#F18932;" d="M608.693,694.813c-0.037,0.071-0.074,0.142-0.111,0.213
		C608.618,694.955,608.655,694.885,608.693,694.813z"/>
	<path style="fill:#F18932;" d="M608.581,695.026c-0.944,1.815-1.89,3.648-2.835,5.534
		C606.692,698.684,607.637,696.832,608.581,695.026z"/>
	<path style="fill:#F18932;" d="M1642.536,1658.577c11.008-9.743,22.934-17.773,35.127-25.965c3.53-2.371,9.116,2.238,6.458,6.01
		c-8.974,12.737-17.801,25.155-28.383,36.628c-5.684,6.162-11.142,12.762-17.375,18.277c22.063,19.208,45.175,37.939,69.339,55.18
		c12.311-14.664,24.942-28.484,39.26-41.369c5.798-5.218,15.535,0.689,11.601,8.196c-8.83,16.85-18.96,32.111-29.926,47.472
		c47.029,30.965,97.848,55.548,152.596,66.653c-9.117-27.845-23.983-59.275-40.048-88.311c-8.332,5.132-16.908,9.858-25.82,14.182
		c-4.705,2.286-10.152-3.225-6.115-7.468c7.406-7.766,15.2-14.996,23.329-21.821c-14.183-24.341-28.535-46.023-39.903-60.898
		c-64.674-84.62-124.237-173.978-178.617-265.576c-6.111-10.292-12.17-20.625-18.251-30.941
		c-16.1,15.676-32.248,31.306-48.061,47.246c-4.132,4.153-11.952-0.814-8.642-6.089c13.491-21.658,28.12-42.437,44.6-61.672
		c-30.737-52.392-61.018-105.114-90.707-158.172c-24.684,27.857-52.04,53.05-81.309,76.285c-5.371,4.244-11.944-4.45-7.508-9.12
		c26.815-28.335,52.302-57.818,77.265-87.788c-18.538-33.376-36.774-66.914-54.736-100.585c0.359,0.669,0.711,1.348,1.071,2.016
		c-21.05,22.713-44.132,43.979-65.885,62.482c-5.942,5.048-17.481-0.983-12.328-8.718c18.127-27.211,39.402-56.468,62.809-82.764
		c0.813,1.552,1.645,3.083,2.461,4.633c-18.736-35.474-37.157-71.099-55.108-106.929c-7.061-14.093-14.231-28.184-21.507-42.245
		c-8.171,8.206-16.394,16.279-23.964,24.602c-23.779,26.218-46.01,54.497-72.554,78.051c-4.908,4.319-12.725-0.556-9.636-6.835
		c15.192-30.743,37.521-57.598,59.933-83.398c10.472-12.112,21.316-25.386,32.929-37.768
		c-14.871-27.962-30.378-55.648-46.792-82.758c-24.45,19.784-47.57,40.718-67.85,65.181c-26.254,31.646-48.287,61.622-84.022,83.02
		c-7.03,4.211-15.95-5.78-9.385-11.402c34.243-29.63,56.557-69.743,86.374-103.404c18.264-20.675,39.389-38.6,61.146-55.581
		c-16.107-25.424-33.168-50.196-51.401-74.074c-6.803,6.257-14.161,12.263-20.906,18.75c-18.375,17.737-36.32,35.873-53.934,54.321
		c-38.195,40.084-73.781,82.33-114.602,119.792c-3.255,2.924-9.04-0.505-6.661-4.779c26.849-47.087,61.997-87.43,99.204-126.835
		c18.936-20.059,38.345-39.767,58.229-59.032c7.445-7.238,14.72-15.427,22.573-22.641c-19.383-23.857-40.125-46.643-62.486-68.081
		c-22.633,20.495-47.404,38.908-71.223,56.963c-53.374,40.445-104.477,82.559-155.636,125.686c-1.428,1.248-4.242-0.216-2.973-2.058
		c31.168-47.334,77.154-81.944,120.816-117.207c31.925-25.808,61.798-52.462,90.943-80.149c-1.051-0.935-2.047-1.915-3.106-2.844
		c-24.769-21.749-55.129-47.108-88.132-68.331c-20.018,24.464-46.612,46.357-67.029,66.002
		c-36.483,35.189-74.767,68.97-117.081,96.865c-2.656,1.707-5.505-2.012-3.466-4.202c33.564-37.019,69.795-71.554,104.355-107.733
		c18.546-19.354,36.917-44.917,57.465-66.231c4.269,2.277,8.507,4.685,12.712,7.18c-30.232-17.971-62.297-31.583-94.111-35.467
		c-24.372,24.542-53.978,46.053-80.221,60.327c-5.148,2.761-10.437-3.493-6.546-7.958c16.528-18.809,35.065-35.391,53.076-52.641
		c-3.705,0.454-7.402,1.013-11.076,1.809c-53.366,11.559-97.033,37.792-132.174,67.907c-12.596,10.794-24.124,22.074-34.572,33.374
		c-2.41,2.607-4.809,5.131-7.199,7.597c-0.034,0.034-0.067,0.068-0.1,0.102c-3.464,3.572-6.908,7.021-10.335,10.405
		c-2.585,2.552-5.159,5.069-7.725,7.576c-3.768,3.683-7.518,7.351-11.253,11.079c-8.041,8.026-16.011,16.365-23.942,25.836
		c-8.532,10.188-17.022,21.703-25.509,35.591c-3.894,6.371-4.533,7.681-5.281,9.064c4.386,28.666,11.989,56.819,22.851,83.802
		c8.172-7.607,16.344-15.216,24.516-22.823c15.857-14.762,31.712-29.523,47.569-44.285c16.254-15.132,32.445-30.334,48.821-45.336
		c8.391-7.687,16.766-15.394,25.173-23.063c7.25-6.612,14.821-14.233,23.537-18.857c2.035-1.081,4.922,1.03,3.552,3.305
		c-5.579,9.271-14.442,17.069-22.128,24.598c-7.725,7.569-15.451,15.138-23.177,22.709c-15.843,15.521-31.887,30.841-47.852,46.235
		l-47.904,46.19l-24.535,23.657c-0.53,0.511-1.05,1.052-1.577,1.573c15.046,33.422,34.263,64.511,56.372,93.523
		c29.207-24.16,59.975-46.982,87.875-72.071c0.578-0.52,1.407,0.226,0.893,0.831c-24.319,28.619-48.973,59.638-76.033,87.333
		c7.391,8.999,15,17.832,22.913,26.409c18.555,20.113,38.288,38.79,58.821,56.476c20.157-16.265,40.672-32.036,59.386-48.259
		c43.472-37.683,87.719-74.309,127.407-116.056c1.655-1.74,4.604,0.308,3.455,2.442c-27.431,50.993-74.354,88.385-116.147,127.311
		c-17.605,16.397-35.007,34.5-52.813,52.315c28.488,22.974,58.391,44.172,88.959,64.471c11.731-10.91,23.851-21.394,35.306-31.715
		c23.635-21.295,47.336-41.623,73.348-59.909c3.796-2.668,7.815,2.839,4.984,6.077c-23.111,26.419-47.924,51.109-72.327,76.344
		c-7.088,7.33-14.037,14.943-21.019,22.555c34.646,22.368,69.979,43.756,105.073,65.242c8.581-8.15,17.465-15.923,25.424-23.676
		c21.414-20.862,42.991-39.065,67.115-56.636c1.878-1.368,4.8,1.222,3.444,3.206c-16.773,24.543-34.16,46.623-54.276,68.584
		c-6.405,6.993-12.823,14.68-19.468,22.289c34.055,21.287,67.252,43.515,99.408,67.253c19.236-16.985,38.779-33.679,56.468-51.265
		c35.187-34.98,67.542-74.762,107.364-104.539c4.024-3.009,9.475,2.461,7.103,6.611c-25.682,44.963-65.7,81.937-102.154,118.193
		c-15.24,15.157-30.79,31.571-46.909,47.521c15.658,12.112,31.073,24.593,46.148,37.623c10.987,9.494,21.731,19.247,32.363,29.118
		c13.698-15.166,30.304-28.708,44.321-42.047c22.786-21.687,45.896-41.527,71.709-59.392c4.257-2.946,8.704,3.152,5.558,6.778
		c-21.335,24.586-44.211,47.236-67.122,70.369c-12.487,12.608-24.294,27.49-37.385,40.408
		c20.334,19.517,40.102,39.621,59.562,60.024c20.796-17.562,45.04-33.07,67.173-46.026c5.335-3.123,11.146,3.834,6.898,8.414
		c-16.935,18.256-36.936,38.188-58.084,54.537c11.196,11.934,22.333,23.922,33.382,35.984c5.365,5.857,10.728,11.734,16.09,17.605
		c14.044-13.252,28.845-25.843,42.766-38.718c23.359-21.604,45.877-43.439,71.778-61.96c5.616-4.016,10.584,3.976,7.09,8.647
		c-21.069,28.174-46.265,52.558-70.651,77.856c-10.872,11.278-21.522,23.014-32.599,34.284
		c21.429,23.454,42.938,46.897,64.667,70.136c15.767-18.585,33.88-35.401,51.36-52.103c4.004-3.825,11.758,0.812,8.393,5.93
		c-13.835,21.042-27.715,43.231-44.087,62.828c16.769,17.74,33.745,35.273,50.924,52.587c1.061-1.176,2.139-2.351,3.179-3.532
		c17.631-20.055,35.605-39.378,54.279-58.487c4.929-5.043,14.146,0.966,10.369,7.324c-13.205,22.227-26.961,43.356-42.379,64.096
		c-2.243,3.017-4.478,6.108-6.721,9.22c16.159,15.912,32.491,31.634,49.199,46.931c2.923,2.677,5.904,5.345,8.869,8.017
		C1627.356,1670.859,1635.542,1664.768,1642.536,1658.577z"/>
	<path style="fill:#F18932;" d="M605.747,700.561c-1.193,2.368-2.385,4.781-3.579,7.27
		C603.361,705.332,604.554,702.942,605.747,700.561z"/>
	<path style="fill:#F18932;" d="M1131.095,601.279c1.131,1.069,2.204,2.185,3.327,3.261c0.018-0.018,0.039-0.033,0.059-0.051
		C1133.368,603.403,1132.22,602.352,1131.095,601.279z"/>
	<path style="fill:#F18932;" d="M910.816,472.177c2.377,0.178,4.76,0.546,7.14,0.837c0.032-0.032,0.067-0.064,0.1-0.096
		C915.638,472.598,913.227,472.372,910.816,472.177z"/>
	<path style="fill:#F18932;" d="M1012.884,508.974c4.117,2.46,8.184,5.027,12.226,7.626c0.006-0.007,0.012-0.014,0.018-0.021
		C1021.086,513.968,1017,511.431,1012.884,508.974z"/>
	<path style="fill:#96B322;" d="M712.429,325.044c-0.002-0.002-0.002-0.004-0.003-0.005c-6.742-13.927-27.897-9.275-41.082-4.536
		c-0.881,0.316-1.728,0.634-2.532,0.946c-0.007,0.003-0.014,0.007-0.02,0.009c-2.34,0.91-4.522,1.924-6.625,2.988
		c-0.608,0.307-1.189,0.631-1.777,0.951c-1.569,0.853-3.073,1.748-4.509,2.686c-0.481,0.315-0.979,0.618-1.446,0.942
		c-1.824,1.266-3.563,2.587-5.171,3.989c-0.141,0.123-0.265,0.258-0.405,0.383c-1.468,1.305-2.836,2.673-4.128,4.085
		c-0.342,0.374-0.672,0.754-1.003,1.135c-1.163,1.342-2.259,2.724-3.277,4.151c-0.18,0.251-0.375,0.493-0.55,0.747
		c-1.205,1.747-2.315,3.55-3.32,5.41c-0.067,0.123-0.123,0.251-0.189,0.374c-0.917,1.726-1.744,3.501-2.5,5.313
		c-0.138,0.329-0.273,0.658-0.406,0.99c-0.768,1.925-1.473,3.884-2.076,5.894c10.031,2.542,19.539,1.795,28.734-0.872
		c9.672-2.806,18.997-7.738,28.211-13.273c10.065-6.045,17.712-13.678,24.09-22.278c0,0,0,0,0.001-0.001
		C712.441,325.061,712.433,325.053,712.429,325.044z"/>
	<path style="fill:#96B322;" d="M661.229,470.29c-2.995-13.057-5.5-26.637-9.398-39.436c-2.028-6.666-4.304-13.156-6.099-19.906
		c-1.549-5.816-3.27-11.113-6.551-16.169c-0.491-0.756-1.768-0.615-1.951,0.326c-1.23,6.35-0.68,12.111,0.165,18.458
		c0.942,7.087,1.18,14.332,2.273,21.371c2.15,13.875,5.814,28.007,9.981,41.4c4.012,12.895,8.515,25.494,14.117,37.787
		c5.643,12.382,11.506,25.447,20.24,35.959l0.749-0.465c-3.624-13.224-9.197-25.87-12.996-39.086
		C667.932,497.217,664.325,483.793,661.229,470.29z"/>
	<path style="fill:#96B322;" d="M661.148,392.284c3.341-3.59-2.234-8.79-5.581-5.194C652.224,390.681,657.8,395.881,661.148,392.284
		z"/>
	<path style="fill:#96B322;" d="M672.304,417.714c4.344-4.668-2.905-11.427-7.255-6.752
		C660.704,415.63,667.951,422.39,672.304,417.714z"/>
	<path style="fill:#96B322;" d="M681.969,384.737c2.539-2.729-1.697-6.681-4.241-3.948
		C675.188,383.518,679.425,387.471,681.969,384.737z"/>
	<polygon style="fill:#96B322;" points="668.651,392.074 669.524,392.271 669.967,392.199 670.746,391.713 671.095,391.116 
		671.214,390.456 671.048,389.807 670.657,389.235 670.272,388.964 669.399,388.767 668.957,388.839 668.179,389.323 
		667.829,389.922 667.71,390.582 667.875,391.232 668.268,391.802 	"/>
	<path style="fill:#96B322;" d="M674.419,438.69c-2.606,2.801,1.743,6.857,4.353,4.052
		C681.379,439.941,677.031,435.885,674.419,438.69z"/>
	<path style="fill:#96B322;" d="M667.677,444.296c2.006-2.154-1.34-5.274-3.348-3.117
		C662.324,443.334,665.669,446.454,667.677,444.296z"/>
	<path style="fill:#96B322;" d="M675.47,469.761c-1.672,1.797,1.115,4.397,2.79,2.597
		C679.931,470.563,677.143,467.964,675.47,469.761z"/>
	<path style="fill:#96B322;" d="M591.536,578.875c-16.858-8.232-34.451-15.083-52.053-21.543
		c-17.108-6.281-34.448-12.015-52.018-16.875c-15.985-4.422-30.99-8.026-47.386-4.556l0.027,0.737
		c15.736,3.19,31.291,9.21,46.596,14.066c17.191,5.452,34.161,11.581,50.858,18.397c15.747,6.43,31.075,13.709,46.454,20.959
		c8.193,3.863,16.21,7.825,24.623,11.188c7.729,3.087,15.046,6.938,23.358,7.885c1.031,0.118,2.261-1.019,1.469-2.059
		C623.61,594.107,605.89,585.883,591.536,578.875z"/>
	<path style="fill:#96B322;" d="M418.198,528.544c-0.238-2.026-2.765-3.305-4.29-1.599c-1.927,2.156-3.87,3.165-5.694,5.527
		c-0.396,0.53-0.773,1.073-1.13,1.63l-0.142,0.211c-0.332,0.451-0.675,0.891-1.026,1.324c-0.889,1.1-1.839,2.151-2.829,3.161
		c-1.94,1.98-3.811,3.984-5.693,6.025c-0.9,0.974-1.803,1.944-2.728,2.892c-0.577,0.591-1.299,1.163-1.686,1.906l-0.17,0.962
		l-0.683,0.876c-1.089,1.393,0.026,3.505,1.867,2.998c0.882-0.241,1.075-0.101,1.955-0.133c0.939-0.034,1.799-0.572,2.632-0.949
		c1.408-0.64,2.816-1.286,4.192-1.994c3.014-1.55,5.639-3.395,8.094-5.735c2.288-2.18,4.776-4.738,6.24-7.562
		C418.618,535.171,418.574,531.732,418.198,528.544z"/>
	<path style="fill:#96B322;" d="M434.002,545.97c-1.337,1.436,0.893,3.516,2.232,2.077
		C437.571,546.612,435.342,544.531,434.002,545.97z"/>
	<path style="fill:#96B322;" d="M456.89,549.377l-0.484,0.134c-0.73,0.2-1.304,0.846-1.467,1.577
		c-0.165,0.734,0.078,1.517,0.628,2.03c0.551,0.513,1.349,0.699,2.07,0.482c0.717-0.216,1.321-0.834,1.468-1.577l0.098-0.492
		c0.125-0.636-0.059-1.292-0.54-1.74C458.182,549.343,457.516,549.206,456.89,549.377z"/>
	<path style="fill:#96B322;" d="M477.071,556.12c-0.298-0.474-0.694-0.844-1.188-1.106c-0.477-0.247-0.985-0.362-1.523-0.343
		c-0.536,0.019-1.034,0.17-1.492,0.451c-0.474,0.296-0.843,0.692-1.106,1.188l-0.058,0.146l-0.315,1.159l0.093,1.187l0.333,0.739
		c0.304,0.487,0.71,0.865,1.217,1.133l0.118,0.045l0.053,0.019l0.017,0.008l0.67,0.243l0.699,0.065
		c0.482-0.018,0.93-0.155,1.342-0.407l0.184-0.084l0.891-0.875l0.521-1.104l0.072-0.796c-0.021-0.549-0.175-1.059-0.462-1.527
		L477.071,556.12z"/>
	<path style="fill:#96B322;" d="M478.668,551.901c-2.674,2.873,1.786,7.033,4.465,4.155
		C485.805,553.185,481.345,549.023,478.668,551.901z"/>
	<path style="fill:#96B322;" d="M428.11,530.983c-1.871,2.01,1.25,4.923,3.126,2.909C433.108,531.88,429.986,528.968,428.11,530.983
		z"/>
	<path style="fill:#96B322;" d="M417.191,546.163c-1.337,1.436,0.894,3.516,2.232,2.077
		C420.761,546.804,418.53,544.724,417.191,546.163z"/>
	<path style="fill:#96B322;" d="M492.38,203.12c1.916,1.419,3.802,2.516,6.044,3.325c1.664,0.599,3.375,1.034,5.133,1.245
		c1.182,0.141,2.379,0.248,3.571,0.25l1.251-0.033c1.075-0.078,1.979-0.473,2.899-0.986c1.382-0.77,2.044-2.523,1.798-4.018
		c-0.266-1.617-1.446-2.793-3.012-3.227c-1.776-0.493-3.744-0.178-5.587-0.241l-0.476-0.059l-1.237-0.21
		c-0.82-0.161-1.63-0.367-2.427-0.619l-0.528-0.175l0.099,0.041c0.396,0.145,0.309,0.113-0.26-0.095l-0.973-0.337
		c-0.732-0.2-1.501-0.614-2.162-0.95c-0.699-0.355-1.376-0.747-2.033-1.175c-1.015-0.665-2.073-0.936-3.292-0.948
		c-1.423-0.016-2.679,1.384-2.589,2.782c0.094,1.493,0.688,2.712,1.775,3.743C491.006,202.037,491.677,202.6,492.38,203.12z"/>
	<path style="fill:#96B322;" d="M499.974,238.373c1.88,20.957,9.498,41.242,16.173,61.067c7.094,21.073,14.886,41.911,23.36,62.468
		c8.081,19.6,17.202,38.729,26.872,57.594c9.682,18.883,19.593,38.091,33.165,54.413c0.344,0.416,1.038-0.071,0.874-0.545
		c-6.863-19.749-16.953-38.253-25.702-57.275c-9.108-19.804-17.573-39.915-25.798-60.1c-8.017-19.675-15.408-39.605-22.162-59.749
		c-6.681-19.923-11.397-40.754-20.292-59.838C504.969,233.197,499.675,235.039,499.974,238.373z"/>
	<path style="fill:#96B322;" d="M532.919,272.151c1.939-2.083-1.295-5.1-3.237-3.013
		C527.744,271.221,530.978,274.237,532.919,272.151z"/>
	<path style="fill:#96B322;" d="M537.463,302.066c0.417,0.664,0.969,1.18,1.662,1.547l0.416,0.235
		c0.538,0.277,1.11,0.406,1.717,0.387c0.606-0.024,1.167-0.194,1.684-0.509l0.399-0.265c0.516-0.294,0.921-0.691,1.215-1.195
		l0.52-0.987c0.234-0.504,0.332-1.04,0.29-1.607l-0.178-1.077l-0.453-1.01c-0.294-0.517-0.692-0.922-1.194-1.216l-0.986-0.521
		c-0.505-0.234-1.04-0.33-1.608-0.289l-1.077,0.178l-1.01,0.454c-0.516,0.294-0.922,0.693-1.216,1.194l-0.522,0.988
		c-0.233,0.505-0.331,1.04-0.288,1.606l0.177,1.078L537.463,302.066z"/>
	<path style="fill:#96B322;" d="M568.037,336.512c2.606-2.801-1.742-6.857-4.354-4.051
		C561.077,335.262,565.426,339.318,568.037,336.512z"/>
	<path style="fill:#96B322;" d="M584.288,374.869c2.74-2.945-1.83-7.21-4.577-4.259
		C576.971,373.553,581.544,377.817,584.288,374.869z"/>
	<path style="fill:#96B322;" d="M564.131,360.332c2.807-3.016-1.875-7.385-4.688-4.363
		C556.636,358.985,561.319,363.353,564.131,360.332z"/>
	<path style="fill:#96B322;" d="M578.719,353.846c2.874-3.088-1.92-7.56-4.799-4.467
		C571.045,352.468,575.841,356.94,578.719,353.846z"/>
	<path style="fill:#96B322;" d="M587.858,405.645c2.407-2.586-1.608-6.33-4.018-3.74
		C581.434,404.49,585.447,408.235,587.858,405.645z"/>
	<path style="fill:#96B322;" d="M574.908,393.592c1.805-1.94-1.206-4.747-3.013-2.805C570.09,392.726,573.1,395.534,574.908,393.592
		z"/>
	<path style="fill:#96B322;" d="M600.965,422.068c3.008-3.232-2.01-7.912-5.023-4.675
		C592.934,420.625,597.953,425.304,600.965,422.068z"/>
	<path style="fill:#96B322;" d="M599.641,446.178c-1.738,1.867,1.161,4.571,2.902,2.701
		C604.282,447.01,601.382,444.307,599.641,446.178z"/>
	<path style="fill:#96B322;" d="M386.936,222.058c-0.928-1.534-3.258-0.734-3.245,0.983c0.184,26.248,13.506,52.174,25.321,75.006
		c12.51,24.174,29.204,45.109,47.917,64.669l0.353-0.288c-14.43-21.914-26.646-45.469-38.468-68.879
		C407.081,270.315,400.41,244.314,386.936,222.058z"/>
	<path style="fill:#96B322;" d="M378.963,205.848l0.634,0.609l0.195,0.251l1.066,1.22c0.443,0.371,0.941,0.647,1.463,0.884
		c0.826,0.376,1.691,0.688,2.558,0.953c1.823,0.552,3.775,0.284,5.613-0.027c0.638-0.109,1.269-0.251,1.885-0.45
		c0.785-0.252,1.534-0.562,2.175-1.089l1.103-0.959c1.087-1.093,1.281-2.87,0.672-4.229c-0.295-0.654-0.709-1.152-1.294-1.566
		c-0.637-0.45-1.559-0.856-2.364-0.738c-0.472,0.069-0.945,0.127-1.417,0.205c-0.522,0.087-0.948,0.251-1.439,0.418
		c-0.482,0.162-0.981,0.262-1.478,0.366c-0.697,0.067-1.389,0.086-2.088,0.148c-0.854,0.075-1.68,0.185-2.542,0.153
		c-0.658-0.025-1.226,0.028-1.888,0.171l-0.085,0.011l0.157-0.012l-0.293,0.04l0.192,0.051l-0.223-0.055l0.168-0.023l-0.191,0.016
		l-0.369-0.054l-0.597-0.148l-0.581-0.176l0.008,0.005l-0.298-0.117c-0.666-0.27-1.496-0.251-2.004,0.345
		c-0.456,0.538-0.636,1.408-0.2,2.023C377.941,204.695,378.433,205.294,378.963,205.848z"/>
	<path style="fill:#96B322;" d="M410.576,253.318c2.473-2.657-1.653-6.505-4.13-3.843
		C403.973,252.133,408.098,255.981,410.576,253.318z"/>
	<path style="fill:#96B322;" d="M432.851,283.553c2.807-3.016-1.877-7.384-4.688-4.363
		C425.356,282.206,430.038,286.575,432.851,283.553z"/>
	<path style="fill:#96B322;" d="M426.173,268.627c1.804-1.938-1.205-4.748-3.013-2.805
		C421.355,267.761,424.365,270.57,426.173,268.627z"/>
	<path style="fill:#96B322;" d="M410.391,237.306c1.938-2.082-1.296-5.099-3.237-3.013
		C405.215,236.377,408.447,239.393,410.391,237.306z"/>
	<path style="fill:#96B322;" d="M420.626,280.096c1.538-1.652-1.027-4.044-2.567-2.389
		C416.521,279.359,419.087,281.75,420.626,280.096z"/>
	<path style="fill:#96B322;" d="M443.808,312.758c1.872-2.011-1.251-4.922-3.126-2.909
		C438.811,311.861,441.934,314.772,443.808,312.758z"/>
	<path style="fill:#96B322;" d="M458.337,311.233c1.137-1.22-0.759-2.989-1.897-1.766
		C455.303,310.688,457.199,312.457,458.337,311.233z"/>
	<polygon style="fill:#96B322;" points="468.032,338.908 468.483,339.226 469.509,339.458 470.028,339.372 470.942,338.804 
		471.351,338.103 471.492,337.326 471.297,336.564 470.837,335.895 470.386,335.575 469.36,335.343 468.84,335.43 467.928,335.999 
		467.517,336.699 467.377,337.474 467.572,338.237 	"/>
	<path style="fill:#96B322;" d="M453.767,333.116c3.143-3.377-2.099-8.264-5.246-4.882
		C445.38,331.608,450.621,336.497,453.767,333.116z"/>
	<path style="fill:#96B322;" d="M475.032,356.867c2.006-2.154-1.339-5.275-3.348-3.117
		C469.679,355.905,473.024,359.025,475.032,356.867z"/>
	<path style="fill:#96B322;" d="M486.55,360.458c0.869-0.934-0.581-2.285-1.451-1.351
		C484.229,360.041,485.68,361.393,486.55,360.458z"/>
	<path style="fill:#96B322;" d="M492.494,378.662c-2.739,2.944,1.832,7.208,4.577,4.259
		C499.811,379.977,495.239,375.712,492.494,378.662z"/>
	<path style="fill:#96B322;" d="M469.72,374.89c1.739-1.868-1.161-4.572-2.902-2.701C465.08,374.057,467.981,376.76,469.72,374.89z"
		/>
	<path style="fill:#96B322;" d="M506.067,403.172c1.805-1.939-1.206-4.746-3.013-2.805
		C501.248,402.306,504.259,405.115,506.067,403.172z"/>
	<path style="fill:#96B322;" d="M248.227,354.84c-3.064,3.072-5.744,6.485-8.095,10.128c-1.092,1.692-1.91,3.532-2.669,5.393
		c-0.426,1.045-0.965,2.182-1.233,3.274c-0.131,0.441-0.193,0.893-0.187,1.355c0.072,0.453,0.11,0.698,0.135,0.847
		c0.043,0.472,0.068,0.949,0.11,1.422c0.203,2.307,2.833,3.231,4.488,1.673l1.14-1.05l0.26-0.138
		c0.424-0.289,0.749-0.672,0.975-1.146c0.521-0.815,0.946-1.69,1.437-2.525c0.983-1.678,2.098-3.269,3.127-4.918
		c0.48-0.768,0.98-1.525,1.499-2.268l0.405-0.556l1.013-1.317c1.206-1.52,2.492-2.968,3.846-4.357
		c1.559-1.599,1.513-4.563-0.217-6.034C252.446,353.082,249.917,353.146,248.227,354.84z"/>
	<path style="fill:#96B322;" d="M393.246,408.655c17.831,8.129,35.372,16.881,52.967,25.501
		c18.167,8.899,36.69,16.544,55.384,24.243c1.532,0.632,3.38-1.415,1.831-2.592c-15.504-11.774-31.227-22.775-48.579-31.693
		c-18.368-9.44-37.246-17.708-56.366-25.503c-18.097-7.378-36.336-14.391-54.84-20.682c-9.496-3.228-19.034-6.33-28.618-9.288
		c-9.091-2.806-18.534-6.047-28.152-5.695c-0.541,0.02-0.944,0.823-0.444,1.189c6.756,4.916,14.841,7.626,22.655,10.429
		c10.076,3.612,20.099,7.371,30.057,11.3C357.344,393.046,375.441,400.535,393.246,408.655z"/>
	<path style="fill:#96B322;" d="M313.965,408.116c-2.139,2.298,1.429,5.626,3.572,3.324
		C319.675,409.142,316.107,405.813,313.965,408.116z"/>
	<path style="fill:#96B322;" d="M325.987,392.377c-2.808,3.017,1.876,7.385,4.688,4.363
		C333.482,393.724,328.798,389.357,325.987,392.377z"/>
	<path style="fill:#96B322;" d="M294.516,384.472c-1.805,1.939,1.205,4.747,3.013,2.804
		C299.334,385.338,296.323,382.529,294.516,384.472z"/>
	<path style="fill:#96B322;" d="M336.811,407.997c-1.269,1.363,0.849,3.34,2.12,1.974
		C340.201,408.606,338.084,406.63,336.811,407.997z"/>
	<path style="fill:#96B322;" d="M358.48,403.614c-1.67,1.795,1.117,4.395,2.791,2.597
		C362.943,404.414,360.154,401.815,358.48,403.614z"/>
	<path style="fill:#96B322;" d="M379.326,417.471c-1.872,2.011,1.251,4.922,3.125,2.909
		C384.323,418.368,381.201,415.456,379.326,417.471z"/>
	<path style="fill:#96B322;" d="M401.346,434.006c-3.275,3.519,2.188,8.616,5.469,5.09
		C410.091,435.576,404.627,430.48,401.346,434.006z"/>
	<path style="fill:#96B322;" d="M415.824,429.265c-2.407,2.586,1.607,6.33,4.018,3.74
		C422.249,430.419,418.235,426.674,415.824,429.265z"/>
	<path style="fill:#96B322;" d="M441.885,454.312c-2.74,2.945,1.832,7.209,4.577,4.259
		C449.202,455.626,444.63,451.362,441.885,454.312z"/>
	<path style="fill:#96B322;" d="M464.906,466.234c-3.209,3.447,2.144,8.439,5.357,4.987
		C473.472,467.773,468.12,462.78,464.906,466.234z"/>
	<path style="fill:#96B322;" d="M479.009,457.977c-2.139,2.298,1.429,5.626,3.572,3.324
		C484.719,459.003,481.152,455.675,479.009,457.977z"/>
	<path style="fill:#96B322;" d="M502.245,478.921l-0.131-0.013l-0.066-0.006l-0.625-0.058l-0.632,0.106
		c-0.824,0.236-1.496,0.957-1.672,1.797l-0.031,0.325l0.073,0.931l0.011,0.065l0.023,0.13l0.715,1.151
		c0.344,0.316,0.744,0.528,1.2,0.631c0.892,0.201,1.841-0.093,2.464-0.762c0.624-0.67,0.849-1.638,0.586-2.514l-0.717-1.149
		C503.1,479.235,502.7,479.024,502.245,478.921z"/>
	<path style="fill:#96B322;" d="M526.204,494.775c1.337-1.437-0.893-3.517-2.232-2.077
		C522.635,494.134,524.865,496.214,526.204,494.775z"/>
	<path style="fill:#96B322;" d="M521.551,470.646c-2.339,2.514,1.564,6.153,3.906,3.635
		C527.797,471.768,523.895,468.127,521.551,470.646z"/>
	<path style="fill:#96B322;" d="M541.415,487.549c-2.874,3.088,1.92,7.561,4.8,4.467
		C549.089,488.928,544.295,484.455,541.415,487.549z"/>
	<path style="fill:#E7722D;" d="M1889.892,1866.414c-0.012-0.116-0.034-0.24-0.047-0.357c-0.269-2.446-0.642-4.974-1.089-7.56
		c-0.096-0.56-0.207-1.129-0.312-1.694c-0.424-2.294-0.908-4.633-1.458-7.022c-0.118-0.51-0.229-1.014-0.352-1.528
		c-1.424-5.952-3.198-12.159-5.301-18.573c-54.786-11.096-105.638-35.691-152.695-66.675c10.966-15.36,21.097-30.622,29.926-47.472
		c3.934-7.507-5.803-13.414-11.601-8.196c-14.318,12.885-26.949,26.705-39.26,41.369c-24.165-17.242-47.277-35.972-69.339-55.18
		c6.233-5.514,11.691-12.115,17.375-18.277c10.582-11.472,19.409-23.891,28.383-36.628c2.659-3.773-2.928-8.382-6.458-6.01
		c-12.194,8.193-24.12,16.222-35.127,25.965c-6.994,6.19-15.18,12.282-21.574,19.517c-2.964-2.672-5.945-5.34-8.869-8.017
		c-16.708-15.297-33.041-31.018-49.199-46.931c2.243-3.112,4.477-6.203,6.721-9.22c15.419-20.739,29.174-41.869,42.379-64.096
		c3.777-6.358-5.44-12.367-10.369-7.324c-18.674,19.109-36.648,38.432-54.279,58.487c-1.039,1.181-2.117,2.356-3.179,3.532
		c-17.179-17.314-34.155-34.847-50.924-52.587c16.372-19.597,30.252-41.786,44.087-62.828c3.365-5.118-4.389-9.755-8.393-5.93
		c-17.479,16.702-35.592,33.518-51.36,52.103c-21.729-23.239-43.238-46.682-64.667-70.136c11.077-11.27,21.727-23.005,32.599-34.284
		c24.386-25.297,49.582-49.682,70.651-77.856c3.493-4.671-1.474-12.664-7.09-8.647c-25.901,18.521-48.419,40.356-71.778,61.96
		c-13.921,12.875-28.722,25.465-42.766,38.718c-5.362-5.871-10.725-11.748-16.09-17.605c-11.048-12.062-22.185-24.05-33.382-35.984
		c21.148-16.349,41.15-36.281,58.084-54.537c4.248-4.58-1.563-11.538-6.898-8.414c-22.133,12.956-46.376,28.464-67.173,46.026
		c-19.459-20.403-39.228-40.506-59.562-60.024c13.091-12.918,24.898-27.8,37.385-40.408c22.911-23.134,45.787-45.783,67.122-70.369
		c3.147-3.626-1.301-9.724-5.558-6.778c-25.813,17.866-48.923,37.705-71.709,59.392c-14.017,13.34-30.623,26.881-44.321,42.047
		c-10.632-9.871-21.375-19.624-32.363-29.118c-15.075-13.03-30.49-25.511-46.148-37.623c16.12-15.95,31.669-32.363,46.909-47.521
		c36.455-36.256,76.472-73.231,102.154-118.193c2.372-4.15-3.079-9.62-7.103-6.611c-39.822,29.778-72.177,69.559-107.364,104.539
		c-17.689,17.586-37.232,34.28-56.468,51.265c-32.156-23.738-65.353-45.966-99.408-67.253c6.645-7.609,13.063-15.296,19.468-22.289
		c20.116-21.961,37.504-44.041,54.276-68.584c1.356-1.984-1.566-4.574-3.444-3.206c-24.124,17.571-45.701,35.774-67.115,56.636
		c-7.958,7.753-16.843,15.526-25.424,23.676c-35.094-21.486-70.426-42.874-105.073-65.242c6.982-7.612,13.931-15.224,21.019-22.555
		c24.402-25.235,49.216-49.924,72.327-76.344c2.832-3.237-1.187-8.745-4.984-6.077c-26.011,18.286-49.712,38.615-73.348,59.909
		c-11.456,10.322-23.575,20.805-35.306,31.715c-30.569-20.298-60.471-41.496-88.959-64.471
		c17.806-17.815,35.208-35.917,52.813-52.315c41.793-38.926,88.715-76.318,116.147-127.311c1.149-2.134-1.801-4.182-3.455-2.442
		c-39.688,41.748-83.935,78.373-127.407,116.056c-18.714,16.223-39.229,31.994-59.386,48.259
		c-20.532-17.686-40.266-36.363-58.821-56.476c-7.913-8.578-15.522-17.41-22.913-26.409c27.061-27.695,51.714-58.714,76.033-87.333
		c0.515-0.606-0.314-1.352-0.893-0.831c-27.9,25.089-58.667,47.911-87.875,72.071c-22.11-29.012-41.327-60.101-56.372-93.523
		c0.527-0.52,1.047-1.061,1.577-1.573l24.535-23.657l47.904-46.19c15.965-15.394,32.009-30.713,47.852-46.235
		c7.725-7.57,15.451-15.14,23.177-22.709c7.686-7.529,16.549-15.327,22.128-24.598c1.37-2.275-1.517-4.386-3.552-3.305
		c-8.716,4.624-16.288,12.245-23.537,18.857c-8.407,7.67-16.782,15.376-25.173,23.063c-16.376,15.002-32.566,30.204-48.821,45.336
		c-15.857,14.762-31.713,29.523-47.569,44.285c-8.172,7.607-16.344,15.216-24.516,22.823
		c-10.862-26.983-18.464-55.137-22.851-83.802c-4.306,7.566-8.614,15.747-12.93,24.749c-0.149,0.31-0.297,0.617-0.446,0.929
		c-1.407,2.953-2.815,5.985-4.225,9.127c-25.641,57.16-21.533,140.718-4.859,199.743c12.296,43.53,42.905,84.531,79.932,121.883
		c0.013,0.013,0.027,0.026,0.04,0.04c5.217,5.261,10.561,10.448,16,15.562c3.134,2.947,6.302,5.864,9.492,8.76
		c7.878,7.152,15.903,14.148,23.989,20.977c0.706,0.597,1.414,1.188,2.121,1.781c4.765,4.003,9.544,7.948,14.323,11.833
		c0.841,0.683,1.68,1.369,2.52,2.048c28.596,23.136,56.958,44.131,80.89,62.577c48.377,37.289,98.423,71.52,149.082,104.769
		c7.238,4.75,14.487,9.479,21.746,14.195c58.071,37.726,116.746,74.554,174.449,113.579c12.352,8.354,24.723,17.029,37.057,25.997
		c12.335,8.969,24.633,18.232,36.84,27.765c18.31,14.299,36.414,29.203,54.126,44.626c11.808,10.281,23.441,20.794,34.845,31.511
		c39.912,37.509,77.011,77.526,108.926,118.946c52.831,68.566,115.716,107.462,183.557,149.835
		c18.137,11.328,36.607,22.891,55.359,35.352c24.35,16.182,60.493,52.764,96.881,78.037c7.529,5.229,15.068,9.974,22.516,13.954
		c3.723,1.99,7.424,3.789,11.09,5.361c2.443,1.048,4.871,1.996,7.278,2.832c2.408,0.837,4.797,1.562,7.162,2.167
		c2.365,0.605,4.706,1.088,7.02,1.438c3.471,0.527,6.88,0.756,10.217,0.655c2.224-0.067,4.415-0.282,6.569-0.656
		c16.157-2.796,30.249-14.47,40.678-39.407c0.697-1.665,1.235-3.473,1.69-5.356c0.136-0.565,0.233-1.164,0.348-1.748
		c0.278-1.404,0.505-2.853,0.665-4.36c0.07-0.661,0.135-1.324,0.184-2.004c0.119-1.688,0.167-3.436,0.155-5.236
		c-0.003-0.493,0.018-0.964,0.005-1.466C1890.326,1871.476,1890.167,1868.993,1889.892,1866.414z"/>
	<path style="fill:#E7722D;" d="M841.001,679.468c42.314-27.895,80.597-61.676,117.081-96.865
		c20.423-19.651,47.027-41.551,67.047-66.023c-4.042-2.612-8.128-5.149-12.244-7.606c-0.273-0.164-0.544-0.33-0.818-0.492
		c-4.205-2.496-8.443-4.903-12.712-7.18c-20.547,21.314-38.918,46.877-57.465,66.231c-34.56,36.179-70.79,70.714-104.355,107.733
		C835.496,677.456,838.345,681.174,841.001,679.468z"/>
	<path style="fill:#E7722D;" d="M837.735,533.341c26.278-14.293,55.931-35.841,80.321-60.423c-2.418-0.319-4.829-0.546-7.24-0.74
		c-0.975-0.078-1.951-0.134-2.925-0.191c-1.465-0.087-2.928-0.141-4.392-0.18c-1.531-0.04-3.064-0.052-4.594-0.038
		c-1.122,0.009-2.244,0.038-3.366,0.077c-1.596,0.054-3.194,0.133-4.792,0.247c-1.223,0.088-2.448,0.202-3.673,0.326
		c-0.878,0.089-1.753,0.126-2.632,0.234l-0.092,0.003l-0.044,0.047c-0.014,0.013-0.027,0.026-0.041,0.039
		c-18.01,17.25-36.548,33.832-53.076,52.641C827.298,529.848,832.586,536.102,837.735,533.341z"/>
	<path style="fill:#E7722D;" d="M904.589,785.131c-1.269,1.842,1.545,3.306,2.973,2.058
		c51.159-43.127,102.262-85.241,155.636-125.686c23.84-18.07,48.635-36.498,71.282-57.014c-1.112-1.086-2.26-2.137-3.385-3.21
		c-4.808-4.587-9.699-9.095-14.708-13.541c-0.013,0.012-0.025,0.024-0.039,0.037c-29.145,27.688-59.017,54.341-90.943,80.149
		C981.743,703.187,935.757,737.797,904.589,785.131z"/>
	<path style="fill:#E7722D;" d="M1016.901,881.128c-2.378,4.274,3.406,7.703,6.661,4.779
		c40.821-37.462,76.406-79.708,114.602-119.792c17.613-18.448,35.559-36.584,53.934-54.321c6.746-6.487,14.104-12.492,20.906-18.75
		c0.017-0.016,0.036-0.032,0.054-0.048c-0.908-1.201-1.876-2.364-2.795-3.56c-2.764-3.597-5.581-7.159-8.411-10.714
		c-1.634-2.052-3.21-4.143-4.857-6.185c-0.03,0.027-0.058,0.056-0.087,0.083c-7.854,7.214-15.128,15.402-22.573,22.641
		c-19.885,19.265-39.294,38.973-58.229,59.032C1078.897,793.697,1043.75,834.041,1016.901,881.128z"/>
	<path style="fill:#E7722D;" d="M1116.885,926.103c-6.565,5.622,2.355,15.613,9.385,11.402
		c35.735-21.398,57.768-51.375,84.022-83.02c20.28-24.463,43.401-45.397,67.85-65.181c0.018-0.014,0.035-0.029,0.053-0.044
		c-1.514-2.513-3.096-4.953-4.63-7.445c-2.78-4.518-5.547-9.05-8.393-13.497c-0.255-0.399-0.497-0.813-0.752-1.211
		c-0.005,0.004-0.01,0.009-0.016,0.013c-21.756,16.981-42.881,34.906-61.146,55.581
		C1173.442,856.36,1151.128,896.473,1116.885,926.103z"/>
	<path style="fill:#E7722D;" d="M1241.709,1000.062c26.544-23.554,48.775-51.834,72.554-78.051
		c7.57-8.324,15.793-16.396,23.964-24.602c0.003-0.003,0.006-0.006,0.009-0.009c-0.26-0.508-0.533-1.007-0.793-1.514
		c-3.268-6.362-6.597-12.683-9.959-18.989c-0.858-1.609-1.673-3.239-2.54-4.844c-0.003,0.004-0.006,0.007-0.009,0.01
		c-11.613,12.382-22.456,25.656-32.929,37.768c-22.412,25.8-44.741,52.655-59.933,83.398
		C1228.984,999.506,1236.801,1004.381,1241.709,1000.062z"/>
	<path style="fill:#E7722D;" d="M1361.9,1133.431c21.753-18.503,44.835-39.77,65.885-62.482c-0.36-0.668-0.712-1.347-1.071-2.016
		c-3.987-7.419-7.938-14.876-11.872-22.35c-0.815-1.55-1.647-3.081-2.461-4.633c-23.407,26.296-44.683,55.553-62.809,82.764
		C1344.419,1132.447,1355.958,1138.478,1361.9,1133.431z"/>
	<path style="fill:#E7722D;" d="M1411.692,1266.426c29.269-23.235,56.625-48.428,81.309-76.285c0.003-0.003,0.005-0.005,0.008-0.008
		c-3.928-6.856-7.721-13.762-11.513-20.67c-0.016,0.019-0.031,0.037-0.046,0.055c-24.963,29.97-50.45,59.453-77.265,87.788
		C1399.748,1261.975,1406.321,1270.67,1411.692,1266.426z"/>
	<path style="fill:#E7722D;" d="M1547.749,1416.073c15.813-15.94,31.961-31.571,48.061-47.246c0.001-0.002,0.003-0.004,0.005-0.005
		c-4.066-6.804-8.086-13.657-12.106-20.511c0,0,0,0-0.001,0.001c-16.48,19.235-31.11,40.015-44.6,61.672
		C1535.797,1415.259,1543.617,1420.226,1547.749,1416.073z"/>
	<path style="fill:#E7722D;" d="M1608.575,1496.057c14.707-9.596,29.176-19.413,42.862-30.584c0.627-0.482,1.206-1.01,1.834-1.494
		c-3.958-6.348-7.911-12.605-11.823-19.001c-0.757,0.718-1.469,1.388-2.226,2.105c-13.493,12.684-25.612,26.468-37.579,40.568
		C1597.804,1492.256,1603.224,1499.609,1608.575,1496.057z"/>
	<path style="fill:#E7722D;" d="M1668.911,1594.519c14.08-10.449,31.321-22.575,46.249-36.323
		c-4.417-6.332-8.696-12.715-13.024-19.142c-1.457,1.756-2.913,3.512-4.371,5.175c-12.119,13.785-23.763,27.919-35.93,41.659
		C1657.809,1590.405,1663.622,1598.484,1668.911,1594.519z"/>
	<path style="fill:#E7722D;" d="M1743.844,1672.524c11.513-8.837,23.281-16.994,34.556-26.052
		c-3.963-5.29-7.928-10.58-11.849-15.917c-10.099,11.042-19.395,22.654-29.252,34.009
		C1733.674,1668.745,1738.961,1676.244,1743.844,1672.524z"/>
	<path style="fill:#E7722D;" d="M1815.366,1755.53c8.912-4.324,17.488-9.051,25.82-14.182c0,0,0,0,0.001-0.001
		c-0.017-0.032-0.036-0.063-0.053-0.095c-2.789-5.07-5.671-10.135-8.545-15.017c-8.132,6.828-15.929,14.059-23.337,21.828
		C1805.214,1752.305,1810.661,1757.816,1815.366,1755.53z"/>
</g>
</svg>
