<?xml version="1.0" encoding="utf-8"?>
<!-- Generator: Adobe Illustrator 27.5.0, SVG Export Plug-In . SVG Version: 6.00 Build 0)  -->
<svg version="1.1" id="Layer_1" xmlns="http://www.w3.org/2000/svg" xmlns:xlink="http://www.w3.org/1999/xlink" x="0px" y="0px"
	 viewBox="0 0 326.547 229.648" style="enable-background:new 0 0 326.547 229.648;" xml:space="preserve">
<g>
	<g>
		<path style="fill:#79A302;" d="M182.839,141.118c0.928-1.755,2.633-3.166,3.992-4.664c1.386-1.528,2.978-3.23,3.411-5.314
			c0.643-3.098-0.085-6.285-0.907-9.278c-0.395-1.437-0.796-2.874-1.118-4.329c-0.116-0.524-0.709-0.629-1.152-0.556
			c-4.813,0.793-8.873,3.871-12.686,6.712c-3.139,2.338-6.812,5.506-10.892,5.959c0.036-0.623,0.255-1.203,0.535-1.699
			c0.568-1.007,1.27-1.726,2.216-2.586c2.086-1.898,4.916-3.604,7.435-5.184c2.643-1.658,5.351-3.275,7.765-5.263
			c2.203-1.815,4.376-4.08,4.691-7.072c0.152-1.446-0.649-2.212-1.671-3.069c-1.166-0.979-2.161-2.727-1.827-4.294
			c0.126-0.591,0.491-1.111,0.81-1.61c0.546-0.853,1.07-1.713,1.439-2.662c0.7-1.8,0.827-3.681,0.149-5.497
			c-0.578-1.549-1.22-3.089-1.007-4.734c0.206-1.592,0.733-3.144,1.125-4.697c0.387-1.531,0.827-3.201,0.565-4.79
			c-0.212-1.287-1.198-2.229-2.373-2.7c-3.063-1.226-6.931,0.547-9.676,1.847c-2.177,1.031-4.246,2.374-6.417,3.448
			c0.776-1.889,2.391-3.535,1.508-5.76c-0.148-0.374-0.44-0.614-0.863-0.605c-5.236,0.119-9.635,3.776-13.426,7.009
			c-1.878,1.602-3.755,3.175-5.741,4.643c-2.238,1.654-4.499,3.347-6.23,5.552c-0.98,1.248-1.674,2.606-2.237,4.086
			c-0.301,0.792-0.581,1.58-0.928,2.335c-1.354-1.382-3.068-2.801-4.866-1.955c-2.367,1.115-2.636,4.783-3.146,6.985
			c-0.992,4.276-2.458,8.424-3.555,12.672c-0.898,3.474-1.866,6.949-3.295,10.248c-0.585,1.35-1.228,2.648-1.944,3.895
			c-0.068,0.072-0.14,0.139-0.207,0.212c-1.603,1.737-3.048,3.535-4.127,5.598c-0.104,0.108-0.201,0.22-0.308,0.326
			c-0.205,0.206-0.336,0.545-0.236,0.813c-0.053,0.122-0.111,0.239-0.16,0.362c-0.99,2.448-1.552,5.04-2.246,7.579
			c-0.418,1.528-0.855,3.159-1.617,4.585c-1.309-2.704-1.666-5.755-1.571-8.765c0.126-3.992,0.946-7.936,1.998-11.777
			c0.987-3.604,2.254-7.108,3.419-10.655c1.481-4.505,2.73-9.091,4.437-13.52c1.768-4.589,4.341-8.649,7.004-12.76
			c2.821-4.356,5.749-8.643,8.766-12.866c3.046-4.264,6.183-8.465,9.402-12.601c1.968-2.528,4.06-4.958,6.001-7.506
			c0.914-1.2,1.807-2.438,2.508-3.778c0.558-1.067,1.113-2.278,1.06-3.512c-0.129-2.997-3.59-3.143-6.068-2.953
			c-0.425-3.503-1.7-6.946-3.86-9.744c-0.785-1.017-1.72-2.095-3.079-2.23c-1.329-0.132-2.63,0.548-3.789,1.109
			c-1.65,0.797-3.13,1.727-4.428,3.032c-1.166,1.173-2.129,2.532-3.078,3.881c-0.897,1.275-1.79,2.59-2.963,3.633
			c-0.527,0.468-1.126,0.879-1.754,1.2c-0.424,0.217-0.751,0.366-0.974,0.292c-0.012-0.019-0.091-0.089-0.159-0.217
			c-0.057-0.108-0.106-0.236-0.17-0.442c-0.156-0.506-0.242-1.032-0.363-1.546c-0.307-1.298-0.802-2.491-1.857-3.354
			c-0.401-0.328-1.053-0.086-1.423,0.15c-2.071,1.32-3.759,3.041-5.233,4.95c0.947-4.804,1.17-9.758,0.727-14.626
			c-0.18-1.979-0.75-4.297-2.508-5.479c-1.491-1.003-3.431-0.798-4.982-0.045c-1.043,0.506-1.958,1.211-2.766,2.029
			c-0.021-1.564-0.141-3.127-0.419-4.665c-0.465-2.574-1.486-5.281-4.044-6.383c-0.37-0.16-0.974,0.035-1.264,0.277
			c-2.466,2.051-4.359,4.629-5.83,7.469c-0.11,0.213-0.215,0.429-0.321,0.644c-0.427-2.247-0.699-4.539-1.128-6.696
			c-0.419-2.103-1.105-4.113-1.718-6.163c-0.634-2.122-1.257-4.25-2.183-6.268c-0.756-1.645-1.734-3.363-3.513-4.038
			c-1.887-0.716-3.909-0.049-5.533,0.986c-3.56,2.269-6.121,6.391-7.853,10.151c-2.663,5.781-0.813,12.066-1.723,18.076
			c-0.857-0.814-1.624-1.764-2.442-2.55c-1.238-1.19-2.871-2.615-4.734-2.246c-3.614,0.716-2.817,5.005-3.195,8.061
			c-1.345-0.722-2.52-1.686-3.901-2.397c-1.804-0.929-3.64-0.723-5.395,0.241c-3.721,2.045-5.561,6.306-5.896,10.393
			c-0.156,1.896,0.014,3.873,0.775,5.632c0.668,1.542,1.612,2.934,2.641,4.255c2.487,3.19,5.416,6.013,7.802,9.285
			c1.9,2.606,3.41,5.564,3.194,8.677c-4.851-6.231-9.514-12.629-16.901-16.08c-1.967-0.919-4.037-1.671-6.15-2.179
			c-1.465-0.352-3.03-0.595-4.527-0.295c-3.589,0.72-4.882,4.358-5.022,7.635c-0.1,2.332,0.683,4.426,1.792,6.437
			c0.903,1.638,1.896,3.167,2.433,4.935c-3.323,0.989-9.494,3.311-5.815,6.526c1.415,1.237,3.367,1.935,5.091,2.611
			c2.208,0.866,4.459,1.615,6.677,2.453c1.06,0.401,2.117,0.823,3.122,1.349c0.225,0.118,0.448,0.243,0.666,0.375
			c-2.712,0.991-5.615,1.473-8.02,3.191c-0.353,0.252-0.91,0.913-0.687,1.411c1.016,2.276,3.267,3.284,5.548,3.941
			c2.523,0.726,5.071,1.185,7.549,2.084c5.469,1.984,10.345,5.142,14.211,9.509c4.618,5.217,8.097,11.479,11.015,17.771
			c2.76,5.952,4.815,12.165,7.158,18.282c1.142,2.982,2.246,6.012,2.924,9.14c0.397,1.83,0.676,3.857,0.361,5.749
			c-0.25-0.716-0.417-1.47-0.604-2.246c-0.374-1.551-0.978-2.955-1.96-4.222c-1.95-2.516-4.74-4.196-7.492-5.696
			c-2.147-1.17-4.915-2.056-6.572-3.931c-1.953-2.21-1.69-4.998-0.725-7.566c0.987-2.628,2.765-5.755,1.482-8.583
			c-0.207-0.456-0.628-0.674-1.133-0.547c-2.065,0.519-3.714,2.126-5.415,3.316c-0.996,0.697-2.673,2.013-3.401,0.383
			c-0.733-1.643-0.441-3.833-0.275-5.559c0.189-1.963,0.523-3.906,0.824-5.854c0.477-3.09,0.771-6.356,0.452-9.47
			c-0.161-1.572-0.552-3.498-1.951-4.457c-1.495-1.025-3.259-0.429-4.47,0.719c-2.517,2.389-3.547,6.021-4.907,9.104
			c-1.656-2.074-2.71-4.587-3.913-6.935c-1.54-3.007-3.478-5.589-6.376-7.401c-1.71-1.069-4.288-2.629-6.261-1.259
			c-1.546,1.073-1.536,3.12-1.433,4.804c0.081,1.321,0.244,2.645,0.336,3.97c-1.129-1.262-2.277-2.506-3.504-3.681
			c-2.26-2.165-4.893-4.456-7.999-5.253c-2.964-0.761-6.208,0.407-7.829,3.077c-1.593,2.623,0.093,5.315,1.813,7.359
			c1.137,1.352,2.394,2.599,3.51,3.97c0.552,0.678,1.186,1.466,1.556,2.324c-1.299-0.088-2.589-0.322-3.879-0.514
			c-1.706-0.254-3.573-0.518-5.189,0.26c-1.887,0.907-2.519,2.903-2.443,4.869c0.096,2.484,0.702,5.246,2.389,7.161
			c2.711,3.077,7.185,3.471,10.96,4.284c1.634,0.352,3.467,0.703,4.911,1.587c0.245,0.15,0.486,0.335,0.631,0.493
			c0.101,0.11,0.115,0.183,0.113,0.18c0.018,0.04,0.029,0.005,0.013,0.049c-0.004,0.011-0.001,0.014,0.004,0.014
			c-0.015,0.011-0.031,0.023-0.054,0.041c-0.1,0.078-0.173,0.161-0.275,0.242c-0.345,0.274-0.713,0.43-1.144,0.511
			c-2.165,0.408-4.571-0.56-6.696-0.884c-2.412-0.367-4.924-0.264-6.914,1.32c-5.013,3.989-2.444,10.852,0.082,15.475
			c1.32,2.416,3.303,4.128,4.941,6.291c0.552,0.73,1.11,1.618,0.787,2.561c-0.3,0.876-1.148,1.467-1.947,1.845
			c-1.818,0.861-3.869,1.209-5.548,2.362c-1.742,1.197-2.559,3.214-2.028,5.287c0.573,2.239,2.629,3.968,4.387,5.305
			c1.953,1.486,4.072,2.749,6.201,3.962c2.644,1.507,5.507,2.491,8.215,3.86c1.428,0.721,2.767,1.581,3.933,2.682
			c0.356,0.336,1.782,1.543,1.63,2.091c-0.083,0.301-0.751,0.671-0.98,0.848c-0.654,0.506-1.306,1.01-1.94,1.542
			c-0.512,0.43-0.935,1.02-0.58,1.691c2.705,5.104,9.427,6.332,14.644,6.808c6.295,0.575,12.614,0.028,18.909-0.231
			c5.687-0.234,11.475,0.119,17.138,0.657c5.563,0.529,11.403,1.496,16.225,4.494c1.852,1.151,3.486,2.665,4.796,4.415
			c0.029,0.119,0.054,0.24,0.084,0.359c0.47,1.853,0.97,3.698,1.517,5.53c0.555,1.859,1.164,3.7,1.837,5.516
			c0.005,0.383,0.007,0.767,0,1.15c-0.007,0.402,0.293,0.494,0.608,0.413c0.411,1.037,0.842,2.066,1.306,3.082
			c0.002,0.009,0.004,0.018,0.006,0.027c0.002-0.001,0.003-0.002,0.005-0.003c0.046,0.101,0.086,0.204,0.133,0.304
			c0.311,0.671,1.429,0.412,1.888,0.148c0.603-0.347,1.184-1.031,1.009-1.781c-2.394-10.289,5.626-19.834,12.847-26.085
			c3.846-3.33,8.1-6.072,12.5-8.422c2.974-1.588,6.043-3.107,9.286-4.067c1.663-0.493,3.312-0.777,5.047-0.811
			c1.741-0.034,3.482,0.083,5.223,0.025c6.022-0.201,11.934-2.846,16.773-6.315c4.687-3.36,8.633-7.628,12.321-12.03
			c1.711-2.042,3.498-4.01,5.225-6.037c1.787-2.097,3.644-4.468,4.298-7.203c0.473-1.976,0.456-4.948-1.448-6.231
			c-1.354-0.913-3.207-0.502-4.503-0.388c-0.023,0.002-0.394,0.023-0.638,0.009c-0.025-0.008-0.106-0.026-0.173-0.046
			c0.01-0.02-0.058-0.101-0.063-0.087C182.615,141.788,182.638,141.5,182.839,141.118z"/>
		<path style="opacity:0.39;fill:#79A302;" d="M57.156,177.085c-0.986-1.145-1.944-2.313-2.921-3.466
			c-2.005-2.368-4.04-4.709-6.051-7.072c-4.03-4.736-7.981-9.57-11.349-14.807c-3.208-4.989-5.841-10.37-7.385-16.111
			c-0.449-1.387-1.02-2.684-2.299-3.402c-0.429,0.935-0.834,1.884-1.321,2.791c-0.415,0.772-0.921,1.499-1.627,2.032
			c-0.796,0.601-1.771,0.899-2.742,1.072c-2.131,0.379-4.421,0.363-6.291,1.61c-0.834,0.556-1.456,1.37-1.815,2.303
			c-0.449,1.164-0.664,2.555-0.437,3.789c0.405,2.205,2.046,3.811,3.319,5.553c0.599,0.819,1.138,1.714,1.372,2.712
			c0.258,1.096,0.103,2.211-0.256,3.267c-0.372,1.093-0.951,2.094-1.517,3.095c-0.481,0.852-1.024,1.759-1.155,2.746
			c-0.146,1.094,0.422,2.006,1.205,2.719c1.074,0.977,2.436,1.7,3.795,2.194c2.2,0.799,4.63,1.011,6.678,2.206
			c2.357,1.375,3.442,3.825,4.655,6.144c0.942,1.8,1.889,3.679,3.278,5.183c1.313,1.421,2.995,2.254,4.89,2.594
			c1.271,0.228,2.577,0.252,3.864,0.2c1.217-0.049,2.429-0.062,3.647-0.039c2.742,0.051,5.527,0.193,8.253-0.19
			c1.874-0.263,5.629-1.103,4.603-3.747C59.055,179.182,58.035,178.106,57.156,177.085z"/>
		<path style="opacity:0.39;fill:#79A302;" d="M181.803,135.072c1.022-1.747,2.013-3.618,2.399-5.623
			c0.271-1.411,0.08-2.907-0.993-3.946c-1.673-1.62-4.433-0.427-6.179,0.419c-2.928,1.419-5.608,3.309-8.38,4.999
			c-1.342,0.818-2.705,1.613-4.137,2.264c-1.176,0.534-2.416,0.997-3.713,1.105c-1.119,0.093-2.517-0.133-3.17-1.157
			c-0.847-1.329,0.301-3.048,1.083-4.106c1.051-1.422,2.327-2.647,3.444-4.014c1.934-2.365,3.98-4.642,6.063-6.876
			c1.069-1.147,2.153-2.28,3.248-3.402c0.899-0.921,1.901-1.789,2.674-2.822c1.226-1.639,2.033-3.581,2.616-5.53
			c0.644-2.154,1.024-4.399,1.081-6.648c0.045-1.772-0.098-3.602-0.707-5.279c-1.436,0.946-2.784,2.39-4.579,2.434
			c-0.234,0.006-0.406-0.234-0.346-0.454c0.345-1.255,1.135-2.403,1.829-3.487c0.956-1.495,1.957-2.962,2.87-4.484
			c0.811-1.351,1.588-2.752,2.092-4.251c0.393-1.165,0.669-2.498,0.223-3.689c-0.327-0.873-0.834-1.298-1.754-1.246
			c-1.028,0.058-2.05,0.513-2.966,0.951c-2.72,1.3-5.223,3.061-7.679,4.795c-1.14,0.805-2.269,1.624-3.408,2.429
			c-0.758,0.535-1.518,1.094-2.336,1.537c-0.298,0.162-0.568-0.104-0.526-0.405c0.079-0.57,0.316-1.12,0.532-1.649
			c0.302-0.739,0.63-1.466,0.934-2.203c0.292-0.705,0.573-1.42,0.772-2.158c0.139-0.515,0.322-1.188,0.116-1.711
			c-0.06-0.152-0.159-0.271-0.305-0.347c-0.157-0.082-0.127-0.08-0.283-0.056c-0.185,0.029-0.582,0.17-0.837,0.289
			c-1.011,0.471-1.956,1.094-2.882,1.711c-2.355,1.571-4.613,3.286-6.876,4.985c-0.792,0.595-1.58,1.2-2.395,1.765
			c-0.53,0.368-1.072,0.704-1.553,1.138c-0.669,0.604-1.219,1.313-1.634,2.113c-0.769,1.483-1.031,3.161-1.406,4.771
			c-0.412,1.767-1.006,3.468-2.081,4.948c-0.166,0.228-0.454,0.23-0.619,0c-1.176-1.638-2.511-3.202-4.153-4.391
			c-0.021-0.015-0.031-0.034-0.048-0.051c-0.357,0.175-0.672,0.459-0.952,0.722c-0.428,0.404-0.797,0.865-1.123,1.354
			c-1.271,1.908-1.866,4.174-2.358,6.385c-0.487,2.188-0.841,4.427-1.595,6.546c-0.949,2.67-2.221,5.228-3.525,7.739
			c-1.387,2.671-2.85,5.305-4.145,8.022c-1.016,2.132-2.429,4.051-3.383,6.215c-0.999,2.264-1.202,4.735-0.178,7.042
			c0.241,0.542,0.547,1.003,1.12,0.58c0.731-0.541,1.252-1.43,1.748-2.173c2.845-4.256,4.871-9.154,8.895-12.498
			c0.286-0.237,0.658-0.01,0.599,0.349c-0.051,0.313-0.086,0.629-0.086,0.947c0,0.237,0.014,0.439,0.078,0.659
			c0.044,0.153,0.112,0.279,0.201,0.362c0.073,0.067,0.143,0.114,0.302,0.139c0.059,0.009,0.32,0.005,0.42-0.012
			c1.12-0.197,2.166-0.973,3.067-1.62c2.639-1.896,5.004-4.194,7.302-6.481c1.498-1.49,2.971-3.005,4.394-4.567
			c2.641-2.898,5.298-5.82,8.295-8.358c1.296-1.097,2.683-2.197,4.253-2.875c1.071-0.463,2.325-0.721,3.316,0.05
			c0.117,0.091,0.137,0.318,0.056,0.434c-1.591,2.301-3.318,4.505-5.09,6.67c-3.813,4.659-7.761,9.184-11.242,14.105
			c-3.611,5.103-6.916,10.413-10.2,15.729c-1.823,2.951-3.743,5.855-5.335,8.94c-0.754,1.46-1.456,2.955-2.004,4.506
			c-0.431,1.219-0.896,2.616-0.739,3.93c0.122,1.016,0.836,1.548,1.853,1.474c0.733-0.053,1.414-0.488,2-0.899
			c0.78-0.547,1.491-1.188,2.205-1.817c1.353-1.191,2.794-2.592,4.557-3.139c1.33-0.413,3.422-0.085,3.449,1.649
			c0.026,1.674-1.38,3.285-0.898,4.974c0.34,1.192,1.452,1.833,2.575,2.153c1.521,0.434,3.154,0.436,4.72,0.343
			c1.865-0.11,3.717-0.404,5.545-0.783c3.254-0.675,6.444-1.607,9.474-2.981c2.578-1.169,5.07-2.544,7.389-4.17
			c2.331-1.634,4.365-3.553,6.271-5.66c0.48-0.53,1.225-1.221,1.288-1.985c0.062-0.738-0.648-1.447-1.09-1.95
			c-0.349-0.397-0.641-0.588-1.152-0.726c-0.446-0.12-0.909-0.195-1.333-0.387c-0.811-0.369-1.011-1.265-0.861-2.084
			c0.185-1.008,0.823-1.913,1.415-2.724c0.487-0.667,0.964-1.326,1.411-2.02C179.77,138.26,180.847,136.706,181.803,135.072z"/>
		<path style="opacity:0.39;fill:#79A302;" d="M121.373,84.4c2.158-2.488,4.446-4.859,6.734-7.227
			c2.272-2.351,4.548-4.7,6.696-7.165c1.917-2.199,3.88-4.446,5.519-6.863c1.635-2.41,3.131-5.321,2.767-8.326
			c-0.167-1.381-0.71-3.196-1.915-4.044c-1.96-1.379-4.76,0.554-6.38,1.637c-2.407,1.609-4.6,3.596-7.159,4.969
			c-0.882,0.473-1.913,0.939-2.94,0.823c-0.965-0.109-1.817-0.87-2.063-1.814c-0.197-0.754-0.022-1.595,0.127-2.34
			c0.189-0.944,0.451-1.878,0.577-2.834c0.088-0.673,0.2-1.697-0.448-2.145c-0.589-0.407-1.263-0.244-1.764,0.188
			c-0.667,0.575-1.137,1.377-1.558,2.139c-0.53,0.959-0.98,1.963-1.402,2.974c-0.655,1.572-1.159,3.231-1.912,4.759
			c-0.11,0.224-0.399,0.209-0.563,0.072c-3.414-2.835-2.794-7.654-2.394-11.582c0.364-3.576,0.961-8.014-1.865-10.805
			c-0.926-0.915-2.239-1.233-3.405-1.737c-1.09-0.471-2.038-1.089-2.705-2.087c-0.646-0.967-1.007-2.085-1.571-3.096
			c-0.484-0.868-1.178-1.514-2.048-1.989c-2.743-1.496-4.09,2.017-4.786,4.049c-0.503,1.467-0.895,2.967-1.36,4.446
			c-0.354,1.129-0.72,2.363-1.48,3.296c-0.09,0.111-0.321,0.144-0.434,0.056c-1.575-1.217-2.368-3.162-2.931-5.014
			c-0.569-1.868-0.907-3.797-1.256-5.715c-0.279-1.536-0.421-3.025-0.479-4.586c-0.069-1.863-0.114-3.743-0.425-5.584
			c-0.23-1.358-0.594-2.91-1.626-3.897c-0.284,0.26-0.551,0.538-0.783,0.846c-1.563,2.076-2.25,4.785-2.871,7.262
			c-0.725,2.896-1.264,5.838-2.059,8.716c-0.602,2.179-1.332,4.671-2.98,6.314c-0.661,0.658-1.489,1.116-2.421,1.23
			c-1.397,0.172-2.57-0.49-3.632-1.337c-1.403-1.12-2.55-2.577-4.048-3.576c-0.599-0.4-1.261-0.692-1.989-0.482
			c-0.685,0.197-1.053,0.825-1.305,1.448c-0.539,1.335-0.729,2.9-1.791,3.961c-0.614,0.613-1.417,1.001-2.29,0.996
			c-0.847-0.004-1.665-0.285-2.518-0.239c-4.279,0.233-6.04,4.871-5.53,8.563c0.603,4.366,3.634,8.007,6.17,11.436
			c2.667,3.606,4.846,7.536,7.001,11.465c2.176,3.968,4.264,8.433,3.803,13.077c-0.031,0.313-0.366,0.468-0.612,0.254
			c-0.975-0.847-1.902-1.745-2.796-2.676c-3.772-3.933-6.999-8.373-11.054-12.036c-2.698-2.437-5.264-5.044-8.129-7.288
			c-1.478-1.158-3.066-2.283-4.812-2.999c-1.26-0.516-2.939-0.92-4.157-0.067c-1.296,0.908-1.556,2.93-1.694,4.372
			c-0.17,1.773-0.102,3.556-0.059,5.334c0.024,0.993-0.043,1.986,0.116,2.972c0.169,1.049,0.527,2.054,1.062,2.972
			c1.125,1.931,2.906,3.395,4.661,4.731c1.4,1.066,3.136,1.599,4.485,2.745c0.576,0.489,0.887,1.021,0.894,1.783
			c0.008,0.809-0.407,1.199-1.14,1.417c-0.48,0.143-0.829,0.294-1.158,0.687c-0.234,0.28-0.468,0.527-0.795,0.7
			c-0.21,0.111-0.574,0.157-0.737,0.336c-0.241,0.264-0.08,0.898-0.015,1.189c0.189,0.835,1.003,1.37,1.683,1.805
			c0.843,0.538,1.742,0.979,2.623,1.449c4.715,2.512,9.673,4.606,14.134,7.579c2.324,1.549,4.471,3.307,6.343,5.384
			c1.758,1.952,3.306,4.087,4.678,6.327c0.71,1.159,1.373,2.343,2.004,3.545c0.13-0.201,0.456-0.28,0.61-0.01
			c2.828,4.986,4.261,10.767,7.693,15.408c0.43-1.135,0.581-2.397,0.808-3.573c0.467-2.418,1.095-5.282,3.669-6.274
			c2.169-0.836,3.179,1.7,4.17,3.261c0.435-0.701,0.659-1.569,0.862-2.341c0.313-1.192,0.55-2.402,0.834-3.601
			c0.303-1.275,0.639-3.544,2.184-3.889c1.415-0.316,2.443,0.758,3.083,1.887c0.891,1.571,1.37,3.369,1.882,5.089
			c0.25,0.841,0.495,1.684,0.795,2.509c0.172,0.474,0.363,0.981,0.65,1.41c0.551-0.49,0.922-1.18,1.192-1.851
			c0.845-2.096,1.121-4.416,1.432-6.637c0.143-1.018,0.273-2.039,0.461-3.05c0.211-1.138,0.561-2.246,0.916-3.346
			c2.076-6.442,5.277-12.487,9.076-18.072C117.336,89.405,119.259,86.838,121.373,84.4z"/>
		<path style="opacity:0.39;fill:#79A302;" d="M55.4,137.852c-0.773-2.415-1.373-4.885-1.716-7.398
			c-0.295-2.163-0.196-4.299-0.208-6.473c-0.006-1.066-0.039-2.143-0.217-3.196c-0.174-1.034-0.54-1.963-0.977-2.911
			c-0.165-0.357-0.332-0.742-0.571-1.057c-0.05-0.066-0.113-0.119-0.165-0.183c-0.015-0.019-0.017-0.017-0.023-0.022
			c-0.006,0.004-0.053,0.014-0.078,0.035c-0.058,0.05-0.111,0.104-0.164,0.159c-0.147,0.156-0.277,0.327-0.414,0.491
			c-0.896,1.074-1.996,1.739-3.399,1.91c-1.112,0.135-2.217-0.116-3.116-0.796c-1.966-1.485-2.75-4.211-3.459-6.452
			c-0.405-1.28-0.778-2.572-1.252-3.829c-0.382-1.014-0.833-2.084-1.58-2.889c-0.573-0.617-1.508-1.266-2.398-1.141
			c-0.772,0.108-1.303,0.806-1.66,1.444c-0.554,0.992-0.859,2.119-1.098,3.223c-0.282,1.303-0.451,2.629-0.561,3.957
			c-0.173,2.105-0.284,4.302-0.009,6.405c0.037,0.285-0.327,0.426-0.54,0.31c-0.352-0.194-0.695-0.404-1.038-0.616
			c-1.912-1.18-3.86-2.508-6.05-3.111c-0.84-0.231-1.842-0.379-2.636,0.077c-0.845,0.486-1.274,1.625-1.308,2.559
			c-0.071,1.964,2.098,3.008,3.623,3.667c1.889,0.816,3.973,1.296,5.754,2.347c1.003,0.592,1.861,1.48,2.636,2.337
			c0.976,1.079,1.841,2.257,2.636,3.475c1.718,2.634,3.121,5.461,4.505,8.28c0.064,0.131,0.129,0.263,0.193,0.394
			c1.739,1.875,3.275,3.938,4.759,6.02c1.895,2.661,3.728,5.377,5.871,7.848c1.838,2.119,4.006,3.891,6.265,5.543
			c2.394,1.751,4.935,3.345,7.653,4.545c0.719,0.318,1.462,0.605,2.218,0.855c-1.772-3.983-3.837-7.834-5.68-11.784
			C59.066,147.304,56.939,142.661,55.4,137.852z"/>
		<path style="opacity:0.23;fill:#69913B;" d="M168.948,172.946c-6.335,2.184-13.24,2.042-19.856,2.25
			c-3.641,0.115-7.318,0.243-10.917,0.842c-2.963,0.493-5.865,1.312-8.656,2.419c-5.768,2.29-10.961,5.773-16.013,9.325
			c-0.288,0.202-0.564-0.133-0.527-0.405c0.86-6.225,4.107-11.977,7.331-17.261c2.99-4.901,6.159-9.686,9.126-14.602
			c3.37-5.587,6.717-11.187,10.165-16.726c6.153-9.884,12.659-19.59,20.121-28.538c-5.095,4.268-9.8,8.995-14.147,14.021
			c-4.695,5.429-8.983,11.206-12.9,17.218c-3.947,6.058-7.405,12.366-10.687,18.804c-1.828,3.585-3.627,7.186-5.395,10.801
			c-1.351,2.762-2.746,5.492-3.79,8.387c-0.867,2.405-1.687,4.841-2.84,7.129c-0.986,1.954-2.309,4.054-4.386,4.979
			c-0.189,0.085-0.37,0.044-0.49-0.128c-0.404-0.58-0.714-1.212-0.955-1.875c-1.156-3.174-0.921-6.794-0.82-10.109
			c0.053-1.73,0.126-3.463,0.054-5.193c-0.083-1.988-0.553-3.907-0.982-5.844c-2.053-9.283-4.678-18.424-7.027-27.634
			c-2.378-9.323-4.288-18.69-5.443-28.245c-1.2-9.926-1.953-19.901-2.517-29.882c-0.446-7.887-0.775-15.779-1.113-23.671
			c-0.888,14.7-0.709,29.496,0.403,44.179c0.54,7.121,1.567,14.195,2.962,21.198c1.424,7.148,3.276,14.198,4.692,21.35
			c0.725,3.663,1.409,7.335,2.106,11.004c0.376,1.976,1.13,3.905,1.736,5.819c0.744,2.351,1.465,4.713,2.036,7.113
			c0.511,2.148,0.976,4.398,0.898,6.619c-0.046,1.291-0.306,2.911-1.391,3.769c-0.841,0.665-1.884,0.375-2.698-0.179
			c-1.221-0.832-2.162-2.064-3.013-3.251c-1.09-1.52-2.047-3.135-2.948-4.772c-0.841-1.528-1.63-3.084-2.371-4.662
			c-0.628-1.337-1.181-2.699-1.872-4.005c-1.278-2.417-2.716-4.746-4.05-7.132c-0.02,0.369-0.053,0.737-0.113,1.099
			c-0.25-0.716-0.417-1.469-0.604-2.246c-0.027-0.113-0.065-0.219-0.095-0.33c-0.653-1.228-1.276-2.489-1.794-3.788
			c-0.026-0.034-0.045-0.071-0.071-0.105c-0.437-0.563-0.921-1.079-1.432-1.566c0.77,1.812,1.502,3.642,2.233,5.468
			c1.444,3.608,2.89,7.228,4.698,10.674c1.575,3.001,3.536,5.718,5.516,8.459c3.702,5.123,7.993,11.328,6.068,17.973
			c-0.079,0.274-0.396,0.33-0.599,0.158c-0.666-0.566-1.339-1.123-2.02-1.672c-5.564-4.486-11.571-8.383-17.638-12.144
			c-6.022-3.733-12.126-7.339-18.004-11.298c-2.745-1.849-5.471-3.741-7.982-5.901c-2.391-2.056-4.606-4.313-6.645-6.718
			c-4.112-4.851-7.508-10.278-10.325-15.971c-1.116-2.257-2.141-4.557-3.089-6.889c1.446,4.256,3.158,8.42,5.188,12.434
			c3.273,6.473,7.353,12.527,12.182,17.942c2.466,2.765,5.117,5.364,7.92,7.786c2.521,2.179,5.14,4.252,7.962,6.028
			c5.505,3.464,11.394,6.271,16.888,9.757c4.951,3.141,10.236,7.006,12.638,12.556c0.124,0.287-0.163,0.725-0.49,0.49
			c-0.776-0.557-1.587-1.062-2.425-1.521c-3.648-1.997-7.697-3.174-11.698-4.232c-4.227-1.117-8.469-2.335-12.787-3.043
			c-4.821-0.79-9.736-0.986-14.605-0.592c-4.9,0.396-9.706,1.751-14.653,1.55c-0.911-0.037-1.818-0.176-2.718-0.319
			c-0.58-0.093-1.171-0.192-1.721-0.406c-0.828-0.322-1.316-0.92-1.579-1.759c-0.405-1.292-0.537-2.7-0.749-4.033
			c-0.194-1.217-0.364-2.446-0.675-3.641c-0.23-0.881-0.552-1.755-1.118-2.48c-0.639-0.819-1.531-1.379-2.466-1.805
			c-1.43-0.652-2.991-1.028-4.521-1.36c-1.86-0.404-3.678-0.913-5.42-1.689c-4.413-1.966-7.551-5.558-10.618-9.19
			c-0.448,0.976-0.573,2.089-0.283,3.224c0.574,2.239,2.629,3.968,4.387,5.306c1.953,1.486,4.072,2.749,6.201,3.962
			c2.644,1.507,5.507,2.491,8.216,3.859c1.428,0.721,2.767,1.581,3.933,2.682c0.356,0.336,1.781,1.543,1.63,2.091
			c-0.083,0.301-0.751,0.671-0.98,0.848c-0.654,0.506-1.307,1.01-1.94,1.542c-0.512,0.43-0.935,1.02-0.58,1.691
			c2.705,5.104,9.427,6.332,14.644,6.808c6.295,0.575,12.613,0.028,18.91-0.231c5.687-0.234,11.475,0.119,17.138,0.657
			c5.563,0.529,11.403,1.496,16.225,4.494c1.852,1.151,3.486,2.665,4.796,4.415c0.029,0.119,0.054,0.24,0.084,0.359
			c0.47,1.853,0.97,3.698,1.517,5.529c0.555,1.859,1.164,3.7,1.837,5.516c0.005,0.383,0.007,0.767,0,1.15
			c-0.007,0.402,0.293,0.494,0.608,0.413c0.411,1.037,0.843,2.066,1.307,3.082c0.002,0.009,0.004,0.018,0.006,0.027
			c0.002-0.001,0.003-0.002,0.005-0.003c0.046,0.101,0.086,0.204,0.133,0.304c0.311,0.671,1.429,0.412,1.888,0.148
			c0.603-0.347,1.184-1.031,1.009-1.781c-2.394-10.289,5.626-19.834,12.847-26.085c3.846-3.33,8.1-6.073,12.5-8.422
			c2.974-1.588,6.043-3.107,9.286-4.067c1.663-0.493,3.312-0.777,5.047-0.811c1.741-0.034,3.482,0.083,5.224,0.025
			c6.022-0.201,11.933-2.846,16.772-6.315c0.675-0.484,1.331-0.991,1.976-1.51C169.486,172.738,169.222,172.852,168.948,172.946z"/>
		<path style="opacity:0.23;fill:#025021;" d="M188.217,117.533c-0.116-0.525-0.709-0.629-1.152-0.556
			c-4.813,0.793-8.873,3.871-12.686,6.712c-3.139,2.339-6.812,5.506-10.892,5.959c0.036-0.623,0.255-1.203,0.535-1.699
			c0.568-1.007,1.27-1.726,2.216-2.586c2.086-1.898,4.916-3.604,7.435-5.184c2.643-1.658,5.351-3.275,7.765-5.263
			c2.203-1.815,4.376-4.08,4.691-7.072c0.152-1.446-0.649-2.212-1.671-3.069c-1.166-0.979-2.161-2.727-1.827-4.294
			c0.126-0.591,0.491-1.111,0.81-1.61c0.546-0.853,1.07-1.714,1.439-2.662c0.7-1.8,0.827-3.681,0.15-5.497
			c-0.579-1.549-1.22-3.089-1.007-4.734c0.207-1.592,0.733-3.144,1.126-4.697c0.387-1.531,0.827-3.201,0.565-4.79
			c-0.212-1.287-1.198-2.229-2.374-2.7c-0.394-0.158-0.802-0.264-1.218-0.33c-2.314,2.527-4.339,5.313-6.259,8.145
			c-2.48,3.659-4.916,7.354-7.275,11.092c-2.877,4.559-5.691,9.167-8.894,13.509c-3.244,4.399-7.056,8.301-10.599,12.452
			c-3.596,4.213-7.011,8.588-10.064,13.213c-1.53,2.317-2.931,4.714-4.373,7.086c-1.505,2.477-3.023,4.946-4.528,7.424
			c-2.866,4.718-5.776,9.453-8.3,14.367c-1.766,3.438-3.001,7.14-4.522,10.688c-0.785,1.831-1.616,3.65-2.611,5.377
			c-0.823,1.428-1.769,2.848-3.021,3.937c-0.187,0.162-0.422,0.123-0.563-0.072c-2.132-2.948-1.977-6.882-1.449-10.307
			c0.536-3.479,1.576-6.85,2.469-10.247c0.391-1.489,0.766-2.991,0.933-4.524c0.198-1.814,0.206-3.645,0.163-5.468
			c-0.029-1.215-0.081-2.453-0.127-3.7c-0.881-2.381-1.134-4.97-1.053-7.53c0.126-3.992,0.946-7.936,1.998-11.777
			c0.987-3.603,2.254-7.108,3.419-10.655c1.481-4.506,2.73-9.091,4.437-13.521c1.768-4.589,4.341-8.649,7.004-12.76
			c2.821-4.356,5.749-8.643,8.766-12.866c3.047-4.264,6.183-8.465,9.402-12.601c1.968-2.528,4.06-4.958,6.001-7.506
			c0.915-1.2,1.807-2.438,2.508-3.778c0.558-1.067,1.113-2.278,1.06-3.511c-0.129-2.998-3.59-3.143-6.069-2.953
			c-0.425-3.503-1.7-6.946-3.86-9.744c-0.785-1.017-1.72-2.095-3.079-2.23c-1.329-0.132-2.63,0.548-3.789,1.109
			c-1.65,0.797-3.13,1.727-4.428,3.032c-1.166,1.173-2.129,2.532-3.078,3.881c-0.897,1.275-1.791,2.59-2.963,3.633
			c-0.527,0.469-1.126,0.879-1.754,1.2c-0.424,0.217-0.751,0.366-0.974,0.292c-0.012-0.019-0.091-0.089-0.159-0.217
			c-0.057-0.108-0.106-0.236-0.17-0.442c-0.156-0.506-0.242-1.032-0.363-1.546c-0.307-1.298-0.802-2.491-1.857-3.354
			c-0.401-0.328-1.053-0.086-1.423,0.15c-2.071,1.32-3.759,3.041-5.233,4.95c0.947-4.804,1.17-9.758,0.727-14.626
			c-0.18-1.979-0.75-4.297-2.508-5.479c-1.491-1.003-3.431-0.798-4.982-0.045c-1.043,0.506-1.958,1.211-2.766,2.029
			c-0.021-1.564-0.141-3.127-0.419-4.665c-0.466-2.574-1.486-5.281-4.044-6.383c-0.37-0.16-0.974,0.035-1.264,0.277
			c-2.466,2.051-4.359,4.629-5.83,7.469c-0.11,0.213-0.215,0.429-0.321,0.644c-0.427-2.247-0.699-4.539-1.128-6.696
			c-0.419-2.104-1.105-4.113-1.718-6.163c-0.634-2.122-1.257-4.25-2.183-6.268c-0.755-1.645-1.733-3.363-3.513-4.039
			c-0.152-0.058-0.307-0.092-0.46-0.133c-1.539,12.881-3.211,25.761-3.858,38.725c-0.332,6.662-0.399,13.333,0.008,19.993
			c0.409,6.694,1.182,13.36,2.027,20.011c1.679,13.226,3.04,26.492,5.315,39.633c1.11,6.41,2.361,12.794,3.688,19.162
			c1.125,5.394,2.249,10.778,3.687,16.096c1.183,4.376,2.276,8.797,2.874,13.296c0.489,3.677,0.898,7.967-0.777,11.418
			c-0.128,0.265-0.475,0.198-0.619,0c-2.428-3.35-4.65-6.841-6.79-10.38c-1.896-3.136-3.731-6.308-5.612-9.453
			c-1.304-2.181-2.75-4.266-4.187-6.358c-0.013,0.471-0.053,0.938-0.13,1.398c-0.25-0.716-0.417-1.469-0.604-2.246
			c-0.033-0.136-0.078-0.265-0.115-0.399c-0.223-0.327-0.448-0.653-0.668-0.983c-1.049-1.567-2.055-3.158-3.008-4.775
			c-1.691-1.507-3.683-2.684-5.662-3.762c-2.147-1.17-4.915-2.056-6.572-3.931c-1.953-2.21-1.69-4.998-0.725-7.566
			c0.987-2.628,2.765-5.755,1.482-8.583c-0.207-0.456-0.628-0.674-1.133-0.547c-2.065,0.518-3.714,2.126-5.415,3.316
			c-0.996,0.697-2.673,2.013-3.401,0.383c-0.733-1.643-0.441-3.833-0.275-5.559c0.189-1.963,0.523-3.906,0.824-5.854
			c0.477-3.09,0.771-6.356,0.452-9.47c-0.161-1.572-0.552-3.498-1.95-4.457c-1.495-1.025-3.259-0.429-4.47,0.719
			c-2.517,2.389-3.547,6.021-4.907,9.104c-1.656-2.074-2.71-4.587-3.913-6.935c-1.541-3.007-3.478-5.589-6.376-7.401
			c-1.71-1.069-4.288-2.628-6.261-1.258c-1.546,1.073-1.536,3.12-1.433,4.804c0.081,1.321,0.244,2.645,0.336,3.97
			c-1.129-1.262-2.277-2.506-3.504-3.681c-2.261-2.165-4.893-4.456-7.999-5.253c-2.604-0.668-5.423,0.153-7.169,2.172
			c0.051,0.068,0.097,0.141,0.149,0.21c3.438,4.505,7.882,8.151,11.122,12.818c1.839,2.649,3.163,5.66,4.529,8.571
			c1.436,3.059,2.804,6.149,4.2,9.227c1.337,2.946,2.729,5.863,3.991,8.843c1.163,2.748,2.295,5.513,3.641,8.178
			c1.365,2.702,2.965,5.298,4.96,7.584c2.096,2.402,4.612,4.492,7.003,6.593c4.673,4.107,9.595,7.877,14.817,11.26
			c4.24,2.747,8.61,5.287,12.869,8.006c8.394,5.359,16.59,11.651,21.224,20.701c2.831,5.528,4.312,11.689,5.534,17.741
			c0.204,1.01,0.399,2.021,0.592,3.033c0.102-0.038,0.197-0.079,0.27-0.121c0.603-0.347,1.184-1.031,1.009-1.781
			c-2.394-10.289,5.626-19.834,12.847-26.085c3.846-3.33,8.1-6.073,12.5-8.422c2.974-1.588,6.043-3.107,9.286-4.067
			c1.663-0.493,3.312-0.777,5.047-0.811c1.741-0.034,3.482,0.083,5.224,0.025c6.022-0.201,11.933-2.846,16.772-6.315
			c4.687-3.36,8.633-7.628,12.321-12.03c1.711-2.042,3.498-4.01,5.225-6.037c1.787-2.097,3.644-4.469,4.298-7.203
			c0.473-1.976,0.456-4.948-1.448-6.231c-1.354-0.913-3.207-0.502-4.503-0.388c-0.023,0.002-0.394,0.023-0.638,0.009
			c-0.025-0.008-0.106-0.026-0.173-0.046c0.01-0.021-0.058-0.101-0.063-0.087c-0.183-0.346-0.161-0.634,0.041-1.016
			c0.928-1.755,2.633-3.166,3.992-4.664c1.386-1.528,2.978-3.23,3.411-5.314c0.644-3.098-0.085-6.285-0.907-9.278
			C188.941,120.425,188.539,118.988,188.217,117.533z"/>
		<path style="opacity:0.77;fill:#D3DE72;" d="M61.69,65.22c-1.811-3.344-3.972-6.461-5.921-9.72
			c-2.091-3.497-4.324-6.858-4.732-11.02c-0.198-2.019,0.454-3.888,1.834-5.374c0.249-0.268-0.062-0.517-0.334-0.328
			c-8.338,5.775,0.027,16.697,4.501,22.009c1.367,1.623,2.935,3.036,4.217,4.738C61.413,65.736,61.812,65.445,61.69,65.22z"/>
		<path style="opacity:0.77;fill:#D3DE72;" d="M64.723,73.472c-0.521,0-1.01,0.927-0.318,0.927
			C64.927,74.399,65.415,73.472,64.723,73.472z"/>
		<path style="opacity:0.77;fill:#D3DE72;" d="M39.264,73.65c-1.433-1.596-3.092-2.854-4.091-4.795
			c-0.873-1.698-1.496-3.598-1.883-5.465c-0.435-2.1-0.391-4.148,0.819-5.969c0.354-0.533-0.33-0.756-0.718-0.495
			c-3.486,2.349-2.327,8.148-1.022,11.366c0.799,1.971,1.801,3.547,3.335,5.029c0.883,0.853,1.839,1.675,2.52,2.708
			c0.192,0.291,0.454,0.71,0.417,1.082c-0.011,0.116-0.085,0.158-0.119,0.185c-0.556,0.453-1.211,0.769-1.586,1.414
			c-0.476,0.819-0.17,1.627,0.403,2.295c0.411,0.479,1.387-0.101,1.228-0.692c-0.087-0.323-0.196-0.701-0.12-1.036
			c0.032-0.141,0.064-0.124,0.161-0.201c0.466-0.367,0.995-0.598,1.404-1.045C41.295,76.633,40.337,74.845,39.264,73.65z"/>
		<path style="opacity:0.77;fill:#D3DE72;" d="M73.6,117.517c-1.413-2.565-2.863-5.188-4.475-7.633
			c-3.402-5.157-7.633-9.885-12.82-13.276c-2.874-1.879-6.061-3.105-9.3-4.186c-0.059-0.02-0.171,0.082-0.099,0.127
			c2.415,1.503,4.742,3.149,7.078,4.769c2.433,1.687,4.716,3.491,6.763,5.64c1.039,1.092,1.967,2.279,2.931,3.437
			c0.976,1.172,2,2.301,2.942,3.502c1.74,2.217,3.21,4.67,4.747,7.031c1.701,2.612,3.29,5.324,4.275,8.297
			c0.115,0.348,0.706,0.079,0.688-0.223C76.163,122.313,74.879,119.838,73.6,117.517z"/>
		<path style="opacity:0.77;fill:#D3DE72;" d="M159.228,84.167c-0.114-0.349-0.345-0.564-0.693-0.688
			c-0.608-0.218-1.245-0.192-1.856-0.031c-0.97,0.174-1.922,0.676-2.69,1.197c-1.384,0.937-2.515,2.254-3.184,3.789
			c-0.119,0.273-0.094,0.614,0.026,0.876c0.133,0.291,0.34,0.426,0.637,0.546c1.565,0.634,3.441-0.225,4.659-1.208
			c1.146-0.925,2.238-2.08,2.885-3.417C159.163,84.915,159.347,84.531,159.228,84.167z"/>
		<path style="opacity:0.77;fill:#D3DE72;" d="M148.993,90.877c-0.743,0-1.439,1.321-0.453,1.321
			C149.283,92.198,149.979,90.877,148.993,90.877z"/>
		<path style="opacity:0.77;fill:#D3DE72;" d="M175.122,129.252c-1.42-0.308-2.923,0.478-4.051,1.269
			c-0.561,0.394-1.1,0.85-1.556,1.368c-0.825,0.707-1.489,1.583-1.857,2.638c-0.141,0.404-0.08,0.929,0.316,1.174
			c1.246,0.77,2.919,0.282,4.18-0.188c1.442-0.536,2.926-1.444,3.781-2.755C176.672,131.629,176.773,129.61,175.122,129.252z"/>
		<path style="opacity:0.77;fill:#D3DE72;" d="M21.866,149.01c-0.121-0.631-0.485-1.257-0.83-1.792
			c-0.428-0.664-0.946-1.254-1.515-1.8c-0.42-0.402-0.926-0.823-1.506-0.96c-0.209-0.049-0.442-0.05-0.678-0.01
			c0.044-0.545-0.851-0.432-1.081-0.014c-0.139,0.251-0.226,0.533-0.281,0.827c-0.11,0.151-0.2,0.314-0.24,0.495
			c-0.22,0.985-0.044,1.905,0.468,2.748c0.214,0.964,0.558,1.946,1.16,2.692c0.434,0.538,0.986,0.901,1.683,0.965
			c0.815,0.076,1.697-0.301,2.238-0.908C21.84,150.63,22.021,149.822,21.866,149.01z"/>
	</g>
	<g>
		<path style="fill:#79A302;" d="M200.267,70.592c-0.08,0.982,0.235,1.828,1.051,2.412c2.184,1.566,5.249,0.892,7.608,2.064
			c1.423,0.706,1.897,2.043,2.828,3.214c0.941,1.184,2.302,1.639,3.521,2.363c-0.383,0.079-0.767,0.143-1.158,0.177
			c-1.035,0.09-2.1,0.166-3.106,0.444c-0.663,0.183-1.486,0.491-1.757,1.189c-0.346,0.889,0.294,1.792,0.883,2.391
			c0.716,0.727,1.542,1.34,2.223,2.1c0.13,0.145,0.078,0.091,0.039,0.132c-0.21,0.225-0.498,0.445-0.748,0.669
			c-1.54,1.379-4.083,3.9-3.095,6.212c1.115,2.608,4.657,2.235,6.923,1.976c3.363-0.385,6.671-0.803,10.066-0.845
			c3.833-0.048,7.579,0.214,11.306,1.16c3.66,0.929,7.244,2.335,10.572,4.117c2.967,1.589,5.803,3.523,8.534,5.486
			c2.655,1.908,5.369,3.99,7.374,6.603c0.34,0.443,1.626,0.127,1.358-0.505c-0.06-0.141-0.116-0.286-0.175-0.428
			c0.034-0.044,0.047-0.097,0.023-0.156c-0.65-1.613-1.111-3.2-1.437-4.901c-0.328-1.712-0.003-3.415,1.088-4.797
			c1.022-1.295,2.49-2.34,4.168-2.49c1.422-0.127,2.851,0.274,4.186,0.726c3.316,1.122,6.391,2.919,9.771,3.848
			c1.62,0.445,3.34,0.672,5.008,0.375c1.282-0.228,2.77-0.758,3.329-2.049c0.539-1.245,0.013-2.695-0.497-3.855
			c-0.583-1.324-1.322-2.575-1.924-3.89c1.346-0.003,2.639,0.035,3.955-0.502c0.184-0.075,0.393-0.283,0.402-0.494
			c0.06-1.354-0.77-2.25-1.716-3.048c1.484,0.032,2.952-0.146,4.381-0.659c1.961-0.705,3.676-1.877,5.36-3.08
			c3.702-2.645,8.069-5.743,9.666-10.207c0.097-0.272-0.019-0.543-0.298-0.644c-1.552-0.556-3.184-0.393-4.799-0.428
			c0.295-1.273,1.722-2.357,2.635-3.097c1.646-1.334,3.438-2.479,5.22-3.62c1.331-0.853,2.719-1.656,3.81-2.818
			c1.021-1.088,2.155-2.665,2.185-4.223c0.031-1.561-1.234-1.943-2.53-1.909c0.977-1.117,1.817-2.364,2.579-3.625
			c1.16-1.919,2.231-4.073,2.52-6.323c0.223-1.734-0.235-3.775-2.016-4.506c-1.836-0.753-4.02,0.104-5.662,0.958
			c-1.091,0.567-2.13,1.251-3.108,2.013c0.167-0.913,0.177-1.835-0.252-2.525c-0.934-1.502-3.057-0.341-4.104,0.356
			c-1.161,0.773-2.006,1.794-2.948,2.805c-0.897,0.963-1.991,2.301-3.28,2.739c-1.266,0.43-1.381-1.684-1.159-2.464
			c0.443-1.556,1.853-2.794,2.977-3.874c2.304-2.213,5.754-5.184,4.246-8.781c-1.189-2.837-3.86-1-5.926,0.753
			c-0.055-0.135-0.131-0.267-0.241-0.395c-0.29-0.338-0.703-0.539-1.078-0.764c-0.551-0.331-1.061-0.705-1.531-1.145
			c-2.088-1.961-2.368-5.044-4.265-7.127c-1.227-1.347-2.948-1.621-4.481-0.587c-1.525,1.028-2.466,2.803-3.166,4.448
			c-0.608,1.427-1.098,2.907-1.516,4.404c-0.308-0.367-0.719-0.638-1.263-0.735c-1.113-0.197-2.296,0.235-3.248,0.784
			c-0.45,0.26-0.863,0.582-1.257,0.932c0.662-1.227,1.26-2.486,1.741-3.784c0.415-1.12,0.902-2.495,0.633-3.707
			c-0.187-0.842-0.81-1.28-1.549-1.448c0.119-0.174,0.24-0.347,0.365-0.517c0.363-0.495,0.746-0.974,1.125-1.456
			c0.784-0.999,1.57-2.005,2.206-3.107c0.459-0.795,0.912-1.762,0.753-2.705c-0.154-0.918-0.793-1.678-1.683-1.94
			c-1.042-0.306-2.14-0.051-3.183,0.106c-0.736,0.111-1.947,0.614-2.569-0.004c-0.388-0.385-0.512-0.981-0.697-1.476
			c-0.224-0.598-0.498-1.142-0.974-1.578c-1.157-1.061-2.824-1.547-4.364-1.597c-2.405-0.078-4.248,1.086-5.908,2.558
			c0.014-0.596-0.033-1.198-0.119-1.796c-0.052-0.36-0.595-0.546-0.902-0.499c-3.414,0.523-6.162,2.58-9.158,4.124
			c0.007-0.06,0.011-0.119,0.021-0.181c0.053-0.333-0.3-0.585-0.593-0.615c-1.995-0.202-3.862,0.685-5.648,1.452
			c-1.745,0.749-3.63,1.045-5.367,1.801c-3.903,1.7-5.332,6.087-5.295,10.046c0.04,4.189,1.092,8.672,2.848,12.471
			c1.951,4.219,4.631,8.085,6.249,12.458c1.625,4.393,2.435,9.137,2.049,13.814c-2.891-2.913-3.05-7.682-3.58-11.602
			c-0.313-2.315-0.727-4.692-1.899-6.747c-1.767-3.097-4.484-5.521-6.087-8.736c-1.665-3.34-3.127-6.806-6.93-8.136
			c-0.267-0.093-0.666-0.059-0.883,0.146c-1.468,1.385-1.61,3.348-1.83,5.243c-0.114,0.981-0.168,1.968-0.282,2.949
			c-0.071,0.613-0.081,1.574-0.435,2.114c0.006-0.008-0.129,0.095-0.131,0.096c-0.213,0.106-0.433,0.195-0.652,0.288
			c-0.741,0.312-1.439,0.684-2.106,1.135c-1.463,0.989-2.085,2.461-2.229,4.179c-0.11,1.311,0.26,3.391-1.101,4.066
			c-0.117-0.072-0.291-0.099-0.468-0.033c-1.514,0.565-3.239-0.417-4.801-0.41c-1.362,0.006-3.225,0.633-3.995,1.844
			c-0.587,0.924-0.128,1.863,0.517,2.608c0.604,0.698,1.233,1.303,1.757,2.027c-2.325,0.487-4.723,0.638-6.939,1.563
			c-2.368,0.989-4.03,3.05-5.172,5.29C200.522,68.291,200.36,69.447,200.267,70.592z M272.952,46.435
			c-0.348,1.509-0.11,2.984,0.176,4.481c0.336,1.761,0.415,3.326-0.205,5.041c-0.609,1.685-1.538,3.246-2.51,4.743
			c-1.993,3.07-4.233,6.004-6.709,8.706c-0.331-1.104-0.366-2.317-0.322-3.44c0.079-1.984,0.454-3.954,0.948-5.873
			c0.925-3.597,2.246-7.461,4.42-10.514c1.472-2.068,3.397-3.712,5.025-5.641c0.011-0.013,0.021-0.027,0.033-0.041
			C273.456,44.719,273.153,45.564,272.952,46.435z"/>
		<path style="opacity:0.39;fill:#79A302;" d="M242.4,67.485c0.028,1.041,0.164,2.067,0.382,3.081
			C242.669,69.538,242.544,68.51,242.4,67.485z"/>
		<path style="opacity:0.39;fill:#79A302;" d="M241.84,65.578c0.018-0.144,0.112-0.235,0.222-0.276c-0.419-2.511-0.961-5-1.7-7.437
			c-1.259-4.148-3.113-8.116-5.727-11.588c-0.678-0.901-1.408-1.765-2.178-2.588c-0.554-0.592-1.221-1.351-2.042-1.562
			c-1.119-0.288-1.569,1.428-1.83,2.189c-0.467,1.364-0.862,2.774-1.91,3.823c-1.015,1.016-2.438,1.536-3.362,2.648
			c-0.567,0.683-0.925,1.604-0.973,2.489c-0.058,1.087,0.015,2.18-0.144,3.261c-0.128,0.871-0.474,1.846-1.04,2.534
			c-0.333,0.404-0.753,0.427-1.176,0.143c-0.263-0.177-0.503-0.386-0.767-0.561c-0.366-0.243-0.762-0.436-1.156-0.629
			c-0.51-0.25-1.182-0.649-1.774-0.63c-0.363,0.012-0.352,0.371-0.326,0.727c0.06,0.812,0.33,1.625,0.64,2.371
			c0.188,0.452,0.433,0.957,0.069,1.39c-0.184,0.219-0.453,0.363-0.704,0.492c-0.451,0.234-0.917,0.449-1.395,0.622
			c-2.135,0.771-4.502,0.735-6.584,1.676c-0.724,0.327-1.458,0.682-2.12,1.122c-0.573,0.381-1.341,1-1.213,1.782
			c0.109,0.662,0.924,0.96,1.476,1.144c0.736,0.246,1.504,0.379,2.241,0.619c0.621,0.202,1.434,0.636,1.778,1.223
			c0.23,0.393,0.031,0.764,0.031,1.177c0.001,0.74,0.413,1.63,0.883,2.189c0.548,0.652,1.3,1.117,1.979,1.619
			c1.427,1.054,2.895,2.081,4.125,3.369c1.176,1.23,2.156,2.759,2.107,4.521c-0.005,0.171-0.143,0.319-0.318,0.318
			c-0.485-0.002-0.969-0.04-1.452-0.069c-0.897-0.054-2.085-0.232-2.921,0.195c-0.994,0.507,0.172,1.882,0.671,2.302
			c0.379,0.32,0.822,0.602,1.06,1.052c0.279,0.527,0.189,1.195-0.043,1.723c-0.206,0.469-0.634,0.818-1.022,1.134
			c-0.465,0.379-0.957,0.733-1.375,1.166c-0.326,0.337-0.664,0.786-0.506,1.279c0.085,0.265,0.278,0.464,0.512,0.607
			c0.669,0.409,1.544,0.459,2.306,0.475c2.249,0.046,4.512-0.398,6.701-0.869c0.934-0.201,1.863-0.421,2.791-0.646
			c0.556-0.135,1.092-0.275,1.665-0.307c1.913-0.107,3.831-0.056,5.743-0.188c1.036-0.072,2.079-0.174,3.091-0.413
			c0.638-0.151,1.479-0.353,1.911-0.896c0.426-0.536-0.016-1.319-0.347-1.825c-0.675-1.031-1.716-1.813-2.724-2.495
			c-1.148-0.777-2.36-1.453-3.563-2.139c-1.038-0.592-2.098-1.177-3.035-1.924c-1.125-0.897-2.056-2.054-2.784-3.291
			c-0.754-1.281-1.389-2.813-1.232-4.329c0.021-0.208,0.265-0.437,0.478-0.274c1.911,1.456,3.74,3.021,5.728,4.374
			c1.92,1.307,4.048,2.49,6.371,2.85c0.129-0.884-0.134-1.789,0.09-2.675c0.059-0.233,0.365-0.307,0.531-0.14
			c1.178,1.181,2.29,2.426,3.508,3.569c0.542,0.509,1.101,1.009,1.709,1.439c0.426,0.302,0.932,0.658,1.465,0.726
			c0.352,0.045,0.574-0.113,0.706-0.489c0.261-0.746,0.138-1.654,0.038-2.417C244.335,75.927,241.163,71.093,241.84,65.578z"/>
		<path style="opacity:0.39;fill:#79A302;" d="M299.713,72.816c-1.418,0.945-2.802,1.889-4.378,2.556
			c-1.71,0.723-3.498,1.235-5.296,1.687c-2.308,0.58-4.668,1.066-6.941,1.794c-2.893,1.578-5.699,3.309-8.393,5.17
			c-1.308,0.904-2.581,1.869-3.75,2.948c-1.046,0.966-2.218,2.112-2.685,3.495c-0.154,0.456-0.25,0.952,0.066,1.363
			c0.282,0.367,0.758,0.572,1.181,0.72c1.195,0.418,2.478,0.537,3.715,0.779c3.02,0.59,5.495,2.643,8.462,3.406
			c1.026,0.264,3.152,0.532,3.356-0.966c0.145-1.059-0.397-2.165,0.254-3.143c0.872-1.311,2.257-0.385,3.491-0.554
			c0.306-0.042,0.686-0.275,0.797-0.584c0.081-0.225-0.103-0.417-0.243-0.574c-0.429-0.48-0.966-0.924-1.105-1.584
			c-0.093-0.442-0.22-1.012-0.057-1.452c0.171-0.462,0.676-0.668,1.093-0.85c1.835-0.802,3.751-1.316,5.64-1.967
			c1.038-0.358,2.048-0.787,3.006-1.327c0.621-0.35,1.212-0.762,1.685-1.3c0.862-0.979,1.076-2.278,1.133-3.54
			c0.04-0.88-0.005-1.761,0.108-2.637c0.102-0.786,0.326-1.538,0.687-2.244c0.399-0.778,0.936-1.478,1.511-2.133
			c0.323-0.368,0.653-0.746,0.918-1.159C302.426,71.096,301.034,71.935,299.713,72.816z"/>
		<path style="opacity:0.39;fill:#79A302;" d="M314.776,48.935c-1.086,0.274-2.08,0.903-3.106,1.337
			c-0.755,0.32-1.919,0.834-2.689,0.285c-0.4-0.286-0.568-0.799-0.527-1.273c0.02-0.24,0.083-0.471,0.146-0.702
			c0.042-0.153,0.143-0.382,0.104-0.544c-0.087-0.36-0.847-0.318-1.134-0.251c-0.531,0.124-1.025,0.414-1.489,0.691
			c-1.024,0.612-1.954,1.382-2.995,1.963c-0.492,0.275-0.927,0.663-1.371,1.008c-0.591,0.459-1.186,0.915-1.814,1.324
			c-1.036,0.675-2.326,1.385-3.606,1.096c-0.944-0.213-1.409-0.996-1.365-1.929c0.051-1.077,0.523-2.124,0.986-3.08
			c0.395-0.815,0.809-1.604,1.364-2.322c1.395-1.805,3.176-3.439,4.187-5.509c0.345-0.707,0.524-1.702-0.341-2.135
			c-0.872-0.436-2.093-0.028-2.984,0.149c-0.835,0.166-1.967,0.451-2.733-0.074c-0.542-0.372-0.919-1.011-1.243-1.567
			c-0.913-1.567-1.573-3.267-2.448-4.855c-0.349-0.634-0.727-1.304-1.268-1.797c-0.366-0.333-0.732-0.465-1.13-0.183
			c-0.707,0.5-1.074,1.54-1.363,2.309c-0.379,1.01-0.624,2.063-0.99,3.078c-0.341,0.945-0.775,2.143-1.668,2.711
			c-0.427,0.272-0.941,0.301-1.407,0.111c-0.451-0.185-0.825-0.557-1.247-0.807c0.188,0.67,0.642,1.302,0.908,1.916
			c0.338,0.78,0.492,1.641-0.054,2.367c-0.093,0.124-0.286,0.225-0.435,0.114c-0.505-0.378-0.847-0.889-1.201-1.402
			c-0.277-0.4-0.572-0.818-0.986-1.065c-0.35,0.188-0.693,0.389-1.022,0.613c-2.217,1.517-3.929,3.863-4.551,6.489
			c-0.32,1.351-0.256,2.639-0.021,3.993c0.225,1.298,0.289,2.623,0.045,3.923c-0.419,2.236-1.81,4.033-3.193,5.769
			c-1.301,1.632-2.559,3.278-3.48,5.158c-0.794,1.622-1.621,3.423-1.786,5.243c-0.055,0.605-0.064,1.424,0.47,1.838
			c0.22,0.17,0.452,0.254,0.699,0.153c0.355-0.145,0.677-0.41,0.97-0.65c1.514-1.239,2.708-2.901,4.383-3.936
			c1.168-0.722,2.444-1.255,3.596-2.006c1.077-0.701,2.047-1.553,2.938-2.476c3.745-3.879,6.105-8.831,8.931-13.361
			c0.2-0.32,0.644-0.1,0.581,0.245c-0.296,1.63-0.563,3.265-0.887,4.89c-0.651,3.266-1.514,6.653-3.366,9.468
			c-0.971,1.478-2.078,2.864-2.978,4.389c-0.425,0.72-0.841,1.483-1.095,2.283c-0.082,0.258-0.285,0.819-0.007,1.034
			c0.216,0.167,0.646,0.064,0.883,0.013c0.508-0.11,1-0.297,1.479-0.494c1.09-0.449,2.1-0.974,3.071-1.643
			c1.15-0.792,2.284-1.654,3.581-2.195c0.554-0.231,1.152-0.406,1.758-0.388c0.272,0.008,0.616,0.031,0.846,0.188
			c0.202,0.138,0.331,0.378,0.441,0.59c0.14,0.27,0.254,0.606,0.484,0.814c0.289,0.26,0.701,0.373,1.08,0.401
			c0.877,0.066,1.848-0.044,2.708-0.211c1.79-0.348,3.499-1.056,5.088-1.941c1.323-0.738,2.575-1.619,3.825-2.474
			c1.299-0.889,2.575-1.819,3.749-2.87c1.094-0.98,2.14-2.077,2.828-3.388c0.802-1.529,0.993-3.367,1.398-5.026
			c0.359-1.472,0.918-2.797,1.609-4.136c0.128-0.248,0.452-0.753,0.212-1.014C315.854,48.87,315.159,48.838,314.776,48.935z"/>
		<path style="opacity:0.39;fill:#79A302;" d="M276.814,20.054c-0.289-0.159-0.638-0.069-0.939,0.011
			c-0.761,0.203-1.579,0.579-2.372,0.302c-0.762-0.266-0.948-0.947-1.066-1.669c-0.065-0.4-0.111-0.857-0.349-1.199
			c-0.203-0.292-0.537-0.533-0.851-0.693c-1.374-0.702-3.086,0.072-4.327,0.716c-1.386,0.72-2.65,1.669-4.059,2.341
			c-0.261,0.125-0.513-0.079-0.467-0.359c0.115-0.689,0.217-1.387,0.162-2.085c-2.285,0.376-4.132,2.11-6.253,2.936
			c-0.472,0.184-0.973,0.34-1.478,0.396c-0.648,0.071-1.314-0.008-1.958-0.092c-1.133-0.148-2.21-0.287-3.344-0.082
			c-1.909,0.345-3.843,0.868-5.622,1.651c-0.715,0.315-1.442,0.671-1.973,1.258c-0.329,0.364-0.595,0.784-0.824,1.224
			c0.103,0.114,0.145,0.296,0.023,0.448c-0.199,0.246-0.382,0.503-0.554,0.768c-0.608,1.619-0.964,3.343-1.181,5.055
			c-0.014,0.108-0.071,0.185-0.145,0.235c0.22,3.41,2.091,6.864,3.807,9.611c0.718,1.149,1.499,2.261,2.135,3.46
			c0.656,1.236,1.104,2.547,1.384,3.917c0.296,1.449,0.469,2.924,0.879,4.348c0.198,0.687,0.443,1.367,0.696,2.036
			c0.309,0.818,0.649,1.627,1.06,2.399c0.314,0.589,0.714,1.391,1.331,1.72c0.101,0.054,0.189,0.08,0.302,0.086
			c0.026,0.001,0.058-0.015,0.072-0.026c0.133-0.105,0.214-0.289,0.282-0.459c0.246-0.62,0.34-1.313,0.422-1.971
			c0.198-1.599,0.242-3.214,0.295-4.822c0.055-1.691,0.165-3.385,0.317-5.071c0.447-4.974,1.405-10.248,4.432-14.357
			c0.207-0.281,0.673-0.123,0.581,0.245c-0.191,0.763-0.393,1.522-0.571,2.288c-0.413,1.773-0.837,3.712-0.546,5.538
			c0.072,0.452,0.204,0.882,0.407,1.291c0.113,0.226,0.304,0.692,0.582,0.774c0.363,0.107,0.86-0.499,1.106-0.695
			c0.903-0.717,2.266-1.137,3.098-0.076c0.752,0.959,0.694,2.44,0.701,3.589c0.007,1.282-0.138,2.697,0.363,3.909
			c0.323,0.783,0.948,2.057,2.001,1.798c0.985-0.243,1.738-1.325,2.278-2.105c0.757-1.094,1.385-2.277,1.969-3.47
			c0.425-0.87,0.786-1.775,1.231-2.634c0.377-0.727,0.777-1.442,1.169-2.16c1.246-2.279,2.468-4.571,3.581-6.918
			c1.175-2.477,2.285-5.033,2.948-7.701c0.259-1.041,0.455-2.117,0.414-3.193c-0.029-0.774-0.2-1.613-0.754-2.191
			C277.093,20.258,276.961,20.135,276.814,20.054z"/>
		<path style="opacity:0.23;fill:#69913B;" d="M270.881,98.166c-1.632-0.679-3.457-0.852-5.177-0.426
			c-1.758,0.434-3.286,1.448-4.476,2.799c-0.197,0.224-0.521,0.026-0.543-0.225c-0.278-3.19,0.891-6.337,2.628-8.968
			c1.55-2.348,3.583-4.416,5.939-5.959c1.381-0.905,2.855-1.684,4.285-2.51c1.527-0.882,3.052-1.766,4.565-2.673
			c1.527-0.916,3.04-1.844,4.599-2.706c1.552-0.858,3.118-1.69,4.688-2.517c1.322-0.697,2.661-1.309,4.03-1.906
			c0.885-0.386,1.788-0.794,2.613-1.315c-1.548,0.32-3.068,0.767-4.552,1.319c-6.778,2.519-12.628,6.924-19.174,9.93
			c-0.265,0.122-0.623-0.144-0.435-0.435c1.718-2.656,3.918-4.945,6.167-7.153c2.032-1.995,4.122-3.942,5.987-6.099
			c0.912-1.055,1.799-2.16,2.503-3.367c0.756-1.297,1.313-2.697,1.783-4.119c0.944-2.86,1.575-5.81,2.517-8.67
			c0.83-2.52,1.768-5.023,2.37-7.61c-1.965,2.973-2.764,6.609-3.955,9.926c-0.607,1.69-1.361,3.264-2.267,4.812
			c-1.017,1.74-2.062,3.465-3.199,5.13c-1.118,1.638-2.328,3.218-3.664,4.686c-1.341,1.472-2.833,2.753-4.394,3.984
			c-2.935,2.315-6.176,4.561-8.214,7.77c-0.903,1.421-1.553,2.987-2.312,4.485c-0.692,1.369-1.475,2.783-2.667,3.783
			c-0.104,0.088-0.261,0.133-0.385,0.05c-1.205-0.805-1.68-2.386-1.973-3.728c-0.37-1.691-0.493-3.436-0.546-5.163
			c-0.052-1.689-0.069-3.387-0.041-5.076c0.042-2.47,0.187-4.939,0.1-7.41c-0.087-2.482-0.479-4.941-0.859-7.392
			c-0.385-2.479-0.792-4.954-1.093-7.445c-0.546-4.514-0.601-9.15-0.037-13.666c0.499-3.996,1.567-7.873,3.18-11.552
			c-0.093,0.095-0.192,0.184-0.281,0.283c-0.921,1.03-1.637,2.243-2.26,3.472c-0.585,1.154-1.1,2.356-1.469,3.598
			c-0.958,3.225-1.247,6.62-1.168,9.973c0.08,3.436,0.698,6.806,1.021,10.22c0.336,3.546,0.455,7.109,0.441,10.669
			c-0.007,1.784-0.046,3.568-0.105,5.351c-0.059,1.814-0.161,3.619-0.077,5.434c0.083,1.781,0.29,3.555,0.593,5.311
			c0.293,1.7,0.769,3.361,1.07,5.057c0.096,0.538,0.445,1.97-0.361,2.188c-0.324,0.088-0.654-0.119-0.902-0.303
			c-0.492-0.365-0.917-0.825-1.322-1.281c-1.864-2.095-3.016-4.658-3.665-7.368c-0.982-4.1-0.97-8.455-2.06-12.521
			c-0.011,0.178-0.013,0.356-0.027,0.534c-0.788-0.794-1.368-1.728-1.813-2.743c0.026,0.592,0.046,1.185,0.056,1.778
			c0.028,1.648-0.04,3.286-0.104,4.932c-0.063,1.618-0.052,3.217,0.271,4.809c0.593,2.916,2.407,5.233,3.915,7.721
			c1.122,1.852,2.069,3.832,2.849,5.851c0.414,1.072,0.783,2.172,1.008,3.301c0.176,0.884,0.288,1.82,0.077,2.708
			c-0.04,0.169-0.229,0.264-0.391,0.222c-1.595-0.418-2.959-1.451-4.209-2.486c-0.631-0.523-1.242-1.07-1.866-1.602
			c-0.712-0.606-1.47-1.159-2.19-1.756c-2.681-2.221-5.219-4.612-7.806-6.941c-2.588-2.33-5.215-4.63-7.57-7.201
			c-2.043-2.231-4.049-4.526-5.855-6.959c0.139,0.199,0.272,0.402,0.412,0.6c3.996,5.655,8.497,10.953,13.505,15.737
			c2.535,2.422,5.199,4.711,7.684,7.184c2.352,2.34,4.647,4.807,7.436,6.64c0.323,0.237,0.027,0.777-0.321,0.549
			c-1.659-1.219-3.52-2.105-5.482-2.717c-2.071-0.646-4.192-1.009-6.333-1.264c2.009,0.748,3.971,1.629,5.849,2.635
			c2.967,1.589,5.803,3.523,8.534,5.486c2.655,1.908,5.369,3.99,7.374,6.603c0.34,0.443,1.626,0.127,1.358-0.505
			c-0.06-0.141-0.116-0.286-0.175-0.428c0.034-0.044,0.047-0.097,0.023-0.156c-0.651-1.613-1.111-3.2-1.438-4.901
			c-0.328-1.712-0.003-3.415,1.088-4.797c1.022-1.295,2.49-2.34,4.168-2.49c1.423-0.127,2.851,0.274,4.186,0.726
			c0.708,0.24,1.405,0.514,2.096,0.8C273.437,99.776,272.3,98.757,270.881,98.166z"/>
		<path style="opacity:0.77;fill:#D3DE72;" d="M249.206,27.209c-0.28-1.197-0.896-2.684-2.245-2.966
			c-1.858-0.388-3.458,1.018-4.139,2.623c-0.634,1.493-0.633,3.272-0.369,4.847c0.058,0.344,0.139,0.714,0.247,1.085
			c0.013,0.064,0.018,0.133,0.034,0.196c0.098,0.392,0.287,0.791,0.529,1.152c0.313,0.549,0.72,1.023,1.262,1.309
			c0.494,0.261,1.033,0.184,1.491-0.075c0.171-0.039,0.34-0.089,0.501-0.158c1.699-0.731,2.686-2.623,2.933-4.378
			C249.617,29.663,249.476,28.363,249.206,27.209z"/>
		<path style="opacity:0.77;fill:#D3DE72;" d="M217.032,66.633c-0.409-0.506-0.91-1.011-1.538-1.229
			c-0.878-0.304-1.919-0.118-2.59,0.499c-0.476-0.161-1.029,0.288-1.1,0.755c-0.069,0.458,0.126,0.86,0.335,1.256
			c0.216,0.41,0.485,0.794,0.779,1.151c0.575,0.698,1.351,1.507,2.271,1.716c0.716,0.163,1.412-0.076,1.935-0.582
			c0.426-0.412,0.744-1.096,0.715-1.695C217.804,67.801,217.468,67.173,217.032,66.633z"/>
		<path style="opacity:0.77;fill:#D3DE72;" d="M307.807,52.531c-0.041-0.128-0.121-0.228-0.24-0.301
			c-0.159-0.102-0.333-0.153-0.523-0.153c-0.463,0.005-0.923,0.127-1.329,0.351c-0.112-0.005-0.228,0.009-0.33,0.057
			c-0.173,0.081-0.342,0.175-0.505,0.276c-0.007,0.003-0.015,0.006-0.031,0.013c-0.031,0.015-0.062,0.031-0.093,0.047
			c-0.109,0.058-0.224,0.12-0.325,0.194c-0.387,0.283-0.749,0.716-0.86,1.193c-0.043,0.185-0.067,0.344,0.016,0.524
			c0.077,0.17,0.203,0.262,0.381,0.327c0.111,0.041,0.225,0.074,0.341,0.096c0.169,0.033,0.35,0.068,0.524,0.068
			c0.393,0.001,0.801-0.106,1.162-0.253c0.704-0.287,1.318-0.846,1.699-1.5c0.109-0.17,0.172-0.355,0.191-0.556
			C307.901,52.775,307.876,52.647,307.807,52.531z"/>
	</g>
	<g>
		<path style="fill:#79A302;" d="M252.562,224.075c1.619-0.643,2.88-1.933,4.013-3.217c1.419-1.607,2.547-3.433,3.542-5.326
			c1.894-3.604,3.213-7.594,5.804-10.795c0.238-0.294,0.227-0.689,0.077-1.057c0.915-1.816,1.766-3.664,2.721-5.46
			c2.385-4.484,5.673-7.978,9.656-11.08c3.443-2.682,7.028-5.247,10.216-8.24c2.659-2.496,5.485-6.217,2.865-9.782
			c-2.433-3.31-6.96-1.581-10.397-0.356c0.406-0.842,1.026-1.602,1.61-2.304c1.018-1.224,2.169-2.33,3.188-3.552
			c2.311-2.77,3.237-6.4,2.962-9.963c-0.136-1.763-0.574-3.507-1.139-5.18c-0.418-1.237-0.99-2.513-1.946-3.432
			c-2.28-2.192-5.386-0.676-7.475,1.006c-0.652,0.525-1.263,1.099-1.86,1.688c1.123-1.482,2.077-3.058,2.593-4.858
			c0.491-1.714,0.104-4.027-1.797-4.707c-1.805-0.646-3.87,0.804-5.221,1.837c-0.667,0.51-1.359,1.07-2.024,1.673
			c0.263-1.329,0.413-2.678,0.448-3.985c0.073-2.707-0.452-6.036-3.064-7.47c-6.011-3.302-9.684,6.326-10.755,10.492
			c-0.244,0.95-0.496,1.978-0.693,3.029c-1.12-2.506-2.82-4.717-5.252-5.551c-0.29-0.099-0.593-0.006-0.7,0.299
			c-1.087,3.117-0.858,6.606-0.409,9.821c0.32,2.294,0.802,4.616,1.51,6.849c-2.102-2.427-3.766-5.252-5.979-7.586
			c-0.451-0.475-1.16-0.405-1.258,0.296c-0.188,1.336-0.022,2.677,0.063,4.018c-1.642-1.247-3.118-2.902-5.292-2.92
			c-0.248-0.002-0.462,0.1-0.541,0.354c-1.534,4.92,0.02,9.553,1.677,14.152c-0.734-0.758-1.416-1.572-2.114-2.358
			c-1.284-1.446-2.693-2.685-4.44-3.539c-0.311-0.152-0.603-0.024-0.826,0.194c-1.663,1.626-1.371,4.536-1.014,6.605
			c0.448,2.593,1.29,5.114,2.173,7.586c1.236,3.462,2.892,6.682,4.539,9.96c0.865,1.722,1.723,3.441,2.157,5.33
			c0.435,1.892,0.616,3.843,0.72,5.778c0.217,4.054,0.407,8.056,1.199,12.05c0.717,3.611,1.789,7.123,2.779,10.665
			C245.802,218.344,247.507,226.083,252.562,224.075z"/>
		<path style="opacity:0.39;fill:#79A302;" d="M233.485,171.256c1.01,2.831,2.304,5.501,3.643,8.173
			c1.371,1.234,3.077,2.207,4.928,1.706c1.974-0.535,3.434-2.492,4.593-4.052c2.916-3.925,5.169-8.334,7.35-12.695
			c0.172-0.344,0.627-0.197,0.743,0.097c0.483,1.217,0.914,2.453,1.379,3.677c1.671-1.816,2.593-4.35,3.411-6.616
			c0.955-2.645,1.712-5.371,2.833-7.953c0.179-0.411,0.725-0.146,0.758,0.205c0.136,1.449-0.01,2.911,0.092,4.362
			c0.083,1.188,0.299,2.66,1.335,3.416c1.14,0.831,2.629,0.464,3.782-0.121c2.665-1.351,5.173-4.132,8.418-3.746
			c0.279,0.033,0.442,0.232,0.392,0.515c-0.057,0.327-0.153,0.645-0.271,0.955c-0.682,1.799-1.846,3.413-2.928,4.987
			c-1.347,1.959-2.739,3.892-3.946,5.943c-1.051,1.784-2.121,3.783-2.305,5.884c-0.126,1.446,0.295,3.252,1.689,3.982
			c1.059,0.555,2.389,0.299,3.482-0.006c1.564-0.437,3.047-1.133,4.508-1.831c1.546-0.739,3.076-1.517,4.659-2.177
			c1.278-0.533,2.662-1.056,4.066-1.063c1.165-0.006,2.223,0.478,2.824,1.505c0.287,0.49,0.463,1.034,0.576,1.599
			c2.326-2.443,4.283-5.724,1.961-8.883c-2.433-3.31-6.96-1.581-10.398-0.356c0.406-0.842,1.026-1.602,1.61-2.304
			c1.018-1.224,2.169-2.33,3.188-3.552c2.311-2.77,3.237-6.4,2.962-9.963c-0.136-1.763-0.574-3.507-1.139-5.18
			c-0.418-1.237-0.99-2.513-1.946-3.432c-2.28-2.191-5.386-0.676-7.475,1.006c-0.652,0.525-1.263,1.099-1.86,1.688
			c1.123-1.482,2.077-3.058,2.593-4.858c0.491-1.715,0.104-4.027-1.797-4.707c-1.805-0.646-3.87,0.804-5.221,1.837
			c-0.667,0.51-1.359,1.07-2.024,1.673c0.263-1.329,0.413-2.678,0.448-3.985c0.073-2.707-0.452-6.036-3.064-7.47
			c-6.011-3.302-9.684,6.326-10.755,10.492c-0.244,0.95-0.496,1.978-0.693,3.029c-1.12-2.506-2.82-4.717-5.252-5.551
			c-0.29-0.1-0.593-0.006-0.7,0.299c-1.088,3.117-0.858,6.606-0.409,9.821c0.321,2.294,0.802,4.616,1.509,6.849
			c-2.102-2.427-3.765-5.253-5.979-7.586c-0.451-0.475-1.159-0.405-1.258,0.296c-0.188,1.336-0.022,2.677,0.063,4.018
			c-1.642-1.247-3.118-2.902-5.292-2.92c-0.248-0.002-0.462,0.1-0.541,0.354c-1.534,4.921,0.02,9.553,1.677,14.153
			c-0.734-0.758-1.416-1.572-2.114-2.358c-1.284-1.445-2.694-2.685-4.44-3.539c-0.311-0.152-0.603-0.024-0.826,0.194
			c-1.663,1.626-1.371,4.536-1.014,6.605C231.761,166.262,232.603,168.783,233.485,171.256z"/>
		<path style="opacity:0.23;fill:#69913B;" d="M273.654,180.598c-1.773,1.279-3.429,2.708-5.09,4.128
			c-1.781,1.522-3.502,3.092-5.123,4.786c-1.758,1.837-3.325,3.824-5.003,5.728c-1.249,1.418-2.051,3.412-3.747,4.385
			c-0.279,0.16-0.594-0.047-0.612-0.351c-0.248-4.257,1.175-8.403,2.17-12.484c0.921-3.778,2.159-7.587,3.843-11.096
			c1.678-3.496,3.695-6.888,5.902-10.075c2.201-3.178,4.709-6.16,7.14-9.163c1.476-1.823,2.986-3.621,4.556-5.365
			c-0.797,0.626-1.591,1.256-2.358,1.919c-6.636,5.736-11.939,12.771-16.177,20.424c-0.201,0.363-0.748,0.187-0.758-0.205
			c-0.066-2.549,0.409-5.08,0.965-7.557c0.493-2.195,1.037-4.373,1.471-6.581c0.435-2.217,0.987-4.408,1.523-6.601
			c0.912-3.728,1.849-7.523,2.064-11.369c-0.975,2.297-1.81,4.653-2.528,7.044c-3.284,10.937-4.312,22.365-6.475,33.539
			c-0.067,0.347-0.583,0.39-0.743,0.097c-0.812-1.487-1.055-3.213-1.277-4.87c-0.383-2.868-0.969-5.693-1.528-8.533
			c-0.429-2.181-0.893-4.524-1.894-6.561c0.358,2.86,0.916,5.691,1.477,8.518c0.592,2.986,1.171,5.98,1.475,9.011
			c0.277,2.755,0.273,5.525,0.07,8.285c-0.402,5.483-1.449,10.985-3.248,16.185c-0.128,0.37-0.671,0.402-0.785,0
			c-0.795-2.814-1.217-5.71-1.753-8.58c-0.47-2.512-1.157-4.924-1.903-7.365c-0.731-2.393-1.475-4.783-2.269-7.156
			c-1.351-4.039-2.845-8.046-4.692-11.887c0.542,3.029,1.561,5.964,2.648,8.837c1.221,3.227,2.552,6.423,3.477,9.752
			c0.48,1.73,0.784,3.495,1.137,5.253c0.375,1.866,0.765,3.729,1.103,5.602c0.1,0.553,0.183,1.108,0.272,1.662
			c0.349,1.171,0.635,2.362,0.866,3.565c1.267,6.609,1.103,13.339,0.941,20.047c0.943,0.765,2.098,1.084,3.538,0.588
			c-0.1-3.213,0.052-6.434,0.471-9.622c0.519-3.947,1.349-8.016,2.923-11.691c1.547-3.613,4.073-6.729,6.629-9.673
			c2.791-3.215,5.852-6.164,9.025-8.999c1.406-1.256,2.851-2.429,4.34-3.584c1.108-0.859,2.217-1.771,3.108-2.862
			C276.955,178.357,275.241,179.452,273.654,180.598z"/>
		<path style="opacity:0.77;fill:#D3DE72;" d="M240.775,172.42c0.016-0.293-0.115-0.515-0.313-0.667
			c-0.002-0.331-0.026-0.665-0.051-0.992c-0.068-0.871-0.17-1.738-0.35-2.593c-0.337-1.598-0.917-3.173-2.104-4.331
			c-0.319-0.312-0.98-0.175-1.328-0.024c-0.439,0.191-0.937,0.607-1.06,1.094c-0.027,0.107-0.045,0.215-0.066,0.323
			c0,0.002-0.002,0.005-0.002,0.007c0,0.001,0,0.003,0,0.004c-0.174,0.921-0.134,1.888-0.035,2.831
			c0.027,0.386,0.073,0.769,0.141,1.152c0.176,1.309,0.5,2.872,1.433,3.846c0.214,0.224,0.444,0.391,0.698,0.533
			c0.196,0.174,0.402,0.337,0.631,0.474c0.582,0.348,1.412-0.012,1.77-0.589C240.478,173.229,240.753,172.814,240.775,172.42z"/>
		<path style="opacity:0.77;fill:#D3DE72;" d="M256.405,145.362c-0.048-0.104-0.095-0.208-0.143-0.313
			c-0.101-0.154-0.236-0.259-0.405-0.315c-0.286-0.133-0.624-0.163-0.934-0.088c-0.294,0.071-0.569,0.199-0.822,0.364
			c-0.375,0.245-0.623,0.613-0.798,1.014c-0.101,0.232-0.168,0.499-0.18,0.75c-0.01,0.217,0.009,0.461,0.087,0.668
			c0.055,0.144,0.122,0.284,0.191,0.422c0.074,0.15,0.149,0.223,0.296,0.348c0.032,0.027,0.063,0.055,0.095,0.082
			c0.045,0.212,0.073,0.424,0.109,0.637c0.018,0.108,0.064,0.214,0.094,0.319c0.049,0.171,0.077,0.333,0.181,0.487
			c0.003-0.005,0.005-0.011,0.008-0.016c0.062,0.092,0.145,0.171,0.259,0.223c0.448,0.208,1.085-0.01,1.39-0.382
			c0.158-0.192,0.258-0.354,0.361-0.579c0.03-0.065,0.059-0.13,0.086-0.196c0.092-0.219,0.163-0.426,0.199-0.665
			c0.041-0.271,0.059-0.546,0.064-0.819C256.555,146.659,256.504,145.997,256.405,145.362z"/>
		<path style="opacity:0.77;fill:#D3DE72;" d="M265.463,135.349c0.003-0.126-0.034-0.241-0.112-0.346
			c-0.058-0.057-0.116-0.114-0.174-0.171c-0.075-0.035-0.151-0.07-0.226-0.105c-0.135-0.041-0.27-0.049-0.407-0.024
			c-0.153,0.005-0.299,0.041-0.438,0.11c-0.104,0.046-0.207,0.092-0.309,0.144c-0.153,0.078-0.302,0.165-0.451,0.251
			c-0.045,0.026-0.089,0.053-0.132,0.083c-0.017,0.012-0.033,0.024-0.049,0.037c-0.103,0.083-0.209,0.176-0.308,0.264
			c-0.009,0.008-0.018,0.016-0.027,0.025c-0.012,0.012-0.024,0.025-0.035,0.038c-0.059,0.071-0.173,0.217-0.228,0.292
			c-0.002,0.003-0.005,0.007-0.007,0.01c-0.005,0.008-0.01,0.016-0.015,0.024c-0.002,0.003-0.003,0.006-0.005,0.009
			c-0.02,0.036-0.137,0.276-0.15,0.313c-0.001,0.003-0.003,0.006-0.004,0.01c-0.011,0.034-0.061,0.278-0.066,0.316
			c-0.001,0.006-0.002,0.013-0.003,0.019c0,0.003,0,0.006,0,0.009c0,0.003,0,0.006,0,0.009l0.026,0.297
			c0.023,0.12,0.076,0.24,0.154,0.333c0.03,0.036,0.177,0.177,0.213,0.21c0.004,0.004,0.008,0.008,0.013,0.011
			c0.008,0.007,0.017,0.013,0.026,0.018c0.102,0.063,0.216,0.108,0.326,0.153c0.229,0.094,0.506,0.064,0.741,0.024
			c0.018-0.003,0.037-0.007,0.055-0.011c0.008-0.002,0.016-0.004,0.024-0.006c0.116-0.038,0.232-0.075,0.348-0.113
			c0.124-0.054,0.24-0.12,0.348-0.198l0.295-0.253c0.131-0.126,0.23-0.273,0.296-0.439c0.06-0.093,0.095-0.195,0.105-0.305
			c0.041-0.133,0.042-0.269,0.011-0.407c0.078-0.116,0.128-0.242,0.145-0.379C265.477,135.52,265.482,135.435,265.463,135.349z"/>
		<path style="opacity:0.77;fill:#D3DE72;" d="M275.556,143.173c-0.26-0.784-1.261-0.975-1.944-0.596
			c-1.401,0.778-2.445,1.969-2.956,3.502c-0.052,0.155-0.098,0.311-0.139,0.468c-0.115,0.193-0.235,0.385-0.34,0.581
			c-0.668,1.248-1.389,2.781-1.296,4.237c0.059,0.929,0.883,1.077,1.643,0.794c1.728-0.645,3.055-2.299,3.926-3.859
			c0.446-0.8,0.842-1.654,1.056-2.548C275.706,144.918,275.833,144.007,275.556,143.173z"/>
		<path style="opacity:0.77;fill:#D3DE72;" d="M283.193,153.076c-0.009-0.107-0.018-0.214-0.028-0.32
			c-0.034-0.165-0.115-0.297-0.243-0.397c-0.066-0.089-0.152-0.148-0.258-0.178c-0.096-0.061-0.201-0.092-0.316-0.092
			c-0.117-0.031-0.236-0.033-0.355-0.006c-0.197,0.006-0.385,0.053-0.565,0.141c-0.005,0.003-0.01,0.005-0.015,0.007
			c-0.125,0.07-0.249,0.141-0.373,0.211c-0.093,0.061-0.233,0.199-0.346,0.297c-0.019,0.016-0.037,0.032-0.055,0.049
			c-0.041,0.037-0.081,0.074-0.121,0.112c-0.078,0.074-0.147,0.15-0.215,0.233c-0.064,0.079-0.129,0.157-0.198,0.233
			c-0.071,0.079-0.154,0.15-0.222,0.232c-0.136,0.131-0.239,0.283-0.308,0.456c-0.086,0.146-0.133,0.305-0.141,0.476
			c0.009,0.101,0.017,0.202,0.026,0.303c0.032,0.156,0.109,0.281,0.23,0.375c0.062,0.084,0.143,0.14,0.244,0.168
			c0.14,0.081,0.293,0.118,0.459,0.111c0.116-0.012,0.233-0.023,0.349-0.035c0.125-0.028,0.244-0.068,0.359-0.118
			c0,0,0,0.001,0,0.001c0.01-0.004,0.021-0.009,0.032-0.014c0.065-0.035,0.129-0.072,0.193-0.108
			c0.064-0.032,0.125-0.067,0.185-0.105c0.023-0.015,0.046-0.03,0.069-0.045c0.043-0.029,0.084-0.059,0.126-0.09
			c0.037-0.028,0.072-0.058,0.108-0.087c0.04-0.028,0.08-0.055,0.119-0.083c-0.018,0.01-0.036,0.02-0.053,0.03
			c0.002-0.002,0.005-0.004,0.007-0.006c0.172-0.095,0.344-0.188,0.511-0.291c0.139-0.09,0.254-0.203,0.346-0.338
			c0.1-0.111,0.173-0.238,0.22-0.382c0.008-0.041,0.017-0.081,0.025-0.122c0.045-0.094,0.09-0.188,0.135-0.282
			C283.147,153.3,283.17,153.188,283.193,153.076z"/>
	</g>
	<g>
		<path style="fill:#33712E;" d="M165.889,216.134c-0.008-0.235-0.014-0.469-0.028-0.704c0.191-0.666,0.306-1.338,0.316-2.004
			c-1.266-0.777-2.653-1.419-3.96-2.138c-1.649,0.855-3.313,1.712-4.904,2.674c0.517,0.591,1.022,1.193,1.516,1.804
			c1.041,1.288,2.046,2.611,3.061,3.926C163.199,218.48,164.52,217.277,165.889,216.134z"/>
		<path style="fill:#79A302;" d="M177.168,188.452c0.041,0.02,0.08,0.031,0.121,0.05c0.954,0.06,1.918-0.036,2.851-0.228
			c0.423-0.087,0.837-0.2,1.25-0.314c0.542-0.267,1.079-0.541,1.617-0.816c0.275-0.141,0.55-0.281,0.829-0.414
			c0.112-0.053,0.224-0.106,0.338-0.156c0.055-0.024,0.308-0.119,0.296-0.119c1.185-0.375,2.558-0.41,3.068-1.792
			c0.259-0.703,0.17-1.496,0.088-2.223c-0.098-0.866-0.384-1.704-0.834-2.452c-0.793-1.318-2.169-2.287-3.647-2.681
			c-1.405-0.374-2.786-0.174-4.182,0.113c-1.559,0.32-3.658,0.782-4.492,2.297c0.086,0.302,0.177,0.603,0.26,0.906
			c0.685,2.514,1.271,5.213,2.25,7.707C177.046,188.369,177.101,188.419,177.168,188.452z"/>
		<path style="fill:#79A302;" d="M198.742,189.987c-0.004-0.029-0.006-0.041-0.008-0.046c-0.004-0.062-0.007-0.125-0.017-0.186
			c-0.058-0.357-0.213-0.639-0.692-1.233c-0.127-0.158-0.276-0.301-0.446-0.398c-1.952-1.119-4.398,0.274-5.912,1.696
			c-0.38,0.357-0.755,0.714-1.07,1.144c-0.208,0.284-0.413,0.559-0.555,0.889c-0.296,0.687-0.054,1.19,0.213,1.809
			c0.074,0.172,0.166,0.333,0.256,0.496c0.093,0.392,0.225,0.78,0.401,1.158c0.469,1.004,1.213,1.842,2.004,2.539
			c0.396,0.349,1.014,0.094,1.38-0.162c0.647-0.453,1.223-1.066,1.754-1.673c0.629-0.721,1.195-1.503,1.674-2.355
			c0.493-0.876,0.99-1.91,1.054-2.977C198.793,190.457,198.774,190.216,198.742,189.987z"/>
		<path style="fill:#519C45;" d="M159.212,183.907c-0.906,0.329-1.8,0.684-2.662,1.081c-1.543,0.712-3.054,1.54-4.485,2.485
			c-0.088,0.251-0.164,0.507-0.213,0.77c-0.026,0.14-0.042,0.279-0.054,0.419c0.359,1.39,0.924,2.739,1.549,3.992
			c0.177,0.355,0.377,0.699,0.568,1.048c0.28,0.255,0.575,0.489,0.895,0.665c0.561,0.308,1.168,0.514,1.815,0.515
			c0.815,0.001,1.576-0.283,2.259-0.71c1.584-0.99,2.325-2.87,2.768-4.594c0.031-0.121,0.062-0.247,0.092-0.372
			C161.021,187.398,160.086,185.653,159.212,183.907z"/>
		<path style="fill:#79A302;" d="M225.423,198.193c-1.594-0.977-3.339-1.786-4.984-2.691c-3.676,1.907-7.421,3.803-10.588,6.474
			c-0.622,0.524-1.468,1.553-0.823,2.401c0.352,0.463,0.703,0.93,1.053,1.395c1.136-1.318,2.337-2.623,3.926-3.359
			c0.439-0.204,0.813,0.203,0.63,0.63c-0.756,1.767-1.968,3.272-2.859,4.944c0.103,0.133,0.207,0.264,0.31,0.396
			c0.353-0.294,0.716-0.572,1.112-0.799c0.92-0.529,1.754-0.24,2.326,0.623c0.903,1.364,0.924,2.999,0.94,4.576
			c0.133,0.264,0.302,0.598,0.435,0.862c0.579,0.414,1.194,0.746,1.851,0.935c2.497,0.719,4.305-1.546,5.085-3.605
			c0.884-2.333,1.148-4.965,1.234-7.441c0.033-0.94,0.008-1.88-0.046-2.819C225.266,199.877,225.411,199.032,225.423,198.193z"/>
		<path style="fill:#689037;" d="M182.504,221.964c0.397,0.337,0.834,0.618,1.31,0.848c0.254-0.442,0.62-0.802,0.863-1.255
			c0.117-0.218,0.443-0.154,0.51,0.067c0.173,0.567,0.452,1.1,0.987,1.396c0.417,0.231,0.909,0.295,1.376,0.339
			c0.178,0.017,0.355,0.033,0.532,0.049c0.508-0.576,0.978-1.199,1.276-1.904c0.805-1.908-1.116-3.632-2.962-3.489
			c-0.113,0.009-0.224,0.025-0.334,0.044c-1.039-0.139-2.17,0.205-2.922,0.889c-0.661,0.601-0.932,1.466-0.815,2.338
			C182.357,221.517,182.423,221.742,182.504,221.964z"/>
		<path style="fill:#79A302;" d="M200.134,207.208c-0.193-0.26-0.402-0.508-0.65-0.711c-0.263-0.215-0.771-0.288-1.098-0.196
			c-0.415,0.116-0.815,0.252-1.247,0.313c-0.162,0.023-0.341-0.098-0.283-0.283c0.106-0.344,0.294-0.92-0.03-1.211
			c-0.011-0.004-0.022-0.008-0.033-0.011c-0.367,0.021-0.733,0.086-1.101,0.161c-0.831,0.171-1.95,0.417-2.395,1.225
			c0.046,0.161,0.095,0.322,0.139,0.483c0.365,1.34,0.677,2.779,1.199,4.108c0.034,0.02,0.064,0.046,0.1,0.064
			c0.022,0.011,0.043,0.017,0.064,0.027c0.509,0.032,1.022-0.019,1.52-0.121c0.225-0.046,0.446-0.106,0.667-0.167
			c0.289-0.142,0.576-0.289,0.862-0.435c0.147-0.075,0.293-0.15,0.442-0.221c0.06-0.028,0.12-0.057,0.18-0.083
			c0.029-0.013,0.164-0.063,0.158-0.064c0.632-0.2,1.364-0.218,1.635-0.955c0.138-0.375,0.09-0.797,0.047-1.185
			C200.282,207.694,200.221,207.447,200.134,207.208z"/>
		<path style="fill:#519C45;" d="M213.641,176.304c-0.577,0.202-1.15,0.415-1.71,0.662c-1.033,0.456-2.055,1.002-2.965,1.684
			c-0.021,0.036-0.047,0.069-0.065,0.107c-0.019,0.039-0.019,0.072-0.032,0.11c0.544,1.452,1.305,2.814,2.243,4.045
			c0.305,0.241,0.78,0.065,1.061-0.112c0.542-0.342,1.021-0.815,1.458-1.271c0.406-0.423,0.77-0.882,1.088-1.374
			c0.237-0.368,0.481-0.781,0.658-1.219C214.816,178.047,214.222,177.179,213.641,176.304z"/>
		<path style="fill:#519C45;" d="M175.819,200.667c-0.232-0.511-0.48-1.014-0.75-1.497c-0.484-0.863-1.035-1.704-1.649-2.491
			c-0.15-0.04-0.302-0.072-0.457-0.089c-0.082-0.009-0.164-0.012-0.246-0.012c-0.791,0.272-1.549,0.662-2.248,1.083
			c-0.198,0.119-0.389,0.251-0.583,0.378c-0.135,0.174-0.258,0.356-0.345,0.55c-0.153,0.34-0.245,0.702-0.216,1.078
			c0.037,0.474,0.236,0.902,0.516,1.28c0.648,0.875,1.774,1.219,2.795,1.397c0.072,0.013,0.146,0.025,0.22,0.037
			C173.874,201.877,174.845,201.255,175.819,200.667z"/>
		<g>
			<path style="fill:#519C45;" d="M158.542,200.387l-7.052,6.202c0.155,0.356,0.432,0.739,0.667,1.013
				c0.269,0.313,0.575,0.585,0.895,0.752l6.948-6.346C159.673,201.303,159.142,200.643,158.542,200.387z"/>
			<path style="fill:#79A302;" d="M158.152,202.603c-1.905,1.728-3.592,3.728-5.437,5.529c0.11,0.084,0.222,0.161,0.337,0.221
				l6.948-6.346c-0.102-0.219-0.225-0.432-0.361-0.631C159.128,201.765,158.629,202.17,158.152,202.603z"/>
		</g>
		<g>
			<path style="fill:#519C45;" d="M185.777,208.061l-7.889-0.904c-0.135,0.299-0.218,0.69-0.257,0.993
				c-0.044,0.346-0.04,0.692,0.036,0.988l7.92,0.757C185.845,209.29,185.957,208.583,185.777,208.061z"/>
			<path style="fill:#79A302;" d="M184.166,209.074c-2.164-0.215-4.375-0.138-6.551-0.273c0.01,0.117,0.025,0.231,0.053,0.337
				l7.92,0.757c0.08-0.188,0.143-0.386,0.191-0.585C185.245,209.21,184.708,209.127,184.166,209.074z"/>
		</g>
		<g>
			<path style="fill:#519C45;" d="M215.168,220.767l-7.041,3.672c0.056,0.324,0.206,0.694,0.344,0.966
				c0.158,0.312,0.354,0.596,0.584,0.798l6.984-3.811C215.912,221.747,215.609,221.098,215.168,220.767z"/>
			<path style="fill:#79A302;" d="M214.401,222.508c-1.913,1.035-3.701,2.337-5.579,3.445c0.074,0.091,0.15,0.177,0.232,0.249
				l6.984-3.811c-0.039-0.2-0.097-0.4-0.169-0.591C215.371,222.017,214.88,222.249,214.401,222.508z"/>
		</g>
		<g>
			<path style="fill:#519C45;" d="M202.053,168.605l0.975,15.519c0.39,0.133,0.875,0.129,1.243,0.076
				c0.422-0.061,0.831-0.213,1.162-0.485l-1.157-15.516C203.493,167.96,202.626,168.041,202.053,168.605z"/>
			<path style="fill:#79A302;" d="M203.672,171.271c0.307,4.243,0.971,8.453,1.376,12.686c0.136-0.068,0.267-0.145,0.386-0.243
				l-1.157-15.516c-0.243-0.074-0.495-0.113-0.743-0.121C203.554,169.143,203.595,170.208,203.672,171.271z"/>
			<path style="fill:#519C45;" d="M202.053,168.605l0.975,15.519c0.39,0.133,0.875,0.129,1.243,0.076
				c0.422-0.061,0.831-0.213,1.162-0.485l-1.157-15.516C203.493,167.96,202.626,168.041,202.053,168.605z"/>
			<path style="fill:#79A302;" d="M203.672,171.271c0.307,4.243,0.971,8.453,1.376,12.686c0.136-0.068,0.267-0.145,0.386-0.243
				l-1.157-15.516c-0.243-0.074-0.495-0.113-0.743-0.121C203.554,169.143,203.595,170.208,203.672,171.271z"/>
			<path style="fill:#79A302;" d="M203.672,171.271c0.307,4.243,0.971,8.453,1.376,12.686c0.136-0.068,0.267-0.145,0.386-0.243
				l-1.157-15.516c-0.243-0.074-0.495-0.113-0.743-0.121C203.554,169.143,203.595,170.208,203.672,171.271z"/>
		</g>
	</g>
</g>
</svg>
