<?xml version="1.0" encoding="utf-8"?>
<!-- Generator: Adobe Illustrator 27.5.0, SVG Export Plug-In . SVG Version: 6.00 Build 0)  -->
<svg version="1.1" id="Capa_1" xmlns="http://www.w3.org/2000/svg" xmlns:xlink="http://www.w3.org/1999/xlink" x="0px" y="0px"
	 viewBox="0 0 2122 2122" style="enable-background:new 0 0 2122 2122;" xml:space="preserve">
<path style="fill:#358334;" d="M1870.285,953.224c-16.024-104.977-11.313-213.057,13.744-316.239
	c16.332-67.179,41.36-135.968,27.099-203.632c-1.189-5.685-2.831-11.311-4.867-16.845c-22.017-60.244-90.29-108.232-146.368-78.826
	c-37.147,19.473-51.856,61.428-70.36,100.463c-12.017-23.156-31.487-37.936-61.216-39.345c-17.593-0.835-34.529,5.893-51.639,10.085
	c-66.728,16.346-136.721-6.049-199.104-34.825c-62.387-28.777-122.859-64.595-190.382-77.274
	c-67.523-12.682-146.455,3.905-184.731,60.957c-4.75,7.079-8.887,14.741-12.872,22.523c-20.636-26.22-53.697-46.227-84.107-34.399
	c-11.986,4.663-21.681,13.646-32.356,20.816c-95.44,64.076-226.772-29.778-337.218,2.083c-32.292,9.316-64.146,34.76-64.502,68.366
	c-0.136,13.194,4.609,25.946,5.866,39.081c5.734,60.036-57.72,100.977-112.716,125.729
	c-54.996,24.751-119.644,61.128-119.712,121.437c-0.034,34.522,22.792,66.12,22.114,100.636
	c-1.354,69.454-92.507,108.916-100.136,177.963c-1.311,11.851,0.331,24.67,7.81,33.959c19.508,24.234,67.883,14.356,79.171,43.347
	c10.124,26.012-22.977,49.632-24.746,77.491c-2.309,36.375,46.129,52.672,82.324,48.36c16.408-1.954,32.629-5.647,48.772-9.825
	c5.627,6.771,11.976,13.261,18.732,19.596c-13.591,5.69-24.372,15.809-30.037,33.35c-2.865,8.88-3.245,18.546-7.201,26.994
	c-16.312,34.817-77.198,25.316-94.684,59.557c-2.309,4.517-3.61,9.898-1.871,14.66c1.603,4.385,5.462,7.489,9.164,10.331
	c20.054,15.401,43.016,34.768,40.692,59.946c-2.281,24.707-27.386,39.445-47.206,54.373c-19.82,14.926-37.394,43.564-21.647,62.74
	c14.236,17.332,41.369,10.163,63.654,7.627c57.413-6.534,111.776,29.795,148.882,74.09c37.106,44.295,62.529,97.298,98.621,142.423
	c108.802,136.045,301.597,180.089,474.361,152.549c16.03,3.236,32.159,5.745,48.288,7.449c38.055,4.021,76.091,4.409,113.983,1.92
	c3.222,0.596,6.457,1.125,9.666,1.622c22.412,3.496,44.916,5.262,67.484,5.442c207.732,1.796,417.018-130.399,532.579-294.952
	c100.049-142.472,144.268-323.081,121.276-495.661C1896.56,1076.783,1879.805,1015.626,1870.285,953.224z"/>
<path style="fill:#7CBB55;" d="M1870.285,953.224c-16.024-104.977-11.313-213.057,13.744-316.239
	c16.332-67.179,41.36-135.968,27.099-203.632c-1.189-5.685-2.831-11.311-4.867-16.845c-22.017-60.244-90.29-108.232-146.368-78.826
	c-37.147,19.473-51.856,61.428-70.36,100.463c-12.017-23.156-31.487-37.936-61.216-39.345c-17.593-0.835-34.529,5.893-51.639,10.085
	c-66.728,16.346-136.721-6.049-199.104-34.825c-62.387-28.777-122.859-64.595-190.382-77.274
	c-67.523-12.682-146.455,3.905-184.731,60.957c-4.75,7.079-8.887,14.741-12.872,22.523c-20.636-26.22-53.697-46.227-84.107-34.399
	c-11.986,4.663-21.681,13.646-32.356,20.816c-95.44,64.076-226.772-29.778-337.218,2.083c-32.292,9.316-64.146,34.76-64.502,68.366
	c-0.136,13.194,4.609,25.946,5.866,39.081c5.734,60.036-57.72,100.977-112.716,125.729
	c-54.996,24.751-119.644,61.128-119.712,121.437c-0.034,34.522,22.792,66.12,22.114,100.636
	c-1.354,69.454-92.507,108.916-100.136,177.963c-1.311,11.851,0.331,24.67,7.81,33.959c19.508,24.234,67.883,14.356,79.171,43.347
	c10.124,26.012-22.977,49.632-24.746,77.491c-2.309,36.375,46.129,52.672,82.324,48.36c16.408-1.954,32.629-5.647,48.772-9.825
	c5.627,6.771,11.976,13.261,18.732,19.596c23.066,21.626,50.961,41.423,71.887,64.19c50.28,54.704,61.729,133.288,77.622,205.868
	c25.018,114.285,70.918,231.084,164.058,301.88c49.539,37.654,109.174,59.659,169.174,76.156c5.607,1.542,11.234,3.024,16.872,4.475
	c41.88,21.253,87.071,36.779,133.114,46.072c16.03,3.236,32.159,5.745,48.288,7.449c38.055,4.021,76.091,4.409,113.983,1.92
	c3.222,0.596,6.457,1.125,9.666,1.622c22.412,3.496,44.916,5.262,67.484,5.442c207.732,1.796,417.018-130.399,532.579-294.952
	c100.049-142.472,144.268-323.081,121.276-495.661C1896.56,1076.783,1879.805,1015.626,1870.285,953.224z"/>
<path style="fill:#439735;" d="M1759.893,337.683c-37.147,19.473-51.856,61.428-70.36,100.463
	c-12.017-23.156-31.487-37.936-61.216-39.345c-17.593-0.835-34.529,5.893-51.639,10.085
	c-66.728,16.346-136.721-6.049-199.104-34.825c-62.387-28.777-122.859-64.595-190.382-77.274
	c-67.523-12.682-146.455,3.905-184.731,60.957c-4.75,7.079-8.887,14.741-12.872,22.523c-12.416,24.239-23.342,49.671-46.592,62.502
	c-14.568,8.039-31.742,9.569-48.361,10.473c-62.665,3.413-126.553,0.462-187.025,17.25c-60.473,16.784-118.943,58.706-133.69,119.71
	c-4.56,18.884-4.745,38.643-9.637,57.447c-16.667,64.034-83.079,102.143-147.089,118.893c-11.069,2.897-22.431,5.452-32.287,11.257
	c-35.196,20.738-36.102,71.756-24.034,110.784c12.063,39.026,32.877,78.097,25.871,118.341
	c-7.908,45.425-50.061,81.201-50.801,127.303c-0.381,23.719,9.475,43.354,24.212,61.084c5.627,6.771,11.976,13.261,18.732,19.596
	c23.066,21.626,50.961,41.423,71.887,64.19c50.28,54.704,61.729,133.288,77.622,205.868
	c25.018,114.285,70.918,231.084,164.058,301.88c49.539,37.654,109.174,59.659,169.174,76.156c5.607,1.542,11.234,3.024,16.872,4.475
	c-91.826-46.596-167.697-120.704-201.393-217.12c-20.711-59.264-24.711-122.977-40.097-183.841
	c-15.391-60.863-45.91-122.743-101.432-152.044c-8.716-4.602-18.188-8.521-24.692-15.925c-22.884-26.034,8.984-66.041,41.929-76.819
	c22.672-7.417,48.71-10.644,69.346-21.104c9.345-4.738,17.587-10.957,23.901-19.725c16.609-23.06,13.608-56.906,32.731-77.932
	c42.104-46.307,125.768,20.239,179.717-11.496c25.954-15.269,35.226-48.28,56.585-69.508c43.313-43.05,115.859-24.09,172.268-0.682
	c56.41,23.408,125.846,47.118,173.964,9.505c20.19-15.78,34.231-41.284,58.977-47.929c7.256-1.948,14.686-1.927,21.897-0.403
	c2.806,36.463,19.571,74.079,32.879,109.287c85.881,227.413,12.01,505.578-175.376,660.428
	c-25.457,21.045-53.496,40.811-69.427,69.732c-15.937,28.95-14.904,70.704,12.224,89.528c9.224,6.419,20.227,9.421,31.386,11.486
	c3.222,0.596,6.457,1.125,9.666,1.622c22.412,3.496,44.916,5.262,67.484,5.442c25.086-10.066,49.54-19.949,69.12-32.355
	c66.933-42.363,125.9-97.71,170.056-163.608c75.664-112.886,106.041-257.276,73.199-389.135
	c-17.788-71.374-53.433-141.318-45.009-214.395c2.68-23.113,12.624-48.779,34.67-56.29c17.701-6.022,36.95,1.793,55.62,1.094
	c45.223-1.764,73.471-52.579,74.84-97.8c1.369-45.22-14.475-89.498-14.231-134.75c0.244-45.22,25.364-96.886,70.31-102.058
	c9.091-1.033,18.397-0.061,27.337-2.036c36.98-8.18,45.13-56.107,48.809-93.785c4.594-47.167,14.417-93.817,29.228-138.794
	c9.306-28.343,21.286-57.021,43.333-77.091c5.354-4.865,11.435-9.094,17.944-12.468
	C1884.244,356.265,1815.971,308.277,1759.893,337.683z"/>
<path style="fill:#358334;" d="M1518.261,494.253c-16.478-17.501-43.177-20.841-67.084-18.349
	c-23.912,2.495-47.411,9.701-71.44,9.055c-39.698-1.067-75.235-23.096-110.753-40.855c-35.517-17.761-77.501-31.822-114.187-16.621
	c-44.584,18.477-63.425,72.241-102.982,99.885c-72.487,50.66-191.654,0.913-250.109,67.274
	c-39.201,44.5-27.654,120.326-71.328,160.441c-39.737,36.5-113.661,31.401-136.219,80.417c-16.551,35.964,6.918,79.625-5.179,117.32
	c-8.828,27.518-34.319,45.517-56.395,64.163c-22.075,18.648-43.634,44.202-39.698,72.831c4.507,32.738,38.748,51.055,67.381,67.552
	c21.844,12.587,42.527,27.128,61.892,43.259c9.345-4.738,17.587-10.957,23.901-19.725c16.609-23.06,13.608-56.906,32.731-77.932
	c42.104-46.307,125.768,20.239,179.717-11.496c25.954-15.269,35.226-48.28,56.585-69.508c43.313-43.05,115.859-24.09,172.268-0.682
	c56.41,23.408,125.846,47.118,173.964,9.505c20.19-15.78,34.231-41.284,58.977-47.929c7.256-1.948,14.686-1.927,21.897-0.403
	c-1.376-17.865,0.582-35.454,7.974-52.344c16.419-37.464,56.837-62.28,66.387-101.995c7.785-32.297-7.055-65.595-6.724-98.806
	c0.639-63.374,55.016-112.58,109.481-144.996c4.81-2.863,9.689-5.674,14.589-8.471c0.066-0.811,0.149-1.615,0.212-2.428
	C1536.303,545.741,1537.297,514.462,1518.261,494.253z"/>
<path style="fill:#54AF32;" d="M1759.893,337.683c-37.147,19.473-51.856,61.428-70.36,100.463
	c-5.657,11.93-11.652,23.6-18.77,34.256c-32.136,48.047-86.27,74.569-136.854,103.441c-4.9,2.797-9.78,5.608-14.589,8.471
	c-54.465,32.417-108.843,81.622-109.481,144.996c-0.331,33.211,14.509,66.509,6.724,98.806
	c-9.55,39.715-49.968,64.531-66.387,101.995c-7.391,16.89-9.35,34.48-7.974,52.344c2.806,36.463,19.571,74.079,32.879,109.287
	c85.881,227.413,12.01,505.578-175.376,660.428c-25.457,21.045-53.496,40.811-69.427,69.732
	c-15.937,28.95-14.904,70.704,12.224,89.528c9.224,6.419,20.227,9.421,31.386,11.486c3.222,0.596,6.457,1.125,9.666,1.622
	c22.412,3.496,44.916,5.262,67.484,5.442c25.086-10.066,49.54-19.949,69.12-32.355c66.933-42.363,125.9-97.71,170.056-163.608
	c75.664-112.886,106.041-257.276,73.199-389.135c-17.788-71.374-53.433-141.318-45.009-214.395
	c2.68-23.113,12.624-48.779,34.67-56.29c17.701-6.022,36.95,1.793,55.62,1.094c45.223-1.764,73.471-52.579,74.84-97.8
	c1.369-45.22-14.475-89.498-14.231-134.75c0.244-45.22,25.364-96.886,70.31-102.058c9.091-1.033,18.397-0.061,27.337-2.036
	c36.98-8.18,45.13-56.107,48.809-93.785c4.594-47.167,14.417-93.817,29.228-138.794c9.306-28.343,21.286-57.021,43.333-77.091
	c5.354-4.865,11.435-9.094,17.944-12.468C1884.244,356.265,1815.971,308.277,1759.893,337.683z"/>
<path style="fill:#358334;" d="M687.495,1218.839c22.465-34.433,11.956-87.525,72.502-77.259
	c36.819,6.241,65.248,21.369,102.977,8.505c23.069-7.869,55.098-26.743,60.131-52.451c0.351-1.779-1.681-4.061-3.488-2.682
	c-14.889,11.347-24.526,26.738-41.73,35.898c-23.849,12.699-50.377,14.609-76.17,7.481c-31.8-8.787-72.448-25.64-99.161,4.022
	c-27.499,30.536-11.201,77.7-63.025,84.185c-20.565,2.572-60.302,12.582-47.074,41.359c1.739,3.783,7.021,2.212,8.16-1.067
	C613.755,1229.187,666.106,1251.618,687.495,1218.839z"/>
<path style="fill:#358334;" d="M1719.581,1028.949c6.553,38.117-0.516,76.969-28.541,105.344
	c-22.85,23.138-60.575,26.724-78.431,55.021c-15.269,24.2-12.439,55.233-2.792,80.836c14.319,38.02,37.442,71.296,49.818,110.431
	c50.743,160.509-13.734,334.658-146.811,434.609c-1.618,1.216-0.175,3.927,1.632,2.789
	c135.045-84.906,199.946-243.963,170.436-400.292c-7.805-41.354-22.734-79.766-41.964-117.03
	c-20.809-40.316-43.249-95.761,10.617-121.205c31.171-14.724,56.253-29.449,72.692-61.128c14.874-28.657,19.693-62.913,7.639-93.315
	C1730.368,1016.152,1717.949,1019.451,1719.581,1028.949z"/>
<path style="fill:#358334;" d="M1800.682,816.793c-0.063-3.917-6.168-6.246-7.971-2.158c-7.454,16.889-23.859,14.234-38.607,20.577
	c-10.835,4.66-18.772,12.806-24.399,23.037c-14.387,26.159-6.421,56.239,3.586,82.356c1.515,3.956,7.318,2.485,6.416-1.769
	c-4.058-19.096-9.812-39.997-5.296-59.467c5.359-23.096,19.81-30.926,40.56-36.682
	C1788.731,838.869,1800.935,832.588,1800.682,816.793z"/>
<path style="fill:#358334;" d="M1840.433,1117.282c8.283,35.211,19.036,68.577,22.607,104.906
	c3.64,37.009,2.523,74.543-3.255,111.274c-11.103,70.58-38.942,137.099-79.951,195.5c-1.287,1.837,1.7,4.178,3.138,2.419
	c47.513-58.229,77.33-128.47,88.326-202.779c10.09-68.204,8.536-151.61-22.704-214.762
	C1846.28,1109.16,1839.308,1112.517,1840.433,1117.282z"/>
<path style="fill:#358334;" d="M1434.485,1093.224c-19.284-30.39-25.73-67.856-15.157-102.568
	c11.089-36.392,37.349-54.341,67.717-73.803c21.34-13.676,40.784-30.195,46.738-55.956c6.631-28.696-5.788-57.964-14.066-84.862
	c-11.786-38.277-11.498-72.507,17.642-102.652c21.842-22.592,50.572-37.055,78.08-51.418
	c48.462-25.306,102.557-61.476,97.149-122.736c-0.375-4.241-6.377-4.314-6.655,0c-4.97,77.181-100.341,102.087-152.833,139.32
	c-21.291,15.099-41.164,33.695-51.362,58.219c-11.985,28.828-5.5,58.521,3.567,87.154c12.414,39.206,26.631,78.2-10.071,109.167
	c-23.478,19.812-51.732,31.947-69.617,57.988c-29.91,43.537-29.647,104.801,4.536,145.486
	C1432.171,1098.963,1436.147,1095.848,1434.485,1093.224z"/>
<path style="fill:#358334;" d="M1271.09,1586.078c-24.804,33.062-54.738,61.466-87.639,86.346
	c-28.161,21.294-58.056,41.033-81.847,67.435c-36.166,40.136-57.832,107.917-16.614,152.192c3.021,3.242,9.028-1.16,6.271-4.838
	c-60.779-81.082,33.559-155.669,92.54-198.246c57.403-41.437,104.614-92.877,136.872-156.27
	c32.414-63.701,48.321-134.926,45.408-206.377c-2.874-70.694-21.9-151.817-67.513-207.573c-2.655-3.245-6.821,0.899-5.374,4.146
	c17.5,39.25,36.77,76.56,47.361,118.531c10.427,41.306,14.465,84.1,11.815,126.626
	C1347.465,1446.705,1318.32,1523.126,1271.09,1586.078z"/>
<path style="fill:#358334;" d="M989.867,1860.911c5.896,3.769,11.304-5.581,5.466-9.357c-82.772-53.527-148-128.541-192.867-216.146
	c-21.934-42.826-38.465-88.417-48.935-135.386c-5.281-23.681-9.086-47.696-11.157-71.876c-1.92-22.441,1.354-47.109-5.018-68.73
	c-1.418-4.823-7.742-4.37-9.345,0c-8.097,22.051-3.64,49.554-1.432,72.463c2.348,24.331,6.231,48.521,11.722,72.343
	c11.094,48.144,28.56,94.852,51.367,138.667C835.811,1731.515,905.746,1807.12,989.867,1860.911z"/>
<path style="fill:#358334;" d="M847.271,1420.154c0.585-5.65-8.029-5.457-8.745,0c-12.741,96.755,15.103,215.478,87.659,285.074
	c2.397,2.302,6.797-0.738,4.774-3.686c-29.12-42.397-55.854-82.09-70.626-132.17
	C846.062,1520.984,842.048,1470.254,847.271,1420.154z"/>
<path style="fill:#358334;" d="M444.811,1173.845c-44.561-13.83-30.436-67.745-12.185-96.455
	c15.766-24.809,35.23-47.954,42.134-77.25c5.252-22.29,0.677-43.483-11.23-62.755c-14.763-23.891-45.252-49.104-33.447-80.027
	c13.169-34.492,57.52-39.666,87.693-51.369c22.889-8.879,43.669-22.263,60.774-39.934c31.245-32.27,58.46-85.581,46.733-131.225
	c-1.427-5.549-10.304-5.864-11.547,0c-6.845,32.299-10.417,62.614-28.848,91.167c-18.231,28.243-44.882,50.258-76.263,62.314
	c-44.658,17.159-119.479,38.731-96.673,103.357c9.354,26.507,34.334,44.2,43.668,70.589c14.012,39.61-18.387,75.169-36.287,107.364
	c-20.448,36.785-30.743,100.319,22.651,114.487C448.626,1185.872,451.344,1175.872,444.811,1173.845z"/>
<path style="fill:#358334;" d="M332.202,703.539c22.046-52.96,89.188-58.383,135.703-77.676
	c32.697-13.559,64.477-36.792,72.604-73.179c5.267-23.576-0.18-47.53-1.321-71.198c-0.716-14.804-0.122-30.719,6.967-44.107
	c10.246-19.335,36.131-28.933,54.315-13.849c3.367,2.789,7.81-1.508,4.838-4.838c-23.021-25.832-60.648-6.086-71.858,21.22
	c-10.159,24.733-5.471,52.065-4.497,77.885c1.398,36.974-12.102,64.263-44.438,82.955c-45.915,26.541-104.088,24.794-144.863,61.388
	c-15.839,14.215-28.312,33.408-30.826,54.875c-3.05,25.992,23.664,58.501,4.818,80.979c-3.469,4.136,0.785,9.905,5.759,7.464
	c12.161-5.971,17.418-17.123,17.691-30.495C337.61,749.497,321.439,729.392,332.202,703.539z"/>
<path style="fill:#358334;" d="M292.86,998.508c-6.071-3.398-12.507-4.594-19.313-5.754c-4.697-0.799-15.41-0.063-19.225-3.121
	c-8.755-7.018-10.543-20.385-4.648-29.12c11.961-17.718,34.679-24.843,47.118-43.057c3.922-5.744-5.116-12.813-9.705-7.486
	c-18.802,21.846-65.057,34.563-59.318,71.715c1.812,11.754,10.046,20.07,20.994,23.985c7.298,2.606,15.059,1.924,22.553,3.464
	c13.963,2.872,19.264,4.884,23.167,19.25c3.586,13.203,1.818,16.372-4.867,27.496c-2.446,4.073,2.373,8.597,6.373,6.37
	C321.284,1048.164,316.65,1011.828,292.86,998.508z"/>
<path style="fill:#358334;" d="M1157.862,1606.292c-1.915,2.144,0.916,4.811,3.089,3.089
	c131.503-104.263,158.729-318.448,65.057-455.588c-2.066-3.028-6.578-0.422-4.921,2.877
	c38.753,77.259,59.055,160.187,43.625,246.587C1250.661,1481.957,1210.296,1547.469,1157.862,1606.292z"/>
<path style="fill:#358334;" d="M1148.269,1296.018c28.809,145.781-6.825,295.931-104.614,409.025
	c-1.267,1.466,0.75,3.554,2.148,2.151c105.116-105.535,151.372-269.116,109.798-413.198
	C1154.232,1289.25,1147.329,1291.255,1148.269,1296.018z"/>
<path style="fill:#358334;" d="M1262.69,1852.443c165.038-108.852,254.241-321.895,227.327-515.816
	c-0.424-3.057-5.637-2.356-5.413,0.733c14.587,198.66-73.462,384.277-227.786,507.47
	C1252.527,1848.256,1258.125,1855.456,1262.69,1852.443z"/>
<path style="fill:#358334;" d="M1357.082,1655.961c43.64-62.173,72.541-138.601,70.587-215.288c-0.117-4.629-6.529-4.402-7.031,0
	c-8.677,76.231-28.063,146.474-69.954,211.549C1348.069,1656.28,1354.378,1659.815,1357.082,1655.961z"/>
<path style="fill:#7CBB55;" d="M1405.881,555.916c-39.26-29.863-88.039,23.776-130.222,1.245
	c-27.732-14.811-54.148-46.511-88.925-34.375c-36.322,12.675-38.607,58.94-63.825,82.948
	c-65.754,62.592-211.927-4.326-246.031,105.381c-7.367,23.691,0.385,53.216-23.576,68.738
	c-16.438,10.65-38.242,12.397-56.838,17.108c-34.641,8.775-61.379,26.207-68.439,63.366c-5.042,26.548,0.521,58.624-20.268,79.464
	c-19.566,19.615-49.461,24.804-71.22,41.493c-26.982,20.699-44.872,71.596-2.87,86.701c8.029,2.889,12.341-7.747,7.674-13.184
	c-38.684-45.03,43.893-68.928,69.754-85.956c27.873-18.353,35.942-44.626,38.47-76.45c1.579-19.934,1.652-42.699,18.149-56.78
	c11.922-10.171,29.14-13.393,43.961-16.857c24.049-5.618,51.182-10.117,68.59-29.427c26.416-29.305,7.513-73.403,37.539-101.126
	c34.397-31.759,85.549-27.951,128.784-32.813c31.259-3.515,63.751-11.479,87.698-33.123c23.342-21.099,27.318-64.928,54.802-79.552
	c32.37-17.223,66.236,28.999,97.038,35.966c16.726,3.783,32.75-0.395,48.526-6.015c12.132-4.321,24.478-10.611,37.564-11.14
	c8.166-0.331,21.876,0.936,28.629,6.495c9.301,7.657,8.536,26.826-2.426,32.823c-4.249,2.326-1.355,9.727,3.372,7.99
	C1424.902,600.343,1424.122,569.79,1405.881,555.916z"/>
<path style="fill:#7CBB55;" d="M1364.965,789.892c26.909,41.05-55.489,54.348-74.743,73.868
	c-24.293,24.624-10.226,62.768-41.603,84.438c-67.634,46.711-143.108-20.57-203.712-46.572
	c-48.619-20.863-117.501-24.916-151.201,24.051c-9.145,13.289-13.028,29.634-22.538,42.636
	c-14.153,19.338-37.632,19.51-58.689,24.83c-23.128,5.844-54.65,20-49.939,48.541c0.931,5.635,8.94,7.13,12.546,3.313
	c16-16.935,27.937-25.856,51.215-30.702c15.985-3.328,32.468-5.742,46.553-14.631c29.905-18.863,29.384-60.519,59.971-78.675
	c74.085-43.978,155.683,38.636,223.43,57.793c50.84,14.375,121.954-1.223,135.167-59.919c5.374-23.864,4-41.698,27.932-55.764
	c13.35-7.844,28.858-11.581,40.989-21.471c17.491-14.256,29.53-38.806,11.64-57.15
	C1368.503,780.915,1362.135,785.577,1364.965,789.892z"/>
<path style="fill:#7CBB55;" d="M1008.235,813.239c-4.37-0.563-6.12,6.502-2.251,8.324c39.079,18.424,84.039,32.426,126.587,40.139
	c34.549,6.266,69.969,4.69,100.478-14.202c42.982-26.619,88.346-107.725,38.183-149.537c-24.555-20.468-63.795-14.84-92.677-10.085
	c-30.27,4.984-66.587,14.575-80.949,44.816c-11.44,24.078-3.177,52.784,22.811,62.334c31.883,11.717,58.27-9.048,75.829-33.474
	c4.185-5.827-4.404-10.694-9.106-7.026c-10.538,8.219-24.755,18.896-37.91,22.419c-20.721,5.551-43.381-7.662-36.117-31.71
	c8.102-26.831,42.241-34.512,66.221-38.96c21.798-4.044,55.542-9.564,75.79,2.979c23.381,14.487,20.025,47.902,11.493,69.771
	C1222.052,893.219,1091.694,823.977,1008.235,813.239z"/>
<path style="fill:#A9CF88;" d="M894.179,1197.828c-15.069,16.65-1.72,43.121,13.52,59.617s33.837,36.448,27.435,57.975
	c-3.347,11.237-12.959,19.403-18.45,29.761c-12.643,23.842-1.364,52.641,7.8,78.024c10.66,29.542,18.309,60.175,22.777,91.264
	c2.484,17.274,4.039,34.889,10.056,51.271c6.022,16.38,17.359,31.778,33.671,37.99c74.412,28.343,32.556-106.909,32.692-138.422
	c0.321-73.958,29.754-145.851,69.262-207.278c13.208-20.538,27.829-40.816,34.368-64.346c6.533-23.527,3.108-51.72-15.396-67.656
	c-2.285-1.969-4.887-3.771-7.873-4.197c-10.899-1.55-15.669,14.131-25.579,18.93c-13.135,6.358-26.499-8.874-31.118-22.719
	c-4.618-13.844-8.716-30.953-22.626-35.372c-13.257-4.209-27.133,7.209-31.708,20.344c-4.57,13.138-2.811,27.491-3.025,41.398
	c-0.219,13.907-3.289,29.211-14.358,37.635C952.912,1199.336,913.336,1176.666,894.179,1197.828z"/>
<path style="fill:#A9CF88;" d="M1652.989,665.57c-19.639,9.603-40.73,22.409-52.345,41.598
	c-9.506,15.71-13.813,50.543,16.068,40.137c14.143-4.926,16.896-25.754,26.353-35.932c20.277-21.817,51.508-20.139,78.806-22.865
	c18.256-1.824,37.437-6.49,50.114-19.756c13.384-14.002,16.809-34.777,16.672-54.148c-0.136-19.371-3.167-38.894-0.015-58.009
	c4.341-26.341,20.258-50.88,18.256-77.501c-0.253-3.379-0.848-6.867-2.792-9.642c-4.214-6.032-13.155-6.519-20.132-4.188
	c-14.173,4.731-24.102,18.019-28.877,32.178c-4.775,14.156-5.242,29.34-6.144,44.253c-1.578,26.18-5.13,53.623-20.638,74.775
	C1710.392,640.913,1680.215,652.257,1652.989,665.57z"/>
</svg>
