<?xml version="1.0" encoding="utf-8"?>
<!-- Generator: Adobe Illustrator 27.5.0, SVG Export Plug-In . SVG Version: 6.00 Build 0)  -->
<svg version="1.1" id="Layer_1" xmlns="http://www.w3.org/2000/svg" xmlns:xlink="http://www.w3.org/1999/xlink" x="0px" y="0px"
	 viewBox="0 0 413.091 429.338" style="enable-background:new 0 0 413.091 429.338;" xml:space="preserve">
<g>
	<g>
		<path style="fill:#E82A23;" d="M326.122,190.532c-2.43-18.084-9.427-35.161-21.642-49.196
			c-11.173-12.838-26.883-20.363-42.678-25.874c-53.131-18.536-112.962-22.695-167.521-7.836
			c-23.009,6.267-49.314,15.159-65.459,33.709C16.607,155.371,9.61,172.449,7.18,190.532c-0.683,5.079-1.005,10.236-0.982,15.428
			c0.062,13.794,1.216,28.744,5.37,41.98c7.738,24.653,18.071,46.924,36.177,65.889c17.507,18.339,39.658,32.307,63.815,40.038
			c5.914,1.893,11.94,3.433,18.034,4.627c12.208,2.392,24.643,3.365,37.057,3.082c12.414,0.283,24.848-0.69,37.056-3.082
			c6.094-1.194,12.12-2.734,18.034-4.627c24.157-7.73,46.308-21.698,63.815-40.038c18.105-18.965,28.438-41.236,36.177-65.889
			c4.154-13.235,5.308-28.186,5.37-41.98C327.127,200.768,326.804,195.611,326.122,190.532z"/>
		<path style="opacity:0.52;fill:#9C1D16;" d="M77.503,134.792c7.813-0.731,15.589-2.628,23.042-5.048
			c6.882-2.235,13.581-4.984,20.423-7.335c6.909-2.374,13.981-4.276,21.272-4.967c0.533-0.05,0.552,0.712,0.118,0.87
			c-0.777,0.284-1.551,0.578-2.319,0.884c-6.277,2.502-12.243,5.786-17.776,9.659c-5.58,3.906-10.728,8.437-15.297,13.49
			c-4.535,5.016-8.495,10.561-11.652,16.545c-3.088,5.853-5.384,12.133-6.616,18.641c-1.201,6.343-1.332,12.872-0.345,19.253
			c2.04-1.441,3.655-3.482,5.093-5.49c1.766-2.465,3.33-5.066,4.937-7.634c1.357-2.168,2.748-4.292,4.384-6.261
			c2.11-2.539,4.291-5.019,6.538-7.437c4.489-4.828,9.249-9.405,14.248-13.703c10.285-8.844,21.661-16.283,33.478-22.907
			c0.221-0.124,0.469-0.041,0.606,0.159c3.428,5.021,5.99,10.587,7.853,16.365c3.49,10.827,4.625,22.336,4.579,33.669
			c-0.01,2.462-0.086,4.922-0.206,7.38c0.059-0.053,0.121-0.104,0.18-0.157c3.466-3.131,6.357-7.02,8.91-10.909
			c2.785-4.243,5.177-8.743,7.22-13.388c2.031-4.617,3.694-9.449,4.777-14.379c1.1-5.012,1.548-10.335,0.079-15.321
			c-0.109-0.37,0.323-0.699,0.651-0.501c2.954,1.786,5.573,4.037,8.341,6.085c1.366,1.011,2.766,1.983,4.283,2.755
			c1.551,0.789,3.158,1.464,4.805,2.027c5.686,1.945,11.711,2.517,17.689,2.541c3.09,0.012,6.182-0.1,9.271-0.15
			c3.178-0.051,6.354-0.165,9.531-0.263c6.223-0.193,12.465-0.326,18.674,0.222c6.108,0.539,12.13,1.783,17.863,3.965
			c-1.083-3.833-2.873-7.414-5.284-10.592c-4.542-5.986-10.883-10.332-17.313-14.064c-6.555-3.805-13.436-7.025-19.925-10.946
			c-0.344-0.208-0.244-0.682,0.106-0.81c2.954-1.083,5.906-2.17,8.877-3.205c1.357-0.473,2.72-0.936,4.087-1.384
			c-50.795-15.929-106.944-18.84-158.404-4.824c-15.371,4.187-32.21,9.55-46.511,18.177c2.331,2.188,4.771,4.235,7.593,5.767
			C62.041,135.197,70.093,135.485,77.503,134.792z"/>
		<path style="opacity:0.52;fill:#9C1D16;" d="M326.122,190.532c-2.43-18.084-9.427-35.161-21.642-49.196
			c-11.173-12.838-26.883-20.363-42.678-25.874c-53.131-18.536-112.962-22.695-167.521-7.836
			c-23.009,6.267-49.314,15.159-65.459,33.709C16.607,155.371,9.61,172.449,7.18,190.532c-0.683,5.079-1.005,10.236-0.982,15.428
			c0.062,13.794,1.216,28.744,5.37,41.98c7.738,24.653,18.071,46.924,36.177,65.889c17.507,18.339,39.658,32.307,63.815,40.038
			c5.914,1.893,11.94,3.433,18.034,4.627c12.208,2.392,24.643,3.365,37.057,3.082c12.414,0.283,24.848-0.69,37.056-3.082
			c6.094-1.194,12.12-2.734,18.034-4.627c24.157-7.73,46.308-21.698,63.815-40.038c18.105-18.965,28.438-41.236,36.177-65.889
			c4.154-13.235,5.308-28.186,5.37-41.98C327.127,200.768,326.804,195.611,326.122,190.532z M245.531,242.542
			c-0.233,6.734-0.801,13.539-2.227,20.135c-1.602,7.407-4.201,14.665-7.691,21.443c-5.467,12.419-13.592,23.648-23.815,32.585
			c-10.929,9.553-24.081,16.347-38.11,20.014c-14.985,3.917-30.88,4.728-46.22,2.727c-15.184-1.98-29.976-6.756-43.431-14.073
			c-13.426-7.302-25.48-17.127-35.232-28.901c-10.1-12.196-17.13-26.26-22.537-41.073c-5.707-15.634-9.631-32.161-10.131-48.846
			c-0.327-10.91,0.957-21.957,4.496-32.241c0.906-3.962,2.278-7.763,4.094-11.296c0.954-2.252,2.333-4.329,3.915-6.245
			c3.013-3.996,6.732-7.445,11.165-10.092c1.773-1.236,3.611-2.375,5.511-3.369c6.009-3.144,12.887-4.994,19.544-6.113
			c7.315-1.23,14.803-1.47,22.176-0.647c16.003,1.786,31.027,9.055,47.307,8.955c8.172-0.05,16.211-1.658,24.244-2.977
			c6.726-1.104,13.477-1.882,20.303-1.733c10.998,0.24,22.059,2.779,31.381,8.8c4.68,3.023,8.818,6.836,12.286,11.192
			c4.182,5.253,7.173,11.15,9.867,17.272c5.926,13.465,10.221,27.634,12.089,42.247
			C245.459,227.676,245.787,235.118,245.531,242.542z"/>
		<path style="opacity:0.52;fill:#9C1D16;" d="M326.122,190.532c-2.43-18.084-9.427-35.161-21.642-49.196
			c-11.173-12.838-26.883-20.363-42.678-25.874c-2.159-0.753-4.334-1.474-6.514-2.179c0.364,0.183,0.732,0.357,1.095,0.543
			c10.752,5.493,21.089,12.031,29.862,20.384c8.357,7.956,15.021,17.499,19.609,28.087c5.699,13.151,8.493,27.618,9.395,41.873
			c1.066,16.853-0.942,33.813-5.51,50.054c-4.232,15.047-10.413,29.76-18.919,42.905c-7.726,11.94-17.354,22.625-28.426,31.55
			c-11.577,9.333-24.759,16.826-38.523,22.422c-8.914,3.624-18.12,6.46-27.483,8.639c2.446-0.365,4.887-0.769,7.318-1.245
			c6.094-1.194,12.12-2.734,18.034-4.627c24.157-7.73,46.308-21.698,63.815-40.038c18.105-18.965,28.438-41.236,36.177-65.889
			c4.154-13.235,5.308-28.186,5.37-41.98C327.127,200.768,326.804,195.611,326.122,190.532z"/>
		<path style="fill:#F26C49;" d="M109.87,208.651c-1.128-11.418-5.667-22.224-12.464-31.414
			c-6.768-9.151-15.831-16.669-26.022-21.73c-5.952-2.956-12.631-5.082-19.346-4.273c-5.643,0.68-10.801,3.505-14.913,7.351
			c-9.422,8.811-12.349,21.812-12.973,34.232c-0.086,1.705-0.127,3.407-0.135,5.109c-0.943,10.565,0.552,21.308,3.865,31.375
			c2.065,6.275,4.817,12.339,8.159,18.036c2.95,5.028,6.456,9.854,10.956,13.611c4.343,3.626,9.513,6.105,15.156,6.797
			c5.54,0.68,11.21-0.269,16.396-2.26c10.974-4.213,19.568-12.821,24.96-23.135C108.878,232.079,111.007,220.164,109.87,208.651z"/>
		<path style="fill:#F26C49;" d="M87.397,281.009c-3.577-2.651-8.638-5.001-13.127-3.545c-1.839,0.596-3.351,1.725-4.64,3.126
			c-0.86,0.266-1.677,0.675-2.384,1.221c-3.225,2.489-4.183,6.873-3.889,10.751c0.618,8.153,6.442,16.072,14.107,18.995
			c3.936,1.501,8.302,1.554,11.988-0.661c3.44-2.069,5.511-5.801,6.289-9.652C97.277,293.633,93.518,285.546,87.397,281.009z"/>
		<path style="fill:#4E9839;" d="M272.131,141.98c-14.781-12.296-32.147-21.272-50.705-26.284c-0.025-0.007-0.051-0.012-0.076-0.019
			c10.496-1.329,20.858-3.802,30.823-7.354c5.68-2.025,11.224-4.412,16.607-7.13c0.594-0.3,1.143-0.811,1.144-1.529
			c0.001-0.602-0.469-1.047-1.094-0.943c-20.947,3.48-41.682-6.659-62.621-2.251c-4.111,0.865-8.079,2.301-11.7,4.403
			c2.938-8.028,7.998-15.21,14.689-20.578c0.447-0.358,0.908-0.884,0.817-1.512c-0.078-0.531-0.56-0.865-1.091-0.779
			c-13.499,2.182-27.032,8.355-36.93,17.916c-1.537,1.485-3.046,3.025-4.443,4.656c-3.217-5.606-8.969-9.72-14.831-12.127
			c-7.995-3.283-16.703-3.591-25.206-2.722c-2.718,0.278-5.405,0.7-8.086,1.166c-2.838,0.2-5.672,0.678-8.379,1.51
			c-1.046,0.321-1.522,2.559-0.046,2.222c0.703-0.173,1.408-0.326,2.112-0.47c0.091-0.02,0.181-0.039,0.272-0.059
			c5.488-1.086,11.005-1.251,16.579-0.234c6.33,1.155,12.276,3.719,17.632,7.257c0.722,0.477,1.418,0.985,2.101,1.508
			c-0.823-0.326-1.665-0.616-2.532-0.864c-3.313-0.947-6.711-1.413-10.149-1.584c-7.41-0.369-14.903,0.394-22.211,1.588
			c-7.58,1.238-15.075,3.103-22.342,5.589c-7.204,2.465-14.071,5.652-20.9,8.998c-7.586,3.718-15.268,7.473-23.496,9.556
			c-0.876,0.222-2.168,1.672-0.942,2.36c11.056,6.201,24.261,6.031,36.284,3.148c13.64-3.27,26.325-9.641,40.023-12.693
			c6.7-1.493,13.596-2.168,20.394-1.238c-9.556,5.306-18.21,12.156-25.568,20.253c-8.22,9.044-14.86,19.52-19.437,30.857
			c-2.583,6.399-4.484,13.078-5.666,19.877c-0.257,1.477,1.717,1.178,2.242,0.293c12.284-20.706,31.422-35.934,51.085-49.254
			c5.191-3.517,10.463-6.91,15.742-10.292c7.352,12.851,11.277,27.556,11.345,42.365c0.02,4.288-0.318,8.581-0.921,12.825
			c-0.24,1.691,2.033,1.076,2.444-0.023c5.738-15.343,11.71-31.191,11.651-47.807c-0.01-2.923-0.23-5.836-0.671-8.718
			c6.943,7.031,15.499,12.449,24.829,15.722c5.425,1.903,11.11,3.098,16.848,3.476c6.684,0.44,13.376-0.185,20.046-0.557
			c7.492-0.419,15.167-0.506,22.387,1.832C271.273,144.689,273.333,142.981,272.131,141.98z"/>
		<path style="fill:#4E9839;" d="M172.967,177.905c0.311-1.453,0.564-2.917,0.76-4.38c0.645-4.815,0.746-9.704,0.465-14.551
			c-0.25-4.313-0.922-8.55-1.673-12.798c-0.729-4.12-1.57-8.266-3.123-12.167c-1.389-3.486-3.463-6.791-6.569-8.952
			c0.076,0.571,0.162,1.14,0.251,1.708c6.798,12.48,10.43,26.6,10.495,40.82C173.588,171.033,173.365,174.48,172.967,177.905z"/>
		<path style="fill:#4E9839;" d="M204.118,119.873c-3.677-2.564-8.252-3.538-12.66-4.216c0.367,0.406,0.778,0.775,1.181,1.11
			c2.236,1.864,4.983,3.196,7.701,4.194c1.305,0.479,2.643,0.885,4.01,1.145c0.759,0.145,1.568,0.263,2.356,0.224
			C205.976,121.383,205.1,120.558,204.118,119.873z"/>
		<path style="fill:#4E9839;" d="M107.229,151.855c3.592-5.166,7.624-10.022,11.95-14.588c4.311-4.55,8.919-8.817,13.742-12.819
			c4.221-3.503,8.615-6.796,13.142-9.894c-1.699,0.133-3.374,0.822-4.903,1.491c-1.707,0.746-3.413,1.485-5.105,2.252
			c-6.503,4.429-12.489,9.606-17.794,15.442c-8.22,9.044-14.86,19.52-19.437,30.857c-2.583,6.399-4.484,13.078-5.666,19.877
			c-0.029,0.167-0.026,0.307-0.004,0.43c0.92-5.842,2.666-11.528,5.01-16.953C100.612,162.288,103.708,156.917,107.229,151.855z"/>
		<path style="opacity:0.44;fill:#4E9839;" d="M272.131,141.98c-14.781-12.296-32.147-21.272-50.705-26.284
			c-0.025-0.007-0.051-0.012-0.076-0.019c10.496-1.329,20.858-3.802,30.823-7.354c5.68-2.025,11.224-4.412,16.607-7.13
			c0.594-0.3,1.143-0.811,1.144-1.529c0.001-0.602-0.469-1.047-1.094-0.943c-20.947,3.48-41.682-6.659-62.621-2.251
			c-4.111,0.865-8.079,2.301-11.7,4.403c2.938-8.028,7.998-15.21,14.689-20.578c0.447-0.358,0.908-0.884,0.816-1.512
			c-0.077-0.531-0.56-0.865-1.091-0.779c-13.499,2.182-27.032,8.355-36.93,17.916c-1.538,1.485-3.046,3.025-4.443,4.656
			c-3.217-5.606-8.969-9.719-14.831-12.127c-4.968-2.04-10.212-2.93-15.511-3.104c2.999,0.765,5.942,1.7,8.732,3.055
			c3.307,1.606,6.485,3.503,9.31,5.867c1.385,1.159,2.648,2.44,3.846,3.789c1,1.125,1.74,2.464,2.533,3.736
			c1.328,2.129,2.93,4.438,5.73,4.292c2.211-0.115,4.22-1.613,5.877-2.948c2.059-1.66,3.945-3.522,6.014-5.171
			c1.759-1.401,3.754-2.817,6.037-3.135c0.304-0.042,0.667,0.189,0.545,0.545c-0.849,2.474-2.618,4.478-4.234,6.481
			c-1.483,1.838-3.094,3.878-3.484,6.27c1.835-0.417,3.654-0.9,5.469-1.397c7.167-1.96,15.252-4.462,22.586-1.889
			c0.317,0.111,0.49,0.648,0.106,0.81c-4.295,1.815-9.191,2.074-13.326,4.269c2.183,0.994,4.371,1.98,6.537,3.012
			c4.109,1.959,8.157,4.103,11.823,6.819c3.734,2.767,6.977,6.105,9.515,10.006c0.233,0.358-0.152,0.702-0.5,0.651
			c-3.524-0.522-7.048-1.044-10.553-1.68c-3.138-0.57-6.262-1.232-9.342-2.065c-2.865-0.775-5.744-1.64-8.433-2.913
			c-4.83-2.287-9.058-5.687-13.975-7.798c-0.104,5.059,0.063,10.118,0.275,15.172c0.385,9.191,0.902,18.433-0.06,27.606
			c-0.744,7.094-2.466,14.019-5.432,20.448c-0.053,0.411-0.097,0.824-0.155,1.234c-0.24,1.691,2.033,1.076,2.444-0.023
			c5.738-15.343,11.71-31.191,11.651-47.807c-0.01-2.923-0.23-5.836-0.671-8.718c6.943,7.031,15.499,12.449,24.829,15.722
			c5.425,1.903,11.11,3.098,16.848,3.476c6.684,0.44,13.376-0.185,20.046-0.557c7.492-0.419,15.167-0.506,22.387,1.832
			C271.273,144.689,273.333,142.981,272.131,141.98z"/>
		<path style="opacity:0.44;fill:#4E9839;" d="M164.48,116.3c-0.481,0.377-0.961,0.755-1.446,1.127
			c-6.547,5.012-13.452,9.528-20.359,14.022c-6.389,4.157-12.853,8.251-18.944,12.84c-4.9,3.691-9.576,7.705-13.878,12.082
			c-4.533,4.612-8.732,9.68-11.804,15.396c-2.276,4.236-3.896,8.924-3.991,13.735c0.51-0.026,1.09-0.312,1.34-0.734
			c12.284-20.706,31.422-35.934,51.085-49.254c4.673-3.165,9.413-6.227,14.163-9.274C162.364,123.08,163.882,119.834,164.48,116.3z"
			/>
		<path style="opacity:0.44;fill:#4E9839;" d="M143.829,113.488c-0.754,0.419-1.492,0.864-2.235,1.301
			c2.61-1.256,5.262-2.427,7.93-3.561c-0.615-0.248-1.227-0.502-1.853-0.723c-7.415-2.615-15.359-3.235-23.159-2.604
			c-7.949,0.644-15.76,2.538-23.338,4.967c-3.466,1.111-6.902,2.325-10.286,3.667c-3.146,1.248-6.258,2.578-9.401,3.832
			c-6.368,2.54-12.996,4.91-19.889,5.389c-3.229,0.225-6.512-0.014-9.628-0.921c-1.758-0.512-3.43-1.24-5.006-2.14
			c-0.409,0.523-0.546,1.176,0.165,1.575c11.056,6.201,24.261,6.031,36.284,3.148c13.64-3.27,26.325-9.641,40.023-12.693
			C130.136,113.233,137.032,112.558,143.829,113.488z"/>
		<path style="fill:#4E9839;" d="M180.788,71.701c0.209-13.47-0.77-27.366-4.383-40.519c-1.966-7.158-5.84-24.663-15.687-24.741
			c-2.598-0.021-5.123,0.972-7.306,2.381c-7.957,5.136-12.32,13.069-7.802,22.001c5.06,10.001,11.208,18.771,14.882,29.471
			c2.84,8.268,5.068,16.845,5.735,25.585c0.333,4.364,0.228,8.724-0.386,13.058c-0.568,4.003-2.487,7.809-2.738,11.825
			c-0.074,1.19,0.069,2.458,0.778,3.417c1.068,1.444,3.208,1.784,4.883,1.136c5.351-2.071,6.587-11.162,7.797-15.923
			C178.832,90.464,180.641,80.933,180.788,71.701z"/>
		<path style="fill:#4E9839;" d="M166.228,85.879c0.333,4.364,0.228,8.724-0.386,13.058c-0.568,4.003-2.487,7.809-2.738,11.825
			c-0.038,0.609-0.017,1.238,0.105,1.836c0.104-0.22,0.21-0.439,0.311-0.66c1.518-3.326,2.638-6.834,3.513-10.38
			c0.826-3.348,1.434-6.758,1.763-10.191c0.392-4.095,0.154-8.216-0.316-12.296c-0.568-4.931-1.571-9.811-2.887-14.595
			c-0.651-2.367-1.382-4.712-2.184-7.032c-0.48-1.389-0.967-2.748-1.618-4.066c-1.423-2.883-3.073-5.649-4.524-8.518
			c-1.324-2.618-2.758-5.467-3.05-8.43c-0.12-1.221,0.102-2.353,0.744-3.408c0.753-1.238,1.863-2.218,2.97-3.131
			c2.038-1.681,4.472-3.35,5.452-5.868c-2.352,1.573-4.635,3.248-7.19,4.493c-2.347,1.143-5.262,2.17-7.827,1.12
			c-2.656-1.088-3.849-3.89-3.92-6.603c-0.051-1.968,0.332-3.938,0.939-5.831c-2.05,4.03-2.277,8.671,0.227,13.62
			c5.06,10.002,11.208,18.772,14.882,29.471C163.333,68.561,165.56,77.138,166.228,85.879z"/>
		<path style="opacity:0.44;fill:#4E9839;" d="M176.405,31.182c-1.966-7.157-5.84-24.663-15.687-24.741
			c-2.598-0.021-5.123,0.972-7.306,2.381c-1.845,1.191-3.493,2.534-4.886,4.003c-0.512,1.09-0.996,2.192-1.426,3.305
			c-1.17,3.031-2.229,6.349-2.182,9.634c0.016,1.114,0.172,2.32,0.817,3.26c0.587,0.856,1.553,1.238,2.565,1.273
			c1.754,0.061,3.52-0.62,5.085-1.34c1.332-0.613,2.515-1.436,3.787-2.151c1.083-0.609,2.221-0.848,3.419-0.422
			c2.19,0.78,3.708,2.531,4.802,4.515c1.197,2.171,1.984,4.566,2.63,6.95c0.584,2.155,1.032,4.342,1.467,6.532
			c0.537,2.702,1.111,5.388,1.535,8.112c0.917,5.903,1.428,11.869,1.531,17.841c0.106,6.13-0.219,12.269-1.042,18.345
			c-0.816,6.027-2.126,12.001-4.094,17.76c-0.935,2.736-2.02,5.424-3.272,8.031c1.128,1.185,3.066,1.444,4.616,0.844
			c5.351-2.071,6.587-11.162,7.797-15.923c2.27-8.928,4.079-18.459,4.226-27.691C180.997,58.231,180.018,44.335,176.405,31.182z"/>
	</g>
	<g>
		<path style="fill:#D42B22;" d="M406.711,373.414l0.095-20.876l-8.984-0.237c-1.813-2.098-3.892-4.082-6.26-5.903
			c-5.591-4.298-12.484-7.677-19.911-10.22c-17.529-6.004-39.496-7.599-60.372-6.416c-20.875-1.182-42.843,0.413-60.372,6.416
			c-7.428,2.544-14.32,5.923-19.911,10.22c-0.618,0.475-1.207,0.965-1.787,1.461l-13.342-0.352
			c-0.297,6.119-0.225,20.527-0.162,28.04c-0.067,1.581-0.051,3.165,0.047,4.747c0.391,6.316,1.719,12.958,6.02,18.598
			c7.851,10.296,23.994,15.898,39.157,19.379c16.193,3.718,33.36,5.2,50.35,4.429c16.991,0.77,34.158-0.712,50.35-4.429
			c15.163-3.481,31.306-9.083,39.157-19.379c4.301-5.64,5.629-12.282,6.02-18.598C406.947,378,406.923,375.702,406.711,373.414z"/>
		<path style="opacity:0.52;fill:#9C1D16;" d="M406.711,373.414l0.095-20.876l-8.984-0.237c-1.813-2.098-3.892-4.082-6.26-5.903
			c-5.591-4.298-12.484-7.677-19.911-10.22c-17.529-6.004-39.496-7.599-60.372-6.416c-20.875-1.182-42.843,0.413-60.372,6.416
			c-7.428,2.544-14.32,5.923-19.911,10.22c-0.618,0.475-1.207,0.965-1.787,1.461l-13.342-0.352c-0.073,1.511-0.124,3.53-0.158,5.823
			c0.697,6.051,2.248,11.767,4.548,16.657c2.709,5.762,6.28,10.276,10.099,13.871c8.698,8.189,18.732,12.216,28.525,14.992
			c9.236,2.618,18.605,4.025,27.947,5.133c9.131,1.083,18.286,1.572,27.44,1.542c4.493-0.015,8.986-0.154,13.476-0.403
			c4.186-0.233,8.405-0.386,12.577-1.01c3.339-0.5,6.658-1.361,10.014-1.54c2.962-0.159,6.241,0.056,8.852,2.646
			c2.796,2.773,3.733,7.548,4.116,12.654c14.664-3.507,29.919-9.063,37.482-18.981c4.301-5.64,5.629-12.282,6.02-18.598
			C406.947,378,406.923,375.702,406.711,373.414z"/>
		<g>
			<path style="fill:#E93D22;" d="M403.919,334.285c-2.406-5.787-6.56-11.186-12.358-15.643c-5.591-4.298-12.484-7.676-19.911-10.22
				c-17.529-6.004-39.496-7.599-60.372-6.416c-20.875-1.182-42.843,0.412-60.372,6.416c-7.428,2.544-14.32,5.922-19.911,10.22
				c-5.798,4.457-9.952,9.857-12.358,15.643c-2.46,5.918-3.266,12.104-2.886,18.253c0.391,6.316,1.719,12.958,6.02,18.598
				c7.851,10.296,23.994,15.898,39.157,19.379c16.193,3.718,33.36,5.2,50.35,4.43c16.991,0.77,34.158-0.712,50.35-4.43
				c15.163-3.481,31.306-9.083,39.157-19.379c4.301-5.64,5.629-12.282,6.02-18.598C407.186,346.389,406.38,340.203,403.919,334.285z
				"/>
			<path style="fill:#D42B22;" d="M224.636,338.567c-0.628-0.322-1.482-0.627-2.338-0.474c-0.806,0.144-1.351,0.602-1.743,1.008
				c-0.499,0.518-0.871,1.083-1.16,1.667c-0.079,0.346-0.152,0.691-0.218,1.036c-0.207,1.083-0.421,2.187-0.418,3.278
				c0.002,0.692,0.02,1.384,0.072,2.076c0.061,0.814,0.16,1.631,0.369,2.437c0.176,0.679,0.396,1.396,0.92,2.018
				c0.31,0.368,0.802,0.776,1.564,0.717c0.477-0.037,0.917-0.216,1.278-0.39c0.367-0.177,0.72-0.367,0.915-0.563
				c0.448-0.452,0.664-0.996,0.877-1.498c0.332-0.783,0.577-1.58,0.783-2.378c0.466-1.808,0.745-3.65,0.692-5.479
				c-0.021-0.722-0.082-1.455-0.348-2.163C225.67,339.3,225.358,338.937,224.636,338.567z"/>
			<path style="fill:#D42B22;" d="M219.863,358.514c-0.326,0.003-0.646,0.061-0.886,0.184c-0.055,0.028-0.101,0.061-0.148,0.094
				c0.024,0.377,0.12,0.753,0.256,1.103c0.367,0.945,1.091,1.886,2.297,2.569c1.042-0.446,1.916-1.074,1.878-1.862
				C223.211,359.607,221.557,358.5,219.863,358.514z"/>
			<path style="fill:#D42B22;" d="M246.082,313.13c8.325-3.271,17.791-5.88,27.962-6.211c4.371-0.142,8.811,0.131,12.995,0.892
				c3.958,0.721,7.908,1.815,10.951,3.485c3.049,1.673,4.683,3.894,3.624,6.322c-0.511,1.172-1.549,2.232-2.153,3.385
				c-0.717,1.37-0.381,2.709,0.963,3.914c0.824,0.74,2.927,1.835,2.374,2.832c-0.57,1.027-3.26,1.307-4.829,1.392
				c-4.665,0.253-9.504-0.797-14.117-0.183c0.805,1.995,4.848,3.189,7.609,4.14c3.085,1.063,6.909,2.136,8.749,4.024
				c0.148,0.152-0.039,0.346-0.342,0.347c-1.595,0.004-3.212,0.103-4.76,0.328c-1.287,0.187-3.743,0.608-3.475,1.632
				c0.215,0.823,1.51,1.436,2.371,2.045c0.907,0.641,1.623,1.367,1.609,2.221c-0.027,1.653-1.315,3.345-3.689,4.282
				c-4.641,1.833-11.273,1.157-15.009,3.889c1.377,0.916,3.248,1.441,5.267,1.736c4.27,0.625,8.79,0.445,13.151,0.598
				c3.931,0.138,8.204,0.463,11.243,2.06c0.095,0.05,0.15,0.153,0.102,0.224c-1.285,1.902-5.185,2.444-7.067,4.068
				c2.772,0.683,6.279-0.271,8.977-0.667c2.154-0.316,4.915-0.599,6.651,0.44c1.738,1.04,1.451,2.99,1.33,4.307
				c-0.37,4.017-1.031,8.196,0.447,12.167c1.547-2.349,1.794-4.907,1.686-7.406c-0.108-2.505-0.566-5-0.641-7.506
				c-0.065-2.2,0.015-4.666,1.472-6.734c1.039-1.474,3.125-2.118,5.745-2.288c2.611-0.17,5.349-0.043,7.62-0.911
				c-1.143-1.454-3.653-2.255-6.067-2.881c-4.548-1.18-9.787-2.115-11.596-5.138c-1.68-2.808,3.448-4.386,5.335-6.584
				c-1.571-0.403-3.501-0.985-4.006-1.998c-0.385-0.772,0.327-1.51,1.153-2.087c2.426-1.697,5.957-2.728,8.742-4.209
				c-0.822-0.114-1.66-0.155-2.515-0.132c-1.808,0.047-3.6,0.381-5.416,0.325c-1.739-0.053-3.059-0.596-3.91-1.469
				c-1.17-1.201-1.617-2.667-1.905-4.02c-0.334-1.568-0.37-3.157-0.224-4.734c0.143-1.543,0.462-3.084,0.989-4.598
				c0.415-1.192,0.893-2.448,1.888-3.529c1.687-1.833,4.824-2.968,8.12-3.628c3.869-0.775,8.047-0.996,12.114-1.035
				c3.935-0.038,7.869,0.12,11.781,0.355c11.516,0.691,22.752,2.333,33.094,5.405c-2.818-1.333-5.772-2.528-8.824-3.573
				c-17.529-6.004-39.496-7.599-60.372-6.416c-20.875-1.182-42.843,0.412-60.372,6.416c-7.428,2.544-14.32,5.922-19.911,10.22
				c-1.508,1.159-2.899,2.385-4.183,3.663C232.923,319.028,239.189,315.839,246.082,313.13z"/>
			<path style="fill:#9E1D17;" d="M311.879,365.168c-0.195-1.057-0.792-2.331-2.573-2.843c-2.295-0.659-5.171,0.324-7.324,0.793
				c-4.76,1.038-9.765,2.042-14.926,1.807c-1.355-0.061-2.663-0.208-3.925-0.446c2.865-1.02,5.727-2.045,8.59-3.066
				c1.909-0.681,4.001-1.296,5.765-2.099c1.484-0.675,2.762-1.977,1.136-2.921c-1.33-0.772-3.455-1.17-5.221-1.445
				c-1.808-0.281-3.671-0.412-5.538-0.466c-4.301-0.125-8.639,0.006-12.942,0.044c-4.391,0.039-8.849,0.296-13.233,0.074
				c-0.991-0.05-1.979-0.132-2.945-0.271c-0.504-0.072-1.008-0.161-1.487-0.278c-0.146-0.036-0.394-0.077-0.505-0.136
				c-0.05-0.027-0.079-0.039-0.096-0.046c0.018,0.003,0.041,0.003,0.055-0.026c0.152-0.31,1.263-0.687,1.711-0.868
				c0.733-0.295,1.509-0.552,2.32-0.767c3.5-0.928,7.335-1.346,11.015-1.959c4.125-0.687,8.274-1.436,12.244-2.388
				c3.598-0.863,7.255-2.514,6.568-5.06c-0.489-1.81-2.601-2.967-5.124-3.804c0.912-0.156,1.824-0.313,2.736-0.469
				c1.971-0.338,4.446-0.756,4.819-2.148c0.33-1.229-2.189-2.026-3.735-2.519c-1.731-0.552-3.599-0.933-5.424-1.363
				c-1.725-0.406-3.5-0.848-4.943-1.546c-1.547-0.749-2.689-1.708-3.371-2.808c-0.298-0.481-0.489-0.99-0.547-1.5
				c-0.053-0.47-0.061-0.601,0.591-0.7c0.654-0.099,1.371-0.084,2.04-0.067c1.339,0.035,2.68,0.089,4.014,0.16
				c2.474,0.132,4.943,0.303,7.401,0.514c2.267,0.195,4.624,0.599,6.916,0.611c2.407,0.012,4.301-0.797,5.338-2.03
				c0.827-0.983,0.977-2.1,1.111-3.174c0.301-2.408,0.244-5.021-1.788-7.199c-1.942-2.081-5.418-3.406-9.252-4.07
				c-5.021-0.87-10.36-0.813-15.385-0.034c-1.568,0.057-3.118,0.185-4.6,0.375c-8.926,1.147-17.01,3.943-23.515,7.644
				c-6.95,3.955-11.973,8.938-15.289,14.23c-3.34,5.332-5.252,11.064-5.569,16.737c-0.302,5.407,0.899,10.963,5.056,15.861
				c4.363,5.142,11.861,8.812,19.973,11.897c8.467,3.22,17.609,5.883,27.399,7.428c4.774,0.753,9.69,1.216,14.638,1.293
				c2.48,0.039,5.18,0.114,7.544-0.397c2.226-0.481,3.949-1.52,5.089-2.709c1.178-1.227,1.956-2.572,2.654-3.913
				c0.776-1.49,1.407-3.006,1.862-4.541C312.117,371.496,312.452,368.269,311.879,365.168z"/>
			<path style="fill:#9E1D17;" d="M311.879,365.168c-0.195-1.057-0.793-2.331-2.573-2.843c-2.295-0.659-5.171,0.324-7.324,0.793
				c-4.76,1.038-9.765,2.042-14.926,1.807c-1.354-0.061-2.663-0.208-3.925-0.446c2.865-1.02,5.727-2.045,8.59-3.066
				c1.909-0.681,4.001-1.297,5.765-2.099c1.484-0.675,2.762-1.977,1.135-2.921c-1.33-0.772-3.455-1.17-5.221-1.445
				c-1.808-0.281-3.671-0.412-5.538-0.466c-4.301-0.125-8.639,0.006-12.942,0.044c-4.391,0.039-8.849,0.296-13.233,0.074
				c-0.991-0.05-1.979-0.132-2.945-0.271c-0.504-0.072-1.008-0.161-1.487-0.278c-0.146-0.036-0.394-0.077-0.505-0.136
				c-0.05-0.027-0.079-0.039-0.096-0.046c0.018,0.003,0.041,0.003,0.055-0.026c0.152-0.31,1.263-0.687,1.711-0.868
				c0.733-0.295,1.509-0.552,2.32-0.767c3.5-0.928,7.335-1.346,11.015-1.959c4.125-0.687,8.274-1.436,12.244-2.388
				c3.598-0.863,7.255-2.514,6.568-5.06c-0.488-1.81-2.601-2.967-5.124-3.804c0.912-0.156,1.824-0.313,2.736-0.469
				c1.971-0.338,4.446-0.757,4.819-2.148c0.33-1.229-2.189-2.026-3.735-2.519c-1.731-0.552-3.599-0.933-5.424-1.363
				c-1.725-0.406-3.5-0.848-4.943-1.546c-1.547-0.748-2.689-1.708-3.371-2.808c-0.298-0.481-0.489-0.99-0.547-1.5
				c-0.053-0.47-0.061-0.601,0.591-0.7c0.654-0.099,1.371-0.084,2.04-0.067c1.339,0.035,2.68,0.089,4.014,0.16
				c2.474,0.132,4.943,0.303,7.401,0.514c2.267,0.195,4.624,0.599,6.916,0.611c2.407,0.012,4.301-0.797,5.338-2.03
				c0.827-0.983,0.977-2.1,1.111-3.174c0.301-2.408,0.244-5.021-1.788-7.199c-1.942-2.082-5.418-3.406-9.252-4.07
				c-1.757-0.304-3.554-0.489-5.362-0.575c3.219,0.983,6.207,2.271,8.229,4.056c2.108,1.86,3.256,4.281,2.487,6.496
				c-0.502,1.446-2.113,2.985-4.639,3.448c-1.716,0.314-3.547,0.439-5.323,0.583c-4.549,0.37-9.26,0.595-13.64,1.447
				c-1.434,0.279-3.228,0.67-4.063,1.46c-0.859,0.813-0.001,1.733,0.9,2.396c0.701,0.516,1.493,1.002,2.482,1.329
				c1.224,0.404,2.552,0.702,3.853,1.009c1.426,0.337,2.859,0.668,4.245,1.059c1.142,0.322,2.35,0.685,3.238,1.226
				c1.533,0.932,0.777,2.164-0.863,2.847c-0.832,0.346-1.78,0.583-2.686,0.854c-0.825,0.246-1.753,0.523-2.27,0.991
				c-0.636,0.576-0.297,1.284,0.174,1.857c0.724,0.882,1.823,1.592,2.925,2.316c0.804,0.529,1.794,1.14,1.929,1.876
				c0.154,0.842-1.017,1.464-2.106,1.897c-3.805,1.512-8.61,1.994-12.997,2.624c-2.247,0.323-4.497,0.677-6.624,1.215
				c-1.537,0.389-3.017,0.884-4.474,1.365c-1.567,0.518-3.139,1.076-4.459,1.796c-0.972,0.53-2.153,1.322-1.652,2.156
				c0.382,0.636,1.558,0.89,2.599,1.015c1.4,0.168,2.868,0.145,4.287,0.1c3.359-0.107,6.724-0.292,10.065-0.518
				c5.138-0.347,10.32-0.739,15.499-0.499c0.177,0.008,0.331,0.065,0.382,0.169c0.215,0.439,0.296,0.891,0.214,1.346
				c-0.357,1.978-3.098,3.555-5.127,5.032c-1.018,0.741-2.08,1.534-2.591,2.447c-0.344,0.615-0.672,1.352-0.306,1.99
				c0.615,1.073,3.083,1.036,4.649,0.95c2.586-0.143,5.126-0.606,7.581-1.079c2.067-0.398,4.096-0.865,6.176-1.238
				c3.466-0.623,7.57-1.471,11.114-0.561c3.027,0.777,4.542,2.721,5.013,4.525c0.517,1.981,0.064,4.016-0.654,5.96
				c-0.785,2.127-1.946,4.202-3.187,6.251c-0.4,0.66-0.815,1.318-1.228,1.976c0.6-0.387,1.12-0.818,1.555-1.271
				c1.178-1.227,1.956-2.572,2.654-3.913c0.776-1.49,1.407-3.006,1.862-4.541C312.117,371.496,312.452,368.268,311.879,365.168z"/>
			<path style="fill:#9E1D17;" d="M387.417,326.824c-6.808-7.305-17.567-13.433-30.883-16.591c-7-1.66-14.53-2.516-22.089-2.465
				c-3.744,0.025-7.476,0.266-11.122,0.767c-1.848,0.254-3.959,0.472-5.506,1.15c-1.776,0.779-2.266,1.946-2.439,3.171
				c-0.345,2.449,0.074,4.852,1.155,7.223c0.07,0.153,0.181,0.27,0.314,0.365c-0.069,1.794-0.014,3.8,1.617,5.311
				c2.297,2.128,6.538,1.745,9.976,0.864c3.828-0.98,7.626-1.92,11.583-2.716c1.636-0.329,3.451-0.879,5.198-0.937
				c0.33-0.011,1.005-0.031,1.188,0.186c0.113,0.135-0.929,0.612-1.222,0.757c-2.761,1.363-5.969,2.39-9.139,3.389
				c-3.215,1.014-6.473,2.001-9.447,3.245c-2.082,0.871-6.91,2.833-4.219,4.559c0.703,0.451,1.764,0.647,2.729,0.825
				c0.493,0.091,0.993,0.175,1.47,0.293c0.463,0.114,0.613,0.15,0.863,0.325c0.005,0.008,0.037,0.045,0.022,0.073
				c-0.087,0.038-0.366,0.181-0.43,0.216c-0.716,0.396-1.511,0.74-2.275,1.103c-1.503,0.716-2.927,1.572-3.582,2.661
				c-0.643,1.068-0.465,2.142,0.679,3.066c0.988,0.799,2.424,1.416,3.749,2.014c2.69,1.214,5.54,2.304,8.316,3.449
				c2.725,1.124,5.406,2.309,7.705,3.727c1.113,0.687,2.138,1.426,2.982,2.233c0.407,0.389,0.843,0.81,0.997,1.261
				c0.041,0.119,0.02,0.228,0.013,0.336c-0.179,0.02-0.38,0.04-0.296,0.036c-1.591,0.088-3.418-0.407-4.902-0.668
				c-2.15-0.378-4.318-0.721-6.479-1.079c-1.897-0.314-4.164-0.938-6.154-0.604c-1.844,0.309-2.982,1.256-3.456,2.293
				c-0.5,1.092-0.529,2.269-0.713,3.389c-0.211,1.28-0.435,2.559-0.639,3.84c-0.402,2.523-0.709,5.052-0.81,7.586
				c-0.096,2.423-0.22,4.93,0.619,7.316c0.386,1.099,0.931,2.26,1.969,3.217c1.017,0.938,2.456,1.502,4.289,1.78
				c1.747,0.266,3.605,0.215,5.389,0.137c2.107-0.093,4.201-0.267,6.274-0.502c4.196-0.476,8.311-1.19,12.349-2
				c7.018-1.409,14.075-2.958,20.486-5.161c6.484-2.227,11.965-5.242,15.494-9.141c3.708-4.096,5.527-8.786,6.467-13.356
				C397.395,344.583,395.045,335.009,387.417,326.824z"/>
			<path style="fill:#9E1D17;" d="M328.484,383.578c-1.754-2.026-3.273-4.391-2.576-6.694c0.728-2.409,4.119-3.87,7.849-4.669
				c-0.549-1.11-1.503-2.115-2.615-3.071c-2.362-2.027-5.105-3.909-5.604-6.436c-0.234-1.185-0.141-2.479,0.31-3.645
				c0.275-0.711,0.767-1.442,1.716-1.942c1.905-1.005,4.828-0.765,7.148-0.556c3.709,0.336,7.421,0.971,11.191,1.005
				c1.035,0.009,2.616,0.013,3.284-0.549c0.8-0.674-0.16-1.764-0.693-2.376c-1.117-1.282-2.565-2.445-4.315-3.458
				c-1.759-1.019-3.732-1.903-5.699-2.779c-1.938-0.863-3.89-1.722-5.676-2.692c-0.854-0.463-1.597-0.985-2.431-1.457
				c-0.711-0.403-1.441-0.794-2.107-1.224c-1.101-0.71-2.672-1.847-1.762-2.853c0.904-0.999,2.854-1.084,4.576-1.158
				c1.04-0.045,1.948-0.13,2.879-0.414c0.546-0.167,1.191-0.355,1.59-0.639c0.525-0.375-0.311-0.611-0.862-0.773
				c-2.166-0.638-4.889-0.853-6.696-1.858c-1.837-1.021-0.286-2.283,1.11-3.129c2.352-1.426,5.275-2.551,8.097-3.634
				c2.273-0.872,4.738-1.641,6.887-2.617c2.307-1.047,5.239-1.945,6.745-3.466c0.299-0.302,0.561-0.68,0.316-1.025
				c-0.253-0.356-0.834-0.489-1.451-0.521c-1.717-0.089-3.549,0.291-5.148,0.608c-1.419,0.281-2.79,0.643-4.209,0.922
				c-1.692,0.332-3.429,0.617-5.144,0.91c-3.251,0.555-7.108,1.16-10.403,0.387c-3.436-0.806-4.79-2.981-5.365-4.954
				c-0.667-2.286-0.53-4.691,0.347-6.952c0.409-1.056,1.023-2.141,1.938-3.113c-1.384,0.196-2.784,0.445-3.893,0.931
				c-1.776,0.779-2.266,1.946-2.439,3.171c-0.345,2.449,0.074,4.852,1.155,7.223c0.07,0.153,0.181,0.27,0.314,0.365
				c-0.069,1.794-0.014,3.8,1.617,5.311c2.297,2.128,6.538,1.745,9.976,0.864c3.828-0.98,7.626-1.92,11.583-2.716
				c1.636-0.329,3.451-0.879,5.198-0.937c0.33-0.011,1.005-0.031,1.188,0.186c0.113,0.135-0.929,0.612-1.222,0.757
				c-2.761,1.363-5.969,2.39-9.139,3.389c-3.215,1.014-6.473,2.001-9.447,3.245c-2.082,0.871-6.91,2.833-4.219,4.559
				c0.703,0.451,1.764,0.647,2.729,0.825c0.493,0.091,0.993,0.175,1.47,0.293c0.463,0.114,0.613,0.15,0.863,0.325
				c0.005,0.008,0.037,0.045,0.022,0.073c-0.087,0.038-0.366,0.181-0.43,0.216c-0.716,0.396-1.511,0.74-2.275,1.103
				c-1.503,0.716-2.927,1.572-3.582,2.661c-0.643,1.068-0.465,2.142,0.679,3.066c0.988,0.799,2.424,1.416,3.749,2.014
				c2.69,1.214,5.54,2.304,8.316,3.449c2.725,1.124,5.406,2.309,7.705,3.727c1.113,0.687,2.138,1.426,2.982,2.233
				c0.407,0.389,0.843,0.81,0.997,1.261c0.041,0.119,0.02,0.228,0.013,0.336c-0.179,0.02-0.38,0.04-0.296,0.036
				c-1.591,0.088-3.418-0.407-4.902-0.668c-2.15-0.378-4.318-0.721-6.479-1.079c-1.897-0.314-4.164-0.938-6.154-0.604
				c-1.844,0.309-2.982,1.256-3.456,2.293c-0.5,1.092-0.529,2.269-0.713,3.389c-0.211,1.28-0.435,2.559-0.639,3.84
				c-0.402,2.523-0.709,5.052-0.81,7.586c-0.096,2.423-0.22,4.93,0.619,7.316c0.386,1.099,0.931,2.26,1.969,3.217
				c0.934,0.861,2.229,1.404,3.854,1.704C328.57,383.67,328.525,383.625,328.484,383.578z"/>
			<path style="fill:#F6BF7D;" d="M271.129,329.92c0.054-0.105,0.049-0.214-0.06-0.304c-0.418-0.348-0.622-0.745-1.148-1.061
				c-0.521-0.314-1.299-0.587-2.004-0.735c-1.721-0.362-3.517-0.429-5.333-0.385c-0.912,0.022-1.82,0.077-2.727,0.136
				c-0.814,0.053-1.626,0.15-2.326,0.413c-0.949,0.355-1.655,0.981-1.597,1.653c0.047,0.553,0.59,1.052,1.223,1.45
				c1.087,0.684,2.631,1.097,4.132,1.373c1.692,0.311,3.43,0.504,5.207,0.522c0.919,0.009,1.865,0.006,2.777-0.072
				c1.416-0.122,2.693-0.734,2.836-1.595C272.197,330.789,271.758,330.322,271.129,329.92z"/>
			<path style="fill:#F6BF7D;" d="M266.373,337.938c-0.413-0.411-1.023-0.745-1.77-0.947c-0.362-0.098-0.767-0.166-1.164-0.194
				c-0.265-0.019-0.537-0.015-0.802-0.008c-0.282,0.007-0.555,0.058-0.825,0.102c-0.278,0.064-0.523,0.157-0.734,0.28
				c-0.213,0.122-0.376,0.263-0.489,0.424c-0.172,0.257-0.194,0.594,0.175,0.801c0.396,0.223,0.883,0.416,1.403,0.526
				c0.302,0.064,0.618,0.117,0.936,0.147c0.329,0.031,0.722,0.009,1.055-0.026c0.038-0.004,0.072-0.016,0.11-0.021
				c0.197,0.086,0.529,0.115,0.733,0.094c0.299-0.03,0.559-0.104,0.794-0.215c0.235-0.11,0.46-0.258,0.561-0.427
				C266.452,338.311,266.532,338.096,266.373,337.938z"/>
			<path style="fill:#F6BF7D;" d="M260.868,345.149c-1.241-0.128-2.631-0.066-3.878-0.006c-3.05,0.147-5.952,0.695-8.663,1.505
				c-1.245,0.372-1.92,1.854-0.064,2.01c0.074,0.006,0.148,0.009,0.222,0.015c0.107,0.029,0.214,0.058,0.337,0.078
				c1.186,0.192,2.557,0.154,3.775,0.119c2.568-0.074,5.135-0.499,7.421-1.18c0.746-0.223,1.362-0.56,1.753-0.992
				C262.28,346.135,262.15,345.281,260.868,345.149z"/>
			<path style="fill:#F6BF7D;" d="M262.218,363.328c-0.064-0.21-0.237-0.389-0.58-0.486c-0.759-0.215-1.603-0.099-2.3,0.136
				c-0.374,0.126-0.73,0.319-0.976,0.527c-0.092,0.008-0.185,0.014-0.278,0.022c-0.436,0.006-0.818,0.121-1.101,0.32
				c-0.137,0.096-0.234,0.197-0.29,0.318c-0.051,0.11-0.094,0.282,0.023,0.384c0.116,0.101,0.19,0.171,0.356,0.239
				c0.095,0.039,0.188,0.074,0.293,0.103c0.204,0.056,0.428,0.091,0.645,0.122c0.375,0.053,0.791,0.055,1.168,0.014
				c0.527-0.057,0.997-0.164,1.457-0.324c0.511-0.178,0.907-0.43,1.265-0.703C262.112,363.839,262.28,363.534,262.218,363.328z"/>
			<path style="fill:#F6BF7D;" d="M279.727,361.164c-0.126-0.268-0.517-0.512-1.031-0.522c-0.55-0.01-1.003,0.022-1.528,0.125
				c-0.248,0.048-0.479,0.12-0.699,0.202c-1.542,0.151-2.98,0.604-4.095,1.251c-0.572,0.331-0.893,0.973-0.03,1.25
				c0.033,0.011,0.066,0.02,0.099,0.03c0.048,0.026,0.105,0.052,0.219,0.086c0.133,0.04,0.278,0.057,0.423,0.079
				c0.115,0.018,0.23,0.033,0.346,0.044c0.341,0.034,0.68,0.032,1.026,0.028c0.369-0.004,0.732-0.041,1.09-0.091
				c0.129,0.008,0.256,0.009,0.376-0.003c0.451-0.045,0.866-0.169,1.207-0.342c0.915-0.294,1.712-0.727,2.278-1.228
				C279.715,361.802,279.876,361.482,279.727,361.164z"/>
			<path style="fill:#F6BF7D;" d="M286.801,368.846c-2.337-0.526-4.96,0.368-6.813,1.133c-0.149,0.062-0.286,0.132-0.433,0.195
				c-1.611,0.409-3.119,0.968-4.463,1.657c-0.967,0.496-1.998,1.068-2.097,1.861c-0.087,0.697,0.726,1.202,1.814,1.41
				c2.117,0.405,4.678,0.166,6.746-0.23c2.291-0.439,4.588-1.261,6.016-2.41C288.918,371.379,289.467,369.447,286.801,368.846z"/>
			<path style="fill:#F6BF7D;" d="M296.592,373.867c-0.029-0.103-0.11-0.193-0.245-0.267c-0.095-0.039-0.191-0.078-0.286-0.117
				c-0.114-0.019-0.228-0.038-0.342-0.057c-0.197-0.017-0.388-0.006-0.572,0.032c-0.21,0.023-0.404,0.071-0.581,0.145
				c-0.101,0.044-0.202,0.088-0.303,0.133c-0.272,0.104-0.5,0.235-0.681,0.392c-0.166,0.143-0.273,0.299-0.322,0.469
				c-0.003,0.076-0.006,0.152-0.008,0.228c0.027,0.148,0.128,0.275,0.304,0.383c0.132,0.083,0.291,0.133,0.476,0.152
				c0.183,0.041,0.373,0.05,0.57,0.027c0.293-0.026,0.563-0.087,0.81-0.182c0.272-0.104,0.5-0.235,0.682-0.392l0.228-0.176
				l0.202-0.223c0.085-0.108,0.121-0.22,0.11-0.336C296.655,374.004,296.641,373.934,296.592,373.867z"/>
			<path style="fill:#F6BF7D;" d="M354.575,316.645c-0.215-0.122-0.473-0.193-0.771-0.214c-1.232-0.184-2.592-0.196-3.838-0.051
				c-0.38,0.044-0.778,0.088-1.131,0.18c-0.814,0.212-1.511,0.573-1.86,1.059c-0.112,0.157-0.168,0.326-0.178,0.495
				c-0.345,0.147-0.615,0.371-0.721,0.596c-0.115,0.244-0.038,0.616,0.453,0.716c2.697,0.549,5.696-0.127,7.654-1.254
				c0.474-0.273,0.838-0.678,0.75-1.077C354.902,316.922,354.783,316.771,354.575,316.645z"/>
			<path style="fill:#F6BF7D;" d="M364.058,330.262c-1.293-0.599-2.605-0.876-4.263-0.925c-1.631-0.047-3.257,0.052-4.868,0.196
				c-1.569,0.14-3.186,0.273-4.6,0.718c-1.391,0.438-3.506,1.742-1.969,2.663c0.513,0.307,1.273,0.439,1.956,0.56
				c0.842,0.15,1.696,0.27,2.57,0.336c1.611,0.12,3.29,0.092,4.884-0.091c1.628-0.187,3.796-0.499,4.998-1.209
				c0.717-0.424,1.25-1.117,0.842-1.708C363.983,330.742,364.404,330.423,364.058,330.262z"/>
			<path style="fill:#F6BF7D;" d="M363.039,341.609c-0.769-0.233-1.706-0.286-2.549-0.175c-0.273,0.036-0.521,0.087-0.753,0.159
				c-0.669-0.108-1.36-0.135-2.062-0.119c-0.251,0.006-0.559,0.094-0.766,0.172c-0.317,0.119-0.569,0.288-0.744,0.481
				c-0.254,0.28-0.34,0.661,0.075,0.911c0.689,0.414,1.795,0.609,2.753,0.684c1.061,0.083,2.133-0.001,3.141-0.202
				c0.714-0.143,1.311-0.549,1.504-0.962C363.811,342.191,363.658,341.796,363.039,341.609z"/>
			<path style="fill:#F6BF7D;" d="M384.419,350.171c-1.581-1.123-3.815-1.825-6.222-2.151c-0.326-0.044-0.656-0.077-0.989-0.102
				c-0.532-0.145-1.109-0.254-1.663-0.325c-1.937-0.248-4.07,0.07-4.958,1.192c-0.354,0.447-0.338,0.875-0.096,1.263
				c0.036,0.223,0.245,0.41,0.53,0.563c0.402,0.313,0.938,0.584,1.502,0.798c1.367,0.518,2.963,0.845,4.566,1.005
				c1.994,0.199,3.995,0.084,5.93-0.234C384.361,351.961,385.375,350.849,384.419,350.171z"/>
			<path style="fill:#F6BF7D;" d="M365.331,356.497c-0.198-0.128-0.491-0.232-0.726-0.324c-0.154-0.06-0.317-0.112-0.488-0.152
				c-0.631-0.151-1.219-0.188-1.893-0.168c-0.159,0.024-0.318,0.048-0.476,0.072c-0.157,0.047-0.313,0.093-0.469,0.14
				c-0.391,0.147-0.703,0.356-0.919,0.594c-0.158,0.175-0.25,0.347-0.257,0.546c-0.008,0.209,0.08,0.427,0.35,0.58
				c0.215,0.122,0.441,0.235,0.668,0.349c0.109,0.055,0.217,0.112,0.329,0.165c0.237,0.113,0.454,0.179,0.721,0.248
				c0.345,0.09,0.719,0.084,1.077,0.029c0.056-0.008,0.108-0.027,0.164-0.038c0.077,0.083,0.144,0.169,0.19,0.261
				c-0.002-0.003-0.003-0.006-0.004-0.009c0.08,0.142,0.215,0.272,0.471,0.333c0.271,0.065,0.547,0.065,0.828,0.022
				c0.315-0.048,0.626-0.145,0.853-0.284c0.262-0.161,0.51-0.368,0.546-0.596C366.393,357.628,366.077,356.978,365.331,356.497z"/>
			<path style="fill:#F6BF7D;" d="M361.241,368.074c0.533-0.133,0.98-0.479,0.661-0.751c-0.698-0.596-1.444-1.185-2.386-1.656
				c-0.969-0.486-2.037-0.879-3.193-1.196c-2.281-0.625-4.794-0.939-7.312-0.917c-1.607,0.014-3.096,0.359-3.973,1.181
				c-0.927,0.869-0.478,1.814,0.488,2.583c1.4,1.115,3.535,1.975,5.738,2.464c2.592,0.575,5.469,0.733,8.178,0.357
				c1.359-0.188,3.07-1.223,1.86-2.028C361.282,368.098,361.26,368.087,361.241,368.074z"/>
			<path style="fill:#F6BF7D;" d="M339.589,371.006c-0.066-0.056-0.133-0.113-0.199-0.169c-0.096-0.039-0.192-0.079-0.288-0.118
				l-0.344-0.057c-0.198-0.017-0.39-0.006-0.576,0.032c-0.141,0.013-0.272,0.042-0.391,0.088c-0.142,0.033-0.267,0.08-0.375,0.143
				c-0.132,0.05-0.241,0.113-0.329,0.189c-0.155,0.095-0.272,0.204-0.351,0.329c-0.105,0.151-0.143,0.301-0.116,0.463
				c0.001,0.007,0.002,0.013,0.003,0.02c0.002,0.013,0.004,0.026,0.007,0.038c0.004,0.026,0.009,0.052,0.013,0.078
				c0.011,0.108,0.074,0.201,0.191,0.281c0.084,0.091,0.211,0.158,0.382,0.199c0.113,0.019,0.226,0.037,0.339,0.056
				c0.195,0.016,0.384,0.006,0.567-0.032c0.139-0.012,0.268-0.041,0.385-0.086c0.208-0.052,0.39-0.127,0.548-0.225l0.292-0.206
				c0.158-0.136,0.26-0.284,0.306-0.446c0.005-0.027,0.009-0.055,0.014-0.082C339.693,371.336,339.729,371.162,339.589,371.006z"/>
			<path style="fill:#F6BF7D;" d="M344.324,344.098c-0.028-0.104-0.11-0.193-0.245-0.268c-0.053-0.032-0.109-0.063-0.16-0.097
				c-0.051-0.047-0.102-0.094-0.17-0.133c-0.226-0.129-0.421-0.151-0.718-0.193c-0.121-0.017-0.242-0.034-0.363-0.052
				c-0.122,0.001-0.245,0.001-0.367,0.002c-0.127,0.019-0.254,0.039-0.381,0.058c-0.125,0.037-0.25,0.075-0.376,0.112
				c-0.106,0.038-0.201,0.082-0.288,0.13c-0.028,0.004-0.056,0.008-0.084,0.013c-0.162,0.034-0.306,0.084-0.431,0.152
				c-0.216,0.101-0.422,0.237-0.515,0.392c-0.065,0.109-0.103,0.224-0.087,0.34c0.008,0.083,0.057,0.155,0.147,0.216
				c0.044,0.048,0.109,0.083,0.184,0.113c0.027,0.014,0.054,0.027,0.081,0.041c0.093,0.102,0.225,0.182,0.407,0.232
				c0.401,0.127,0.842,0.206,1.287,0.264c0.126-0.001,0.251-0.001,0.377-0.002c0.211-0.014,0.406-0.053,0.585-0.117
				c0.141-0.033,0.265-0.08,0.373-0.142c0.191-0.078,0.349-0.176,0.474-0.292c0.146-0.139,0.258-0.289,0.309-0.45
				C344.403,344.307,344.39,344.2,344.324,344.098z"/>
			<path style="fill:#F6BF7D;" d="M335.033,320.172c-0.021-0.075-0.08-0.14-0.178-0.195c-0.069-0.028-0.139-0.057-0.208-0.085
				c-0.167-0.043-0.342-0.056-0.523-0.04l-0.285,0.043c-0.205,0.047-0.386,0.116-0.542,0.207c-0.098,0.051-0.197,0.102-0.295,0.154
				c-0.127,0.068-0.225,0.147-0.294,0.237c-0.083,0.077-0.134,0.161-0.154,0.252c-0.03,0.082-0.02,0.161,0.029,0.237
				c0.021,0.077,0.082,0.143,0.182,0.199l0.213,0.087c0.171,0.044,0.35,0.057,0.535,0.04c0.097-0.015,0.194-0.029,0.291-0.044
				c0.21-0.048,0.395-0.119,0.555-0.212c0.088-0.057,0.176-0.115,0.264-0.172c0.124-0.066,0.22-0.144,0.288-0.232
				c0.081-0.075,0.131-0.157,0.151-0.246C335.09,320.324,335.081,320.246,335.033,320.172z"/>
		</g>
	</g>
</g>
</svg>
